<?xml version="1.0" encoding="utf-8"?>
<!-- Generator: Adobe Illustrator 26.4.1, SVG Export Plug-In . SVG Version: 6.00 Build 0)  -->
<svg version="1.1" id="레이어_1" xmlns="http://www.w3.org/2000/svg" xmlns:xlink="http://www.w3.org/1999/xlink" x="0px"
	 y="0px" viewBox="0 0 480.59 345.83" style="enable-background:new 0 0 480.59 345.83;" xml:space="preserve">
<style type="text/css">
	.st0{fill-rule:evenodd;clip-rule:evenodd;fill:#CEBB86;}
	.st1{clip-path:url(#SVGID_00000065041161416746029950000015925123543332652161_);}
	.st2{clip-path:url(#SVGID_00000133500523797796114720000015648715561170614428_);}
	.st3{fill:#AE3525;}
	.st4{fill:#233C6E;}
	.st5{fill:none;stroke:#CEBB86;stroke-width:3.0403;stroke-miterlimit:10;}
	.st6{clip-path:url(#SVGID_00000179617936975936987680000014814057327103685053_);}
	.st7{clip-path:url(#SVGID_00000008840251156800045510000018342364981286121913_);}
	.st8{fill:#3B1E17;}
	.st9{fill:none;stroke:#3B1E17;stroke-width:0.4855;stroke-miterlimit:10;}
	.st10{fill:none;stroke:#3B1E17;stroke-width:0.5067;stroke-miterlimit:10;}
	.st11{opacity:0.7;}
	.st12{fill:none;stroke:#3B1E17;stroke-width:1.0134;stroke-miterlimit:10;}
	.st13{fill:none;stroke:#3B1E17;stroke-width:1.0134;stroke-linecap:round;stroke-linejoin:round;stroke-miterlimit:10;}
	.st14{fill:#3B1E17;stroke:#3B1E17;stroke-width:0.4054;stroke-miterlimit:10;}
</style>
<g>
	<g>
		<rect class="st0" width="480.59" height="345.83"/>
	</g>
	<g>
		<g>
			<g>
				<defs>
					<rect id="SVGID_1_" y="318.22" width="480.59" height="27.61"/>
				</defs>
				<clipPath id="SVGID_00000101063118117971303410000013196270604902829229_">
					<use xlink:href="#SVGID_1_"  style="overflow:visible;"/>
				</clipPath>
				<g style="clip-path:url(#SVGID_00000101063118117971303410000013196270604902829229_);">
					<g>
						<g>
							<defs>
								<path id="SVGID_00000119113216126290831120000005385048259723797691_" d="M-7.8-479.11v824.94h642.91v-824.94H-7.8z
									 M616.73,318.22H10.57v-781.06h606.16V318.22z"/>
							</defs>
							<clipPath id="SVGID_00000083062545467065740470000015337025450879390655_">
								<use xlink:href="#SVGID_00000119113216126290831120000005385048259723797691_"  style="overflow:visible;"/>
							</clipPath>
							<g style="clip-path:url(#SVGID_00000083062545467065740470000015337025450879390655_);">
								<polygon class="st3" points="173.32,-441.97 150.15,-462.82 195.01,-503.19 218.18,-482.34 								"/>
								<polygon class="st3" points="354.06,-441.97 330.9,-462.82 375.76,-503.19 398.92,-482.34 								"/>
								<polygon class="st3" points="534.07,-441.97 510.9,-462.82 555.76,-503.19 578.93,-482.34 								"/>
								<g>
									<polygon class="st4" points="83.31,-441.97 60.15,-462.82 105.01,-503.19 128.17,-482.34 									"/>
									<line class="st5" x1="71.39" y1="-452.7" x2="116.25" y2="-493.07"/>
								</g>
								<g>
									<polygon class="st4" points="264.06,-441.97 240.89,-462.82 285.75,-503.19 308.92,-482.34 									"/>
									<line class="st5" x1="252.81" y1="-452.7" x2="297.67" y2="-493.07"/>
								</g>
								<g>
									<polygon class="st4" points="444.06,-441.97 420.89,-462.82 465.75,-503.19 488.92,-482.34 									"/>
									<line class="st5" x1="432.82" y1="-452.7" x2="477.68" y2="-493.07"/>
								</g>
								<g>
									<polygon class="st4" points="593.39,-421.21 593.29,-462.82 638.15,-503.19 661.31,-482.34 									"/>
									<line class="st5" x1="594.62" y1="-443.16" x2="650.07" y2="-493.07"/>
								</g>
								<polygon class="st3" points="543.8,356.7 520.26,335.85 565.85,295.47 589.39,316.32 								"/>
								<line class="st5" x1="28.14" y1="345.96" x2="73.73" y2="305.59"/>
								<line class="st5" x1="212.53" y1="345.96" x2="258.12" y2="305.59"/>
								<line class="st5" x1="395.47" y1="345.96" x2="441.06" y2="305.59"/>
								<g>
									<polygon class="st4" points="626.98,356.7 603.43,335.85 649.03,295.47 672.57,316.32 									"/>
									<line class="st5" x1="615.55" y1="345.96" x2="661.14" y2="305.59"/>
								</g>
								<g>
									<polygon class="st3" points="36.65,-321.58 13.1,-342.16 -32.49,-302.31 -8.95,-281.73 									"/>
									<polygon class="st3" points="36.65,-161.02 13.1,-181.6 -32.49,-141.75 -8.95,-121.17 									"/>
									<polygon class="st3" points="36.65,-1.13 13.1,-21.7 -32.49,18.15 -8.95,38.72 									"/>
									<g>
										<polygon class="st4" points="36.65,-401.53 13.1,-422.11 -32.49,-382.26 -8.95,-361.68 										"/>
										<line class="st5" x1="24.53" y1="-372.18" x2="-21.06" y2="-332.33"/>
									</g>
									<g>
										<polygon class="st4" points="36.65,-240.98 13.1,-261.56 -32.49,-221.71 -8.95,-201.13 										"/>
										<line class="st5" x1="24.53" y1="-211.02" x2="-21.06" y2="-171.17"/>
									</g>
									<g>
										<polygon class="st4" points="36.65,-81.08 13.1,-101.66 -32.49,-61.81 -8.95,-41.23 										"/>
										<line class="st5" x1="24.53" y1="-51.12" x2="-21.06" y2="-11.27"/>
									</g>
									<polygon class="st3" points="36.65,159.5 13.1,138.92 -32.49,178.77 -8.95,199.35 									"/>
									<g>
										<polygon class="st4" points="36.65,79.54 13.1,58.96 -32.49,98.81 -8.95,119.39 										"/>
										<line class="st5" x1="24.53" y1="109.5" x2="-21.06" y2="149.35"/>
									</g>
									<g>
										<polygon class="st4" points="36.65,239.44 13.1,218.86 -32.49,258.71 -8.95,279.29 										"/>
										<line class="st5" x1="24.53" y1="269.4" x2="-21.06" y2="309.24"/>
									</g>
									<g>
										<polygon class="st4" points="36.65,239.8 13.1,219.22 -32.49,259.07 -8.95,279.65 										"/>
										<line class="st5" x1="24.53" y1="269.76" x2="-21.06" y2="309.61"/>
									</g>
									<polygon class="st3" points="-9.34,-441.97 -32.51,-462.82 12.36,-503.19 35.52,-482.34 									"/>
								</g>
								<g>
									<polygon class="st3" points="661.31,-241.07 637.77,-261.65 592.18,-221.8 615.72,-201.22 									"/>
									<polygon class="st3" points="661.31,-80.52 637.77,-101.1 592.18,-61.25 615.72,-40.67 									"/>
									<polygon class="st3" points="661.31,79.38 637.77,58.8 592.18,98.65 615.72,119.23 									"/>
									<g>
										<polygon class="st4" points="661.31,-321.03 637.77,-341.61 592.18,-301.76 615.72,-281.18 										"/>
										<line class="st5" x1="649.2" y1="-331.62" x2="603.6" y2="-291.77"/>
									</g>
									<g>
										<polygon class="st4" points="661.31,-160.47 637.77,-181.05 592.18,-141.2 615.72,-120.62 										"/>
										<line class="st5" x1="649.2" y1="-170.46" x2="603.6" y2="-130.61"/>
									</g>
									<polygon class="st3" points="661.31,-401.53 637.77,-422.11 592.18,-382.26 615.72,-361.68 									"/>
									<g>
										<polygon class="st4" points="661.31,-0.57 637.77,-21.15 592.18,18.7 615.72,39.28 										"/>
										<line class="st5" x1="649.2" y1="-10.56" x2="603.6" y2="29.29"/>
									</g>
									<polygon class="st3" points="661.31,240 637.77,219.42 592.18,259.27 615.72,279.85 									"/>
									<g>
										<polygon class="st4" points="661.31,160.05 637.77,139.47 592.18,179.32 615.72,199.9 										"/>
										<line class="st5" x1="649.2" y1="150.06" x2="603.6" y2="189.91"/>
									</g>
								</g>
							</g>
						</g>
					</g>
				</g>
			</g>
			<g>
				<defs>
					<rect id="SVGID_00000118372794472077583620000016413579792220161674_" width="480.59" height="27.61"/>
				</defs>
				<clipPath id="SVGID_00000097467566041443585200000008071014173854498487_">
					<use xlink:href="#SVGID_00000118372794472077583620000016413579792220161674_"  style="overflow:visible;"/>
				</clipPath>
				<g style="clip-path:url(#SVGID_00000097467566041443585200000008071014173854498487_);">
					<g>
						<g>
							<defs>
								<path id="SVGID_00000072985034929692818240000000120759922229275017_" d="M-7.8-785.99v813.6h642.91v-813.6H-7.8z M616.73,0
									H10.57v-769.72h606.16V0z"/>
							</defs>
							<clipPath id="SVGID_00000140728810910446972720000008588863976987163311_">
								<use xlink:href="#SVGID_00000072985034929692818240000000120759922229275017_"  style="overflow:visible;"/>
							</clipPath>
							<g style="clip-path:url(#SVGID_00000140728810910446972720000008588863976987163311_);">
								<polygon class="st3" points="173.32,-748.84 150.15,-769.69 195.01,-810.07 218.18,-789.22 								"/>
								<polygon class="st3" points="354.06,-748.84 330.9,-769.69 375.76,-810.07 398.92,-789.22 								"/>
								<polygon class="st3" points="534.07,-748.84 510.9,-769.69 555.76,-810.07 578.93,-789.22 								"/>
								<g>
									<polygon class="st4" points="83.31,-748.84 60.15,-769.69 105.01,-810.07 128.17,-789.22 									"/>
									<line class="st5" x1="71.39" y1="-759.57" x2="116.25" y2="-799.95"/>
								</g>
								<g>
									<polygon class="st4" points="264.06,-748.84 240.89,-769.69 285.75,-810.07 308.92,-789.22 									"/>
									<line class="st5" x1="252.81" y1="-759.57" x2="297.67" y2="-799.95"/>
								</g>
								<g>
									<polygon class="st4" points="444.06,-748.84 420.89,-769.69 465.75,-810.07 488.92,-789.22 									"/>
									<line class="st5" x1="432.82" y1="-759.57" x2="477.68" y2="-799.95"/>
								</g>
								<g>
									<polygon class="st4" points="593.39,-728.09 593.29,-769.69 638.15,-810.07 661.31,-789.22 									"/>
									<line class="st5" x1="594.62" y1="-750.04" x2="650.07" y2="-799.95"/>
								</g>
								<polygon class="st3" points="543.8,49.82 520.26,28.97 565.85,-11.41 589.39,9.44 								"/>
								<g>
									<line class="st5" x1="27.89" y1="39.09" x2="73.48" y2="-1.29"/>
									<line class="st5" x1="212.28" y1="39.09" x2="257.87" y2="-1.29"/>
									<line class="st5" x1="395.22" y1="39.09" x2="440.81" y2="-1.29"/>
								</g>
								<g>
									<polygon class="st4" points="626.98,49.82 603.43,28.97 649.03,-11.41 672.57,9.44 									"/>
									<line class="st5" x1="615.55" y1="39.09" x2="661.14" y2="-1.29"/>
								</g>
								<g>
									<polygon class="st3" points="36.65,-628.46 13.1,-649.04 -32.49,-609.19 -8.95,-588.61 									"/>
									<polygon class="st3" points="36.65,-467.9 13.1,-488.48 -32.49,-448.63 -8.95,-428.05 									"/>
									<polygon class="st3" points="36.65,-308 13.1,-328.58 -32.49,-288.73 -8.95,-268.15 									"/>
									<g>
										<polygon class="st4" points="36.65,-708.41 13.1,-728.99 -32.49,-689.14 -8.95,-668.56 										"/>
										<line class="st5" x1="24.53" y1="-679.06" x2="-21.06" y2="-639.21"/>
									</g>
									<g>
										<polygon class="st4" points="36.65,-547.85 13.1,-568.43 -32.49,-528.58 -8.95,-508 										"/>
										<line class="st5" x1="24.53" y1="-517.9" x2="-21.06" y2="-478.05"/>
									</g>
									<g>
										<polygon class="st4" points="36.65,-387.96 13.1,-408.54 -32.49,-368.69 -8.95,-348.11 										"/>
										<line class="st5" x1="24.53" y1="-358" x2="-21.06" y2="-318.15"/>
									</g>
									<polygon class="st3" points="36.65,-147.38 13.1,-167.96 -32.49,-128.11 -8.95,-107.53 									"/>
									<g>
										<polygon class="st4" points="36.65,-227.34 13.1,-247.91 -32.49,-208.06 -8.95,-187.49 										"/>
										<line class="st5" x1="24.53" y1="-197.38" x2="-21.06" y2="-157.53"/>
									</g>
									<g>
										<polygon class="st4" points="36.65,-67.44 13.1,-88.02 -32.49,-48.17 -8.95,-27.59 										"/>
										<line class="st5" x1="24.53" y1="-37.48" x2="-21.06" y2="2.37"/>
									</g>
									<g>
										<polygon class="st4" points="36.65,-67.08 13.1,-87.65 -32.49,-47.8 -8.95,-27.23 										"/>
										<line class="st5" x1="24.53" y1="-37.12" x2="-21.06" y2="2.73"/>
									</g>
									<polygon class="st3" points="-9.34,-748.84 -32.51,-769.69 12.36,-810.07 35.52,-789.22 									"/>
								</g>
								<g>
									<polygon class="st3" points="661.31,-547.95 637.77,-568.53 592.18,-528.68 615.72,-508.1 									"/>
									<polygon class="st3" points="661.31,-387.4 637.77,-407.97 592.18,-368.12 615.72,-347.55 									"/>
									<polygon class="st3" points="661.31,-227.5 637.77,-248.08 592.18,-208.23 615.72,-187.65 									"/>
									<g>
										<polygon class="st4" points="661.31,-627.91 637.77,-648.48 592.18,-608.63 615.72,-588.06 										"/>
										<line class="st5" x1="649.2" y1="-638.5" x2="603.6" y2="-598.65"/>
									</g>
									<g>
										<polygon class="st4" points="661.31,-467.35 637.77,-487.93 592.18,-448.08 615.72,-427.5 										"/>
										<line class="st5" x1="649.2" y1="-477.34" x2="603.6" y2="-437.49"/>
									</g>
									<polygon class="st3" points="661.31,-708.41 637.77,-728.99 592.18,-689.14 615.72,-668.56 									"/>
									<g>
										<polygon class="st4" points="661.31,-307.45 637.77,-328.03 592.18,-288.18 615.72,-267.6 										"/>
										<line class="st5" x1="649.2" y1="-317.44" x2="603.6" y2="-277.59"/>
									</g>
									<polygon class="st3" points="661.31,-66.88 637.77,-87.46 592.18,-47.61 615.72,-27.03 									"/>
									<g>
										<polygon class="st4" points="661.31,-146.83 637.77,-167.41 592.18,-127.56 615.72,-106.98 										"/>
										<line class="st5" x1="649.2" y1="-156.82" x2="603.6" y2="-116.97"/>
									</g>
								</g>
							</g>
						</g>
					</g>
				</g>
			</g>
		</g>
		<g>
			<g>
				<g>
					<path class="st8" d="M51.26,57.71c0.9,0.55,1.29,2.48,1.17,5.78v12.29c0.01,1.29-0.85,2.67-2.59,4.14l4.35-0.02l-2.06,3.96
						l-5.44,0.02l2.3-4.02l-0.02-12.73c0.21-2.72-0.11-4.01-0.95-3.88l-1.88,2.16L45.6,64.8L51.26,57.71z M50.69,63.12
						c-1.6,0.69-2.4,2.2-2.4,4.53V78.3c0.03,2.4-0.87,3.6-2.69,3.6c1.28-0.21,1.89-1.43,1.84-3.66l-0.02-10.69
						C47.5,65.1,48.59,63.62,50.69,63.12z M58.19,57.71c0.9,0.55,1.29,2.75,1.17,6.57l5.36-6.21c1.4,1.41,2.08,3.95,2.06,7.62
						l-0.04,9.11c0.29,4.46-1.52,8.15-5.42,11.06c1.65-0.28,3.08,0.17,4.29,1.33s2.22,1.69,3.01,1.58l1.56-1.9l0.67,0.47l-3.8,5.05
						c-1.08-0.22-2.3-0.87-3.64-1.94c-1.35-1.07-2.92-1.37-4.71-0.91c3.22-5.11,4.7-10.1,4.45-14.98v-7.25
						c0.16-3.43-0.2-5.05-1.07-4.85l-2.73,3.27v4v6.08c-0.15,1.75-0.99,3.12-2.53,4.1h4.73l-2.2,3.96l-5.54,0.02l2.1-3.82
						L55.9,67.13c0.21-2.85-0.11-4.28-0.95-4.28l-2.28,2.75l0.06-1.41L58.19,57.71z"/>
					<path class="st8" d="M75.67,65.47c1.62,1.37,2.32,2.76,2.1,4.16l-4.85,4.91c1.69,1.12,3.85,0.61,6.49-1.52h0.36
						c-2.88,2.6-5.39,3.44-7.54,2.53l-0.28,0.4l-0.42-0.77l2.75-2.91c0.22-1.25-0.21-2.24-1.31-2.97c-1.12,0.11-1.79,0.89-2.02,2.36
						s0.14,3.12,1.1,4.98s1.99,3.2,3.1,4.03l2.73-3.38l0.55,0.42l-5.23,6.51c-1.2-0.87-2.12-1.76-2.74-2.66
						c-0.63-0.9-1.14-1.78-1.53-2.62s-0.62-1.72-0.68-2.62c-0.06-0.9,0.04-1.94,0.31-3.1c0.26-1.16,0.83-2.17,1.7-3.04
						S72.94,67.73,75.67,65.47z"/>
					<path class="st8" d="M82.72,65.61c0.55,0.19,0.83,1.58,0.83,4.18l3.56-4.28c0.54,2.2,1.4,3.38,2.57,3.54
						c1.85-1.27,2.48-3.31,1.9-6.14c1.15,2.44,0.75,4.61-1.19,6.51l-3.64,4.49l-0.49-0.46l1.03-1.29c-1.17-0.41-2.03-1.33-2.55-2.75
						l-1.19,1.58v2.83v2.49c0,2.03,0.46,3.46,1.37,4.28l1.27-1.6l0.46,0.48l-3.68,4.57c-1.94-1.58-2.88-3.52-2.83-5.8l-0.04-8.31
						l-1.64,1.9l-0.55-0.55L82.72,65.61z"/>
					<path class="st8" d="M94.26,65.61c0.55,0.19,0.83,1.58,0.83,4.18l3.56-4.28c0.54,2.2,1.4,3.38,2.57,3.54
						c1.85-1.27,2.48-3.31,1.9-6.14c1.15,2.44,0.75,4.61-1.19,6.51l-3.64,4.49l-0.49-0.46l1.03-1.29c-1.17-0.41-2.03-1.33-2.55-2.75
						l-1.19,1.58v2.83v2.49c0,2.03,0.46,3.46,1.37,4.28l1.27-1.6l0.46,0.48l-3.68,4.57c-1.94-1.58-2.88-3.52-2.83-5.8l-0.04-8.31
						l-1.64,1.9l-0.55-0.55L94.26,65.61z"/>
					<path class="st8" d="M108.05,89.01c1.65-2.38,2.4-5.48,2.26-9.32l-3.66,4.28c-2.06-0.9-3.16-2.3-3.31-4.22V70.7l-2.2,2.24
						l-0.36-0.5l7.15-8.33l0.4,0.4l-1.54,2.06v9.7c-0.01,2.69,0.63,4.07,1.94,4.14l1.58-1.94l-0.02-8.02l-2.1,2.34l-0.44-0.46
						l7.01-8.23l0.44,0.42l-1.58,1.92v16.09c-0.4,2.55-2.08,4.9-5.07,7.05l-2.69,2.42c-1.7-2.06-3.4-3.09-5.09-3.11l2.4-3.33
						C105.51,86.11,107.14,87.26,108.05,89.01z M111.02,55.61c-1.6,0.69-2.4,2.2-2.4,4.53V70.8c0.03,2.4-0.87,3.6-2.69,3.6
						c1.28-0.21,1.89-1.43,1.84-3.66l-0.02-10.69C107.83,57.59,108.92,56.12,111.02,55.61z M111.36,50.63
						c0.63,0.54,1.17,1.44,1.6,2.71l-2.18,2c-0.18-0.91-0.69-1.75-1.5-2.53L111.36,50.63z M113.24,53.67
						c0.63,0.54,1.17,1.45,1.6,2.71l-2.18,2c-0.19-0.91-0.69-1.75-1.5-2.53L113.24,53.67z M114.62,49.7
						c0.63,0.54,1.17,1.45,1.6,2.71l-2.18,2c-0.19-0.91-0.69-1.75-1.5-2.53L114.62,49.7z"/>
					<path class="st8" d="M132.99,58.13l-2.79,3.92c-1.69,1.94-1.83,3.69-0.44,5.25l-0.14,0.24c-1.64-1.65-1.79-3.5-0.46-5.56h-3.96
						c-0.82,0.79-1.3,2.52-1.43,5.2c-0.14,2.67,0.56,5.28,2.09,7.82c1.53,2.54,3.11,3.91,4.75,4.11l1.6-2.45l0.55,0.42l-4.43,6.89
						c-3.3-2.82-5.36-5.17-6.18-7.04s-1.17-3.75-1.06-5.66c0.11-1.91,0.38-3.44,0.81-4.6c0.43-1.16,1.11-2.59,2.04-4.29
						c0.93-1.7,1.96-3.1,3.1-4.21L132.99,58.13z"/>
					<path class="st8" d="M137.92,53.87l0.61,0.46l-2.18,2.65v12.81l3.98-4.28c2.07,1.24,3.21,2.56,3.41,3.96
						c0.2,1.4,0.21,4.36,0.01,8.89c-0.11,1.39,0.18,2.16,0.87,2.32l1.48-1.56l0.4,0.49l-4.1,4.55c-1.82-1.41-2.56-3.34-2.22-5.8
						l0.02-5.23c0.08-1.95-0.63-3.28-2.14-3.98l-1.72,1.86v2.83v2.49c0,2.03,0.49,3.47,1.46,4.31l1.33-1.44l0.4,0.51l-3.8,4.33
						c-2.04-1.58-3.04-3.52-2.99-5.8l-0.04-16.82l-1.72,1.9l-0.59-0.55L137.92,53.87z M141.5,47.38c-1.6,0.69-2.4,2.2-2.4,4.53
						v10.65c0.03,2.4-0.87,3.6-2.69,3.6c1.28-0.21,1.89-1.43,1.84-3.66l-0.02-10.69C138.32,49.36,139.41,47.88,141.5,47.38z"/>
					<path class="st8" d="M150,65.61c0.55,0.19,0.83,1.58,0.83,4.18l3.56-4.28c0.54,2.2,1.4,3.38,2.57,3.54
						c1.85-1.27,2.48-3.31,1.9-6.14c1.15,2.44,0.75,4.61-1.19,6.51l-3.64,4.49l-0.49-0.46l1.03-1.29c-1.17-0.41-2.03-1.33-2.55-2.75
						l-1.19,1.58v2.83v2.49c0,2.03,0.46,3.46,1.37,4.28l1.27-1.6l0.46,0.48l-3.68,4.57c-1.94-1.58-2.88-3.52-2.83-5.8l-0.04-8.31
						l-1.64,1.9l-0.55-0.55L150,65.61z"/>
					<path class="st8" d="M164.15,63.37l0.61,0.46l-1.78,2.26l-0.4,9.46c-0.04,2.03,0.51,3.67,1.66,4.91l1.13-1.25l0.4,0.51
						l-3.8,4.33c-2.01-1.31-3-3.5-2.99-6.59l0.36-7.13l-2.12,2.49l-0.59-0.55L164.15,63.37z M160.59,57.26
						c0.94,0.79,1.53,1.79,1.78,3.01l2.02-2.42l0.61,0.53l-6.95,8.16l-0.67-0.53l1.98-2.22c-0.01-1.07-0.62-2.18-1.82-3.33
						L160.59,57.26z"/>
					<path class="st8" d="M175.87,66.05c1.49-1.21,1.11-2.28-1.13-3.21l0.1,0.04c2.32,0.73,2.88,1.79,1.68,3.19l-2.22,3.56h-4.43
						c-0.01,0.44,0.66,1.04,2.03,1.82c1.37,0.78,2.45,1.6,3.27,2.47s1.29,1.6,1.42,2.18c0.14,0.58,0.01,1.2-0.4,1.86
						s-1.61,2.22-3.63,4.67l-0.71,0.85c-0.79,1.08-2.82-0.43-6.08-4.53l2.75-3.44l0.28,0.32l-0.5,0.71c2.8,3.35,4.55,4.52,5.26,3.5
						l0.3-0.53c0.33-0.74-0.51-1.85-2.51-3.33c-2.01-1.49-3.24-2.5-3.7-3.04c-0.46-0.54-0.6-1.09-0.41-1.64
						c0.19-0.55,0.76-1.33,1.72-2.34c0.96-1,1.85-2.04,2.68-3.11H175.87z"/>
					<path class="st8" d="M185.41,59.81l0.61,0.46l-2.18,2.77v3.09h4.81l-2.16,3.33c-0.76,2.11-0.46,3.97,0.93,5.58l-0.24,0.22
						c-1.66-1.61-2.22-3.54-1.66-5.78h-1.68v6.87c0,2.03,0.49,3.4,1.46,4.12l1.33-1.45l0.4,0.51l-3.8,4.53
						c-1.91-1.58-2.84-3.52-2.79-5.8l-0.02-8.65c-1.48,0.12-2.59,0.71-3.34,1.76l-0.51-0.49L185.41,59.81z"/>
					<path class="st8" d="M192.49,65.61c1.15,0.66,1.72,1.99,1.7,3.98l3.9-4.08c1.89,0.8,2.95,2.02,3.2,3.63
						c0.24,1.62,0.2,4.62-0.13,9.02c-0.11,1.64,0.15,2.57,0.75,2.79l1.46-1.25l0.36,0.49l-4.22,3.96c-1.45-1.16-2.09-3.12-1.92-5.88
						l0.12-5.07c0.11-2.69-0.52-4.07-1.88-4.14l-1.68,1.74l-0.1,3.03L194,76.34c-0.07,2.03,0.42,3.54,1.44,4.51l1.09-1.05l0.38,0.51
						l-3.74,3.74c-1.89-1.58-2.78-3.52-2.67-5.8l0.16-6.27c0.12-1.37-0.17-2.09-0.87-2.16l-1.74,1.82l-0.55-0.55L192.49,65.61z
						 M201.54,69.79l3.9-4.28c1.89,0.8,2.92,1.81,3.09,3.01c1.56-1.35,3.4-1.32,5.54,0.08c-2.55-1.04-4.33-0.73-5.36,0.93
						c0.2,1.36,0.14,4.24-0.18,8.63c-0.12,1.64,0.13,2.57,0.75,2.79l1.45-1.25l0.36,0.49l-4.22,3.96c-1.45-1.16-2.09-3.12-1.92-5.88
						l0.14-5.07c0.11-2.69-0.52-4.07-1.88-4.14l-1.54,1.8L201.54,69.79z"/>
					<path class="st8" d="M216.92,66.03l5.25,0.02l0.2,0.28c-1.03,0.41-1.6,1.43-1.72,3.07h-5.54c-0.8,0.09-1.35,0.85-1.62,2.29
						s-0.15,3.09,0.39,4.97c0.53,1.88,1.34,3.31,2.42,4.29l1.05-1.37v0.99l-2.79,3.38c-0.9-0.82-1.66-1.71-2.28-2.67
						c-0.62-0.96-1.03-1.82-1.24-2.58c-0.21-0.76-0.34-1.58-0.4-2.46c-0.06-0.88,0.04-1.79,0.29-2.72c0.25-0.93,0.85-1.92,1.8-2.97
						S215.07,67.98,216.92,66.03z M220.66,69.47l0.04,9.38c0.22,1.91,0.94,1.91,2.14,0l0.44,0.38l-3.74,4.71
						c-1.35-0.61-2.04-1.91-2.08-3.92V72.7L220.66,69.47z"/>
					<path class="st8" d="M233.19,66.05c1.49-1.21,1.11-2.28-1.13-3.21l0.1,0.04c2.32,0.73,2.88,1.79,1.68,3.19l-2.22,3.56h-4.43
						c-0.01,0.44,0.66,1.04,2.03,1.82c1.37,0.78,2.45,1.6,3.27,2.47s1.29,1.6,1.42,2.18c0.14,0.58,0.01,1.2-0.4,1.86
						s-1.61,2.22-3.63,4.67l-0.71,0.85c-0.79,1.08-2.82-0.43-6.08-4.53l2.75-3.44l0.28,0.32l-0.5,0.71c2.8,3.35,4.55,4.52,5.26,3.5
						l0.3-0.53c0.33-0.74-0.51-1.85-2.51-3.33c-2.01-1.49-3.24-2.5-3.7-3.04c-0.46-0.54-0.6-1.09-0.41-1.64
						c0.19-0.55,0.76-1.33,1.72-2.34c0.96-1,1.85-2.04,2.68-3.11H233.19z"/>
				</g>
			</g>
			<g>
				<g>
					<g>
						<g>
							<g>
								<path class="st3" d="M311.87,295.85l-55.05-1.14l0.33-0.32l0,2.91l-0.33-0.32L311.87,295.85z M311.87,295.85l-55.03,1.78
									c-0.18,0.01-0.32-0.13-0.33-0.31l0-0.01l0-2.91c0-0.18,0.14-0.32,0.32-0.32h0.01L311.87,295.85z"/>
								<path class="st3" d="M256.83,295.85c8.67-0.14,17.34-0.1,26.01-0.16c8.67,0.06,17.34,0.02,26.01,0.16
									c-8.67,0.14-17.34,0.1-26.01,0.16C274.17,295.96,265.5,295.99,256.83,295.85z"/>
							</g>
							<g>
								<path class="st3" d="M256.94,297.97L256.94,297.97c-0.64,0-1.15-0.52-1.15-1.15v-2.03c0-0.63,0.52-1.15,1.15-1.15l0,0
									c0.63,0,1.15,0.52,1.15,1.15v2.03C258.1,297.45,257.58,297.97,256.94,297.97z"/>
								<path class="st3" d="M256.03,295.85c0-0.7-0.57-1.27-1.27-1.27c-0.7,0-1.27,0.57-1.27,1.27s0.57,1.27,1.27,1.27
									C255.46,297.12,256.03,296.55,256.03,295.85z"/>
							</g>
						</g>
						<g>
							<path class="st3" d="M312.75,295.85c0-0.49-0.39-0.88-0.88-0.88c-0.49,0-0.88,0.39-0.88,0.88c0,0.49,0.39,0.88,0.88,0.88
								C312.35,296.73,312.75,296.34,312.75,295.85z"/>
							<path class="st3" d="M309.7,295.85c0-0.49-0.39-0.88-0.88-0.88c-0.49,0-0.88,0.39-0.88,0.88c0,0.49,0.39,0.88,0.88,0.88
								C309.3,296.73,309.7,296.34,309.7,295.85z"/>
							<path class="st3" d="M306.43,295.85c0-0.7-0.57-1.27-1.27-1.27c-0.7,0-1.27,0.57-1.27,1.27c0,0.7,0.57,1.27,1.27,1.27
								C305.86,297.12,306.43,296.55,306.43,295.85z"/>
						</g>
					</g>
					<g>
						<g>
							<g>
								<path class="st3" d="M170.06,295.74l55.05,1.14l-0.33,0.32l0-2.91l0.33,0.32L170.06,295.74z M170.06,295.74l55.03-1.78
									c0.18-0.01,0.32,0.13,0.33,0.31l0,0.01l0,2.91c0,0.18-0.14,0.32-0.32,0.32l-0.01,0L170.06,295.74z"/>
								<path class="st3" d="M225.1,295.74c-8.67,0.14-17.34,0.1-26.01,0.16c-8.67-0.06-17.34-0.02-26.01-0.16
									c8.67-0.14,17.34-0.11,26.01-0.16C207.76,295.63,216.43,295.6,225.1,295.74z"/>
							</g>
							<g>
								<path class="st3" d="M224.98,293.62L224.98,293.62c0.63,0,1.15,0.52,1.15,1.15v2.03c0,0.64-0.52,1.15-1.15,1.15l0,0
									c-0.64,0-1.15-0.52-1.15-1.15v-2.03C223.83,294.14,224.35,293.62,224.98,293.62z"/>
								<path class="st3" d="M225.9,295.74c0,0.7,0.57,1.27,1.27,1.27c0.7,0,1.27-0.57,1.27-1.27c0-0.7-0.57-1.27-1.27-1.27
									C226.47,294.46,225.9,295.03,225.9,295.74z"/>
							</g>
						</g>
						<g>
							<path class="st3" d="M169.18,295.74c0,0.49,0.39,0.88,0.88,0.88c0.49,0,0.88-0.39,0.88-0.88c0-0.49-0.39-0.88-0.88-0.88
								C169.57,294.86,169.18,295.25,169.18,295.74z"/>
							<path class="st3" d="M172.23,295.74c0,0.49,0.39,0.88,0.88,0.88c0.49,0,0.88-0.39,0.88-0.88c0-0.49-0.39-0.88-0.88-0.88
								C172.62,294.86,172.23,295.25,172.23,295.74z"/>
							<path class="st3" d="M175.5,295.74c0,0.7,0.57,1.27,1.27,1.27c0.7,0,1.27-0.57,1.27-1.27c0-0.7-0.57-1.27-1.27-1.27
								C176.07,294.46,175.5,295.03,175.5,295.74z"/>
						</g>
					</g>
				</g>
				<g>
					<polygon class="st3" points="242.67,296.53 246.87,295.74 242.67,294.95 245.09,291.42 241.56,293.83 240.77,289.63 
						239.98,293.83 236.45,291.42 238.86,294.95 234.66,295.74 238.86,296.53 236.45,300.06 239.98,297.64 240.77,301.84 
						241.56,297.64 245.09,300.06 					"/>
				</g>
			</g>
			<g>
				<g>
					<line class="st9" x1="160.87" y1="183.21" x2="282.31" y2="183.21"/>
					<line class="st9" x1="46.65" y1="206.39" x2="282.31" y2="206.39"/>
					<line class="st9" x1="46.65" y1="229.57" x2="282.31" y2="229.57"/>
					<line class="st9" x1="46.65" y1="252.75" x2="282.31" y2="252.75"/>
				</g>
				<g>
					<g>
						<path class="st8" d="M53.25,177.74c-0.33-0.07-0.61-0.18-0.82-0.34v-0.34c0.24,0.15,0.53,0.27,0.87,0.34
							c0.36-2.19,0.62-3.49,0.8-3.91c0.18-0.42,0.36-0.78,0.54-1.09c0.36-0.58,0.84-0.87,1.44-0.87c0.17,0,0.28,0.07,0.34,0.21
							l0.02,0.09c-0.29,0-0.54,0.1-0.75,0.29s-0.38,0.42-0.51,0.7c-0.12,0.27-0.24,0.65-0.33,1.14c-0.16,0.77-0.26,1.47-0.32,2.1
							c-0.06,0.63-0.09,0.96-0.09,1c0,0.13-0.01,0.26-0.04,0.37c0.51-0.07,0.97-0.21,1.37-0.41c0.07-0.72,0.27-1.36,0.59-1.92
							s0.73-0.83,1.21-0.83c0.3,0,0.45,0.16,0.45,0.48c0,0.63-0.36,1.26-1.07,1.89c-0.15,0.14-0.32,0.27-0.5,0.39
							c-0.04,0.25-0.05,0.48-0.05,0.68c0,0.88,0.21,1.32,0.64,1.32c-0.01,0.14-0.11,0.21-0.3,0.21c-0.32,0-0.57-0.17-0.73-0.52
							c-0.17-0.34-0.25-0.79-0.25-1.32c-0.43,0.19-0.89,0.31-1.39,0.36c-0.3,2.53-0.68,4.24-1.14,5.12
							c-0.23,0.43-0.5,0.84-0.82,1.23c-0.63,0.77-1.56,1.16-2.8,1.16c-0.61,0-1.13-0.12-1.56-0.35c-0.43-0.23-0.75-0.54-0.94-0.92
							c-0.24-0.49-0.36-0.95-0.36-1.39c0-0.44,0.06-0.86,0.2-1.26s0.31-0.79,0.54-1.16c0.23-0.38,0.54-0.68,0.92-0.91
							c0.38-0.23,0.79-0.35,1.21-0.35c0.23,0,0.39,0.08,0.48,0.25l0.05,0.09c-1,0-1.79,0.46-2.37,1.37
							c-0.38,0.61-0.57,1.23-0.57,1.87c0,0.2,0.02,0.41,0.07,0.62c0.17,0.87,0.64,1.39,1.43,1.57c0.19,0.05,0.45,0.07,0.77,0.07
							s0.66-0.09,1.02-0.26c0.36-0.17,0.67-0.45,0.93-0.82c0.26-0.38,0.48-0.75,0.67-1.13c0.18-0.38,0.35-0.88,0.51-1.5
							C52.82,180.17,53.03,179.05,53.25,177.74z M60.36,169.39c0.39,0,0.59,0.23,0.59,0.7c0,0.36-0.19,0.69-0.56,0.99
							c-0.38,0.3-0.96,0.46-1.77,0.46s-1.89-0.22-3.27-0.66c-1.38-0.44-2.43-0.66-3.14-0.66c-1.53,0-2.73,0.61-3.59,1.84
							c-0.58,0.83-0.87,1.72-0.87,2.67c0,1.36,0.46,2.25,1.39,2.69c0.32,0.16,0.68,0.23,1.09,0.23c0,0.08-0.05,0.17-0.14,0.27
							c-0.1,0.09-0.2,0.14-0.32,0.14c-1.25,0-2.12-0.52-2.6-1.55c-0.23-0.49-0.34-1-0.34-1.53s0.11-1.1,0.32-1.69
							c0.46-1.28,1.29-2.24,2.48-2.85c0.77-0.39,1.59-0.59,2.45-0.59c0.86,0,1.93,0.19,3.21,0.58c1.28,0.39,2.26,0.58,2.93,0.58
							c1.02,0,1.61-0.24,1.77-0.71c0.08-0.23,0.06-0.37-0.07-0.45c-0.02-0.01-0.04-0.02-0.05-0.02
							C59.93,169.53,60.1,169.39,60.36,169.39z M57.56,174.62c-0.2,0-0.4,0.19-0.59,0.56s-0.34,0.83-0.45,1.36
							c0.59-0.48,0.97-0.99,1.12-1.53c0.02-0.09,0.04-0.18,0.04-0.27C57.69,174.66,57.65,174.62,57.56,174.62z"/>
						<path class="st8" d="M58.92,183.95c-0.33,0-0.5-0.26-0.5-0.77c0-0.27,0.33-2.27,1-5.98c0.05-0.25,0.15-0.38,0.32-0.38
							c0.21,0,0.38,0.16,0.48,0.46c0.06,0.17,0.09,0.35,0.09,0.54s-0.02,0.41-0.07,0.63l-0.29,1.46h0.09
							c1.02-2.38,1.96-3.57,2.82-3.57c0.48,0,0.79,0.23,0.95,0.7c0.06,0.18,0.09,0.38,0.09,0.62s-0.07,0.48-0.2,0.76
							c-0.23,0.46-0.56,0.7-1.02,0.7c-0.09,0-0.17-0.02-0.22-0.07c-0.05-0.05-0.09-0.11-0.1-0.2c0.1,0,0.22-0.18,0.38-0.53
							s0.24-0.67,0.27-0.97c0.02-0.3-0.08-0.47-0.3-0.52c-0.42,0-0.91,0.54-1.48,1.62c-0.57,1.08-1.03,2.12-1.37,3.1
							s-0.55,1.63-0.61,1.93C59.18,183.8,59.07,183.95,58.92,183.95z"/>
						<path class="st8" d="M65.32,181.59c0,1.25,0.33,1.87,1,1.87c0.45,0,0.87-0.28,1.27-0.84c0.75-1.05,1.21-2.43,1.37-4.14
							c-0.42-0.18-0.71-0.47-0.87-0.87c-0.11-0.25-0.16-0.46-0.16-0.63c0-0.17,0.02-0.32,0.07-0.46c0.11-0.32,0.3-0.48,0.59-0.48
							c0.29,0,0.5,0.18,0.65,0.54s0.22,0.82,0.22,1.38c0,0.04,0,0.08,0,0.12c0.14,0.05,0.35,0.07,0.63,0.07s0.53-0.11,0.74-0.34
							c0.21-0.23,0.32-0.43,0.32-0.62c0-0.05,0.03-0.08,0.09-0.1c0.06-0.02,0.12-0.02,0.17,0.01c0.05,0.02,0.08,0.06,0.08,0.11
							c0,0.35-0.15,0.67-0.44,0.98s-0.68,0.46-1.17,0.46c-0.12,0-0.27-0.01-0.46-0.04c-0.07,0.81-0.24,1.61-0.51,2.4
							s-0.64,1.47-1.11,2.05c-0.48,0.58-0.99,0.87-1.53,0.87c-1.03,0-1.67-0.55-1.91-1.66c-0.06-0.32-0.09-0.65-0.09-0.98
							c0-0.75,0.17-1.55,0.52-2.41c0.45-1.12,1.01-1.81,1.68-2.09c0.34-0.12,0.58-0.14,0.71-0.05c0.13,0.08,0.21,0.18,0.25,0.29
							c-0.55,0-1.03,0.51-1.46,1.53C65.54,179.6,65.32,180.61,65.32,181.59z"/>
						<path class="st8" d="M71.65,183.95c-0.33,0-0.5-0.26-0.5-0.77c0-0.27,0.33-2.27,1-5.98c0.04-0.25,0.14-0.38,0.32-0.38
							c0.21,0,0.38,0.16,0.48,0.46c0.06,0.17,0.09,0.35,0.09,0.54s-0.02,0.41-0.07,0.63l-0.27,1.36h0.11
							c1.05-2.35,2.06-3.53,3.03-3.53c0.33,0,0.6,0.12,0.79,0.36s0.29,0.52,0.29,0.86c0,0.62-0.09,1.39-0.29,2.32h0.07
							c1.01-2.2,2-3.3,2.98-3.3c0.32,0,0.58,0.12,0.79,0.36c0.2,0.24,0.3,0.55,0.3,0.95s-0.15,1.23-0.45,2.5
							c-0.3,1.27-0.46,2.17-0.46,2.69c0,0.77,0.14,1.16,0.43,1.16c0,0.08-0.05,0.17-0.16,0.25s-0.23,0.12-0.38,0.12
							c-0.69,0-1.03-0.54-1.03-1.62c0-0.68,0.17-1.66,0.52-2.93c0.34-1.28,0.52-2.1,0.52-2.46s-0.12-0.54-0.36-0.54
							c-0.44,0-0.95,0.53-1.54,1.6c-0.59,1.06-1.06,2.08-1.41,3.06s-0.56,1.6-0.62,1.88s-0.17,0.42-0.32,0.42
							c-0.33,0-0.5-0.26-0.5-0.77c0-0.19,0.1-0.86,0.3-2.02c0.39-2.12,0.59-3.38,0.59-3.79c0-0.41-0.12-0.62-0.36-0.62
							c-0.32,0-0.7,0.33-1.12,0.99c-0.43,0.66-0.81,1.42-1.16,2.29c-0.75,1.83-1.19,3.01-1.32,3.55
							C71.91,183.83,71.81,183.95,71.65,183.95z"/>
						<path class="st8" d="M89.51,184.16c-0.39-0.74-0.59-1.61-0.59-2.6c0-0.93,0.16-1.76,0.47-2.49c0.31-0.73,0.66-1.32,1.03-1.77
							c0.37-0.45,0.83-0.8,1.37-1.07s1.12-0.4,1.72-0.4c0.86,0,1.54,0.24,2.05,0.73l2.34-1.96c-0.05-0.42-0.07-0.83-0.07-1.23
							c0-2.64,0.7-3.96,2.09-3.96c0.36,0,0.64,0.12,0.84,0.38s0.32,0.57,0.34,0.96c0.01,0.57-0.17,1.14-0.54,1.71
							c-0.37,0.57-0.92,1.19-1.65,1.87c0.37,2.46,0.55,4.14,0.55,5.02s-0.11,1.74-0.34,2.57c-0.23,0.83-0.57,1.58-1.04,2.26
							c-0.46,0.68-1.1,1.21-1.91,1.59s-1.75,0.57-2.82,0.57c-1.53,0-2.69-0.52-3.48-1.57c-0.21,0.75-0.32,1.6-0.32,2.56
							s0.25,1.82,0.76,2.59c0.51,0.77,1.16,1.15,1.95,1.15c0.06,0,0.09,0.06,0.1,0.18c0.01,0.12-0.03,0.18-0.1,0.18
							c-0.94,0-1.71-0.44-2.32-1.33s-0.91-1.87-0.91-2.95S89.2,185.06,89.51,184.16z M95.16,176.92c-0.38-0.4-0.9-0.61-1.57-0.61
							s-1.27,0.16-1.8,0.48c-0.99,0.59-1.69,1.59-2.12,3c-0.19,0.59-0.29,1.21-0.29,1.84c0,0.7,0.11,1.35,0.34,1.94
							C90.54,181.51,92.35,179.3,95.16,176.92z M95.88,176.9c0.33,0.45,0.5,0.96,0.5,1.52c0,0.57-0.09,1.07-0.26,1.52
							c-0.17,0.45-0.48,0.84-0.91,1.18c-0.43,0.34-0.94,0.51-1.51,0.51c-0.12,0-0.21-0.03-0.28-0.09c-0.07-0.06-0.11-0.15-0.13-0.29
							c0.51,0,0.98-0.24,1.41-0.71c0.62-0.67,0.93-1.41,0.93-2.25c0-0.34-0.07-0.68-0.2-1c-1.33,1.14-2.46,2.26-3.37,3.35
							s-1.59,2.28-2.02,3.57c0.68,1.09,1.74,1.64,3.19,1.64c0.89,0,1.67-0.19,2.34-0.56s1.2-0.88,1.58-1.53
							c0.75-1.26,1.12-2.79,1.12-4.58c0-0.44-0.11-1.78-0.32-4.01L95.88,176.9z M98.75,172.46c0,0.32,0.03,0.75,0.09,1.28
							c1.18-1.15,1.77-2.13,1.77-2.93c0-0.62-0.23-0.93-0.68-0.93C99.14,169.89,98.75,170.75,98.75,172.46z"/>
						<path class="st8" d="M102.49,183.96c-0.94,0-1.41-0.71-1.41-2.12c0-0.82,0.21-1.72,0.64-2.69c0.59-1.32,1.35-2.18,2.27-2.59
							c0.32-0.13,0.64-0.2,0.97-0.2s0.59,0.09,0.78,0.29c0.19,0.19,0.29,0.4,0.29,0.64c0,0.11-0.06,0.16-0.17,0.15
							s-0.17-0.06-0.17-0.17s-0.06-0.21-0.17-0.29c-0.11-0.09-0.28-0.13-0.49-0.13c-0.75,0-1.43,0.67-2.03,2.02
							c-0.57,1.25-0.86,2.43-0.86,3.55c0,0.69,0.15,1.04,0.46,1.04c0.3,0,0.67-0.26,1.11-0.78c0.43-0.52,0.84-1.12,1.2-1.81
							c0.8-1.45,1.27-2.38,1.41-2.8s0.3-0.62,0.46-0.62c0.3,0,0.45,0.25,0.45,0.75c0,0.15-0.02,0.33-0.05,0.53
							c-0.39,1.9-0.6,3-0.63,3.3c-0.03,0.3-0.04,0.51-0.04,0.64c0,0.57,0.14,0.86,0.41,0.86c0.31,0,0.74-0.41,1.3-1.23
							c0.56-0.82,1.04-1.64,1.44-2.46l0.61-1.23h0.48c-0.07,0.14-0.16,0.34-0.28,0.58c-0.11,0.24-0.34,0.68-0.67,1.3
							c-0.33,0.62-0.65,1.17-0.96,1.65c-0.3,0.48-0.64,0.91-1.02,1.29c-0.37,0.39-0.7,0.58-0.97,0.58c-0.88,0-1.32-0.64-1.32-1.93
							c0-0.43,0.05-0.93,0.14-1.5h-0.12C104.33,182.84,103.31,183.96,102.49,183.96z"/>
						<path class="st8" d="M109.96,183.95c-0.33,0-0.5-0.26-0.5-0.77c0-0.27,0.33-2.27,1-5.98c0.04-0.25,0.14-0.38,0.32-0.38
							c0.21,0,0.38,0.16,0.48,0.46c0.06,0.17,0.09,0.35,0.09,0.54s-0.02,0.41-0.07,0.63L111,179.9h0.11c1.07-2.4,2.09-3.6,3.07-3.6
							c0.38,0,0.67,0.12,0.87,0.35c0.2,0.23,0.3,0.55,0.3,0.95s-0.16,1.28-0.48,2.62s-0.48,2.28-0.48,2.8
							c0,0.77,0.14,1.16,0.43,1.16c0,0.08-0.05,0.17-0.16,0.25c-0.11,0.08-0.23,0.12-0.38,0.12c-0.69,0-1.03-0.54-1.03-1.62
							c0-0.67,0.18-1.67,0.54-3.02c0.36-1.35,0.54-2.21,0.54-2.59c0-0.38-0.15-0.56-0.45-0.56c-0.43,0-0.94,0.56-1.54,1.68
							c-0.6,1.12-1.08,2.19-1.44,3.2c-0.36,1.02-0.57,1.66-0.62,1.92C110.22,183.82,110.12,183.95,109.96,183.95z"/>
						<path class="st8" d="M116.99,176.15c0-0.13,0.08-0.2,0.25-0.2h0.93c0.06-0.24,0.14-0.53,0.23-0.89l0.25-0.93
							c0.07-0.27,0.13-0.52,0.19-0.75c0.05-0.23,0.16-0.34,0.31-0.34c0.2,0,0.34,0.16,0.43,0.46c0.04,0.13,0.05,0.29,0.05,0.48
							c0,0.19-0.04,0.43-0.11,0.73l-0.34,1.23h1.11c0.11,0,0.18,0.04,0.22,0.11c0.04,0.07,0.04,0.14,0,0.21
							c-0.04,0.07-0.12,0.1-0.22,0.1h-1.21c-0.74,2.77-1.11,4.73-1.11,5.89c0,0.84,0.19,1.27,0.57,1.27c0.31,0,0.74-0.41,1.3-1.23
							c0.56-0.82,1.04-1.64,1.44-2.46l0.61-1.23h0.48c-0.07,0.14-0.16,0.34-0.28,0.58c-0.11,0.24-0.34,0.68-0.67,1.3
							c-0.33,0.62-0.65,1.17-0.95,1.65c-0.3,0.48-0.64,0.91-1.02,1.29c-0.37,0.39-0.72,0.58-1.04,0.58s-0.6-0.1-0.83-0.31
							c-0.23-0.21-0.38-0.5-0.45-0.89s-0.1-0.78-0.1-1.19c0-0.94,0.33-2.69,1-5.24h-0.8c-0.09,0-0.16-0.03-0.2-0.08
							C117.01,176.23,116.99,176.19,116.99,176.15z"/>
						<path class="st8" d="M122.4,183.96c-0.94,0-1.41-0.71-1.41-2.12c0-0.82,0.21-1.72,0.64-2.69c0.59-1.32,1.35-2.18,2.27-2.59
							c0.32-0.13,0.64-0.2,0.97-0.2s0.59,0.09,0.78,0.29c0.19,0.19,0.29,0.4,0.29,0.64c0,0.11-0.06,0.16-0.17,0.15
							s-0.17-0.06-0.17-0.17s-0.06-0.21-0.17-0.29c-0.11-0.09-0.28-0.13-0.49-0.13c-0.75,0-1.43,0.67-2.03,2.02
							c-0.57,1.25-0.86,2.43-0.86,3.55c0,0.69,0.15,1.04,0.46,1.04c0.3,0,0.67-0.26,1.11-0.78c0.43-0.52,0.84-1.12,1.2-1.81
							c0.8-1.45,1.27-2.38,1.41-2.8s0.3-0.62,0.46-0.62c0.3,0,0.45,0.25,0.45,0.75c0,0.15-0.02,0.33-0.05,0.53
							c-0.39,1.9-0.6,3-0.63,3.3c-0.03,0.3-0.04,0.51-0.04,0.64c0,0.57,0.14,0.86,0.41,0.86c0.31,0,0.74-0.41,1.3-1.23
							c0.56-0.82,1.04-1.64,1.44-2.46l0.61-1.23h0.48c-0.07,0.14-0.16,0.34-0.28,0.58c-0.11,0.24-0.34,0.68-0.67,1.3
							c-0.33,0.62-0.65,1.17-0.96,1.65c-0.3,0.48-0.64,0.91-1.02,1.29c-0.37,0.39-0.7,0.58-0.97,0.58c-0.88,0-1.32-0.64-1.32-1.93
							c0-0.43,0.05-0.93,0.14-1.5h-0.12C124.23,182.84,123.22,183.96,122.4,183.96z"/>
						<path class="st8" d="M134.99,176.15c0-0.13,0.08-0.2,0.25-0.2h0.93c0.06-0.24,0.14-0.53,0.23-0.89l0.25-0.93
							c0.07-0.27,0.13-0.52,0.19-0.75c0.05-0.23,0.16-0.34,0.31-0.34c0.2,0,0.34,0.16,0.43,0.46c0.04,0.13,0.05,0.29,0.05,0.48
							c0,0.19-0.04,0.43-0.11,0.73l-0.34,1.23h1.11c0.11,0,0.18,0.04,0.22,0.11c0.04,0.07,0.04,0.14,0,0.21
							c-0.04,0.07-0.12,0.1-0.22,0.1h-1.21c-0.74,2.77-1.11,4.73-1.11,5.89c0,0.84,0.19,1.27,0.57,1.27c0.31,0,0.74-0.41,1.3-1.23
							c0.56-0.82,1.04-1.64,1.44-2.46l0.61-1.23h0.48c-0.07,0.14-0.16,0.34-0.28,0.58c-0.11,0.24-0.34,0.68-0.67,1.3
							c-0.33,0.62-0.65,1.17-0.95,1.65c-0.3,0.48-0.64,0.91-1.02,1.29c-0.37,0.39-0.72,0.58-1.04,0.58s-0.6-0.1-0.83-0.31
							c-0.23-0.21-0.38-0.5-0.45-0.89s-0.1-0.78-0.1-1.19c0-0.94,0.33-2.69,1-5.24h-0.8c-0.09,0-0.16-0.03-0.2-0.08
							C135.01,176.23,134.99,176.19,134.99,176.15z"/>
						<path class="st8" d="M140.3,181.59c0,1.25,0.33,1.87,1,1.87c0.45,0,0.87-0.28,1.27-0.84c0.75-1.05,1.21-2.43,1.37-4.14
							c-0.42-0.18-0.71-0.47-0.87-0.87c-0.11-0.25-0.16-0.46-0.16-0.63c0-0.17,0.02-0.32,0.07-0.46c0.11-0.32,0.3-0.48,0.59-0.48
							c0.29,0,0.5,0.18,0.65,0.54s0.22,0.82,0.22,1.38c0,0.04,0,0.08,0,0.12c0.14,0.05,0.35,0.07,0.63,0.07s0.53-0.11,0.74-0.34
							c0.21-0.23,0.32-0.43,0.32-0.62c0-0.05,0.03-0.08,0.09-0.1c0.06-0.02,0.12-0.02,0.17,0.01c0.05,0.02,0.08,0.06,0.08,0.11
							c0,0.35-0.15,0.67-0.44,0.98s-0.68,0.46-1.17,0.46c-0.12,0-0.27-0.01-0.46-0.04c-0.07,0.81-0.24,1.61-0.51,2.4
							s-0.64,1.47-1.11,2.05c-0.48,0.58-0.99,0.87-1.53,0.87c-1.03,0-1.67-0.55-1.91-1.66c-0.06-0.32-0.09-0.65-0.09-0.98
							c0-0.75,0.17-1.55,0.52-2.41c0.45-1.12,1.01-1.81,1.68-2.09c0.34-0.12,0.58-0.14,0.71-0.05c0.13,0.08,0.21,0.18,0.25,0.29
							c-0.55,0-1.03,0.51-1.46,1.53C140.52,179.6,140.3,180.61,140.3,181.59z"/>
						<path class="st8" d="M148.47,182.66c0.29,0,0.43,0.18,0.43,0.55c0,0.37-0.17,0.67-0.52,0.89c-0.17,0.12-0.32,0.18-0.45,0.18
							c-0.19,0-0.31-0.08-0.36-0.23c0.17,0,0.27-0.23,0.32-0.7c0.01-0.18,0.07-0.34,0.16-0.48
							C148.16,182.73,148.29,182.66,148.47,182.66z M149.2,177.67c0.29,0,0.43,0.18,0.43,0.55c0,0.37-0.17,0.67-0.52,0.89
							c-0.17,0.12-0.32,0.18-0.45,0.18c-0.19,0-0.31-0.08-0.36-0.23c0.17,0,0.27-0.23,0.3-0.7c0.02-0.18,0.08-0.34,0.18-0.48
							C148.89,177.74,149.03,177.67,149.2,177.67z"/>
					</g>
				</g>
			</g>
			<g>
				<g>
					<g>
						<path class="st10" d="M341.21,109.56c21.54,0.1,21.5,7.8,43.04,7.9c21.54,0.1,21.58-7.6,43.12-7.51
							c21.54,0.1,21.51,7.8,43.05,7.9"/>
						<path class="st10" d="M341.17,118.55c21.54,0.1,21.5,7.8,43.04,7.9c21.54,0.1,21.58-7.6,43.12-7.51
							c21.54,0.1,21.51,7.8,43.05,7.9"/>
						<path class="st10" d="M341.13,127.54c21.54,0.1,21.5,7.8,43.04,7.9c21.54,0.1,21.58-7.6,43.12-7.51
							c21.54,0.1,21.51,7.8,43.05,7.9"/>
						<path class="st10" d="M341.08,136.52c21.54,0.1,21.5,7.8,43.04,7.9c21.54,0.1,21.58-7.6,43.12-7.51
							c21.54,0.1,21.51,7.8,43.05,7.9"/>
						<path class="st10" d="M341.04,145.51c21.54,0.1,21.5,7.8,43.04,7.9c21.54,0.1,21.58-7.6,43.12-7.51
							c21.54,0.1,21.51,7.8,43.05,7.9"/>
					</g>
					<g class="st11">
						<g>
							<g>
								<path class="st12" d="M364.41,89.2c-2.11-9.61-9.82-17.47-20.12-19.27c-10.2-1.79-20.04,2.88-25.33,11.07"/>
								<path class="st12" d="M315.59,100.03c2.15,9.55,9.84,17.35,20.09,19.14c10.2,1.79,20.04-2.88,25.33-11.07"/>
								
									<ellipse transform="matrix(0.4417 -0.8972 0.8972 0.4417 104.9999 357.8213)" class="st12" cx="339.99" cy="94.55" rx="46.88" ry="46.88"/>
							</g>
							<g>
								<path class="st13" d="M383.51,111.92l-24.25-4.25l3.31-18.91l24.28,4.25C386.85,93.01,387.21,103.2,383.51,111.92z"/>
								<path class="st13" d="M296.44,77.18l24.19,4.24l-3.31,18.91l-24.19-4.06C293.12,96.26,292.56,86.25,296.44,77.18z"/>
							</g>
						</g>
						<g>
							<g>
								<g>
									<g>
										<line class="st13" x1="343.35" y1="74.42" x2="336.32" y2="114.56"/>
										<line class="st13" x1="358.97" y1="87.5" x2="320.7" y2="101.48"/>
										<line class="st13" x1="324.21" y1="81.41" x2="355.46" y2="107.57"/>
									</g>
									<g>
										<g>
											<g>
												<line class="st13" x1="339.96" y1="75.86" x2="342.54" y2="78.02"/>
												<line class="st13" x1="345.69" y1="76.87" x2="342.54" y2="78.02"/>
											</g>
											<g>
												<line class="st13" x1="339.35" y1="79.39" x2="341.92" y2="81.54"/>
												<line class="st13" x1="345.07" y1="80.39" x2="341.92" y2="81.54"/>
											</g>
										</g>
										<g>
											<g>
												<line class="st13" x1="333.65" y1="111.88" x2="336.81" y2="110.73"/>
												<line class="st13" x1="339.38" y1="112.89" x2="336.81" y2="110.73"/>
											</g>
											<g>
												<line class="st13" x1="334.24" y1="108.53" x2="337.39" y2="107.38"/>
												<line class="st13" x1="339.97" y1="109.53" x2="337.39" y2="107.38"/>
											</g>
										</g>
										<g>
											<g>
												<line class="st13" x1="351.86" y1="108.43" x2="352.44" y2="105.12"/>
												<line class="st13" x1="355.59" y1="103.97" x2="352.44" y2="105.12"/>
											</g>
											<g>
												<line class="st13" x1="349.22" y1="106.27" x2="349.8" y2="102.97"/>
												<line class="st13" x1="352.96" y1="101.81" x2="349.8" y2="102.97"/>
											</g>
										</g>
										<g>
											<g>
												<line class="st13" x1="327.59" y1="80.51" x2="327.02" y2="83.82"/>
												<line class="st13" x1="323.86" y1="84.97" x2="327.02" y2="83.82"/>
											</g>
											<g>
												<line class="st13" x1="330.15" y1="82.66" x2="329.57" y2="85.97"/>
												<line class="st13" x1="326.42" y1="87.12" x2="329.57" y2="85.97"/>
											</g>
										</g>
										<g>
											<g>
												<line class="st13" x1="352.9" y1="86.65" x2="352.32" y2="89.95"/>
												<line class="st13" x1="354.89" y1="92.11" x2="352.32" y2="89.95"/>
											</g>
											<g>
												<line class="st13" x1="356.29" y1="85.4" x2="355.71" y2="88.7"/>
												<line class="st13" x1="358.29" y1="90.86" x2="355.71" y2="88.7"/>
											</g>
										</g>
										<g>
											<g>
												<line class="st13" x1="323.57" y1="103.48" x2="324.15" y2="100.17"/>
												<line class="st13" x1="321.58" y1="98.02" x2="324.15" y2="100.17"/>
											</g>
											<g>
												<line class="st13" x1="326.59" y1="102.31" x2="327.17" y2="99"/>
												<line class="st13" x1="324.6" y1="96.85" x2="327.17" y2="99"/>
											</g>
										</g>
									</g>
								</g>
								<g>
									<polygon class="st13" points="340.59,89.13 346.6,86.16 344.74,92.6 350.31,96.32 343.8,97.93 343.37,104.62 338.72,99.79 
										332.71,102.75 334.58,96.31 329,92.59 335.51,90.99 335.95,84.3 									"/>
									<g>
										<path class="st13" d="M347.89,85.77c-0.09,0.53-0.6,0.89-1.14,0.8c-0.53-0.09-0.89-0.6-0.8-1.14
											c0.09-0.53,0.6-0.89,1.14-0.8C347.63,84.73,347.99,85.24,347.89,85.77z"/>
										<path class="st13" d="M336.92,83.85c-0.09,0.53-0.6,0.89-1.14,0.8c-0.53-0.09-0.89-0.6-0.8-1.14
											c0.09-0.53,0.6-0.89,1.14-0.8C336.66,82.81,337.01,83.31,336.92,83.85z"/>
										<path class="st13" d="M344.44,105.47c-0.09,0.53-0.6,0.89-1.14,0.8c-0.53-0.09-0.89-0.6-0.8-1.14
											c0.09-0.53,0.6-0.89,1.14-0.8C344.18,104.43,344.54,104.94,344.44,105.47z"/>
										<path class="st13" d="M333.47,103.55c-0.09,0.53-0.6,0.89-1.14,0.8c-0.53-0.09-0.89-0.6-0.8-1.14
											c0.09-0.53,0.6-0.89,1.14-0.8C333.21,102.51,333.56,103.02,333.47,103.55z"/>
										<path class="st13" d="M352.02,96.52c-0.09,0.53-0.6,0.89-1.14,0.8c-0.53-0.09-0.89-0.6-0.8-1.14
											c0.09-0.53,0.6-0.89,1.14-0.8C351.75,95.47,352.11,95.98,352.02,96.52z"/>
										<path class="st13" d="M329.5,92.57c-0.09,0.53-0.6,0.89-1.14,0.8c-0.53-0.09-0.89-0.6-0.8-1.14
											c0.09-0.53,0.6-0.89,1.14-0.8C329.24,91.53,329.59,92.04,329.5,92.57z"/>
									</g>
								</g>
							</g>
						</g>
						<g>
							<g>
								<g>
									<path class="st14" d="M308.56,70.03l0.7,0.06l4.73,4.45l-0.31,0.33l-4.23-3.99c-0.24-0.23-0.56-0.49-0.96-0.78
										L308.56,70.03z M308.56,70.03l8.38,0.03l0.84,0.67l-8.37-0.02L308.56,70.03z M311.81,66.8l0.56-0.6l0.51,0.48l-0.01,0.01
										c-0.13-0.11-0.27-0.17-0.44-0.16c-0.16,0-0.3,0.07-0.42,0.19c-0.08,0.09-0.12,0.13-0.13,0.14L311.81,66.8z M312.66,65.9
										l4.2,3.96c0.15,0.14,0.31,0.28,0.46,0.4c0.15,0.12,0.33,0.26,0.52,0.4l-0.06,0.06l-0.69-0.04l-4.74-4.47L312.66,65.9z
										 M313.2,65.32l0.07,0.07l-0.12,0.13c-0.11,0.12-0.17,0.26-0.17,0.43c0,0.17,0.06,0.31,0.18,0.43l-0.02,0.02l-0.51-0.48
										L313.2,65.32z M313.19,74.37l0.51,0.48l-0.56,0.6l-0.07-0.07c0.08-0.09,0.12-0.13,0.13-0.14c0.11-0.12,0.17-0.26,0.16-0.43
										c0-0.17-0.07-0.31-0.19-0.42L313.19,74.37z M313.48,74.06c0.12,0.11,0.26,0.17,0.43,0.16s0.31-0.07,0.42-0.19
										c0,0,0.05-0.05,0.13-0.14l0.07,0.07l-0.56,0.6l-0.51-0.48L313.48,74.06z"/>
									<path class="st14" d="M319.24,60.96c0.6-0.36,1.21-0.55,1.82-0.57c0.61-0.02,1.18,0.13,1.72,0.44
										c0.53,0.31,0.99,0.77,1.35,1.38c0.37,0.62,0.56,1.23,0.58,1.85c0.02,0.62-0.12,1.19-0.42,1.72
										c-0.3,0.53-0.76,0.98-1.36,1.34c-0.6,0.36-1.2,0.55-1.81,0.56c-0.61,0.02-1.18-0.13-1.72-0.44
										c-0.53-0.31-0.99-0.77-1.35-1.38c-0.37-0.62-0.56-1.23-0.58-1.85c-0.02-0.62,0.12-1.19,0.42-1.72
										C318.19,61.76,318.64,61.31,319.24,60.96z M322.78,66.86c0.48-0.29,0.83-0.66,1.04-1.11c0.22-0.45,0.3-0.95,0.24-1.49
										c-0.05-0.54-0.25-1.1-0.59-1.66c-0.34-0.56-0.73-1-1.19-1.3c-0.45-0.3-0.93-0.46-1.43-0.49c-0.5-0.02-0.99,0.11-1.47,0.4
										c-0.47,0.28-0.82,0.65-1.03,1.1c-0.22,0.45-0.3,0.95-0.24,1.49c0.05,0.54,0.25,1.09,0.59,1.66c0.34,0.56,0.73,1,1.19,1.3
										c0.45,0.3,0.93,0.47,1.43,0.49C321.82,67.27,322.31,67.14,322.78,66.86z"/>
									<path class="st14" d="M326.75,58.32l-0.03,0.01c-0.05-0.16-0.16-0.28-0.31-0.37c-0.15-0.08-0.31-0.1-0.47-0.05l-0.12,0.04
										l-0.03-0.09l0.75-0.22L326.75,58.32z M327.13,57.46l1.97,6.61l-0.61,0.18l-1.97-6.62L327.13,57.46z M328.34,57.1
										c0.28-0.08,0.55-0.12,0.81-0.11c0.25,0.01,0.48,0.08,0.69,0.18c0.2,0.11,0.38,0.26,0.53,0.45c0.15,0.19,0.27,0.43,0.35,0.7
										c0.09,0.3,0.1,0.61,0.05,0.93s-0.18,0.6-0.38,0.85c-0.19,0.25-0.44,0.41-0.74,0.5c0.12,0.01,0.26,0.07,0.43,0.17
										c0.17,0.1,0.32,0.2,0.45,0.29c0.24,0.2,0.46,0.36,0.64,0.5c0.18,0.14,0.37,0.27,0.55,0.4c0.18,0.13,0.34,0.23,0.46,0.31
										c0.17,0.1,0.33,0.19,0.49,0.26c0.16,0.07,0.32,0.11,0.49,0.13c0.17,0.02,0.34,0,0.53-0.05l0.03,0.1l-0.52,0.15
										c-0.29,0.09-0.55,0.12-0.79,0.09c-0.24-0.02-0.45-0.08-0.63-0.17c-0.18-0.08-0.34-0.17-0.48-0.26
										c-0.03-0.02-0.1-0.08-0.22-0.17c-0.12-0.09-0.26-0.21-0.43-0.34c-0.17-0.13-0.33-0.26-0.49-0.39
										c-0.16-0.13-0.3-0.24-0.42-0.33c-0.12-0.09-0.18-0.15-0.2-0.16c-0.17-0.12-0.34-0.23-0.53-0.32
										c-0.18-0.09-0.36-0.11-0.53-0.06l-0.03-0.09c0.2-0.05,0.36-0.1,0.5-0.15c0.16-0.05,0.33-0.13,0.52-0.24
										c0.18-0.1,0.34-0.25,0.47-0.44c0.13-0.19,0.2-0.44,0.2-0.75c0-0.08-0.01-0.17-0.03-0.27s-0.04-0.21-0.08-0.31
										c-0.13-0.43-0.34-0.74-0.63-0.93s-0.61-0.25-0.97-0.16c-0.18,0.04-0.36,0.09-0.55,0.15c-0.18,0.06-0.4,0.13-0.66,0.2
										c0-0.01-0.02-0.03-0.05-0.07c-0.03-0.04-0.07-0.11-0.13-0.19L328.34,57.1z M328.31,63.56l0.21,0.69l-0.76,0.23l-0.03-0.1
										l0.12-0.04c0.16-0.05,0.29-0.15,0.37-0.3c0.08-0.15,0.1-0.31,0.06-0.47L328.31,63.56z M328.87,63.39l0.03-0.01
										c0.05,0.17,0.15,0.29,0.3,0.37c0.15,0.08,0.31,0.1,0.48,0.05l0.11-0.03l0.03,0.09l-0.75,0.22L328.87,63.39z"/>
									<path class="st14" d="M333.84,55.57c0.07,0.02,0.17,0.04,0.31,0.06c0.14,0.02,0.29,0.03,0.45,0.03
										c0.16,0.01,0.32,0,0.45-0.01l-1.19,0.2L333.84,55.57z M339.55,55.31l0.02,0.29l-5.69,0.44l-0.02-0.29L339.55,55.31z
										 M334.55,55.96l0,0.03c-0.16,0.02-0.3,0.09-0.4,0.21s-0.15,0.26-0.13,0.43l0.01,0.17l-0.1,0.02l-0.06-0.8L334.55,55.96z
										 M336.89,61.72l0.05,0.72l-0.79,0.06l-0.01-0.1l0.13-0.01c0.17-0.01,0.31-0.08,0.42-0.21c0.11-0.13,0.16-0.28,0.16-0.45
										L336.89,61.72z M337.02,55.54l0.53,6.85l-0.64,0.05l-0.53-6.85L337.02,55.54z M337.47,61.68l0.03,0
										c0.02,0.17,0.09,0.31,0.23,0.42c0.13,0.11,0.28,0.16,0.45,0.15l0.13-0.01l0.01,0.1l-0.79,0.06L337.47,61.68z M339.53,55.13
										l0.02,0.29l-1.21-0.01c0.14-0.01,0.3-0.03,0.46-0.07s0.31-0.07,0.44-0.1C339.38,55.19,339.48,55.16,339.53,55.13z
										 M339.57,55.57l0.06,0.8l-0.1,0l-0.01-0.17c-0.01-0.17-0.08-0.3-0.2-0.4c-0.12-0.1-0.26-0.15-0.42-0.15l0-0.03
										L339.57,55.57z"/>
									<path class="st14" d="M342.86,61.66l-0.11,0.71l-0.78-0.12l0.02-0.1l0.13,0.02c0.17,0.03,0.32-0.01,0.46-0.11
										c0.14-0.1,0.23-0.24,0.26-0.4L342.86,61.66z M344.43,55.65l-1.08,6.82l-0.63-0.1l1.08-6.82L344.43,55.65z M343.71,56.27
										l-0.03,0c0.02-0.17-0.02-0.33-0.12-0.46c-0.1-0.14-0.24-0.22-0.41-0.25l-0.13-0.02l0.02-0.1l0.78,0.12L343.71,56.27z
										 M343.43,61.75l0.03,0c-0.02,0.17,0.02,0.33,0.12,0.46c0.1,0.14,0.24,0.22,0.41,0.25c0.08,0.01,0.12,0.02,0.13,0.02
										l-0.02,0.1l-0.78-0.12L343.43,61.75z M347.98,59.6l-0.05,0.29l-4.17-0.66l0.05-0.29L347.98,59.6z M344.29,56.36l0.11-0.71
										l0.78,0.12l-0.02,0.1c-0.01,0-0.05-0.01-0.13-0.02c-0.17-0.03-0.32,0.01-0.46,0.11c-0.14,0.1-0.22,0.23-0.26,0.4
										L344.29,56.36z M347.47,62.39l-0.11,0.71l-0.78-0.12l0.02-0.1c0.01,0,0.05,0.01,0.13,0.02c0.17,0.03,0.33-0.01,0.47-0.11
										c0.14-0.1,0.23-0.23,0.25-0.4L347.47,62.39z M349.04,56.38l-1.08,6.82l-0.63-0.1l1.08-6.82L349.04,56.38z M348.33,57
										l-0.03,0c0.03-0.17-0.01-0.32-0.12-0.46c-0.1-0.14-0.24-0.22-0.41-0.25c-0.08-0.01-0.12-0.02-0.13-0.02l0.02-0.1l0.78,0.12
										L348.33,57z M348.05,62.48l0.03,0c-0.02,0.17,0.02,0.32,0.12,0.46c0.1,0.14,0.24,0.22,0.41,0.25l0.13,0.02l-0.02,0.1
										l-0.78-0.12L348.05,62.48z M348.9,57.09l0.11-0.71l0.78,0.12l-0.02,0.1l-0.13-0.02c-0.17-0.03-0.32,0.01-0.46,0.11
										c-0.14,0.1-0.23,0.24-0.26,0.4L348.9,57.09z"/>
									<path class="st14" d="M355.42,65.36l-0.36,0.62l-0.68-0.39l0.05-0.08l0.11,0.06c0.15,0.08,0.3,0.1,0.47,0.06
										c0.17-0.04,0.29-0.14,0.38-0.28L355.42,65.36z M359.02,60.3l-3.43,5.99l-0.56-0.32l3.43-5.99L359.02,60.3z M355.92,65.64
										l0.03,0.02c-0.08,0.15-0.1,0.31-0.05,0.48c0.04,0.17,0.14,0.29,0.29,0.38l0.11,0.06l-0.05,0.09l-0.68-0.39L355.92,65.64z
										 M360.04,60.88c0.37,0.21,0.64,0.46,0.83,0.74c0.19,0.28,0.28,0.59,0.28,0.92c0,0.33-0.1,0.67-0.29,1.01
										c-0.15,0.26-0.34,0.47-0.56,0.62s-0.46,0.25-0.71,0.29c-0.25,0.05-0.51,0.04-0.77-0.01c-0.26-0.05-0.5-0.15-0.72-0.3
										c-0.22-0.15-0.41-0.34-0.56-0.58l0.05-0.08c0.18,0.14,0.34,0.25,0.5,0.33c0.16,0.08,0.33,0.14,0.53,0.18
										c0.2,0.04,0.41,0.04,0.63-0.02c0.22-0.05,0.44-0.18,0.66-0.38c0.05-0.05,0.11-0.12,0.18-0.21
										c0.06-0.09,0.12-0.18,0.17-0.27c0.22-0.4,0.3-0.77,0.24-1.13c-0.06-0.35-0.28-0.63-0.64-0.84l-1.01-0.58
										c0.02-0.1,0.04-0.2,0.06-0.31L360.04,60.88z M358.13,60.62l-0.03-0.01c0.08-0.15,0.1-0.31,0.06-0.47
										c-0.05-0.17-0.15-0.29-0.29-0.38l-0.1-0.06l0.04-0.09l0.68,0.39L358.13,60.62z"/>
									<path class="st14" d="M367.76,66.56c0.51,0.49,0.85,1.02,1.02,1.61c0.18,0.58,0.19,1.17,0.03,1.77
										c-0.16,0.6-0.49,1.15-0.98,1.67c-0.5,0.52-1.04,0.87-1.63,1.05c-0.59,0.18-1.18,0.2-1.77,0.04
										c-0.59-0.15-1.14-0.47-1.65-0.96c-0.5-0.48-0.84-1.02-1.02-1.6c-0.18-0.59-0.19-1.18-0.03-1.77
										c0.16-0.6,0.49-1.15,0.98-1.67c0.5-0.52,1.04-0.87,1.63-1.05c0.59-0.18,1.18-0.19,1.77-0.04
										C366.71,65.76,367.25,66.08,367.76,66.56z M362.98,71.52c0.4,0.39,0.85,0.63,1.34,0.72c0.49,0.09,0.99,0.04,1.5-0.16
										s0.99-0.53,1.45-1c0.46-0.47,0.77-0.97,0.94-1.49c0.17-0.52,0.21-1.02,0.1-1.51c-0.11-0.49-0.37-0.93-0.77-1.31
										c-0.4-0.38-0.84-0.62-1.33-0.71c-0.49-0.09-0.99-0.04-1.5,0.16c-0.51,0.19-0.99,0.53-1.45,1
										c-0.46,0.47-0.77,0.97-0.94,1.49c-0.17,0.52-0.21,1.02-0.1,1.51C362.33,70.7,362.59,71.14,362.98,71.52z"/>
									<path class="st14" d="M367.59,76.01l-0.61,0.39l-0.43-0.66l0.08-0.05l0.07,0.11c0.09,0.14,0.22,0.23,0.39,0.27
										c0.17,0.04,0.33,0.01,0.47-0.08L367.59,76.01z M373.12,73.19l-5.81,3.73l-0.35-0.54l5.81-3.73L373.12,73.19z M369.01,78.99
										l-0.26,0.17l-1.46-2.26l0.26-0.17L369.01,78.99z M370.43,78.8l-1.65,0.38l-0.88-1.38l0.45,0.13
										c0.19,0.29,0.39,0.5,0.6,0.63c0.21,0.12,0.44,0.19,0.68,0.2c0.24,0.01,0.49-0.01,0.76-0.06L370.43,78.8z M372.19,73.06
										l-0.02-0.02c0.14-0.1,0.23-0.23,0.27-0.4c0.04-0.17,0.01-0.32-0.08-0.47l-0.07-0.11l0.08-0.05l0.43,0.66L372.19,73.06z
										 M372.5,73.55l0.61-0.39l0.43,0.66l-0.08,0.05c0-0.01-0.03-0.04-0.07-0.11c-0.09-0.14-0.22-0.23-0.39-0.27
										c-0.17-0.04-0.33-0.01-0.47,0.08L372.5,73.55z"/>
									<path class="st14" d="M370.88,81.84l-0.67,0.26l-0.29-0.73l0.09-0.04l0.05,0.12c0.06,0.16,0.17,0.27,0.33,0.34
										c0.16,0.07,0.32,0.07,0.48,0.02L370.88,81.84z M376.87,80.16l-6.43,2.51l-0.23-0.6l6.43-2.51L376.87,80.16z M371.69,85.04
										l-0.28,0.11l-0.98-2.51l0.29-0.11L371.69,85.04z M373.11,85.13l-1.7,0.05l-0.59-1.52l0.41,0.22
										c0.13,0.33,0.28,0.57,0.46,0.74c0.18,0.17,0.39,0.28,0.62,0.33c0.23,0.06,0.49,0.09,0.76,0.1L373.11,85.13z M374.56,83.47
										l-0.28,0.11l-0.82-2.11l0.28-0.11L374.56,83.47z M374.3,83.57l-0.61,0.24l-0.04-0.09l0.14-0.05
										c0.12-0.05,0.21-0.13,0.27-0.25c0.06-0.12,0.06-0.24,0.01-0.37l0.02-0.01L374.3,83.57z M375.14,83.24l-0.61,0.24
										l-0.21-0.53l0.02-0.01c0.05,0.12,0.14,0.21,0.26,0.26c0.12,0.05,0.24,0.05,0.37,0l0.13-0.05L375.14,83.24z M375.97,79.86
										l-0.01-0.03c0.16-0.06,0.27-0.17,0.34-0.33c0.07-0.16,0.07-0.32,0.01-0.48l-0.04-0.11l0.09-0.04l0.29,0.73L375.97,79.86z
										 M377.83,82.64l-0.29,0.11l-0.98-2.51l0.28-0.11L377.83,82.64z M377.58,82.74l-0.74,0.29l-0.04-0.09l0.17-0.06
										c0.15-0.06,0.25-0.16,0.32-0.31c0.07-0.14,0.07-0.3,0.02-0.45l0.02-0.01L377.58,82.74z M378,82.58l-0.27,0.1l-0.34-1.16
										c0.05,0.13,0.12,0.27,0.19,0.42c0.08,0.14,0.15,0.28,0.23,0.39C377.89,82.45,377.95,82.53,378,82.58z"/>
								</g>
							</g>
							<g>
								<g>
									<path class="st14" d="M303.85,107.77l-0.64,0.28l-0.32-0.75l0.09-0.04c0.05,0.11,0.07,0.17,0.07,0.17
										c0.06,0.15,0.17,0.26,0.33,0.32c0.16,0.06,0.31,0.06,0.46,0L303.85,107.77z M309.68,105.26l-0.34,0.62l-5.97,2.56
										l-0.18-0.42l5.35-2.28c0.31-0.13,0.67-0.32,1.1-0.56L309.68,105.26z M304.01,108.16c-0.15,0.07-0.26,0.17-0.32,0.33
										s-0.06,0.31,0,0.46c0,0.01,0.03,0.06,0.07,0.17l-0.09,0.04l-0.32-0.75l0.64-0.27L304.01,108.16z M309.68,105.26l-3.38,7.67
										l-0.95,0.5l3.37-7.66L309.68,105.26z M311.82,110.67l-5.32,2.26c-0.19,0.08-0.38,0.17-0.55,0.25
										c-0.17,0.09-0.37,0.19-0.58,0.32l-0.03-0.08l0.31-0.61l6-2.55L311.82,110.67z M311.34,109.53l0.32,0.75l-0.64,0.27
										l-0.01-0.02c0.15-0.07,0.26-0.19,0.32-0.33c0.06-0.15,0.06-0.31-0.01-0.46c-0.05-0.11-0.07-0.17-0.07-0.17L311.34,109.53z
										 M312.13,111.4l-0.09,0.04l-0.07-0.16c-0.06-0.15-0.17-0.26-0.33-0.32c-0.15-0.06-0.31-0.06-0.47,0l-0.01-0.03l0.64-0.27
										L312.13,111.4z"/>
									<path class="st14" d="M315.36,115.49c0.44,0.55,0.71,1.12,0.81,1.72c0.1,0.6,0.04,1.19-0.2,1.76
										c-0.23,0.57-0.63,1.08-1.18,1.53c-0.56,0.45-1.14,0.73-1.75,0.83c-0.61,0.11-1.19,0.04-1.76-0.18
										c-0.57-0.23-1.07-0.61-1.51-1.16c-0.44-0.54-0.71-1.12-0.81-1.72c-0.1-0.6-0.04-1.19,0.2-1.76
										c0.23-0.57,0.63-1.08,1.18-1.53c0.56-0.45,1.14-0.73,1.75-0.83c0.61-0.11,1.2-0.04,1.76,0.18
										C314.42,114.56,314.92,114.95,315.36,115.49z M310,119.81c0.35,0.43,0.76,0.73,1.24,0.88s0.98,0.16,1.51,0.04
										c0.53-0.13,1.05-0.4,1.56-0.81c0.51-0.41,0.89-0.86,1.12-1.36c0.24-0.49,0.33-0.98,0.29-1.48c-0.05-0.5-0.25-0.96-0.6-1.4
										c-0.35-0.43-0.76-0.72-1.24-0.87s-0.98-0.16-1.51-0.04c-0.53,0.13-1.05,0.4-1.56,0.81c-0.51,0.41-0.89,0.86-1.12,1.35
										c-0.24,0.49-0.33,0.99-0.29,1.48C309.46,118.91,309.65,119.38,310,119.81z"/>
									<path class="st14" d="M315.69,124.84l-0.43,0.58l-0.63-0.47l0.06-0.08l0.1,0.08c0.14,0.1,0.29,0.14,0.46,0.12
										c0.17-0.03,0.31-0.1,0.42-0.24L315.69,124.84z M319.87,120.24l-4.12,5.54l-0.51-0.38l4.12-5.54L319.87,120.24z
										 M316.16,125.18l0.02,0.02c-0.1,0.14-0.14,0.29-0.11,0.46c0.03,0.17,0.11,0.31,0.25,0.41l0.09,0.07l-0.06,0.08l-0.62-0.46
										L316.16,125.18z M320.88,121c0.24,0.18,0.43,0.37,0.57,0.58c0.14,0.21,0.23,0.43,0.27,0.66c0.04,0.23,0.02,0.46-0.04,0.69
										c-0.06,0.23-0.18,0.47-0.35,0.7c-0.19,0.25-0.43,0.45-0.72,0.6c-0.29,0.14-0.59,0.21-0.9,0.21
										c-0.31-0.01-0.59-0.1-0.85-0.29c0.06,0.1,0.1,0.25,0.12,0.44c0.02,0.19,0.03,0.37,0.03,0.53
										c-0.01,0.31-0.02,0.58-0.02,0.81c0,0.23,0,0.45,0,0.68c0,0.23,0.02,0.41,0.03,0.55c0.02,0.2,0.05,0.38,0.09,0.54
										c0.04,0.17,0.1,0.32,0.19,0.47c0.08,0.14,0.2,0.27,0.36,0.39l-0.06,0.08l-0.44-0.32c-0.24-0.18-0.42-0.37-0.55-0.58
										c-0.12-0.21-0.2-0.41-0.24-0.61c-0.04-0.2-0.07-0.38-0.08-0.54c0-0.03,0-0.13,0-0.28c0-0.15,0.01-0.34,0.02-0.55
										c0-0.21,0.01-0.42,0.02-0.63c0.01-0.21,0.01-0.38,0.02-0.53s0.01-0.24,0.01-0.26c0-0.21-0.02-0.41-0.06-0.61
										c-0.04-0.2-0.13-0.35-0.27-0.46l0.06-0.08c0.16,0.13,0.3,0.23,0.42,0.31c0.14,0.1,0.31,0.19,0.5,0.27
										c0.19,0.08,0.4,0.12,0.63,0.11c0.23-0.01,0.47-0.11,0.72-0.29c0.06-0.05,0.13-0.11,0.2-0.19c0.08-0.08,0.14-0.16,0.2-0.25
										c0.26-0.36,0.38-0.71,0.37-1.06s-0.17-0.64-0.45-0.87c-0.14-0.12-0.29-0.24-0.45-0.35c-0.16-0.11-0.34-0.25-0.55-0.41
										c0,0,0.01-0.03,0.03-0.08c0.02-0.05,0.04-0.12,0.07-0.22L320.88,121z M318.95,120.46l-0.02-0.02
										c0.1-0.14,0.13-0.3,0.11-0.47c-0.03-0.17-0.11-0.3-0.24-0.41l-0.1-0.08l0.06-0.08l0.63,0.47L318.95,120.46z"/>
									<path class="st14" d="M323.92,129.97l-0.3,0.66l-0.72-0.33l0.04-0.09l0.12,0.05c0.16,0.07,0.31,0.08,0.47,0.01
										c0.16-0.06,0.28-0.17,0.36-0.32L323.92,129.97z M327.02,124.62l-2.84,6.26l-0.58-0.26l2.84-6.26L327.02,124.62z
										 M324.65,123.79l-0.01,0.03c-0.15-0.06-0.3-0.07-0.45-0.01c-0.15,0.06-0.26,0.16-0.32,0.31l-0.07,0.15l-0.09-0.03
										l0.33-0.73L324.65,123.79z M329.34,125.63l-0.12,0.27l-5.2-2.36l0.12-0.27L329.34,125.63z M324.22,123.11
										c0.05,0.05,0.13,0.12,0.24,0.2c0.11,0.08,0.24,0.16,0.38,0.25c0.14,0.08,0.27,0.16,0.4,0.21l-1.14-0.4L324.22,123.11z
										 M324.45,130.21l0.03,0.01c-0.06,0.16-0.07,0.32-0.01,0.48c0.06,0.16,0.17,0.28,0.32,0.35l0.12,0.05l-0.04,0.09l-0.72-0.33
										L324.45,130.21z M329.41,125.47l-0.12,0.26l-1.05-0.6c0.13,0.06,0.27,0.11,0.43,0.16c0.15,0.05,0.3,0.09,0.44,0.12
										C329.25,125.45,329.35,125.47,329.41,125.47z M329.23,125.87l-0.33,0.73l-0.09-0.05l0.07-0.15
										c0.07-0.15,0.07-0.3,0.01-0.45s-0.16-0.26-0.3-0.33l0.01-0.03L329.23,125.87z"/>
									<path class="st14" d="M330.51,132.37l-0.14,0.71l-0.77-0.15l0.02-0.1l0.13,0.02c0.17,0.03,0.32,0,0.46-0.1
										c0.14-0.1,0.23-0.23,0.27-0.4L330.51,132.37z M332.27,126.41l-1.3,6.78l-0.63-0.12l1.3-6.78L332.27,126.41z M331.54,127.01
										l-0.03,0c0.03-0.17-0.01-0.33-0.11-0.47c-0.1-0.14-0.23-0.23-0.4-0.26l-0.13-0.02l0.02-0.1l0.77,0.15L331.54,127.01z
										 M331.08,132.48l0.03,0c-0.03,0.17,0.01,0.33,0.11,0.47c0.1,0.14,0.23,0.23,0.4,0.26c0.08,0.02,0.12,0.02,0.13,0.03
										l-0.02,0.1l-0.77-0.15L331.08,132.48z M335.69,130.47l-0.06,0.29l-4.14-0.79l0.06-0.29L335.69,130.47z M332.11,127.12
										l0.14-0.71l0.77,0.15l-0.02,0.1c-0.01,0-0.05-0.01-0.13-0.02c-0.17-0.03-0.32,0-0.47,0.1s-0.23,0.23-0.27,0.39
										L332.11,127.12z M335.1,133.25l-0.13,0.71l-0.78-0.15l0.02-0.1c0.01,0,0.05,0.01,0.13,0.02c0.17,0.03,0.32,0,0.47-0.1
										c0.15-0.1,0.24-0.23,0.27-0.4L335.1,133.25z M336.86,127.29l-1.3,6.78l-0.63-0.12l1.3-6.78L336.86,127.29z M336.13,127.89
										l-0.03,0c0.03-0.17,0-0.32-0.1-0.47c-0.1-0.14-0.23-0.23-0.4-0.26c-0.08-0.01-0.12-0.02-0.12-0.02l0.02-0.1l0.78,0.15
										L336.13,127.89z M335.67,133.36l0.03,0.01c-0.03,0.17,0.01,0.32,0.11,0.47s0.23,0.23,0.4,0.26l0.13,0.02l-0.02,0.1
										l-0.77-0.15L335.67,133.36z M336.7,128l0.13-0.71l0.78,0.15l-0.02,0.1l-0.13-0.02c-0.17-0.03-0.32,0-0.46,0.1
										c-0.14,0.1-0.23,0.23-0.27,0.39L336.7,128z"/>
									<path class="st14" d="M344.09,127.78l-0.03,0c-0.03-0.17-0.12-0.3-0.26-0.4s-0.3-0.13-0.47-0.1l-0.12,0.02l-0.03-0.1
										l0.78-0.14L344.09,127.78z M344.57,126.96l1.21,6.79l-0.63,0.11l-1.21-6.79L344.57,126.96z M345.05,133.16l0.13,0.71
										L344.4,134l-0.02-0.1l0.13-0.02c0.17-0.03,0.3-0.12,0.4-0.26c0.1-0.14,0.14-0.3,0.11-0.47L345.05,133.16z M345.72,126.76
										c0.41-0.07,0.78-0.06,1.11,0.03c0.32,0.1,0.59,0.27,0.8,0.52c0.21,0.25,0.35,0.57,0.42,0.96c0.05,0.3,0.04,0.57-0.03,0.83
										c-0.07,0.26-0.19,0.48-0.36,0.68c-0.17,0.2-0.36,0.36-0.6,0.48c-0.23,0.12-0.48,0.2-0.75,0.23s-0.53,0-0.8-0.09l-0.02-0.1
										c0.23-0.01,0.42-0.03,0.59-0.07s0.34-0.11,0.52-0.2s0.34-0.23,0.48-0.42c0.14-0.18,0.22-0.42,0.26-0.72
										c0.01-0.07,0.01-0.17,0-0.27c-0.01-0.11-0.02-0.22-0.05-0.32c-0.09-0.44-0.27-0.78-0.54-1.01
										c-0.28-0.23-0.62-0.31-1.03-0.24l-1.15,0.2c-0.05-0.09-0.1-0.18-0.15-0.27L345.72,126.76z M345.62,133.05l0.03-0.01
										c0.04,0.17,0.12,0.3,0.27,0.4c0.14,0.1,0.29,0.13,0.46,0.1l0.13-0.02l0.02,0.1l-0.78,0.14L345.62,133.05z"/>
									<path class="st14" d="M352.87,124.35c0.64-0.29,1.27-0.41,1.88-0.35c0.61,0.05,1.16,0.27,1.65,0.63
										c0.49,0.37,0.89,0.88,1.18,1.53s0.42,1.29,0.36,1.9c-0.05,0.62-0.26,1.17-0.62,1.66c-0.36,0.49-0.87,0.88-1.51,1.17
										c-0.64,0.29-1.26,0.4-1.87,0.35c-0.61-0.05-1.16-0.27-1.65-0.63c-0.49-0.37-0.89-0.88-1.18-1.53
										c-0.29-0.65-0.42-1.29-0.36-1.9c0.05-0.61,0.26-1.17,0.62-1.66C351.74,125.03,352.24,124.64,352.87,124.35z M355.7,130.63
										c0.51-0.23,0.9-0.56,1.17-0.98c0.27-0.42,0.41-0.91,0.42-1.45c0.01-0.54-0.12-1.12-0.39-1.72
										c-0.27-0.6-0.61-1.08-1.03-1.43c-0.42-0.35-0.87-0.57-1.36-0.65c-0.49-0.08-1-0.01-1.5,0.22c-0.5,0.23-0.89,0.55-1.16,0.97
										c-0.27,0.42-0.41,0.91-0.42,1.45c-0.01,0.55,0.12,1.12,0.39,1.72c0.27,0.6,0.61,1.08,1.03,1.43s0.87,0.57,1.36,0.65
										C354.7,130.92,355.2,130.85,355.7,130.63z"/>
									<path class="st14" d="M358.6,122.08l-0.02,0.02c-0.11-0.13-0.25-0.21-0.42-0.23c-0.17-0.02-0.32,0.02-0.46,0.12l-0.1,0.08
										l-0.06-0.08l0.62-0.48L358.6,122.08z M358.64,121.14l4.22,5.46l-0.51,0.39l-4.22-5.46L358.64,121.14z M359.06,121.73
										l-0.44-0.57l0.62-0.48l0.06,0.08c0,0-0.04,0.03-0.1,0.08c-0.13,0.1-0.21,0.24-0.24,0.41c-0.02,0.17,0.02,0.33,0.12,0.46
										L359.06,121.73z M361.94,126.4l0.44,0.57l-0.62,0.48l-0.06-0.08l0.1-0.08c0.13-0.1,0.21-0.24,0.24-0.41
										c0.02-0.17-0.02-0.33-0.12-0.47L361.94,126.4z M364.78,124.73l0.19,0.24l-2.13,1.65l-0.19-0.24L364.78,124.73z
										 M364.47,123.34l0.52,1.61l-1.29,1l0.09-0.46c0.28-0.21,0.47-0.43,0.58-0.65c0.11-0.22,0.16-0.45,0.14-0.69
										c-0.01-0.24-0.05-0.49-0.12-0.75L364.47,123.34z"/>
									<path class="st14" d="M363.47,117.86l-0.02,0.02c-0.13-0.11-0.28-0.16-0.45-0.14c-0.17,0.01-0.32,0.09-0.43,0.22
										l-0.08,0.09l-0.08-0.06l0.52-0.6L363.47,117.86z M363.33,116.92l5.23,4.51l-0.42,0.49l-5.23-4.51L363.33,116.92z
										 M365.07,114.91l0.23,0.2l-1.76,2.04l-0.23-0.2L365.07,114.91z M364.93,114.79l0.22,0.19l-0.87,0.84
										c0.09-0.11,0.19-0.23,0.28-0.37c0.09-0.13,0.17-0.26,0.24-0.38C364.87,114.95,364.92,114.85,364.93,114.79z M365.28,115.09
										l0.6,0.51l-0.06,0.08l-0.13-0.12c-0.12-0.1-0.26-0.15-0.42-0.14c-0.16,0.01-0.3,0.07-0.41,0.19l-0.01-0.01L365.28,115.09z
										 M367.33,117.42l0.22,0.19l-1.48,1.72l-0.22-0.19L367.33,117.42z M366.85,117.01l0.49,0.43l-0.37,0.43l-0.01-0.01
										c0.08-0.1,0.11-0.22,0.1-0.35s-0.07-0.24-0.17-0.33l-0.1-0.09L366.85,117.01z M367.54,117.6l0.49,0.43l-0.06,0.07
										l-0.11-0.1c-0.1-0.09-0.22-0.12-0.35-0.12c-0.13,0.01-0.24,0.06-0.33,0.16l-0.02-0.01L367.54,117.6z M367.61,121.42
										l0.55,0.47l-0.52,0.6l-0.07-0.06l0.08-0.1c0.11-0.13,0.16-0.28,0.15-0.45c-0.01-0.17-0.08-0.32-0.21-0.43L367.61,121.42z
										 M370.06,119.22l0.23,0.2l-1.76,2.04l-0.23-0.2L370.06,119.22z M369.48,117.92l0.84,1.48l-1.07,1.24v-0.47
										c0.23-0.26,0.37-0.51,0.43-0.75s0.06-0.47,0-0.71c-0.06-0.23-0.15-0.47-0.27-0.71L369.48,117.92z"/>
								</g>
							</g>
							<g>
								<g>
									<path class="st8" d="M364.37,102l-0.37-0.05l-0.23-0.11l-0.04-0.2l0.17-0.88l0.08-0.16l0.05-0.13l0.09-0.13l0.07-0.16
										l0.07-0.13l0.11-0.1l0.08-0.12l0.12-0.13l0.08-0.1l0.12-0.11l0.1-0.13l0.12-0.08l0.1-0.14l0.36-0.28l0.12-0.13l0.11-0.09
										l0.12-0.1l0.09-0.1l0.13-0.11l0.09-0.12l0.12-0.1l0.09-0.13l0.09-0.15l0.09-0.09l0.06-0.16l0.04-0.12l0.05-0.15l0.08-0.49
										l-0.02-0.16l-0.12-0.27l-0.09-0.09l-0.11-0.06l-0.13-0.1l-0.2-0.08l-0.23-0.01l-0.13,0.02l-0.17,0.01l-0.14,0.07l-0.27,0.1
										l-0.15,0.01l-0.18-0.08l-0.01-0.22l0.09-0.18l0.16-0.07l0.12-0.08l0.13-0.05l0.13-0.02l0.15-0.04l0.18,0l0.15-0.01
										l0.4,0.04l0.37,0.1l0.11,0.08l0.14,0.07l0.13,0.12l0.18,0.23l0.12,0.24l0.01,0.15l0.03,0.16l0,0.15l-0.11,0.63l-0.06,0.17
										l-0.11,0.25l-0.1,0.14l-0.06,0.14l-0.09,0.13l-0.42,0.45l-0.09,0.09l-0.11,0.13l-0.12,0.1l-0.22,0.21l-0.15,0.1l-0.08,0.11
										l-0.12,0.08l-0.44,0.43l-0.44,0.64l-0.13,0.3l-0.07,0.26l0.03,0.17l0.13,0.12l0.23,0.05l0.25,0.01l0.63,0.11l0.16,0.06
										l0.23,0.01l0.21,0.05l0.16,0.11l0.04,0.21l-0.1,0.14l-0.19,0.07l-0.15-0.06l-0.15,0l-0.31-0.07l-0.46-0.05l-0.14-0.06
										l-0.32-0.04l-0.16,0L364.37,102z"/>
									<path class="st8" d="M369.92,103.06l-0.13-0.05l-0.11-0.08l-0.13-0.05l-0.11-0.09l-0.12-0.13l-0.23-0.33l-0.02-0.18
										l-0.06-0.13l-0.02-0.17l-0.08-0.45l0.05-0.95l0.03-0.18l0.09-0.7l0.13-0.55l0.01-0.15l0.05-0.15l0.02-0.15l0.05-0.13
										l0.03-0.17l0.04-0.15l0.06-0.12l0.15-0.46l0.2-0.4l0.28-0.38l0.38-0.25l0.29-0.1l0.15-0.02l0.14,0.01l0.23,0l0.22,0.07
										l0.12,0.08l0.14,0.05l0.12,0.07l0.1,0.08l0.19,0.25l0.05,0.14l0.07,0.12l0.05,0.15l0.06,0.3l0.05,0.63l-0.05,0.86
										l-0.04,0.15v0.18l-0.02,0.15l-0.05,0.17l-0.17,0.91l-0.02,0.16l-0.06,0.16l-0.03,0.14l-0.19,0.56l-0.09,0.16l-0.04,0.17
										l-0.16,0.27l-0.1,0.13l-0.1,0.1l-0.09,0.12l-0.11,0.09l-0.11,0.1l-0.16,0.09l-0.13,0.05l-0.15,0.04l-0.15,0.02l-0.14,0.02
										l-0.23-0.02L369.92,103.06z M370.24,102.55l0.19,0l0.15-0.01l0.11-0.04l0.09-0.09l0.12-0.08l0.09-0.11l0.13-0.28l0.08-0.14
										l0.07-0.13l0.04-0.16l0.06-0.16l0.03-0.15l0.04-0.14l0.12-0.5l0.05-0.13l0.12-0.81l0.04-0.16l0.05-0.48l0-0.15l0.01-0.17
										l0.03-0.13l0-0.65l-0.08-0.3l-0.06-0.17l-0.17-0.28l-0.14-0.07L371.19,97l-0.2-0.04l-0.13,0.03l-0.11,0.06l-0.1,0.1
										l-0.12,0.1l-0.09,0.12l-0.1,0.13l-0.05,0.16l-0.07,0.13l-0.21,0.61l-0.04,0.2l-0.05,0.16l-0.04,0.14l-0.18,1l-0.04,0.14
										l0.01,0.17l-0.03,0.12l-0.04,0.29l-0.05,0.79l0.05,0.33l0,0.14l0.05,0.16l0.11,0.28l0.13,0.08l0.14,0.11L370.24,102.55z"/>
									<path class="st8" d="M375.3,103.88l-0.13-0.08l-0.08-0.18l0.08-0.27l-0.01-0.13l0.11-0.48l0.02-0.15l0.01-0.15l0.04-0.14
										l0.02-0.14l0.04-0.18l0.01-0.16l0.08-0.43l0.04-0.15l0.02-0.17l0.05-0.3l0.05-0.13v-0.17l0.05-0.15l0.01-0.12l0.14-0.77
										l0.02-0.14l0.04-0.15l0.03-0.23l0.15-0.56l-0.04-0.1l-0.08,0.07l-0.14,0.08l-0.35,0.34l-0.12,0.1l-0.11,0.11l-0.18,0.05
										l-0.15-0.03l-0.11-0.13l-0.01-0.15l0.04-0.13l0.12-0.1l0.17-0.2l0.29-0.23l0.11-0.13l0.12-0.1l0.23-0.21l0.31-0.18
										l0.23-0.02l0.17,0.02l0.15,0.11l0.07,0.18l-0.02,0.15l-0.08,0.29l-0.01,0.16l-0.09,0.47l-0.03,0.11l-0.42,2.45l-0.01,0.16
										l-0.09,0.28l0,0.16l-0.04,0.14l-0.01,0.15l-0.02,0.18l-0.06,0.27l-0.05,0.32l-0.05,0.13l-0.09,0.63l-0.12,0.16l-0.16,0.02
										L375.3,103.88z"/>
									<path class="st8" d="M378.74,104.52l-0.08-0.17l0.09-0.17l0.17-0.08l0.29,0.02l0.17-0.02l0.28-0.06l0.29-0.14l0.26-0.19
										l0.19-0.19l0.09-0.15l0.09-0.09l0.08-0.15l0.07-0.15l0.07-0.12l0.08-0.3l0.11-0.3l0.03-0.16l-0.03-0.12l-0.1,0.03
										l-0.13,0.05l-0.45,0.11l-0.15,0.03l-0.25-0.02l-0.21-0.08l-0.13-0.03l-0.27-0.19l-0.21-0.19l-0.09-0.12l-0.17-0.43
										l-0.07-0.33l-0.01-0.34l0.01-0.16l0.11-0.64l0.14-0.42l0.16-0.3l0.05-0.14l0.1-0.13l0.08-0.12l0.23-0.21l0.16-0.1
										l0.15-0.05l0.15-0.06l0.28-0.07l0.17,0.01l0.47,0.09l0.28,0.13l0.3,0.22l0.14,0.18l0.07,0.16l0.07,0.11l0.08,0.33
										l0.03,0.14l-0.01,0.16l0.02,0.14l-0.02,0.48l-0.02,0.16l-0.02,0.32l-0.02,0.13l-0.02,0.19l-0.33,1.36l-0.02,0.16
										l-0.06,0.16l-0.05,0.13l-0.11,0.29l-0.06,0.14l-0.09,0.13l-0.05,0.14l-0.1,0.17l-0.1,0.12l-0.07,0.11l-0.14,0.13l-0.1,0.11
										l-0.12,0.08l-0.11,0.1l-0.45,0.2l-0.16,0.05l-0.15,0l-0.15,0.03l-0.14,0.01l-0.16,0.03l-0.33-0.05L378.74,104.52z
										 M380.08,101.61l0.24,0.01l0.32,0l0.14-0.04l0.26-0.15l0.12-0.2l0.08-0.2l0.09-0.48l0.01-0.16l0-0.13l0.04-0.32l0-0.19
										l-0.02-0.14l-0.1-0.46l-0.07-0.16l-0.16-0.17l-0.17-0.15l-0.24-0.04l-0.21-0.01l-0.13,0.04l-0.28,0.12l-0.1,0.09l-0.1,0.13
										l-0.09,0.16l-0.07,0.12l-0.11,0.3l-0.17,0.74l0.01,0.15l0,0.18l-0.01,0.13l0.02,0.17l0.11,0.25l0.08,0.14l0.12,0.12
										l0.15,0.09L380.08,101.61z"/>
								</g>
								<g>
									<path class="st8" d="M297.8,90.34l-0.37-0.05l-0.23-0.11l-0.04-0.2l0.17-0.88l0.08-0.16l0.05-0.13l0.09-0.13l0.07-0.16
										l0.07-0.13l0.11-0.1l0.08-0.12l0.12-0.14l0.08-0.1l0.12-0.11l0.1-0.13l0.12-0.08l0.1-0.14l0.36-0.28l0.12-0.13l0.11-0.09
										l0.12-0.1l0.09-0.1l0.13-0.11l0.09-0.12l0.12-0.1l0.09-0.13l0.09-0.15l0.09-0.09l0.06-0.16l0.04-0.12l0.05-0.15l0.08-0.49
										L300.14,85l-0.12-0.27l-0.09-0.09l-0.11-0.06l-0.13-0.1l-0.2-0.08l-0.23-0.01l-0.13,0.02l-0.17,0.01l-0.14,0.07l-0.27,0.1
										l-0.15,0.01l-0.18-0.08l-0.01-0.22l0.09-0.18l0.16-0.07l0.12-0.08l0.13-0.05l0.13-0.02l0.15-0.04l0.18,0l0.15-0.01
										l0.41,0.04l0.37,0.1l0.11,0.08l0.14,0.07l0.13,0.12l0.18,0.23l0.12,0.24l0.01,0.15l0.03,0.16l0,0.15l-0.11,0.63L300.64,86
										l-0.11,0.25l-0.1,0.14l-0.06,0.14l-0.09,0.13l-0.42,0.45l-0.1,0.09l-0.11,0.13l-0.12,0.1l-0.22,0.21l-0.15,0.1l-0.08,0.11
										l-0.12,0.08l-0.44,0.43l-0.44,0.64l-0.13,0.3l-0.07,0.26l0.03,0.17l0.13,0.12l0.23,0.05l0.25,0.01l0.63,0.11l0.16,0.06
										l0.23,0.01l0.21,0.05l0.16,0.11l0.04,0.21l-0.1,0.14l-0.19,0.07l-0.15-0.06l-0.15,0l-0.31-0.07l-0.46-0.05l-0.14-0.06
										l-0.32-0.04l-0.16,0L297.8,90.34z"/>
									<path class="st8" d="M303.35,91.4l-0.13-0.05l-0.11-0.08l-0.13-0.05l-0.11-0.09L302.75,91l-0.23-0.33l-0.02-0.18
										l-0.06-0.13l-0.02-0.17l-0.08-0.45l0.05-0.95l0.03-0.18l0.09-0.7l0.12-0.55l0.01-0.15l0.06-0.15l0.02-0.15l0.05-0.13
										l0.03-0.17l0.05-0.15l0.06-0.12l0.15-0.46l0.2-0.4l0.28-0.38l0.38-0.25l0.29-0.1l0.15-0.02l0.14,0.01l0.23,0l0.22,0.07
										l0.12,0.08l0.14,0.05l0.13,0.07l0.1,0.08l0.19,0.25l0.05,0.14l0.07,0.12l0.05,0.15l0.06,0.3l0.05,0.63l-0.05,0.86
										l-0.04,0.15l0,0.18l-0.02,0.15l-0.05,0.17l-0.17,0.91l-0.02,0.16l-0.06,0.16l-0.03,0.14l-0.19,0.56l-0.09,0.16l-0.04,0.17
										l-0.15,0.27l-0.1,0.13l-0.1,0.1l-0.09,0.12l-0.11,0.09l-0.11,0.1l-0.16,0.09l-0.13,0.05l-0.15,0.04l-0.15,0.02l-0.14,0.02
										l-0.23-0.02L303.35,91.4z M303.68,90.89l0.19,0l0.15-0.01l0.1-0.04l0.09-0.09l0.12-0.08l0.09-0.11l0.13-0.28l0.08-0.14
										l0.07-0.13l0.04-0.16l0.06-0.16l0.03-0.15l0.04-0.14l0.12-0.5l0.05-0.13l0.12-0.81l0.04-0.16l0.05-0.48l0-0.15l0.01-0.17
										l0.03-0.13l0-0.65l-0.08-0.3l-0.06-0.17l-0.17-0.28l-0.14-0.07l-0.22-0.05l-0.2-0.04l-0.13,0.03l-0.11,0.06l-0.1,0.1
										l-0.12,0.1l-0.09,0.12l-0.1,0.13L303.73,86l-0.07,0.13l-0.21,0.61l-0.04,0.2l-0.05,0.16l-0.04,0.14l-0.19,1l-0.04,0.14
										l0.01,0.17l-0.03,0.12l-0.04,0.29l-0.05,0.79l0.05,0.33l0,0.14l0.05,0.16l0.11,0.28l0.13,0.08l0.14,0.11L303.68,90.89z"/>
									<path class="st8" d="M308.73,92.23l-0.13-0.08l-0.08-0.18l0.08-0.27l-0.01-0.13l0.11-0.48l0.02-0.15l0.01-0.15l0.04-0.14
										l0.01-0.14l0.04-0.18l0.01-0.16l0.08-0.43l0.04-0.15l0.02-0.17l0.05-0.3l0.05-0.13v-0.17l0.05-0.15l0.01-0.12l0.15-0.77
										l0.02-0.14l0.04-0.15l0.03-0.23l0.15-0.57l-0.04-0.1l-0.08,0.07l-0.14,0.08l-0.35,0.34l-0.12,0.1l-0.11,0.11l-0.17,0.05
										l-0.15-0.03l-0.11-0.13l-0.01-0.15l0.04-0.13l0.12-0.1l0.17-0.2l0.29-0.23l0.11-0.13l0.12-0.1l0.23-0.21l0.31-0.18
										l0.23-0.02l0.17,0.02l0.15,0.11l0.07,0.18l-0.02,0.15l-0.08,0.29l-0.01,0.16l-0.09,0.47L310,87.23l-0.42,2.45l-0.01,0.16
										l-0.09,0.28l0,0.16l-0.04,0.14l-0.01,0.15l-0.02,0.18l-0.06,0.27l-0.04,0.32l-0.05,0.13l-0.09,0.63l-0.12,0.16l-0.16,0.02
										L308.73,92.23z"/>
									<path class="st8" d="M312.17,92.86l-0.08-0.17l0.09-0.17l0.17-0.08l0.29,0.02l0.17-0.02l0.28-0.06l0.29-0.14l0.26-0.19
										l0.19-0.19l0.1-0.15l0.08-0.09l0.08-0.15l0.07-0.16l0.07-0.12l0.08-0.3l0.11-0.3l0.03-0.16l-0.03-0.12l-0.1,0.03
										l-0.13,0.05l-0.45,0.11l-0.15,0.03l-0.25-0.02l-0.21-0.08L313,90.39l-0.27-0.19l-0.21-0.19l-0.09-0.12l-0.17-0.43
										l-0.07-0.33l-0.01-0.34l0.01-0.16L312.3,88l0.14-0.42l0.16-0.3l0.05-0.14l0.1-0.13l0.08-0.12l0.23-0.21l0.15-0.1l0.15-0.05
										l0.15-0.06l0.28-0.07l0.17,0.01l0.47,0.09l0.28,0.13l0.31,0.22l0.14,0.18l0.07,0.16l0.07,0.11l0.08,0.33l0.03,0.14
										l-0.01,0.17l0.02,0.14l-0.02,0.48l-0.02,0.16l-0.02,0.32l-0.02,0.13l-0.02,0.19l-0.33,1.36L315,90.89l-0.06,0.16
										l-0.05,0.13l-0.11,0.29l-0.06,0.14l-0.09,0.13l-0.05,0.14l-0.1,0.17l-0.1,0.12l-0.07,0.11l-0.14,0.13l-0.1,0.11l-0.12,0.08
										l-0.11,0.1l-0.45,0.2l-0.16,0.05l-0.15,0l-0.15,0.03l-0.14,0.01l-0.16,0.03l-0.33-0.05L312.17,92.86z M313.52,89.95
										l0.24,0.01l0.32,0l0.14-0.04l0.26-0.15l0.12-0.2l0.08-0.2l0.09-0.47l0.01-0.16l0-0.13l0.04-0.32l0-0.19l-0.01-0.14
										l-0.1-0.46l-0.07-0.16l-0.16-0.17l-0.17-0.15l-0.24-0.04l-0.21-0.01l-0.13,0.04l-0.28,0.12l-0.1,0.09l-0.1,0.13l-0.09,0.16
										l-0.07,0.12l-0.11,0.3l-0.17,0.74l0.01,0.15l0,0.18l-0.01,0.13l0.02,0.17l0.11,0.25l0.08,0.14l0.12,0.12l0.15,0.09
										L313.52,89.95z"/>
								</g>
							</g>
						</g>
					</g>
				</g>
			</g>
		</g>
	</g>
</g>
</svg>
