<?xml version="1.0" encoding="utf-8"?>
<!-- Generator: Adobe Illustrator 26.4.1, SVG Export Plug-In . SVG Version: 6.00 Build 0)  -->
<svg version="1.1" id="레이어_1" xmlns="http://www.w3.org/2000/svg" xmlns:xlink="http://www.w3.org/1999/xlink" x="0px"
	 y="0px" viewBox="0 0 286.23 255.57" style="enable-background:new 0 0 286.23 255.57;" xml:space="preserve">
<style type="text/css">
	.st0{fill:#514845;}
	.st1{fill:#397637;}
	.st2{fill:#2D5F31;}
	.st3{fill:none;stroke:#E07942;stroke-width:3;stroke-linecap:round;stroke-linejoin:round;stroke-miterlimit:10;}
	.st4{fill:#CBAF8C;}
	.st5{fill:#C2A17F;}
	.st6{fill:#CAAD8C;}
	.st7{fill:#FCFEFE;}
	.st8{fill:none;stroke:#323333;stroke-width:3;stroke-linecap:round;stroke-linejoin:round;stroke-miterlimit:10;}
	.st9{fill:#E27337;}
	.st10{fill:#B89878;}
	.st11{fill:#154875;}
	.st12{clip-path:url(#SVGID_00000174597033765953429890000010227616671546979487_);fill:#0C365E;}
	.st13{fill:#E4BC36;}
	.st14{fill:#491E0D;}
	.st15{fill:#927652;}
</style>
<g>
	<g>
		<path class="st0" d="M244.86,255.57H9.14c-5.05,0-9.14-4.09-9.14-9.14l0-3.14c0-5.05,4.09-9.14,9.14-9.14h235.71
			c5.05,0,9.14,4.09,9.14,9.14v3.14C254,251.47,249.91,255.57,244.86,255.57z"/>
		<g>
			<path class="st1" d="M262.12,232.69c-6.73,13.85-14.44,15.67-21.25,12.36c-6.81-3.31-10.15-10.5-3.42-24.34
				c6.73-13.85,27.78-25.81,27.78-25.81S268.84,218.84,262.12,232.69z"/>
			<path class="st2" d="M265.02,246.93c-12.65,8.78-20.26,6.6-24.58,0.38s-3.71-14.12,8.93-22.9c12.65-8.78,36.86-8.9,36.86-8.9
				S277.66,238.15,265.02,246.93z"/>
		</g>
	</g>
	<g>
		<g>
			<line class="st3" x1="142.57" y1="212.61" x2="142.57" y2="239.66"/>
			<path class="st3" d="M127.43,239.66c0-6.84,6.78-12.38,15.14-12.38s15.14,5.54,15.14,12.38"/>
		</g>
		<g>
			<line class="st3" x1="181.57" y1="192.47" x2="181.57" y2="239.52"/>
			<path class="st3" d="M166.43,239.52c0-6.84,6.78-12.38,15.14-12.38s15.14,5.54,15.14,12.38"/>
		</g>
		<path class="st4" d="M248.23,67.86c-0.33-21.86-18.31-39.63-40.24-39.63h-71.56c-22.53,0-40.96,18.43-40.96,40.96v55.52v95.9
			c0,0,27.07-0.14,36.24-1.71c19.48-3.34,116.52-16.51,116.52-92.83c0-47.81,0-57.59,0-57.59"/>
		<path class="st4" d="M248.24,151.28"/>
		<path class="st5" d="M235.81,39.34c-0.17-0.93-0.34-1.86-0.51-2.8c-0.93-5.13-1.87-10.26-2.8-15.39c-0.41-2.27-0.82-4.53-1.24-6.8
			c-0.87-2.71-2.88-2.37-5.58-1.5c-5.34,5.14-10.69,10.28-16.03,15.42c-0.47-0.02-0.94-0.04-1.41-0.04h-72.76
			c-0.47,0-0.94,0.02-1.41,0.04c-5.34-5.14-10.69-10.28-16.03-15.42c-2.71-0.87-4.71-1.21-5.58,1.5c-0.41,2.27-0.82,4.53-1.24,6.8
			c-0.93,5.13-1.87,10.26-2.8,15.39c-0.17,0.93-0.34,1.86-0.51,2.8c-7.64,7.3-12.43,17.56-12.43,28.9v0c0,22,18,40,40,40h72.76
			c22,0,40-18,40-40v0C248.24,56.9,243.45,46.63,235.81,39.34z"/>
		<g>
			<g>
				<circle class="st6" cx="140.57" cy="69.57" r="34.29"/>
				<circle class="st7" cx="140.57" cy="69.57" r="20.38"/>
				<path class="st8" d="M126.86,69.57c0,7.57,6.14,13.71,13.71,13.71c7.57,0,13.71-6.14,13.71-13.71"/>
			</g>
			<g>
				<circle class="st6" cx="203.14" cy="69.57" r="34.29"/>
				<circle class="st7" cx="203.14" cy="69.57" r="20.38"/>
				<path class="st8" d="M189.43,69.57c0,7.57,6.14,13.71,13.71,13.71c7.57,0,13.71-6.14,13.71-13.71"/>
			</g>
		</g>
		<polygon class="st9" points="171.86,77.64 181.27,77.64 176.56,87.51 171.86,97.38 167.15,87.51 162.45,77.64 		"/>
		<g>
			<g>
				<path class="st10" d="M186.02,152.67c-4.79,2.35-10.82-0.11-13.45-5.47l-0.15-0.3c-0.36-0.74-0.06-1.64,0.69-2.01
					c0.74-0.36,1.64-0.06,2.01,0.69l0.15,0.3c1.9,3.88,6.14,5.72,9.44,4.1c3.3-1.62,4.44-6.09,2.54-9.97l-0.15-0.3
					c-0.36-0.74-0.06-1.64,0.69-2.01c0.74-0.36,1.64-0.06,2.01,0.69l0.15,0.3C192.57,144.05,190.81,150.32,186.02,152.67z"/>
			</g>
			<g>
				<path class="st10" d="M172.06,171.92c-4.79,2.35-10.82-0.11-13.45-5.47l-0.15-0.3c-0.36-0.74-0.06-1.64,0.69-2.01
					c0.74-0.36,1.64-0.06,2.01,0.69l0.15,0.3c1.9,3.88,6.14,5.72,9.44,4.1c3.3-1.62,4.44-6.09,2.54-9.97l-0.15-0.3
					c-0.36-0.74-0.06-1.64,0.69-2.01c0.74-0.36,1.64-0.06,2.01,0.69l0.15,0.3C178.6,163.3,176.85,169.57,172.06,171.92z"/>
			</g>
			<g>
				<path class="st10" d="M159.22,189.73c-4.79,2.35-10.82-0.11-13.45-5.47l-0.15-0.3c-0.36-0.74-0.06-1.64,0.69-2.01
					c0.74-0.36,1.64-0.06,2.01,0.69l0.15,0.3c1.9,3.88,6.14,5.72,9.44,4.1c3.3-1.62,4.44-6.09,2.54-9.97l-0.15-0.3
					c-0.36-0.74-0.06-1.64,0.69-2.01s1.64-0.06,2.01,0.69l0.15,0.3C165.76,181.1,164.01,187.38,159.22,189.73z"/>
			</g>
			<g>
				<path class="st10" d="M231.04,153.76c-4.79,2.35-10.82-0.11-13.45-5.47l-0.15-0.3c-0.36-0.74-0.06-1.64,0.69-2.01
					c0.74-0.36,1.64-0.06,2.01,0.69l0.15,0.3c1.9,3.88,6.14,5.72,9.44,4.1c3.3-1.62,4.44-6.09,2.54-9.97l-0.15-0.3
					c-0.36-0.74-0.06-1.64,0.69-2.01c0.74-0.36,1.64-0.06,2.01,0.69l0.15,0.3C237.58,145.14,235.83,151.41,231.04,153.76z"/>
			</g>
			<g>
				<path class="st10" d="M209.6,153.51c-4.79,2.35-10.82-0.11-13.45-5.47l-0.15-0.3c-0.36-0.74-0.06-1.64,0.69-2.01
					c0.74-0.36,1.64-0.06,2.01,0.69l0.15,0.3c1.9,3.88,6.14,5.72,9.44,4.1s4.44-6.09,2.54-9.97l-0.15-0.3
					c-0.36-0.74-0.06-1.64,0.69-2.01c0.74-0.36,1.64-0.06,2.01,0.69l0.15,0.3C216.14,144.89,214.39,151.16,209.6,153.51z"/>
			</g>
			<g>
				<path class="st10" d="M195.28,172.04c-4.79,2.35-10.82-0.11-13.45-5.47l-0.15-0.3c-0.36-0.74-0.06-1.64,0.69-2.01
					c0.74-0.36,1.64-0.06,2.01,0.69l0.15,0.3c1.9,3.88,6.14,5.72,9.44,4.1c3.3-1.62,4.44-6.09,2.54-9.97l-0.15-0.3
					c-0.36-0.74-0.06-1.64,0.69-2.01c0.74-0.36,1.64-0.06,2.01,0.69l0.15,0.3C201.82,163.42,200.06,169.69,195.28,172.04z"/>
			</g>
			<g>
				<path class="st10" d="M181.37,190.91c-4.79,2.35-10.82-0.11-13.45-5.47l-0.15-0.3c-0.36-0.74-0.06-1.64,0.69-2.01
					c0.74-0.36,1.64-0.06,2.01,0.69l0.15,0.3c1.9,3.88,6.14,5.72,9.44,4.1c3.3-1.62,4.44-6.09,2.54-9.97l-0.15-0.3
					c-0.36-0.74-0.06-1.64,0.69-2.01c0.74-0.36,1.64-0.06,2.01,0.69l0.15,0.3C187.92,182.29,186.16,188.56,181.37,190.91z"/>
			</g>
			<g>
				<path class="st10" d="M218.91,172.5c-4.79,2.35-10.82-0.11-13.45-5.47l-0.15-0.3c-0.36-0.74-0.06-1.64,0.69-2.01
					c0.74-0.36,1.64-0.06,2.01,0.69l0.15,0.3c1.9,3.88,6.14,5.72,9.44,4.1c3.3-1.62,4.44-6.09,2.54-9.97l-0.15-0.3
					c-0.36-0.74-0.06-1.64,0.69-2.01c0.74-0.36,1.64-0.06,2.01,0.69l0.15,0.3C225.45,163.88,223.7,170.15,218.91,172.5z"/>
			</g>
		</g>
		<g>
			<path class="st11" d="M142.93,26.78c0,0-11.64-6.61,0.86-15.56s22.54-11.76,27.93-11.15c5.39,0.61,19.72,3.32,30.01,12.69
				c10.29,9.36-2.57,15.12-2.57,15.12L142.93,26.78z"/>
			<g>
				<defs>
					<path id="SVGID_1_" d="M142.93,26.78c0,0-11.64-6.61,0.86-15.56s22.54-11.76,27.93-11.15c5.39,0.61,19.72,3.32,30.01,12.69
						c10.29,9.36-2.57,15.12-2.57,15.12L142.93,26.78z"/>
				</defs>
				<clipPath id="SVGID_00000088100542195283278780000009445754556250680235_">
					<use xlink:href="#SVGID_1_"  style="overflow:visible;"/>
				</clipPath>
				<path style="clip-path:url(#SVGID_00000088100542195283278780000009445754556250680235_);fill:#0C365E;" d="M133.93,25.48
					c0,0,16.3-8.01,37.79-7.02c21.49,0.98,34.14,4.64,35.68,6.32c1.55,1.69-20.09,5.06-41.44,4.35S135.05,25.9,133.93,25.48z"/>
			</g>
			<path class="st13" d="M169.86,24.05c-2.74,0-4.87-2.65-4.46-5.36c0.45-2.97,4.02-4.14,6.5-2.95
				C176.04,17.71,174.43,24.05,169.86,24.05z"/>
			<path class="st14" d="M139.04,27.64c0.72-1.29,3.52-1.94,4.88-2.35c1.83-0.55,3.71-0.94,5.56-1.41
				c7.2-1.86,14.68-2.71,22.12-2.37c7.54,0.35,15.14,1.05,22.53,2.62c2.08,0.44,4.17,0.93,6.17,1.66c0.52,0.19,2.33,0.77,2.34,1.48
				c0.01,0.74-2.07,0.97-2.68,1.12c-2.7,0.66-5.49,1.03-8.26,1.36c-8.32,0.99-16.75,1.34-25.13,1.07
				c-4.64-0.15-9.29-0.28-13.92-0.69c-2.33-0.21-4.66-0.48-6.97-0.87C143.53,28.9,140.97,28.7,139.04,27.64z"/>
		</g>
		<path class="st15" d="M155.62,133.74c0.14-20.6-16.85-37.46-37.46-37.46h0c-20.6,0-37.46,16.85-37.46,37.46v42.17v47.68
			c0,0,0.16,5.27,5.75,5.27S155.46,157.45,155.62,133.74z"/>
	</g>
</g>
</svg>
