<svg width="20" height="20" viewBox="0 0 20 20" fill="none" xmlns="http://www.w3.org/2000/svg">
<path d="M12.5248 4.78416C12.3978 4.69933 12.3863 4.94518 12.3228 4.85604C12.2607 4.90636 12.4166 4.85605 12.356 4.93943C12.2939 4.91355 12.3113 5.02426 12.2463 4.95093L12.2463 4.93512L12.2001 4.98831L12.1669 4.88911C12.1366 4.94518 12.1698 5.04438 12.2189 5.09902C12.1395 5.09902 12.1107 5.18816 12.0313 5.14359L12.0313 5.11196C11.9389 5.24998 11.6547 5.10908 11.6763 5.31467C11.6604 5.3118 11.6446 5.29311 11.659 5.28017L11.5825 5.34487L11.5493 5.27729L11.5075 5.47138L11.4757 5.43544C11.3834 5.49726 11.278 5.63528 11.1885 5.74311L11.1885 5.71148C11.1308 5.87251 11.0486 5.78193 11.0053 5.89838C10.9995 5.88688 10.998 5.87969 10.9995 5.87538L10.9288 5.94727L10.9115 5.89838C10.9317 6.0249 10.6618 5.95014 10.7571 5.98177C10.7585 6.04359 10.747 6.13417 10.7787 6.18592C10.7037 6.26644 10.7152 6.16005 10.6373 6.17874C10.5767 6.23049 10.6257 6.2995 10.5175 6.34407L10.4843 6.30813C10.454 6.34982 10.4569 6.39583 10.4107 6.45046L10.4107 6.41883C10.3992 6.57123 10.2058 6.41883 10.2938 6.63305C10.2318 6.6388 10.1885 6.72507 10.1235 6.65318C10.0673 6.79983 10.0095 6.89903 9.93738 7.02699C9.80751 6.93066 9.92295 7.05574 9.7974 7.05286L9.86234 7.10893C9.72958 7.25846 9.41499 7.27427 9.28367 7.45542L9.21729 7.39935L9.25336 7.49712C9.05566 7.63801 8.81467 7.83354 8.6819 7.97012C8.67036 8.04632 8.67901 8.18578 8.5881 8.2361L8.5881 8.22028C8.50296 8.37843 8.40194 8.5337 8.23599 8.63578C8.21867 8.60271 8.18692 8.5984 8.18404 8.56677C8.21867 8.65735 8.12776 8.6516 8.09024 8.67172C8.03251 8.63147 8.05705 8.47044 7.94882 8.55239L7.97768 8.43306C7.94016 8.46469 7.85069 8.52939 7.79874 8.50207C7.80162 8.42875 7.87233 8.37987 7.89831 8.3353L7.74246 8.43306C7.6804 8.08514 7.31963 7.88386 7.22006 7.5345C7.09451 7.45255 6.90835 7.37347 6.81455 7.2297L6.84486 7.2297L6.76837 7.07012L6.78858 7.21676C6.74817 7.20382 6.70344 7.20526 6.68035 7.17794C6.61252 6.9896 6.51295 6.74807 6.29504 6.63737C6.04106 6.66468 6.36864 6.44184 6.16228 6.43609C6.18393 6.43321 6.2099 6.41596 6.23299 6.41165C6.08002 6.34263 5.99921 6.30525 5.80728 6.27075C5.97468 6.14854 5.73801 6.19886 5.82893 6.13848L5.75677 6.18449C5.77265 6.12554 5.73368 6.05366 5.78708 6.02346L5.66442 6.04215L5.72503 5.98177C5.67163 5.90989 5.49125 5.81212 5.59226 5.66404C5.34694 5.58353 5.15501 5.29167 5.0006 5.0602C4.92123 5.07601 4.86495 5.01851 4.81877 4.97394L4.8534 4.85748C4.78846 4.82873 4.64416 4.85892 4.65714 4.77122C4.66725 4.76403 4.67446 4.75972 4.68168 4.75972C4.62395 4.72378 4.6254 4.64183 4.51284 4.65477C4.47099 4.59726 4.4681 4.50956 4.55613 4.46499C4.41904 4.5685 4.4782 4.33416 4.4782 4.33416C4.4782 4.33416 4.3541 4.1415 4.14918 3.84965C3.94282 3.55923 3.65564 3.17105 3.34538 2.77137C2.70177 1.97919 1.98167 1.15395 1.35393 1.04037C1.26734 1.06193 1.17499 1.02311 1.1086 1.10219C1.04655 1.06625 1.15478 0.96273 1.07686 0.997235C1.07686 1.09931 0.877711 1.09212 0.837305 1.21864L0.789683 1.18414C0.733403 1.20714 0.889255 1.21002 0.789683 1.25746L0.931105 1.18557C0.935434 1.23446 0.922446 1.27328 0.886369 1.31497C0.96141 1.31641 1.15478 1.22296 1.13169 1.35522L1.1086 1.33797C1.15911 1.40123 1.05088 1.4343 1.03934 1.46305L1.03068 1.44724L1.00326 1.54788C1.01769 1.47599 0.86328 1.47455 0.896471 1.50618C0.913788 1.61114 0.913788 1.46449 0.971511 1.51481C1.00326 1.54788 0.926776 1.58382 0.884926 1.60826L0.935434 1.67296C0.873382 1.71034 0.908015 1.62551 0.864723 1.69452L0.987385 1.73766C0.84452 1.85698 1.12303 1.78079 1.00615 1.91737C0.928219 1.87999 0.958523 1.95762 0.902243 1.98207L1.01336 2.12727C1.00182 2.15603 0.939763 2.12009 0.962853 2.13734C0.939763 2.19485 1.03212 2.1589 1.04078 2.17472C1.00759 2.21785 1.12015 2.28542 1.01769 2.35156C1.02346 2.49964 1.17499 2.30411 1.18653 2.43782C1.13458 2.49245 1.11726 2.37312 1.08551 2.45938L1.17932 2.5399C1.14324 2.5514 1.06675 2.59022 1.05377 2.54565C1.16488 2.86482 0.952751 3.23862 1.21106 3.42409C1.16488 3.51179 1.14612 3.43415 1.08119 3.44565C1.30342 3.55348 1.11005 3.80652 1.23127 3.94885L1.29188 3.90716C1.27023 4.24933 1.56895 4.41323 1.67285 4.70365L1.69161 4.6447C1.77242 4.6332 1.81716 4.68064 1.87199 4.6979C1.84746 4.72665 1.72769 4.76691 1.80417 4.81579C1.81283 4.78703 1.81283 4.74103 1.84746 4.72665C1.85612 5.04007 2.22699 5.42106 2.41459 5.79918C2.81 6.19599 3.09573 6.74088 3.48103 7.13194C3.42331 7.07155 3.58205 6.98242 3.59215 7.05718C3.47093 7.38641 3.82593 7.24695 3.78408 7.51437C4.06692 7.68833 4.05538 8.07651 4.42625 8.14408L4.36564 8.20591C4.36564 8.26485 4.41759 8.23466 4.45511 8.26341L4.43635 8.27923C4.48397 8.38274 4.63694 8.42444 4.64849 8.49776L4.72353 8.43594C4.77259 8.47907 4.69033 8.5107 4.77548 8.52364L4.73796 8.55527L4.85918 8.55096C4.72785 8.65878 4.97174 8.69616 4.95009 8.7853C5.02946 8.827 5.19108 8.89601 5.25169 9.0139C5.20263 9.0901 5.30797 9.20511 5.34261 9.30863C5.4898 9.43658 5.69472 9.62492 5.84192 9.82477L5.91984 9.74713L5.96891 9.78882C5.95015 9.80464 5.94726 9.81901 5.93139 9.82045C5.87366 9.94122 6.06126 9.9024 6.03962 9.99298C6.09012 9.90096 6.02086 9.94985 5.99777 9.92109C6.00065 9.84633 6.11321 9.81183 6.12187 9.90096L6.10311 9.91678L6.1796 9.91247C6.12043 9.97429 6.12043 10.0347 6.06126 10.0965C6.22145 10.2374 6.42781 10.2417 6.54758 10.43C6.3138 10.5983 6.13197 10.8628 5.85635 10.9864C5.77553 11.1316 5.70049 11.3387 5.55474 11.4623L5.55186 11.4307L5.38879 11.5371L5.5432 11.4911C5.53165 11.5356 5.53598 11.5831 5.50712 11.6104C5.31375 11.7139 5.05688 11.8534 4.95875 12.1078C5.00637 12.3695 4.74806 12.0676 4.75816 12.2876C4.75239 12.2646 4.73363 12.2416 4.72641 12.2186C4.6658 12.3925 4.63261 12.4845 4.61241 12.693C4.46954 12.5435 4.54314 12.7793 4.47099 12.6959L4.52438 12.762C4.46088 12.7563 4.38873 12.8123 4.35121 12.762L4.38007 12.8871L4.3108 12.8353C4.24009 12.9058 4.15207 13.1128 3.98611 13.038C3.91973 13.3055 3.64121 13.5815 3.41465 13.7957C3.44063 13.8748 3.38579 13.9467 3.34538 14.0056L3.21839 13.997C3.1953 14.0718 3.24581 14.2127 3.15201 14.2227C3.14335 14.2141 3.13902 14.2069 3.13613 14.1997C3.10439 14.2687 3.0178 14.2874 3.04666 14.3996C2.99038 14.4571 2.89803 14.4815 2.8403 14.4024C2.96585 14.516 2.71331 14.5174 2.71331 14.5174C2.71331 14.5174 2.53004 14.7015 2.2573 14.9991C2.1202 15.1486 1.96147 15.3254 1.79118 15.5224C1.6209 15.7194 1.44628 15.9451 1.26879 16.1766C0.553017 17.0881 -0.0963706 18.2569 0.0118605 18.9355C0.0623684 19.0088 0.0565961 19.1167 0.160498 19.1411C0.146067 19.2188 0.00320202 19.167 0.0652546 19.2231C0.167713 19.1713 0.232652 19.3654 0.374074 19.341L0.356757 19.4028C0.40005 19.4459 0.346656 19.2978 0.428911 19.3683L0.306249 19.2691C0.353871 19.2403 0.397164 19.236 0.452001 19.2504C0.426025 19.1785 0.2644 19.0376 0.404379 18.9959L0.395721 19.0275C0.441899 18.9485 0.511167 19.0362 0.544358 19.0347L0.53137 19.0505L0.639601 19.0304C0.563118 19.0491 0.616512 19.1986 0.636715 19.1526C0.733402 19.0879 0.589094 19.1555 0.617955 19.0779C0.639602 19.0318 0.701654 19.0894 0.740617 19.1181L0.785353 19.0405C0.844519 19.0836 0.749276 19.0879 0.831532 19.0994L0.831532 18.9628C0.996043 19.0491 0.825759 18.8104 0.998929 18.8651C0.990271 18.9571 1.05377 18.8938 1.09706 18.9384L1.19952 18.7688C1.23127 18.7688 1.21683 18.8449 1.22694 18.8133C1.28899 18.8119 1.22405 18.7371 1.23704 18.7213C1.28755 18.7357 1.31929 18.5991 1.41742 18.6739C1.56317 18.612 1.32362 18.5387 1.45494 18.4783C1.52565 18.5085 1.41021 18.5689 1.50689 18.5689L1.56029 18.4481C1.58338 18.4783 1.64399 18.5387 1.60214 18.5675C1.88931 18.3403 2.31502 18.4208 2.42037 18.1074C2.51705 18.1247 2.44923 18.1692 2.47809 18.2296C2.51705 17.9737 2.82587 18.0873 2.93699 17.9277L2.88071 17.8802C3.22849 17.8026 3.32085 17.4619 3.58349 17.2778L3.52144 17.275C3.49113 17.1988 3.52721 17.1398 3.53298 17.0794C3.56617 17.0967 3.63256 17.2045 3.6643 17.1154C3.63256 17.1139 3.58782 17.1269 3.56617 17.0953C3.88076 17.0061 4.19824 16.5446 4.54314 16.2657C4.87072 15.774 5.40033 15.3829 5.73801 14.9114C5.68606 14.9818 5.57206 14.8366 5.6471 14.8136C5.99777 14.874 5.81594 14.5419 6.09734 14.5376C6.24598 14.2198 6.64427 14.1681 6.67602 13.777L6.74528 13.8288C6.80589 13.8202 6.76982 13.7698 6.79579 13.7281L6.81311 13.7454C6.91413 13.6793 6.94154 13.5154 7.01803 13.4938L6.94876 13.4262C6.98917 13.3702 7.02957 13.4492 7.03534 13.3601L7.06998 13.3946L7.05699 13.2724C7.17821 13.3917 7.19841 13.1372 7.29366 13.1473C7.33118 13.061 7.39034 12.8856 7.50723 12.808C7.58949 12.8483 7.70061 12.7246 7.80451 12.6743C7.89398 12.5535 8.00943 12.3968 8.14363 12.2545C8.27351 12.3508 8.39473 12.4515 8.48276 12.5607C8.62418 12.519 8.69922 12.588 8.79157 12.6398L8.67613 12.7678L8.7757 12.7893C8.76271 12.8497 8.70643 12.7649 8.70355 12.854L8.80168 12.8023C8.76271 12.8497 8.92723 12.9863 8.73818 12.9719L8.97052 13.2077C9.01814 13.2638 9.10184 13.1372 9.12926 13.2249C9.10472 13.2724 9.08452 13.2293 9.04556 13.2767C9.12781 13.5384 9.47704 13.2422 9.58527 13.455L9.55497 13.4579C9.61413 13.4521 9.6632 13.5082 9.68052 13.4909C9.78153 13.3472 9.58527 13.5297 9.60836 13.409C9.71515 13.3098 9.72525 13.4133 9.80029 13.3313C9.80029 13.4061 9.8811 13.3687 9.92007 13.3946C9.91141 13.5139 10.0384 13.547 10.0009 13.6692C10.06 13.6634 10.1928 13.5916 10.2549 13.6448C10.2173 13.767 10.1683 13.7123 10.1957 13.8L10.265 13.7483C10.3025 13.8043 10.2794 13.813 10.2491 13.8403C10.2967 13.892 10.3732 13.7986 10.3977 13.8992L10.3054 13.9237C10.3746 13.9467 10.3833 13.9754 10.4439 14.0444C10.4078 14.0775 10.3847 14.0502 10.3746 14.0214C10.3227 14.1451 10.4728 14.0416 10.4829 14.0703C10.5031 14.0387 10.4699 13.9826 10.5507 13.9438C10.5723 13.9869 10.6993 13.9294 10.6532 14.0229L10.5608 14.0459C10.6748 14.0646 10.6705 14.0056 10.7253 14.1048C10.7166 14.1048 10.7037 14.1221 10.6907 14.1336C10.8148 14.1034 10.8104 14.2371 10.8783 14.3133L10.8494 14.3162C10.8985 14.3248 10.9677 14.286 10.9793 14.3047C10.9721 14.2299 11.0009 14.2227 11.0529 14.1609C11.0096 14.3147 11.2477 14.1264 11.2809 14.2716C11.2463 14.3047 11.1828 14.3262 11.1943 14.2658C11.063 14.3392 10.975 14.4226 10.8739 14.4182C10.9302 14.4269 10.9851 14.4527 10.9346 14.4873L11.0385 14.401C11.0615 14.4182 11.0731 14.4398 11.089 14.4542C11.1568 14.4024 11.1424 14.3147 11.2289 14.3205C11.3126 14.3406 11.1626 14.4456 11.2131 14.4111C11.3242 14.4441 11.3429 14.3377 11.3848 14.4369C11.3704 14.4369 11.3401 14.4412 11.3429 14.4269C11.3574 14.5146 11.4858 14.5289 11.3906 14.6598C11.3574 14.6785 11.3227 14.7115 11.3126 14.6828L11.33 14.6655C11.1929 14.6957 11.3992 14.6871 11.2809 14.7748C11.3372 14.7087 11.3963 14.792 11.418 14.8337L11.4757 14.7532C11.7874 14.644 11.3357 14.8884 11.4685 14.9631C11.5825 14.9804 11.4613 14.9186 11.5508 14.9085C11.5854 14.9646 11.5421 15.0436 11.6388 15.0782C11.6301 15.1242 11.633 15.1989 11.5609 15.2809C11.633 15.2881 11.6518 15.4347 11.7485 15.3801C11.7412 15.2464 11.5984 15.3973 11.6157 15.2162L11.7124 15.1601C11.7658 15.2176 11.8754 15.2478 11.887 15.3139C11.8942 15.2909 11.9086 15.2679 11.9303 15.2564C12.0385 15.3039 12.1366 15.2478 12.1929 15.3456C12.1352 15.4275 12.102 15.3714 12.0616 15.3456C12.0587 15.4505 12.1107 15.4002 12.1669 15.498C12.1121 15.5641 12.1179 15.4433 12.0501 15.498L12.1554 15.5612C12.1554 15.5612 12.1482 15.5698 12.1439 15.5742C12.255 15.4807 12.2016 15.646 12.2838 15.6662C12.4108 15.7855 12.5624 15.6619 12.7124 15.6432C12.7052 15.6892 12.685 15.7208 12.6533 15.7395C12.6648 15.6633 12.6374 15.7064 12.5999 15.7237C12.6533 15.7524 12.5999 15.9135 12.5349 15.9336C12.6316 15.9667 12.5624 15.856 12.6345 15.8617L12.7225 15.9552C12.7615 15.8905 12.7399 15.8488 12.8264 15.8516C12.8813 15.8746 12.8914 15.9034 12.9419 15.9566C12.9101 15.9753 12.8827 16.0544 12.8452 16.0141C12.8524 16.0587 12.8899 16.0975 12.9549 16.0601C12.9419 15.9566 13.0934 16.1018 13.128 15.9782L13.141 16.0817C13.128 16.0687 13.0934 16.1032 13.0847 16.0745C13.0256 16.1722 13.154 16.0946 13.1814 16.1061C13.1872 16.1406 13.2348 16.1981 13.2103 16.2326C13.2493 16.2269 13.2781 16.2858 13.2493 16.3361C13.2911 16.3448 13.3012 16.2844 13.333 16.2657L13.421 16.3592C13.3849 16.4095 13.2767 16.5432 13.2464 16.5475C13.32 16.5374 13.382 16.4253 13.4325 16.4785C13.3214 16.5389 13.4412 16.6122 13.3012 16.6754C13.2723 16.7689 13.3633 16.8465 13.4325 16.8681C13.5263 16.825 13.4167 16.7804 13.4845 16.7114C13.6447 16.8106 13.8323 16.6194 13.9015 16.743L13.8929 16.6999C13.9924 16.7143 13.978 16.7171 14.0689 16.6898C13.9708 16.7631 13.9232 16.9946 14.0444 17.0665C14.0935 17.0291 14.0632 16.9285 14.144 16.8724L14.2248 16.9199C14.2233 16.9314 14.2017 16.94 14.1829 16.9429C14.2738 16.9659 14.193 17.1614 14.3056 17.0723L14.2508 17.2592L14.2767 17.1801C14.3244 17.1427 14.4066 17.1916 14.4355 17.1858C14.5509 17.1988 14.5408 17.2606 14.5293 17.3526C14.5495 17.3037 14.5942 17.193 14.662 17.2275C14.5322 17.3742 14.7313 17.3857 14.662 17.459C14.6866 17.4777 14.6851 17.5582 14.7414 17.4993L14.6577 17.587C14.776 17.4633 14.8525 17.5424 14.9348 17.5755C14.7688 17.7365 15.0156 17.6229 14.9045 17.8055C15.0199 17.6977 15.056 17.8572 15.1556 17.7667C15.209 17.804 15.1094 17.909 15.0877 17.9579L15.1484 17.9334C15.1253 18.0096 15.2104 18.0973 15.2321 18.1822L15.3735 18.1203L15.3518 18.1836C15.3836 18.1635 15.4384 18.1836 15.4456 18.1232L15.4673 18.1534C15.5683 18.0413 15.5337 18.1534 15.6303 18.1534C15.6275 18.1822 15.6 18.2066 15.5755 18.2124C15.6015 18.2368 15.5394 18.2857 15.5221 18.3374C15.5279 18.2914 15.7977 18.2152 15.7674 18.1017C15.8021 18.0499 15.8742 18.0528 15.8843 18.0959L15.8122 18.2138L15.9377 18.1318C15.9926 18.152 15.955 18.2339 15.9796 18.2756C15.9392 18.2526 15.7314 18.4079 15.8252 18.4826C15.766 18.4553 15.6938 18.4927 15.6505 18.4941C15.6664 18.5143 15.6664 18.5315 15.6 18.5517C15.6982 18.5804 15.678 18.5085 15.7588 18.5545C15.6765 18.6437 15.6708 18.6897 15.7054 18.7745L15.7169 18.6667C15.7285 18.6566 15.7386 18.6523 15.7472 18.6494C15.7386 18.625 15.7458 18.6063 15.7718 18.5675C15.7848 18.5804 15.9507 18.5215 15.9146 18.5876C15.9666 18.3834 16.1325 18.5804 16.1614 18.4553C16.1917 18.4352 16.2465 18.4711 16.2119 18.5215C16.0936 18.5416 16.1672 18.6652 16.1022 18.7213C16.147 18.7127 16.1138 18.6135 16.1729 18.6034C16.2133 18.6264 16.1903 18.7055 16.1859 18.7515L16.1571 18.7572L16.1758 18.8449C16.2235 18.8061 16.1903 18.7213 16.2595 18.74C16.2566 18.7702 16.3259 18.7889 16.2942 18.8248C16.2162 18.8694 16.1628 18.9686 16.1066 18.9485C16.147 18.9715 16.2696 19.0563 16.297 18.9312L16.336 18.97C16.3418 18.9082 16.3274 18.7745 16.4226 18.8334L16.4067 18.8521L16.5236 18.8306L16.5092 18.8996C16.5279 18.8751 16.5554 18.8608 16.577 18.8809C16.5597 18.914 16.5712 18.9413 16.538 18.9772C16.6059 19.0247 16.6405 18.9729 16.6708 18.9528C16.7127 18.9758 16.7098 19.006 16.6477 19.0477C16.6867 19.0994 16.7834 19.1569 16.7762 19.2346C16.8772 19.2461 16.779 19.2044 16.87 19.1713C16.792 19.3812 17.0359 19.4114 17.16 19.4775C17.248 19.3093 17.2033 19.4847 17.3289 19.3697C17.2682 19.397 17.3404 19.5638 17.2134 19.5279L17.2827 19.5595C17.2581 19.6702 17.1398 19.5422 17.1109 19.6989C17.1788 19.7464 17.3491 19.6227 17.3822 19.7378C17.274 19.8197 17.4674 19.7507 17.3592 19.8485C17.313 19.8729 17.3014 19.8442 17.274 19.8355L17.2711 19.8657C17.3895 20.0095 17.4097 19.778 17.5395 19.768C17.6362 19.824 17.5424 19.9045 17.5092 19.9563C17.5064 19.9865 17.5626 20.0066 17.6074 19.998C17.5049 20.0181 17.5612 19.8542 17.6377 19.8096C17.5828 19.9577 17.7574 19.9232 17.8181 19.8959C17.7935 19.6731 17.7372 19.8212 17.7286 19.5954C17.6839 19.6199 17.6016 19.7263 17.567 19.6271C17.6521 19.6098 17.6103 19.5667 17.6117 19.5394C17.5771 19.6098 17.5439 19.525 17.502 19.5336C17.5222 19.4689 17.655 19.4272 17.6045 19.3467L17.4775 19.4775C17.4674 19.4344 17.5727 19.3827 17.4876 19.3697C17.5785 19.3208 17.5713 19.2475 17.668 19.2878C17.6723 19.0908 17.4717 19.236 17.3563 19.2288C17.3707 19.2259 17.3866 19.2073 17.4024 19.2044C17.3563 19.2288 17.3303 19.2044 17.3014 19.1943C17.2798 19.1239 17.3909 19.1612 17.4111 19.1124L17.3303 19.0534C17.3303 19.0534 17.3346 19.0448 17.3361 19.0419C17.3 19.0448 17.2697 19.0419 17.2913 19.0002C17.3519 18.9743 17.3981 18.9341 17.4443 18.9096L17.2827 18.9413C17.3289 18.9025 17.2812 18.8061 17.3664 18.8191L17.2293 18.7414L17.2971 18.6379C17.2538 18.6307 17.2379 18.6494 17.2639 18.6882C17.2408 18.6336 16.9435 18.7055 17.1196 18.5373C16.9609 18.5373 16.9508 18.4798 16.7978 18.4338C16.9565 18.4208 16.7906 18.2397 16.9161 18.2771C16.8974 18.1908 16.8007 18.2828 16.7458 18.2627C16.7401 18.1894 16.8353 18.1117 16.906 18.1132L16.8194 18.1132L16.8353 18.0959L16.7473 18.1117C16.743 18.0226 16.8166 18.0096 16.779 17.9564L16.6982 18.0312L16.7069 17.955C16.6867 18.0039 16.6448 17.9967 16.6044 17.9737L16.6203 17.9564L16.5655 17.9363C16.6492 17.9219 16.5424 17.886 16.6116 17.8429C16.5785 17.8084 16.577 17.8084 16.4991 17.7681L16.463 17.8342C16.336 17.8112 16.5308 17.7465 16.4659 17.6833L16.4154 17.7523C16.4096 17.5582 16.1946 17.6718 16.1816 17.5395C16.2364 17.5596 16.2898 17.4763 16.274 17.4935C16.1903 17.4633 16.1022 17.3598 15.9709 17.3814C16.0286 17.2678 16.0474 17.2347 16.0156 17.1355C15.9623 17.0996 15.9478 17.1024 15.8843 17.1427C15.8685 17.0665 15.7342 17.0449 15.7905 16.9745C15.7328 17.0191 15.7588 16.927 15.6924 16.9501L15.7112 16.917L15.6592 16.9846C15.7025 16.7675 15.4485 16.9429 15.4759 16.7445L15.5048 16.7401L15.4471 16.7344C15.4658 16.7013 15.4961 16.697 15.5293 16.6611L15.3778 16.5058L15.3677 16.582C15.3273 16.559 15.2494 16.6007 15.245 16.5259C15.3951 16.4871 15.1945 16.4742 15.2494 16.3908L15.3071 16.3965C15.2725 16.3726 15.2373 16.3831 15.2017 16.4282C15.1195 16.3965 15.2681 16.2686 15.1498 16.2873L15.1873 16.3261C15.1657 16.3735 15.0906 16.4008 15.0647 16.375C15.0675 16.3592 15.0733 16.3146 15.1007 16.3246C15.03 16.306 14.9867 16.2082 14.9434 16.2154C14.9348 16.1722 14.9838 16.1349 15.0141 16.1306C14.8597 16.0946 14.9781 16.0774 14.8251 16.04L14.8597 16.0055L14.7847 16.017L14.802 15.8948L14.7789 15.958C14.7385 15.935 14.6952 15.9408 14.6736 15.8847L14.7371 15.8459C14.6144 15.7898 14.7068 15.6575 14.5495 15.6504C14.5524 15.6345 14.5812 15.6302 14.5957 15.6288C14.4355 15.636 14.6187 15.4764 14.4427 15.5008C14.4643 15.4879 14.4759 15.4577 14.4918 15.4448L14.4225 15.4448L14.4903 15.3758L14.3633 15.4534L14.4081 15.3585L14.3619 15.3801C14.447 15.2047 14.2941 15.2564 14.333 15.1012L14.2594 15.2004C13.9463 15.2579 14.0343 14.8007 13.7861 14.7317L13.8554 14.6627L13.7067 14.6828C13.7211 14.5922 13.7861 14.6425 13.8077 14.5951C13.6966 14.5649 13.6793 14.6713 13.5725 14.6123C13.5725 14.5232 13.6374 14.575 13.6822 14.5678C13.5682 14.5275 13.4109 14.4571 13.3907 14.3622C13.3806 14.3708 13.3647 14.3794 13.3647 14.3866C13.281 14.3679 13.2406 14.2687 13.1771 14.217C13.2089 14.1853 13.2291 14.194 13.2493 14.2012C13.2319 14.1767 13.2247 14.1264 13.1742 14.1422L13.2536 14.1019C13.2204 14.0473 13.0804 14.02 13.1381 13.938C13.1179 13.9711 13.066 14.0214 13.0299 13.9812C13.1107 13.8532 12.8798 13.9251 12.8726 13.8072C12.9044 13.7885 12.9563 13.8273 12.9433 13.813C12.939 13.754 12.8625 13.7785 12.8033 13.7857L12.8539 13.7497L12.6504 13.6706C12.7312 13.5427 12.4974 13.5556 12.5826 13.4866C12.5335 13.4334 12.5811 13.5757 12.5032 13.5254C12.5292 13.4636 12.4224 13.4909 12.4916 13.4234L12.5061 13.4234L12.4541 13.3831L12.5494 13.3428C12.496 13.3198 12.4007 13.3601 12.3473 13.4118C12.3473 13.3385 12.2622 13.3184 12.3055 13.2393L12.3358 13.2364C12.203 13.1631 12.3444 12.8813 12.1496 12.9173C12.1525 12.9015 12.1698 12.8856 12.1828 12.8986L12.1222 12.831L12.1871 12.7951L12.0039 12.7706L12.0385 12.7376C11.9822 12.6542 11.8538 12.565 11.7542 12.4874L11.7845 12.4845C11.633 12.4414 11.7225 12.358 11.6114 12.3249C11.6229 12.3178 11.6287 12.3178 11.633 12.3178L11.5666 12.2559L11.6142 12.2358C11.493 12.2631 11.5724 12.0043 11.5406 12.0963C11.4815 12.1021 11.3949 12.0963 11.3444 12.1309C11.2693 12.0647 11.3704 12.069 11.3559 11.9971C11.3083 11.9439 11.2405 11.9943 11.2015 11.8951L11.2376 11.862C11.1986 11.8361 11.1539 11.8419 11.1034 11.8016L11.1337 11.7987C10.9879 11.7987 11.1438 11.6061 10.936 11.6995C10.9331 11.6406 10.8537 11.6046 10.9259 11.5385C10.7902 11.4925 10.6993 11.4408 10.581 11.3775C10.6806 11.251 10.555 11.3646 10.5651 11.2467L10.5088 11.3114C10.3732 11.1906 10.3775 10.8959 10.213 10.778L10.2707 10.7133L10.1755 10.7506C10.0961 10.6342 9.99655 10.5019 9.90419 10.3883C9.9244 10.3912 9.9446 10.3941 9.95903 10.3898C9.94893 10.3783 9.91429 10.3812 9.88832 10.3682C9.8811 10.3596 9.87389 10.3495 9.86667 10.3409C9.86667 10.3366 9.86234 10.3352 9.86234 10.3308C9.96913 10.3006 10.0701 10.1928 10.1567 10.1137C10.174 10.131 10.2058 10.1511 10.2072 10.1669C10.1798 10.0102 10.3313 10.1698 10.4006 10.0577C10.6113 9.78307 10.8335 9.37333 11.102 9.15767C11.0615 9.0139 11.1351 8.93339 11.1914 8.83562L11.3227 8.94776L11.3473 8.84425C11.4108 8.85431 11.3213 8.91613 11.4137 8.91613L11.3617 8.81693C11.4108 8.85575 11.5551 8.68035 11.5363 8.87444L11.786 8.62428C11.8451 8.57252 11.7167 8.49057 11.8076 8.45894C11.8552 8.48195 11.8105 8.50495 11.8581 8.54377C12.1323 8.45032 11.8322 8.09376 12.0616 7.98019L12.0616 8.01038C12.0616 7.94856 12.1208 7.89824 12.1035 7.88098C11.9591 7.78034 12.1381 7.97731 12.014 7.95718C11.9159 7.84935 12.0241 7.83641 11.9433 7.76165C12.0212 7.75878 11.9866 7.67683 12.0154 7.63657C12.141 7.64232 12.1814 7.51149 12.3069 7.54887C12.304 7.48705 12.2362 7.35334 12.2968 7.28721C12.4224 7.32459 12.3632 7.37491 12.4541 7.34472L12.4051 7.27427C12.4657 7.23401 12.4743 7.25846 12.5003 7.28865C12.5566 7.23833 12.4642 7.16213 12.571 7.13338L12.5912 7.2297C12.6186 7.15782 12.6504 7.14775 12.7254 7.08449C12.7572 7.12044 12.7269 7.14631 12.6966 7.15638C12.8221 7.20814 12.724 7.0543 12.7543 7.04424C12.7225 7.02411 12.6619 7.05861 12.6273 6.97667C12.6735 6.95366 12.6215 6.82283 12.7168 6.86884L12.7355 6.96373C12.7629 6.84583 12.7009 6.85015 12.8077 6.79264C12.8077 6.80126 12.825 6.8142 12.8351 6.82858C12.812 6.69919 12.9505 6.70206 13.0342 6.63162L13.0342 6.66181C13.0472 6.61005 13.0112 6.5396 13.0328 6.52666C12.9549 6.53529 12.9491 6.5051 12.8885 6.45046C13.0443 6.49359 12.8654 6.24631 13.0213 6.21324C13.053 6.24919 13.0703 6.31388 13.0083 6.30238C13.0746 6.43752 13.1555 6.5281 13.1425 6.63305C13.1555 6.57411 13.1843 6.51804 13.2175 6.56979L13.1367 6.4634C13.1569 6.4404 13.18 6.4289 13.1973 6.41308C13.1482 6.34407 13.0559 6.35701 13.0703 6.26787C13.0992 6.18161 13.1959 6.33689 13.1641 6.28513C13.2074 6.17011 13.0977 6.14998 13.206 6.10829C13.206 6.1241 13.206 6.1543 13.1915 6.15142C13.2839 6.13704 13.3113 6.00477 13.4397 6.10541C13.4571 6.13848 13.4888 6.17586 13.4571 6.18593L13.4412 6.16724C13.4599 6.30957 13.4701 6.09679 13.5509 6.21899C13.4874 6.16148 13.5783 6.1011 13.6245 6.07954L13.5451 6.01915C13.4599 5.69567 13.6735 6.1658 13.763 6.02921C13.7904 5.91132 13.7168 6.03497 13.7139 5.94295C13.776 5.90845 13.8539 5.95445 13.8972 5.85525C13.9448 5.86388 14.0213 5.86388 14.1007 5.94008C14.1137 5.86675 14.2681 5.8495 14.2205 5.74742C14.0819 5.75174 14.2248 5.90126 14.0372 5.88113L13.9881 5.78049C14.0531 5.7273 14.0949 5.61372 14.1627 5.60222C14.1396 5.59503 14.1166 5.57921 14.1065 5.55621C14.1656 5.44407 14.118 5.34199 14.2248 5.28592C14.3027 5.34774 14.2421 5.38081 14.2118 5.4225C14.32 5.42825 14.2738 5.37218 14.3806 5.31611C14.4441 5.37506 14.32 5.36643 14.3676 5.43688L14.4427 5.32905C14.4427 5.32905 14.4499 5.33768 14.4542 5.34199C14.3691 5.2241 14.535 5.28304 14.5625 5.19822C14.701 5.07314 14.5899 4.91212 14.5884 4.75828C14.6361 4.76834 14.6664 4.78991 14.6822 4.82298C14.6043 4.80716 14.6447 4.83879 14.6592 4.87617C14.6952 4.82298 14.8569 4.88624 14.8713 4.95237C14.9175 4.85461 14.7934 4.92074 14.8078 4.84742L14.916 4.76116C14.854 4.71802 14.8078 4.73959 14.8222 4.65045C14.8525 4.59582 14.8843 4.58576 14.9463 4.53687C14.9622 4.57138 15.0401 4.60157 14.9939 4.63895C15.0401 4.6332 15.0863 4.59582 15.056 4.52825C14.9478 4.53687 15.1181 4.38735 14.9925 4.34566L15.1007 4.33703C15.0849 4.34853 15.1166 4.38591 15.0863 4.39598C15.1801 4.46211 15.1166 4.32553 15.1325 4.29678C15.17 4.29246 15.2335 4.24646 15.2681 4.27377C15.2681 4.23208 15.3331 4.2062 15.3807 4.23927C15.3951 4.19614 15.3345 4.1832 15.3186 4.14869L15.4269 4.06243C15.4745 4.10269 15.5986 4.22202 15.5986 4.25365C15.5986 4.17601 15.4889 4.107 15.551 4.05812C15.5986 4.17601 15.6895 4.05668 15.7371 4.2062C15.8295 4.24071 15.9218 4.15301 15.9522 4.08112C15.9204 3.98192 15.8598 4.09262 15.7977 4.01786C15.9204 3.85828 15.7487 3.65125 15.8901 3.58942L15.8439 3.59374C15.8757 3.4931 15.8757 3.50891 15.8612 3.41259C15.9233 3.51898 16.1556 3.58511 16.2509 3.46866C16.2191 3.41546 16.1109 3.43703 16.0647 3.35076L16.1268 3.27169C16.1383 3.27457 16.1441 3.29613 16.1441 3.31626C16.183 3.22568 16.3735 3.32345 16.2985 3.20124L16.4832 3.27313L16.4067 3.24006C16.3764 3.18687 16.4399 3.10779 16.4399 3.0776C16.4731 2.96115 16.5352 2.97552 16.6275 2.99565C16.5813 2.96977 16.4731 2.91514 16.5207 2.84757C16.6492 2.99421 16.6953 2.7915 16.7603 2.86913C16.7834 2.84613 16.8671 2.85332 16.8151 2.79006L16.8916 2.88495C16.7848 2.75268 16.8786 2.68079 16.9262 2.59741C17.0633 2.78431 16.9897 2.51833 17.1571 2.6506C17.0662 2.52121 17.2365 2.4982 17.1615 2.3875C17.2091 2.33574 17.3 2.45076 17.3462 2.47808L17.3332 2.41338C17.4082 2.44645 17.515 2.37025 17.6074 2.35875L17.5727 2.20779L17.6348 2.23798C17.6204 2.20347 17.6535 2.15028 17.5915 2.13446L17.6261 2.11577C17.5294 1.99932 17.6406 2.04964 17.6593 1.949C17.6882 1.95619 17.7084 1.98638 17.7084 2.01226C17.7387 1.98782 17.7762 2.05826 17.8253 2.08271C17.7791 2.0712 17.756 1.78654 17.6319 1.80235C17.5857 1.76066 17.6045 1.6859 17.6507 1.68159L17.756 1.76929L17.6983 1.63127C17.7315 1.57663 17.808 1.62695 17.8541 1.60682C17.8209 1.64564 17.9393 1.87711 18.0345 1.79229C17.9941 1.8498 18.0186 1.92743 18.01 1.972C18.0331 1.95906 18.0518 1.9605 18.0576 2.03095C18.1067 1.93462 18.0287 1.94612 18.0937 1.86849C18.1687 1.96481 18.2149 1.97632 18.3073 1.95331L18.2005 1.92743C18.1933 1.91449 18.1889 1.90299 18.1889 1.89437C18.1615 1.90012 18.1442 1.89005 18.1096 1.85842C18.1254 1.84692 18.0995 1.67008 18.1601 1.71465C17.9609 1.63414 18.199 1.49037 18.0764 1.44436C18.0619 1.40986 18.111 1.35954 18.1557 1.40123C18.1514 1.52487 18.2928 1.46737 18.3376 1.54069C18.3376 1.49468 18.2293 1.51337 18.2322 1.45155C18.2654 1.41273 18.3405 1.44724 18.3866 1.45874L18.3866 1.48893L18.479 1.48174C18.4501 1.42711 18.3563 1.45011 18.3895 1.3811C18.4198 1.38829 18.453 1.31928 18.4833 1.3581C18.5107 1.44436 18.6017 1.51337 18.5685 1.56801C18.6002 1.52919 18.7128 1.41705 18.5901 1.37104L18.6377 1.33654C18.5757 1.32072 18.4371 1.31784 18.518 1.22727L18.5324 1.24596L18.5367 1.12232L18.6045 1.1482C18.5843 1.12519 18.5757 1.095 18.6017 1.07775C18.632 1.10075 18.6637 1.09356 18.6926 1.13238C18.7575 1.072 18.7128 1.02887 18.6998 0.99436C18.733 0.95698 18.7633 0.964169 18.7921 1.03462C18.8556 1.00442 18.9379 0.918162 19.0158 0.93829C19.0519 0.839088 18.9855 0.929664 18.974 0.833337C19.1702 0.948354 19.2611 0.708256 19.3593 0.59324C19.2106 0.47391 19.378 0.551546 19.2929 0.403462C19.3044 0.469597 19.4935 0.426466 19.4242 0.548671L19.4747 0.483974C19.5815 0.528543 19.4199 0.626307 19.5728 0.682378C19.6378 0.621994 19.5555 0.426466 19.6811 0.414964C19.7359 0.540045 19.7172 0.330139 19.7864 0.459533C19.7994 0.509853 19.7677 0.517041 19.7503 0.544358L19.7807 0.552984C19.9567 0.460971 19.7273 0.396274 19.7503 0.262567C19.8326 0.174867 19.8874 0.284133 19.9322 0.328701C19.9625 0.337328 19.9957 0.284133 20 0.236688C19.9942 0.344516 19.8441 0.256816 19.8182 0.170554C19.9524 0.255378 19.9639 0.0699139 19.9524 0.00234165C19.7215 -0.0149109 19.8557 0.0699139 19.6248 0.0382843C19.6378 0.0886041 19.7244 0.192119 19.6147 0.209372C19.6205 0.120234 19.5642 0.153301 19.5382 0.14755C19.6017 0.196432 19.5065 0.215122 19.5036 0.258254C19.443 0.226624 19.4372 0.0828533 19.3405 0.120234L19.4401 0.274069C19.3939 0.276944 19.3694 0.16049 19.3333 0.245314C19.3073 0.143237 19.2308 0.138924 19.2987 0.0469106C19.0995 0.00809245 19.1933 0.238126 19.1558 0.353143C19.1558 0.337328 19.1428 0.318637 19.1428 0.302823C19.1558 0.353142 19.1226 0.376146 19.1067 0.403462C19.0288 0.413526 19.0966 0.305698 19.0519 0.278382L18.9696 0.350267C18.9696 0.350267 18.9624 0.344516 18.9595 0.341641C18.9523 0.379021 18.9422 0.409213 18.9061 0.380459C18.8946 0.314324 18.8657 0.259691 18.8527 0.209372L18.8426 0.379021C18.8152 0.324388 18.7027 0.358893 18.7387 0.272631L18.6219 0.399149L18.5324 0.312887C18.5151 0.35458 18.5295 0.374708 18.5757 0.356018C18.5122 0.370395 18.5107 0.683815 18.3809 0.478223C18.3419 0.639246 18.277 0.637809 18.1918 0.788768C18.2149 0.621994 17.9912 0.770078 18.0576 0.644997C17.9638 0.653623 18.0374 0.765765 18.0042 0.820398C17.9277 0.817522 17.8686 0.708256 17.8873 0.633496L17.8671 0.722634L17.8527 0.702506L17.8484 0.795957C17.7546 0.788768 17.7589 0.711132 17.6954 0.742761L17.7531 0.834775L17.6766 0.816085C17.7228 0.843401 17.7055 0.886532 17.6723 0.92535L17.6579 0.90666L17.6247 0.961293C17.6276 0.872155 17.567 0.978546 17.5381 0.902347C17.4948 0.931101 17.4948 0.933977 17.4356 1.00874L17.4963 1.05474C17.4443 1.1827 17.4212 0.974232 17.3404 1.03318L17.401 1.09356C17.199 1.07631 17.2682 1.31209 17.1268 1.30922C17.16 1.25459 17.0835 1.18989 17.0994 1.20858C17.0503 1.29053 16.9219 1.3696 16.9161 1.50762C16.8093 1.43574 16.779 1.41273 16.6679 1.43286C16.6189 1.48462 16.6189 1.499 16.6477 1.56801C16.564 1.57519 16.5135 1.71321 16.4529 1.64708C16.4875 1.71178 16.3981 1.67727 16.4082 1.74772L16.3779 1.72472L16.4385 1.7851C16.222 1.7204 16.3562 2.00076 16.1542 1.95619L16.1542 1.92456L16.1383 1.9835C16.108 1.9605 16.108 1.93031 16.0777 1.89149L15.8872 2.0367L15.9651 2.05395C15.9334 2.09421 15.9623 2.17759 15.8843 2.17616C15.8713 2.01801 15.8208 2.22504 15.7443 2.16034L15.7602 2.1014C15.7285 2.1359 15.7333 2.17328 15.7747 2.21354C15.7256 2.29549 15.6188 2.13303 15.6174 2.25667L15.665 2.22073C15.7112 2.2466 15.7256 2.32712 15.6938 2.35156C15.678 2.34724 15.6318 2.33862 15.6477 2.30986C15.6159 2.38175 15.5062 2.41913 15.5048 2.46514C15.4572 2.47089 15.4269 2.41769 15.4269 2.38606C15.3619 2.54277 15.3634 2.41913 15.2984 2.57584L15.2681 2.53846L15.2681 2.6161L15.1426 2.58878L15.2046 2.61753C15.1729 2.65779 15.1714 2.7038 15.1094 2.72105L15.0791 2.65204C14.9983 2.77424 14.8742 2.67073 14.8424 2.83606C14.8265 2.83319 14.8265 2.80156 14.8265 2.78575C14.8107 2.95396 14.6707 2.75412 14.6707 2.94102C14.6606 2.91801 14.6303 2.90508 14.6202 2.88638L14.6086 2.95971L14.5466 2.88495L14.6086 3.02297L14.5148 2.97265L14.5293 3.02153C14.359 2.9252 14.3893 3.08766 14.2334 3.04022L14.3272 3.12073C14.3431 3.44997 13.8741 3.3407 13.7644 3.59949L13.7024 3.52473L13.7024 3.68C13.6086 3.66131 13.6706 3.59661 13.6245 3.57217C13.5768 3.68719 13.688 3.70875 13.61 3.81802C13.5162 3.81514 13.5783 3.75045 13.5783 3.703C13.5206 3.8209 13.4224 3.98048 13.3229 4.00205C13.3301 4.01355 13.3387 4.02936 13.3459 4.0308C13.3156 4.1185 13.2074 4.16019 13.1468 4.22777C13.1179 4.19326 13.1295 4.17313 13.1396 4.15157C13.1122 4.16882 13.0588 4.17745 13.0689 4.2292L13.0357 4.14438C12.9736 4.18032 12.9289 4.32697 12.8495 4.26515C12.8813 4.28671 12.9289 4.34135 12.8827 4.38016C12.7557 4.29534 12.8077 4.53687 12.6821 4.5455C12.6663 4.51243 12.7124 4.4578 12.6966 4.47074C12.6345 4.47505 12.6504 4.55556 12.6518 4.61739L12.6201 4.56563L12.5147 4.77841L12.5248 4.78416Z" fill="#8C8783"/>
</svg>