<svg width="316" height="57" viewBox="0 0 316 57" fill="none" xmlns="http://www.w3.org/2000/svg">
<path d="M175.12 1.42975C187.688 1.56354 200.236 1.42975 212.785 0.857392C213.577 0.277604 214.582 0.426268 215.519 0.426268C234.096 0.426268 252.682 0.426268 271.259 0.426268C272.061 0.426268 272.862 0.426268 273.606 0.708728C281.644 0.92429 289.681 0.797926 297.709 0.366803C301.718 0.151241 305.746 -0.309616 309.736 0.31477C314.324 1.04322 315.667 3.02788 313.503 6.19441C312.083 8.26826 312.122 9.77719 314.421 11.4051C316.817 13.1073 316.324 14.9135 314.034 16.5042C311.523 18.2436 310.373 20.1093 312.18 22.696C313.02 23.9002 313.01 25.6173 311.619 26.5316C308.489 28.5905 308.596 30.6272 310.18 33.3403C311.629 35.8156 310.924 38.4767 308.528 40.6174C306.297 42.6095 306.809 44.1407 309.533 45.4713C309.668 45.5382 309.784 45.6199 309.91 45.7017C312.421 47.3296 316.295 48.6081 314.943 51.7449C313.658 54.733 310.18 56.3014 306.123 56.792C304.394 57.0001 302.597 57.0224 300.839 56.9852C260.478 56.1602 220.117 56.2419 179.747 56.123C129.89 55.9818 80.024 56.7548 30.1673 55.6398C22.13 55.4614 14.1023 55.2087 6.06494 54.9337C1.44733 54.7776 0.481299 53.7815 2.44233 50.5556C3.87205 48.2067 3.66919 46.3855 1.47631 44.4975C-0.194921 43.0629 -0.571671 41.3087 0.993293 39.7552C2.7418 38.0158 2.65486 36.3656 1.3797 34.6114C-0.52337 31.9949 0.5296 29.371 1.22514 26.7397C0.858049 26.0335 0.53926 25.3274 1.48597 24.7179C1.82408 18.8754 3.34074 13.0552 2.16219 7.16815C1.2348 2.64879 1.74679 2.03927 7.6299 2.29199C32.5341 3.36237 57.4286 3.07248 82.3231 2.23253C85.994 2.10616 89.7132 2.36632 93.3262 1.63787C94.2536 0.916857 95.4418 1.16958 96.5237 1.16958C121.93 1.15472 147.337 1.15472 172.743 1.16215C173.545 1.16215 174.357 1.16215 175.1 1.42231L175.12 1.42975Z" fill="#8C8783"/>
</svg>
