<svg width="750" height="750" viewBox="0 0 750 750" fill="none" xmlns="http://www.w3.org/2000/svg">
<g clip-path="url(#clip0_278_5696)">
<path d="M571.44 522.63C568.99 514.03 563.28 507.29 557.74 500.51C554.15 496.1 550.27 490.36 547.03 484.6C541.5 474.76 537.66 464.77 534.98 453.63C535.12 453.6 535.27 453.58 535.41 453.54C542.42 451.61 546.09 444.41 544.49 437.55C538.39 411.37 540.26 384.35 549.15 359.04C554.12 344.91 532.71 336.57 525.39 349.02C524.76 350.09 524.17 351.18 523.56 352.27C521.68 351.93 519.69 351.92 517.7 352.25C446.27 364.29 373.87 370.39 301.43 370.69C280.59 370.78 259.75 370.36 238.93 369.49C238.91 369.49 238.9 369.49 238.88 369.49C238.79 369.07 238.7 368.65 238.62 368.23C237.18 361.35 229.09 357.37 222.63 359.15C215.5 361.11 212.11 368.25 213.55 375.14C218.63 399.42 223.62 423.84 224.38 448.71C224.74 460.41 224.29 472.21 222.06 483.72C220.92 489.6 219.4 495.41 217.48 501.09C215.18 507.91 212.3 514.29 211.7 521.57C210.68 534.12 218.08 547.24 223.29 558.26C228.38 569.01 234.82 579.58 243.58 587.77C248.57 592.43 254.07 596.17 259.89 598.9C260.49 600.13 261.32 601.23 262.41 602.07C273.71 610.85 289.28 613.33 301.58 604.63C301.63 604.6 301.67 604.56 301.72 604.52C313.69 600.53 324.76 593.11 334.1 584.48C347.52 572.08 362.61 556.92 365.54 538.63C366.53 538.08 367.46 537.42 368.31 536.62C369.97 535.06 370.47 534.91 373.3 534.1C375.24 533.54 373.33 533.8 375.37 533.82C376.32 533.83 377.26 533.82 378.2 533.84C378.47 533.84 379.21 533.93 379.44 533.94C385.7 534.97 389.93 537.57 395.06 542.04C407 552.48 416.75 565.15 428.84 575.49C453.83 596.85 488.42 612.86 521.53 601.32C537.22 595.86 549.71 585.14 558.8 571.34C567.61 557.96 576.06 538.78 571.45 522.61L571.44 522.63Z" fill="#A17B59"/>
<path d="M586.28 470.42C586.2 469.92 586.1 469.42 586.01 468.92C586.8 467.27 587.25 465.32 587.2 463.05C586.49 429.3 584.05 395.62 579.94 362.11C581.58 349.05 583.22 335.99 584.86 322.93C585.74 315.95 578.26 309.93 571.86 309.93C564.11 309.93 559.74 315.93 558.86 322.93C557.83 331.09 556.81 339.25 555.78 347.42C550.37 359.41 547.2 371.95 545.94 384.71C541.63 402.58 538.87 420.83 540.59 439.08C541.88 452.79 545.66 465.31 550.93 477.96C555.59 489.14 561.33 501.28 562.27 513.1C563.59 529.83 586.88 529.81 588.27 513.1C589.46 498.81 588.66 484.58 586.28 470.44V470.42Z" fill="#664B35"/>
<path d="M212.98 506.41C224.38 479.46 224.68 451.05 220.81 422.43C219.94 415.96 218.91 409.52 217.76 403.1C215.5 378.89 209.21 355.15 198.92 332.53C197.58 329.58 194.8 327.65 191.69 326.77C191.66 326.18 191.63 325.59 191.61 324.99C191.32 317.97 185.84 311.99 178.61 311.99C171.79 311.99 165.32 317.94 165.61 324.99C166.21 339.5 167.03 354 168.05 368.49C166.07 370.06 164.6 372.18 164.21 374.8C158.76 411.22 163.3 448.39 177.77 481.92C180.79 496.52 184.05 511.07 187.33 525.59C188.88 532.44 196.78 536.47 203.32 534.67C210.62 532.66 213.62 525.62 212.4 518.68C211.87 515.68 211.37 512.67 210.86 509.66C211.72 508.78 212.45 507.71 213 506.43L212.98 506.41Z" fill="#664B35"/>
<path d="M574.57 258.73C574.16 257.07 573.52 255.67 572.72 254.48C571.88 241.79 569.77 229.18 566.43 216.91C565.5 213.47 563.13 210.71 560.15 209.07C559.65 206.72 559.18 204.38 558.67 202.03C554.16 181.2 547.03 160.96 531.69 145.55C517.09 130.89 498.02 119.89 479.17 111.68C460.22 103.42 440.55 97.71 420.06 94.92C396.13 91.66 372.26 92.29 348.51 96.75C344.76 97.46 341.9 100.24 340.34 103.66C338.15 104.01 335.98 104.45 333.84 104.99C331.4 103.82 328.43 103.47 325.04 104.43C323.79 104.78 322.56 105.17 321.33 105.58C302.4 111.66 284.45 120.61 268.39 132.36C267.27 133.18 266.26 134.12 265.4 135.15C259.24 138.18 253.28 141.59 247.68 145.56C219.31 165.65 201.43 196.15 190.8 228.73C184.28 248.71 180.5 269.44 177.12 290.14C176.77 292.26 176.81 294.4 177.24 296.4C176.39 300.12 177.18 304.23 180.57 307.8C194.03 321.97 204.72 338.81 211.46 357.1C212.9 361.01 215.95 365.54 220.54 366.18C305.69 378.1 391.13 368.01 475.16 352.61C498.88 348.26 522.53 343.51 546.17 338.73C551.37 337.68 554.9 332.76 555.55 327.65C573.52 309.97 580.65 283.14 574.57 258.72V258.73ZM380.15 302.5C379.88 302.19 379.58 301.9 379.27 301.62C373.6 296.62 367.53 291.25 363.03 285.43C360.78 282.52 358.64 279.14 357.25 275.73C357.02 275.18 356.5 273.45 356.23 272.45C356.01 271.61 355.82 270.77 355.66 269.92C355.63 269.73 355.6 269.62 355.57 269.53C355.57 269.34 355.57 269.12 355.57 268.83C355.57 267.29 355.52 265.78 355.63 264.24C355.63 264.12 355.64 264.02 355.65 263.94C355.77 263.26 355.92 262.58 356.09 261.91C356.27 261.2 356.91 259.3 357.08 258.74C357.34 258.44 358.95 255.77 358.63 255.98C359.18 255.39 360.07 254.52 360.44 254.14C360.86 253.95 362.53 252.91 362.14 253.02C365.3 251.71 368.48 251.83 372.27 252.08C380.54 252.63 389.34 254.39 397.92 255.66C401.25 256.15 404.6 256.61 407.85 257.51C408.42 257.67 411.36 258.82 410.55 258.37C410.98 258.59 411.41 258.83 411.84 259.09C411.84 259.09 411.84 259.1 411.84 259.11C411.71 259.07 411.73 259.17 411.81 259.29C411.81 259.33 411.81 259.35 411.79 259.39C411.84 259.16 411 262.17 410.71 262.95C409.9 265.14 407.75 268.84 405.94 271.48C402.1 277.08 396.53 282.56 391.58 287.98C387.45 292.5 383.51 297.35 380.14 302.49L380.15 302.5ZM329.71 262.63C321.52 268.73 312.89 274.17 303.79 278.82C299.89 280.81 295.97 282.7 291.82 284.1C288.22 285.31 285.88 284.73 282.79 282.8C276.38 278.78 270.3 272.11 265.9 266.33C260.59 259.36 256.76 252.13 255.39 243.69C254.44 237.87 255.76 230.29 258.42 224.92C262.12 217.44 266.5 212.31 272.55 206.52C278.63 200.7 284.43 195.88 291.48 191.55C294.49 189.7 295.02 189.93 298.51 191.32C302.59 192.96 306.59 195.09 310.43 197.22C318.45 201.65 326.57 207.28 331.54 214.58C334.14 218.39 335.69 221.65 336.78 225.88C337.8 229.83 337.89 233.58 336.92 237.53C336.49 239.27 336.43 241.04 336.68 242.74C332.94 248.38 330.56 255.15 329.78 262.59C329.75 262.61 329.73 262.62 329.7 262.64L329.71 262.63ZM488.28 261C473.77 271.47 454.35 270.38 439.03 262.16C438.53 261.89 438.02 261.67 437.51 261.47C438.43 253.15 436.05 245.09 427.84 238.73C426.46 237.66 425.03 236.75 423.55 235.95C424.22 234.39 424.62 232.69 424.69 230.91C425.03 221.84 425.32 212.77 427.9 204C428.95 200.41 430.37 197.24 432.45 194.12C433.84 192.03 436.49 189.33 438.32 188.08C439.1 187.55 439.92 187.08 440.74 186.62C440.83 186.57 441.74 186.14 441.95 186.02C442.66 185.78 443.39 185.58 444.1 185.36C444.26 185.31 445.23 185.14 445.43 185.08C449.24 184.82 452.94 186.08 456.48 187.53C463.64 190.48 470.65 194.16 477.24 198.2C489.65 205.82 498.98 214.91 502.4 228.18C502.49 228.53 502.56 228.81 502.61 229.03C502.72 229.93 502.77 230.87 502.8 231.78C502.85 233.44 502.83 235.13 502.66 236.79C502.62 236.97 502.46 238.03 502.43 238.17C502.21 239.09 502.03 240.01 501.78 240.93C501.35 242.57 500.43 245.29 500.07 246.09C499.23 247.99 496.51 252.56 495.15 254.27C494.88 254.62 493.22 256.44 492.39 257.28C491.72 257.96 491.03 258.63 490.32 259.27C490.35 259.24 487.95 261.18 488.28 260.97V261Z" fill="#CCB4A4"/>
<path d="M396.79 250.45C387.06 247.35 376.2 247.43 366.6 251C360.02 253.44 355.54 259.8 357.52 266.99C357.58 267.2 357.66 267.4 357.73 267.61C358.32 269.69 359.39 271.67 360.91 273.38C365.91 279.03 370.91 284.67 375.9 290.32C381.06 296.15 392.95 295.11 396.32 287.69C399.07 281.64 401.81 275.59 404.56 269.55C408.1 261.76 405.4 253.2 396.79 250.45Z" fill="#F49F12"/>
<path d="M500.66 221.68C497.77 213.57 492.77 207.62 486.54 203.29C480.72 197.21 472.68 193.23 464.25 192.73C462.85 191.47 461.04 190.47 458.77 189.9C441.58 185.56 426.92 199.85 424.75 216.23C422.82 230.83 429.88 245.27 441.31 254.19C453.58 263.77 469.41 266.68 483.83 260.24C498.55 253.66 506.15 237.06 500.68 221.68H500.66Z" fill="#ECD651"/>
<path d="M331.28 235.04C330.6 224.28 326.47 213.49 318.34 206.31C317.59 201.37 313.96 197.12 308.95 195.58C288.63 189.33 265.65 203.12 260.71 223.64C255.59 244.92 268.55 270.56 290.23 276.74C314.88 283.76 332.66 256.95 331.29 235.05L331.28 235.04Z" fill="#ECD651"/>
<path d="M585.24 276.78C582.01 239.3 576.48 200.58 556.91 167.71C540.17 139.59 514.02 117.55 484.5 103.78C416.45 72.04 334.29 84.44 270.18 120.1C239.42 137.21 212.53 161.38 196.28 192.95C187.56 209.89 181.57 228.08 176.49 246.39C171.46 264.49 167.25 282.82 163.95 301.31C150.82 375 151.58 452.95 177.68 523.84C180.89 532.56 184.48 541.14 188.38 549.58C189.95 552.97 195.12 553.28 197.51 550.76C200.61 547.5 203.7 544.23 206.8 540.97C219.7 571.97 236.61 603.8 270.91 614.22C275.14 615.51 279.46 616.3 283.78 616.61C284.01 625.67 284.24 634.74 284.47 643.8C280.92 646.98 277.37 650.15 273.82 653.33C268.23 658.33 276.48 666.52 282.04 661.55C284.58 659.27 287.13 657 289.67 654.72C290.56 655.9 291.45 657.08 292.34 658.25C294.25 660.77 297.33 662.02 300.29 660.33C302.77 658.92 304.26 654.88 302.37 652.38C300.28 649.61 298.18 646.85 296.09 644.08C295.85 634.81 295.62 625.53 295.38 616.26C303.7 615.15 311.74 612.16 318.89 607.24C331.97 598.24 341.19 585.09 350.31 572.35C354.92 565.91 359.52 559.46 364.77 553.53C370.46 547.11 377.23 540.34 386.53 542.89C395.55 545.36 401.47 553.26 406.45 560.64C411.47 568.08 416.39 575.47 422.73 581.88C439.4 598.73 462.53 609.53 486.21 611.15C487.31 621.54 488.41 631.92 489.51 642.31C489.56 642.76 489.65 643.19 489.77 643.59C489.33 644.19 488.9 644.8 488.47 645.4C485.9 648.95 483.34 652.5 480.77 656.05C476.38 662.12 486.46 667.93 490.8 661.92C492.17 660.03 493.54 658.13 494.91 656.24C495.52 655.4 497.03 653.82 498.14 652.36C498.55 652.77 498.95 653.15 499.15 653.4L504.22 659.46C509.02 665.2 517.2 656.95 512.44 651.24C509.46 647.68 505.68 641.16 500.79 639.09C499.8 629.79 498.82 620.49 497.83 611.19C503.56 610.84 509.27 609.93 514.88 608.39C547.22 599.53 572.93 570.64 577.48 537.55C580.19 538.48 583.16 538.73 586.4 537.99C588.95 537.41 590.57 534.87 590.67 532.39C594.05 447.23 592.56 361.7 585.23 276.77L585.24 276.78ZM195.45 224.42C201.37 207.58 209.11 191.28 219.93 177C229.85 163.92 242.16 152.53 255.52 143.04C284.25 122.63 318.12 109.12 352.53 102.03C388.34 94.65 426.15 95.09 461 106.8C490.66 116.76 518.06 134.85 537.39 159.63C559.31 187.74 567.73 223.22 571.75 257.98C573.09 269.56 574.19 281.17 575.11 292.81C574.62 293.22 574.17 293.7 573.81 294.26C572 297.01 570.19 299.77 568.38 302.52C567.25 302.9 566.2 303.64 565.38 304.87C558.26 315.63 552.33 327.06 547.54 338.93C547.04 338.8 546.51 338.72 545.92 338.72C544.42 338.72 543.22 339.2 542.32 339.95C541.9 339.95 541.46 339.97 541.01 340.06C457.48 355.86 372.44 363.34 287.43 362.4C263.85 362.14 240.29 361.21 216.76 359.67C214.28 352.59 211.39 345.67 208.01 339.02C200.42 324.06 189.95 310.93 176.35 301.04C176.13 300.88 175.92 300.75 175.7 300.63C180.33 274.75 186.79 249.05 195.45 224.43V224.42ZM204.95 524.71C203.38 525.52 202.26 526.96 202.28 528.85C199.9 531.36 197.52 533.87 195.15 536.38C167.39 471.94 162.44 399.92 171.12 330.8C171.85 325.02 172.67 319.23 173.57 313.45C193.93 329.9 204.56 355.6 210.65 380.45C218.32 411.76 219.97 444.53 215.9 476.5C213.82 492.87 210.06 509.02 204.96 524.71H204.95ZM516.63 595.7C509.06 598.33 501.22 599.62 493.37 599.73C491.77 599.08 489.94 599.05 488.45 599.64C467.06 598.59 446.05 588.94 430.96 573.67C419.1 561.68 412.9 544.08 397.93 535.27C390.74 531.04 381.86 529.19 373.84 532.11C365.88 535.01 359.87 541.34 354.53 547.68C337.2 568.23 322.11 603.36 291.3 605.18C272.56 606.29 255.01 595.93 242.99 582.22C230.06 567.48 222.35 548.94 215.13 530.88C225.85 499.1 230.76 465.32 229.44 431.8C228.65 411.76 226 391.15 220.49 371.51C304.42 376.76 388.8 373.89 472.17 362.82C495.86 359.67 519.45 355.9 542.93 351.48C527.17 399.54 529.58 453.45 550.09 499.91C553.99 508.74 558.53 517.39 563.86 525.44C564.7 526.71 565.6 527.95 566.56 529.14C565.69 558.73 544.44 586.02 516.64 595.7H516.63ZM580.05 502.28C579.85 510.17 579.59 518.06 579.29 525.95C574.95 523.25 571.36 515.62 569.54 512.5C565.72 505.96 562.29 499.17 559.33 492.2C553.31 478.03 549.15 463.04 546.67 447.85C541.79 417.96 544.05 386.8 553.02 357.89C558 341.82 565.17 326.59 574.29 312.47C575.08 312.17 575.8 311.71 576.43 311.1C577.88 333.46 578.79 355.86 579.54 378.19C580.94 419.53 581.11 460.92 580.05 502.27V502.28Z" fill="black"/>
<path d="M341 232.74C338.28 211.06 325.35 184.9 301.18 185.12C300.06 184.49 298.68 184.22 297.11 184.54C277.71 188.47 260.88 202.22 253.81 220.79C247.01 238.65 251.86 260.02 264.98 273.75C278.16 287.55 298.86 290.74 316.11 283.18C336.08 274.43 343.59 253.37 341 232.75V232.74ZM312.91 271.89C300.72 278.12 285.09 276.64 274.94 267.25C264.48 257.56 259.91 241.96 263.63 228.17C267.84 212.54 281.05 201.09 296.27 196.72C297.04 196.91 297.89 196.96 298.81 196.81C317.58 193.72 326.61 216.88 329.14 231.34C331.89 247.08 328.07 264.15 312.92 271.9L312.91 271.89Z" fill="black"/>
<path d="M410.97 250.95C408.39 248.58 404.47 248.17 401.18 247.53C396.76 246.67 392.31 245.98 387.84 245.43C374.52 243.77 355.42 241.01 347.1 254.5C345.7 256.77 346.07 258.96 347.3 260.57C346.57 262.05 346.54 263.85 347.7 265.71C352.42 273.25 357.42 280.62 362.74 287.75C365.36 291.26 368.05 294.74 370.81 298.15C373.13 301.02 375.62 303.88 379.33 304.91C386.73 306.96 392.49 301.21 396.2 295.62C400.84 288.64 404.62 280.99 407.92 273.3C410.45 267.41 417.01 256.5 410.97 250.95ZM393.92 276.03C392.28 279.32 390.52 282.56 388.64 285.73C387.37 287.88 385.63 292.17 383.19 293.21C381.93 293.74 382.05 293.46 380.92 292.23C379.88 291.1 378.95 289.83 377.99 288.64C375.52 285.55 373.13 282.4 370.8 279.21C366.21 272.92 361.87 266.46 357.74 259.86C357.71 259.81 357.67 259.76 357.63 259.71C361.51 254.7 370.4 255.66 375.94 255.98C380.53 256.24 385.12 256.66 389.67 257.32C392.2 257.69 394.73 258.12 397.24 258.59C398.06 258.75 399.85 258.86 401.32 259.16C400.62 261.51 399.26 264 398.49 265.92C397.11 269.36 395.56 272.73 393.91 276.04L393.92 276.03Z" fill="black"/>
<path d="M506.04 205.49C499.33 196.08 489.6 189.29 479.23 184.44C468.8 179.56 456.7 175.68 445.31 178.64C445.09 178.68 444.87 178.73 444.64 178.79C424.99 184.18 414.13 205.1 415.36 224.53C416.64 244.76 428.99 263.3 447.92 271C466.6 278.59 489.83 274.7 502.94 258.74C515.33 243.66 517.63 221.72 506.04 205.48V205.49ZM497.6 246.12C489.85 259.82 473.86 265.63 458.75 262.26C443.22 258.79 431.75 246.65 428.04 231.31C424.47 216.57 429.58 197.71 444.16 191.28C444.21 191.26 444.27 191.25 444.32 191.23C453.14 187.52 462.35 189.77 470.86 193.36C478.37 196.53 485.73 200.74 491.61 206.44C502.65 217.13 505.23 232.64 497.6 246.12Z" fill="black"/>
<path d="M460.52 213.63C459.12 213.54 457.72 213.69 456.39 214.06C455.19 213.95 453.93 214.18 452.76 214.73C444.32 218.64 441.82 231.12 448.49 237.76C455.06 244.31 467.39 243.26 471.67 234.6C475.99 225.84 470.73 214.3 460.53 213.63H460.52Z" fill="black"/>
<path d="M303.32 223.23C298.27 220.1 291.58 220.48 287.47 225.04C287.44 225.07 287.42 225.11 287.39 225.14C280.49 229.7 278.3 240.49 285.16 246.96C293.87 255.18 307.69 250.01 309.8 238.54C310.88 232.68 308.49 226.44 303.32 223.23Z" fill="black"/>
<path d="M517.16 421.48C516.27 418.12 513.11 417 510.01 417.42C497.3 419.16 483.55 408.68 481.86 395.96H481.84C481.79 395.45 481.73 394.93 481.65 394.42C480.69 388.01 469.37 389.46 470.24 395.96C470.31 396.48 470.4 396.99 470.48 397.5C470.47 397.5 470.46 397.5 470.44 397.5C471.89 407.22 464.38 417.65 454.72 419.32C445.26 420.95 435.49 414.37 432.78 405.36C430.83 398.86 421.9 400.49 421.37 406.9C420.75 414.39 414.52 421.25 407 422.26C399.18 423.31 392.11 418.18 389.05 411.31C386.91 406.51 379.73 408.29 378.43 412.7C376.24 420.14 368.86 425.81 360.95 425.18C353.38 424.58 346.56 417.89 345.73 410.34C345.41 407.43 343.76 405.05 340.69 404.63C338.09 404.28 334.78 405.94 334.32 408.79C333.03 416.7 325.53 422 317.57 421.3C308.63 420.51 302.01 413.18 298.42 405.53C296.23 400.86 289.04 402.39 287.8 406.92C286.21 412.74 280.71 417.52 274.43 417.09C268.02 416.65 263.41 411.5 262.27 405.46C261.33 400.49 253.96 399.89 251.65 404.07C248.32 410.1 243.54 414.23 237.23 416.95C230.38 419.9 236.29 429.91 243.1 426.98C247.79 424.96 251.95 422.02 255.44 418.4C259.85 424.39 266.86 428.46 274.44 428.7C281.97 428.93 288.97 425.4 293.72 419.86C299.89 427.45 308.8 432.86 318.78 432.96C326.36 433.04 334 429.73 339.21 424.25C343.79 431.01 351.03 435.79 359.7 436.67C369.52 437.67 378.88 432.92 384.71 425.36C391.24 431.86 400.88 435.18 410.09 433.45C417.99 431.97 424.45 427.04 428.48 420.52C435.73 428.46 446.84 432.7 457.81 430.51C467.01 428.67 474.14 422.5 478.2 414.63C486.29 424.74 499.34 430.49 513.09 428.6C516.22 428.17 517.87 424.2 517.15 421.45L517.16 421.48Z" fill="black"/>
<path d="M506 464.68C505.28 461.95 501.74 459.4 498.85 460.62C491.81 463.59 482.9 460.63 480.41 452.96C478.48 447.01 468.59 447.67 469 454.5C469.15 457.09 469.31 459.69 469.46 462.28C462.65 466.01 452.43 461.96 450.29 454.47C449.02 450.02 441.85 448.36 439.67 453.08C434.48 464.32 415.92 468.27 407.84 457.66C405.41 454.47 400 453.36 397.81 457.66C390.76 471.5 372.13 470.97 365.53 457.05C363.76 453.3 357.23 453.19 355.5 457.05C348.73 472.08 328.66 472.73 321.32 457.79C319.12 453.31 311.81 454.47 310.7 459.18C309.25 465.36 303.55 470.54 296.9 469.94C290.54 469.37 285.45 463.55 285.17 457.3C284.92 451.93 277.05 448.89 274.34 454.37C271.23 460.64 266.59 464.94 260.18 467.72C253.34 470.68 259.25 480.7 266.05 477.75C270.36 475.88 274.24 473.19 277.5 469.88C281.41 476.13 287.92 480.64 295.68 481.44C304.08 482.32 312.2 478.29 317.27 471.83C322.92 477.37 330.68 480.79 338.67 480.63C347.08 480.47 355.13 476.56 360.67 470.37C366.04 476.04 373.6 479.61 381.5 479.7C390.1 479.8 398.35 475.77 403.91 469.36C415.86 477.86 433.84 477.06 444.27 466.74C448.54 471.43 454.64 474.38 461.18 475.06C465.98 475.56 470.89 474.71 475.16 472.42C476.6 471.65 478.27 470.6 479.49 469.29C486.01 473.6 494.38 475.02 501.97 471.82C504.88 470.59 506.9 467.99 506.03 464.67L506 464.68Z" fill="black"/>
<path d="M332.64 513.33C326.51 517.45 316.42 515.48 313.58 508.08C312.06 504.14 307.18 502.16 303.87 505.52C301.54 507.88 299.75 510.61 298.09 513.47C296.77 515.73 295.54 518.68 293.31 520.22C286.73 524.79 280.31 515.11 277.44 510.51C274.97 506.56 269.96 507 267.41 510.51C263.47 515.92 259.45 521.28 255.33 526.56C250.78 532.39 258.95 540.67 263.55 534.78C266.53 530.96 269.46 527.11 272.36 523.24C277.58 529.39 284.36 534.05 293.04 532.61C301.11 531.27 304.05 525.23 307.74 519.45C315.58 527.46 328.54 530.07 338.52 523.37C344.7 519.22 338.89 509.15 332.65 513.34L332.64 513.33Z" fill="black"/>
<path d="M531.47 504.67C524.49 508.23 516.49 502.52 511.72 497.72C508.37 494.36 501.4 496.67 501.8 501.83C502.2 506.99 499.11 512.58 493.53 513.28C488.34 513.93 483.9 509.8 482.79 505.04C481.37 498.97 473.5 500.11 471.58 505.04C468.61 512.71 463.69 519.22 457.49 524.57C451.82 529.46 460.07 537.65 465.71 532.79C470.48 528.67 474.43 523.92 477.63 518.66C482.09 523 488.33 525.49 494.71 524.77C502.15 523.93 508.41 518.89 511.47 512.32C519.28 517.19 528.54 519.19 537.34 514.7C544 511.3 538.13 501.27 531.47 504.67Z" fill="black"/>
</g>
<defs>
<clipPath id="clip0_278_5696">
<rect width="750" height="750" fill="white"/>
</clipPath>
</defs>
</svg>
