<?xml version="1.0" encoding="utf-8"?>
<!-- Generator: Adobe Illustrator 26.4.1, SVG Export Plug-In . SVG Version: 6.00 Build 0)  -->
<svg version="1.1" id="레이어_1" xmlns="http://www.w3.org/2000/svg" xmlns:xlink="http://www.w3.org/1999/xlink" x="0px"
	 y="0px" viewBox="0 0 383.7 264.4" style="enable-background:new 0 0 383.7 264.4;" xml:space="preserve">
<style type="text/css">
	.st0{clip-path:url(#SVGID_00000156554648085261720640000005533428522569207716_);fill:#DFE6EB;}
	
		.st1{clip-path:url(#SVGID_00000156554648085261720640000005533428522569207716_);fill:none;stroke:#95A4B0;stroke-width:25;stroke-miterlimit:10;}
</style>
<g>
	<g>
		<defs>
			<path id="SVGID_1_" d="M353.5,264.4H30.3C13.6,264.4,0,250.8,0,234.2V30.3C0,13.6,13.6,0,30.3,0h323.2
				c16.6,0,30.3,13.6,30.3,30.3v203.9C383.7,250.8,370.1,264.4,353.5,264.4z"/>
		</defs>
		<clipPath id="SVGID_00000034787197947746279820000001142768265013190297_">
			<use xlink:href="#SVGID_1_"  style="overflow:visible;"/>
		</clipPath>
		<path style="clip-path:url(#SVGID_00000034787197947746279820000001142768265013190297_);fill:#DFE6EB;" d="M353.5,264.4H30.3
			C13.6,264.4,0,250.8,0,234.2V30.3C0,13.6,13.6,0,30.3,0h323.2c16.6,0,30.3,13.6,30.3,30.3v203.9
			C383.7,250.8,370.1,264.4,353.5,264.4z"/>
		
			<path style="clip-path:url(#SVGID_00000034787197947746279820000001142768265013190297_);fill:none;stroke:#95A4B0;stroke-width:25;stroke-miterlimit:10;" d="
			M-7.6,17.3c3.5,4.5,199.4,174.4,199.4,174.4L391.3,17.3"/>
		
			<line style="clip-path:url(#SVGID_00000034787197947746279820000001142768265013190297_);fill:none;stroke:#95A4B0;stroke-width:25;stroke-miterlimit:10;" x1="122.1" y1="132.7" x2="-157.3" y2="358.7"/>
		
			<path style="clip-path:url(#SVGID_00000034787197947746279820000001142768265013190297_);fill:none;stroke:#95A4B0;stroke-width:25;stroke-miterlimit:10;" d="
			M536.4,358.7c-4.9-5.9-279.4-226-279.4-226"/>
	</g>
</g>
<g>
	<g id="XMLID_00000064350367785155486330000011690530445667062451_">
		<g>
		</g>
		<g>
		</g>
	</g>
</g>
</svg>
