<?xml version="1.0" encoding="utf-8"?>
<!-- Generator: Adobe Illustrator 26.4.1, SVG Export Plug-In . SVG Version: 6.00 Build 0)  -->
<svg version="1.1" id="레이어_1" xmlns="http://www.w3.org/2000/svg" xmlns:xlink="http://www.w3.org/1999/xlink" x="0px"
	 y="0px" viewBox="0 0 113.2 183.6" style="enable-background:new 0 0 113.2 183.6;" xml:space="preserve">
<style type="text/css">
	.locks{fill:#DFE6EB;}
	.locks2{fill:#932f42;}
</style>
<g>
	<g id="XMLID_00000064350367785155486330000011690530445667062451_">
		<g>
			<path class="locks" d="M46,116.4c0-5.8,4.7-10.6,10.6-10.6c5.8,0,10.6,4.7,10.6,10.6c0,4.1-2.4,7.7-5.8,9.5l5.8,29.3H46l5.9-29.3
				C48.4,124.2,46,120.6,46,116.4z"/>
			<path class="locks2" d="M56.6,14.3c-15.6,0-28.2,12.6-28.2,28.2v31.7H14.3V42.5c0-23.3,18.9-42.3,42.3-42.3
				c23.3,0,42.2,18.9,42.2,42.3v31.7H84.7V42.5C84.7,26.9,72.1,14.3,56.6,14.3z"/>
			<path class="locks2" d="M14.3,77.7h84.5c7.8,0,14.1,6.3,14.1,14.1v77.4c0,7.8-6.3,14.1-14.1,14.1H14.3c-7.8,0-14.1-6.3-14.1-14.1
				V91.8C0.2,84,6.6,77.7,14.3,77.7z M56.6,105.9c-5.8,0-10.6,4.7-10.6,10.6c0,4.1,2.4,7.7,5.9,9.5L46,155.2h21.1l-5.8-29.3
				c3.5-1.7,5.8-5.3,5.8-9.5C67.1,110.6,62.4,105.9,56.6,105.9z M21.4,95.3c0-1.9-1.6-3.5-3.5-3.5s-3.5,1.6-3.5,3.5
				c0,2,1.6,3.5,3.5,3.5S21.4,97.3,21.4,95.3z M98.8,95.3c0-1.9-1.6-3.5-3.5-3.5c-2,0-3.5,1.6-3.5,3.5c0,2,1.6,3.5,3.5,3.5
				C97.3,98.8,98.8,97.3,98.8,95.3z M98.8,165.7c0-2-1.6-3.5-3.5-3.5c-2,0-3.5,1.6-3.5,3.5s1.6,3.5,3.5,3.5
				C97.3,169.2,98.8,167.7,98.8,165.7z M21.4,165.7c0-2-1.6-3.5-3.5-3.5s-3.5,1.6-3.5,3.5s1.6,3.5,3.5,3.5S21.4,167.7,21.4,165.7z"
				/>
		</g>
	</g>
</g>
</svg>
