<?xml version="1.0" encoding="utf-8"?>
<!-- Generator: Adobe Illustrator 26.4.1, SVG Export Plug-In . SVG Version: 6.00 Build 0)  -->
<svg version="1.1" id="레이어_1" xmlns="http://www.w3.org/2000/svg" xmlns:xlink="http://www.w3.org/1999/xlink" x="0px"
	 y="0px" viewBox="0 0 12 12" style="enable-background:new 0 0 12 12;" xml:space="preserve">
<style type="text/css">
	.ww{fill:#ffffff;}
	.dd{fill:#ED7634;}
	.aa{fill:#336991;}
	.cc{clip-path:url(#SVGID_00000052811283971823774200000000680440211025778050_);fill:#20567F;}
	.ss{fill:#ECC22E;}
	.ee{fill:#60382B;}
</style>
<g>
	<g>
		<path class="ww" d="M9.9,2.7c0.1,0,0.1,0,0.2,0.2c0,0.2,0.1,0.4,0.1,0.5c0.1,0.4,0.1,0.8,0.2,1.2c0,0.1,0,0.1,0,0.2
			c0.5,0.6,0.9,1.4,0.9,2.3v0c0,1.7-1.2,3.2-2.8,3.2h-5c-1.5,0-2.8-1.4-2.8-3.2v0c0-0.9,0.3-1.7,0.9-2.3c0-0.1,0-0.1,0-0.2
			c0.1-0.4,0.1-0.8,0.2-1.2c0-0.2,0.1-0.4,0.1-0.5c0-0.1,0.1-0.2,0.2-0.2c0.1,0,0.1,0,0.2,0C2.6,3.1,3,3.5,3.4,3.9c0,0,0.1,0,0.1,0
			h5c0,0,0.1,0,0.1,0C9,3.5,9.4,3.1,9.7,2.7C9.8,2.7,9.9,2.7,9.9,2.7 M9.9,2.1c-0.2,0-0.3,0-0.4,0.1L9.4,2.2L9.3,2.3l-0.9,1H3.6
			l-0.9-1L2.6,2.2L2.5,2.2c-0.1,0-0.3-0.1-0.4-0.1c-0.3,0-0.6,0.2-0.8,0.6l0,0l0,0l0,0.2l0,0.3L1.1,3.9L1,4.5l0,0.1
			C0.4,5.3,0.1,6.2,0.1,7.1c0,2.1,1.5,3.8,3.4,3.8h5c1.9,0,3.4-1.7,3.4-3.8c0-1-0.3-1.9-0.9-2.6l0-0.1l-0.2-1.2l-0.1-0.5l0,0l0,0
			C10.6,2.2,10.2,2.1,9.9,2.1L9.9,2.1z"/>
	</g>
	<g>
		<path class="ww" d="M8.2,5.3c1,0,1.8,0.8,1.8,1.8S9.1,8.9,8.2,8.9c-0.7,0-1.3-0.4-1.6-1L6.2,7.1l0.3-0.7C6.8,5.7,7.5,5.3,8.2,5.3
			 M3.8,5.3c0.7,0,1.3,0.4,1.6,1l0.3,0.7L5.4,7.8c-0.3,0.6-0.9,1-1.6,1c-1,0-1.8-0.8-1.8-1.8S2.8,5.3,3.8,5.3 M8.2,4.7
			c-1,0-1.8,0.6-2.2,1.4C5.6,5.3,4.8,4.7,3.8,4.7c-1.3,0-2.4,1.1-2.4,2.4s1.1,2.4,2.4,2.4c1,0,1.8-0.6,2.2-1.4
			c0.4,0.8,1.2,1.4,2.2,1.4c1.3,0,2.4-1.1,2.4-2.4S9.5,4.7,8.2,4.7L8.2,4.7z"/>
	</g>
	<polygon class="dd" points="6,7.1 7.2,7.1 6.6,8.3 6,9.5 5.4,8.3 4.9,7.1 	"/>
	<g>
		<path class="aa" d="M3.5,3.1c0,0-1-0.6,0.1-1.4s2-1,2.5-1C6.5,0.8,7.8,1,8.7,1.9c0.9,0.8-0.2,1.3-0.2,1.3L3.5,3.1z"/>
		<g>
			<defs>
				<path id="SVGID_1_" d="M3.5,3.1c0,0-1-0.6,0.1-1.4s2-1,2.5-1C6.5,0.8,7.8,1,8.7,1.9c0.9,0.8-0.2,1.3-0.2,1.3L3.5,3.1z"/>
			</defs>
			<clipPath id="SVGID_00000051351196644273014650000017606112087492105603_">
				<use xlink:href="#SVGID_1_"  style="overflow:visible;"/>
			</clipPath>
			<path style="clip-path:url(#SVGID_00000051351196644273014650000017606112087492105603_);fill:#20567F;" d="M2.7,3
				c0,0,1.4-0.7,3.3-0.6s3,0.4,3.1,0.6c0.1,0.1-1.8,0.4-3.6,0.4C3.6,3.2,2.8,3,2.7,3z"/>
		</g>
		<path class="ss" d="M5.9,2.8c-0.2,0-0.4-0.2-0.4-0.5C5.5,2.1,5.8,2,6,2.1C6.4,2.3,6.3,2.8,5.9,2.8z"/>
		<path class="ee" d="M3.1,3.2C3.2,3,3.5,3,3.6,3c0.2,0,0.3-0.1,0.5-0.1C4.7,2.7,5.4,2.6,6,2.6c0.7,0,1.3,0.1,2,0.2
			c0.2,0,0.4,0.1,0.5,0.1c0,0,0.2,0.1,0.2,0.1c0,0.1-0.2,0.1-0.2,0.1C8.3,3.3,8,3.3,7.8,3.3C7,3.4,6.3,3.5,5.6,3.4
			c-0.4,0-0.8,0-1.2-0.1c-0.2,0-0.4,0-0.6-0.1C3.5,3.3,3.3,3.3,3.1,3.2z"/>
	</g>
</g>
</svg>
