<?xml version="1.0" encoding="utf-8"?>
<!-- Generator: Adobe Illustrator 26.4.1, SVG Export Plug-In . SVG Version: 6.00 Build 0)  -->
<svg version="1.1" id="레이어_1" xmlns="http://www.w3.org/2000/svg" xmlns:xlink="http://www.w3.org/1999/xlink" x="0px"
	 y="0px" viewBox="0 0 278.7 138.8" style="enable-background:new 0 0 278.7 138.8;" xml:space="preserve">
<style type="text/css">
	.st0{fill:#EE7635;}
	.st1{fill:#D7D2C4;}
	.st2{fill:#E7E3D8;}
	.st3{fill:#FFFFFF;}
	.st4{fill:#323333;}
	.st5{fill:#C0BAAB;}
	.st6{fill:#3D3D3D;}
	.st7{fill:#AEC0C9;}
	.st8{fill:#CDDEE6;}
	.st9{fill:#9BB0BB;}
	.st10{fill:#F2A037;}
</style>
<g>
	<g>
		<g>
			<path class="st0" d="M73.5,129.3c0-2.9,0-5.7,0-8.6c0-1.5-2.3-1.5-2.3,0c0,2.9,0,5.7,0,8.6c-5,0.4-9.7,3.1-10.1,8.2
				c-0.1,1.5,2.1,1.4,2.3,0c0.3-3.7,3.9-5.7,7.8-6c0,2.1,0,4.1,0,6.2c0,1.5,2.3,1.5,2.3,0c0-2.1,0-4.1,0-6.2c3.9,0.3,7.5,2.3,7.9,6
				c0.1,1.4,2.4,1.5,2.3,0C83.2,132.4,78.5,129.7,73.5,129.3z"/>
		</g>
		<g>
			<path class="st0" d="M38.4,129.3c0-2.9,0-5.7,0-8.6c0-1.5-2.3-1.5-2.3,0c0,2.9,0,5.7,0,8.6c-5,0.4-9.7,3.1-10.1,8.2
				c-0.1,1.5,2.1,1.4,2.3,0c0.3-3.7,3.9-5.7,7.8-6c0,2.1,0,4.1,0,6.2c0,1.5,2.3,1.5,2.3,0c0-2.1,0-4.1,0-6.2c3.9,0.3,7.5,2.3,7.9,6
				c0.1,1.4,2.4,1.5,2.3,0C48.1,132.4,43.4,129.7,38.4,129.3z"/>
		</g>
		<path class="st1" d="M106.2,38.6c0,15.1-13.4,27.4-29.8,27.4h-41C19,66.1,5.6,53.7,5.6,38.6S19,11.2,35.4,11.2h41
			C92.8,11.2,106.2,23.6,106.2,38.6z"/>
		<g>
			<g>
				<g>
					<path class="st2" d="M100.8,39.6c0,12.6-10.3,22.9-22.9,22.9c-12.6,0-22.9-10.3-22.9-22.9c0-12.6,10.3-22.9,22.9-22.9
						C90.5,16.7,100.8,26.9,100.8,39.6z"/>
					<g>
						<path class="st3" d="M91.1,39.6c0,7.3-5.9,13.3-13.3,13.3c-7.3,0-13.3-5.9-13.3-13.3c0-7.3,5.9-13.3,13.3-13.3
							C85.2,26.3,91.1,32.2,91.1,39.6z"/>
					</g>
				</g>
				<g>
					<path class="st4" d="M70.2,41.1c0.5-9.8,14.7-9.8,15.2,0c0.1,1.6,2.6,1.6,2.5,0c-0.7-13-19.5-13-20.2,0
						C67.6,42.7,70.1,42.7,70.2,41.1L70.2,41.1z"/>
				</g>
			</g>
			<g>
				<g>
					<path class="st2" d="M56.8,39.6c0,12.6-10.3,22.9-22.9,22.9C21.3,62.5,11,52.2,11,39.6c0-12.6,10.3-22.9,22.9-22.9
						C46.6,16.7,56.8,26.9,56.8,39.6z"/>
					<g>
						<path class="st3" d="M47.2,39.6c0,7.3-5.9,13.3-13.3,13.3c-7.3,0-13.3-5.9-13.3-13.3c0-7.3,5.9-13.3,13.3-13.3
							C41.3,26.3,47.2,32.2,47.2,39.6z"/>
					</g>
				</g>
				<g>
					<path class="st4" d="M26.3,41.1c0.5-9.8,14.7-9.8,15.2,0c0.1,1.6,2.6,1.6,2.5,0c-0.7-13-19.5-13-20.2,0
						C23.7,42.7,26.2,42.7,26.3,41.1L26.3,41.1z"/>
				</g>
			</g>
		</g>
		<path class="st1" d="M30.1,11.7c-0.9-1.1-11-13.1-14.2-11.5C13,1.5,10.1,19.9,9.3,25.4C13.6,18.3,21.2,13.2,30.1,11.7z"/>
		<path class="st1" d="M81.8,11.7c0.9-1.1,11-13.1,14.2-11.5c2.9,1.4,5.7,19.8,6.5,25.2C98.3,18.3,90.7,13.2,81.8,11.7z"/>
		<path class="st2" d="M106.2,38.6c0,15.1-13.4,27.4-29.8,27.4h-41c-15.8,0-28.8-11.4-29.8-25.7c0,0.1-7,85.6,50.2,85.6
			C113,125.9,106.2,38.6,106.2,38.6z"/>
		<path class="st5" d="M5.4,46.1v74.2c0,0,20-18.1,20-37.1C25.3,64.3,5.4,46.1,5.4,46.1z"/>
		<path class="st5" d="M102.8,54.8l40.3,62.3c0,0-26.6-4.4-36.9-20.3C95.9,80.9,102.8,54.8,102.8,54.8z"/>
		<polygon class="st0" points="55.9,55.3 62.6,42.9 55.9,42.9 55.7,42.9 49.1,42.9 55.7,55.3 55.7,55.7 55.8,55.5 55.9,55.7 		"/>
		<path class="st6" d="M85.6,11.5c-14.5,0-26.2,11.8-26.2,26.2c0,1,0.1,2,0.2,3c-2.8-1.1-5.3-0.8-7.3-0.1c0.1-1,0.2-1.9,0.2-2.9
			c0-14.5-11.8-26.2-26.2-26.2C11.8,11.5,0,23.2,0,37.7s11.8,26.2,26.2,26.2c11.9,0,21.9-8,25.1-18.8c0.5-0.5,3.9-3.4,9.1,0
			C63.6,56,73.7,63.9,85.6,63.9c14.5,0,26.2-11.8,26.2-26.2S100,11.5,85.6,11.5z M26.2,60.9C13.4,60.9,3,50.5,3,37.7
			s10.4-23.2,23.2-23.2s23.2,10.4,23.2,23.2S39,60.9,26.2,60.9z M85.6,60.9c-12.8,0-23.2-10.4-23.2-23.2s10.4-23.2,23.2-23.2
			s23.2,10.4,23.2,23.2S98.4,60.9,85.6,60.9z"/>
	</g>
	<g>
		<path class="st1" d="M57.9,86.6c0,1.1-0.9,2-2,2l0,0c-1.1,0-2-0.9-2-2v-6.8c0-1.1,0.9-2,2-2l0,0c1.1,0,2,0.9,2,2V86.6z"/>
		<path class="st1" d="M47.9,96.6c0,1.1-0.9,2-2,2l0,0c-1.1,0-2-0.9-2-2v-6.8c0-1.1,0.9-2,2-2l0,0c1.1,0,2,0.9,2,2V96.6z"/>
		<path class="st1" d="M67.9,96.6c0,1.1-0.9,2-2,2l0,0c-1.1,0-2-0.9-2-2v-6.8c0-1.1,0.9-2,2-2l0,0c1.1,0,2,0.9,2,2V96.6z"/>
		<path class="st1" d="M57.9,106.6c0,1.1-0.9,2-2,2l0,0c-1.1,0-2-0.9-2-2v-6.8c0-1.1,0.9-2,2-2l0,0c1.1,0,2,0.9,2,2V106.6z"/>
		<path class="st1" d="M37.9,106.6c0,1.1-0.9,2-2,2l0,0c-1.1,0-2-0.9-2-2v-6.8c0-1.1,0.9-2,2-2l0,0c1.1,0,2,0.9,2,2V106.6z"/>
		<path class="st1" d="M77.9,106.6c0,1.1-0.9,2-2,2l0,0c-1.1,0-2-0.9-2-2v-6.8c0-1.1,0.9-2,2-2l0,0c1.1,0,2,0.9,2,2V106.6z"/>
		<path class="st1" d="M47.9,116.6c0,1.1-0.9,2-2,2l0,0c-1.1,0-2-0.9-2-2v-6.8c0-1.1,0.9-2,2-2l0,0c1.1,0,2,0.9,2,2V116.6z"/>
		<path class="st1" d="M67.9,116.6c0,1.1-0.9,2-2,2l0,0c-1.1,0-2-0.9-2-2v-6.8c0-1.1,0.9-2,2-2l0,0c1.1,0,2,0.9,2,2V116.6z"/>
	</g>
</g>
<g>
	<g>
		<g>
			<path class="st0" d="M213,129.3c0-2.9,0-5.7,0-8.6c0-1.5-2.3-1.5-2.3,0c0,2.9,0,5.7,0,8.6c-5,0.4-9.7,3.1-10.1,8.2
				c-0.1,1.5,2.1,1.4,2.3,0c0.3-3.7,3.9-5.7,7.8-6c0,2.1,0,4.1,0,6.2c0,1.5,2.3,1.5,2.3,0c0-2.1,0-4.1,0-6.2c3.9,0.3,7.5,2.3,7.9,6
				c0.1,1.4,2.4,1.5,2.3,0C222.7,132.4,218,129.7,213,129.3z"/>
			<path class="st0" d="M245.7,129.3c0-2.9,0-5.7,0-8.6c0-1.5-2.3-1.5-2.3,0c0,2.9,0,5.7,0,8.6c-5,0.4-9.7,3.1-10.1,8.2
				c-0.1,1.5,2.1,1.4,2.3,0c0.3-3.7,3.9-5.7,7.8-6c0,2.1,0,4.1,0,6.2c0,1.5,2.3,1.5,2.3,0c0-2.1,0-4.1,0-6.2c3.9,0.3,7.5,2.3,7.9,6
				c0.1,1.4,2.4,1.5,2.3,0C255.4,132.4,250.7,129.7,245.7,129.3z"/>
		</g>
		<path class="st7" d="M278.4,38.6c0,15.1-13.4,27.4-29.8,27.4h-41c-16.4,0-29.8-12.3-29.8-27.4c0-15.1,13.4-27.4,29.8-27.4h41
			C265,11.2,278.4,23.6,278.4,38.6z"/>
		<g>
			<g>
				<path class="st8" d="M272.9,39.6c0,12.6-10.3,22.9-22.9,22.9c-12.6,0-22.9-10.3-22.9-22.9c0-12.6,10.3-22.9,22.9-22.9
					C262.7,16.7,272.9,26.9,272.9,39.6z"/>
				<g>
					<path class="st3" d="M263.3,39.6c0,7.3-5.9,13.3-13.3,13.3c-7.3,0-13.3-5.9-13.3-13.3c0-7.3,5.9-13.3,13.3-13.3
						C257.4,26.3,263.3,32.2,263.3,39.6z"/>
					<g>
						<path class="st4" d="M257.7,39.6c-0.5,9.8-14.7,9.8-15.2,0c-0.1-1.6-2.6-1.6-2.5,0c0.7,13,19.5,13,20.2,0
							C260.2,37.9,257.7,38,257.7,39.6L257.7,39.6z"/>
					</g>
				</g>
			</g>
			<g>
				<path class="st8" d="M229,39.6c0,12.6-10.3,22.9-22.9,22.9c-12.6,0-22.9-10.3-22.9-22.9c0-12.6,10.3-22.9,22.9-22.9
					C218.8,16.7,229,26.9,229,39.6z"/>
				<g>
					<path class="st3" d="M219.4,39.6c0,7.3-5.9,13.3-13.3,13.3c-7.3,0-13.3-5.9-13.3-13.3c0-7.3,5.9-13.3,13.3-13.3
						C213.5,26.3,219.4,32.2,219.4,39.6z"/>
					<path class="st4" d="M215,39.6c0,4.9-4,8.9-8.9,8.9c-4.9,0-8.9-4-8.9-8.9c0-4.9,4-8.9,8.9-8.9C211,30.7,215,34.7,215,39.6z"/>
					<path class="st3" d="M215,34.2c0,1.9-1.6,3.5-3.5,3.5c-1.9,0-3.5-1.6-3.5-3.5c0-1.9,1.6-3.5,3.5-3.5
						C213.4,30.7,215,32.3,215,34.2z"/>
				</g>
			</g>
		</g>
		<path class="st7" d="M202.3,11.7c-0.9-1.1-11-13.1-14.2-11.5c-2.9,1.4-5.7,19.8-6.5,25.2C185.8,18.3,193.4,13.2,202.3,11.7z"/>
		<path class="st7" d="M254,11.7c0.9-1.1,11-13.1,14.2-11.5c2.9,1.4,5.7,19.8,6.5,25.2C270.4,18.3,262.9,13.2,254,11.7z"/>
		<path class="st8" d="M278.4,38.6c0,15.1-13.4,27.4-29.8,27.4h-41c-15.8,0-28.8-11.4-29.8-25.7c0,0.1-7,85.6,50.2,85.6
			C285.2,125.9,278.4,38.6,278.4,38.6z"/>
		<path class="st9" d="M180.7,53.4l-38,63.7c0,0,26.4-5.3,36.2-21.6C188.6,79.2,180.7,53.4,180.7,53.4z"/>
		<path class="st9" d="M278.7,46.1v74.2c0,0-20-18.1-20-37.1S278.7,46.1,278.7,46.1z"/>
		<polygon class="st10" points="228.1,55.3 234.8,42.9 228.1,42.9 227.9,42.9 221.3,42.9 227.9,55.3 227.9,55.7 228,55.5 
			228.1,55.7 		"/>
	</g>
	<g>
		<path class="st7" d="M228.1,84.1L228.1,84.1L228.1,84.1c0,0-2.4,3.5-8.8,2.7c0,0,2.3,3.5,8.8,3.5v0v0c6.5,0,8.8-3.5,8.8-3.5
			C230.5,87.7,228.1,84.1,228.1,84.1z"/>
		<path class="st7" d="M218.1,94.1L218.1,94.1L218.1,94.1c0,0-2.4,3.5-8.8,2.7c0,0,2.3,3.5,8.8,3.5v0v0c6.5,0,8.8-3.5,8.8-3.5
			C220.5,97.7,218.1,94.1,218.1,94.1z"/>
		<path class="st7" d="M238.1,94.1L238.1,94.1L238.1,94.1c0,0-2.4,3.5-8.8,2.7c0,0,2.3,3.5,8.8,3.5v0v0c6.5,0,8.8-3.5,8.8-3.5
			C240.5,97.7,238.1,94.1,238.1,94.1z"/>
		<path class="st7" d="M228.1,104.1L228.1,104.1L228.1,104.1c0,0-2.4,3.5-8.8,2.7c0,0,2.3,3.5,8.8,3.5v0v0c6.5,0,8.8-3.5,8.8-3.5
			C230.5,107.7,228.1,104.1,228.1,104.1z"/>
		<path class="st7" d="M248.1,104.1L248.1,104.1L248.1,104.1c0,0-2.4,3.5-8.8,2.7c0,0,2.3,3.5,8.8,3.5v0v0c6.5,0,8.8-3.5,8.8-3.5
			C250.5,107.7,248.1,104.1,248.1,104.1z"/>
		<path class="st7" d="M208.1,104.1L208.1,104.1L208.1,104.1c0,0-2.4,3.5-8.8,2.7c0,0,2.3,3.5,8.8,3.5v0v0c6.5,0,8.8-3.5,8.8-3.5
			C210.5,107.7,208.1,104.1,208.1,104.1z"/>
	</g>
</g>
</svg>
