<svg width="17" height="17" viewBox="0 0 17 17" fill="none" xmlns="http://www.w3.org/2000/svg">
<path d="M4.83579 4.3741C4.70828 4.57592 4.53816 4.74738 4.33736 4.87648C4.13656 5.00557 3.90995 5.08917 3.67342 5.1214C3.40425 5.15965 3.13721 5.20073 2.87017 5.24535C2.12429 5.36931 1.59375 6.02594 1.59375 6.78173V12.7501C1.59375 13.1728 1.76166 13.5782 2.06055 13.8771C2.35943 14.176 2.76481 14.3439 3.1875 14.3439H13.8125C14.2352 14.3439 14.6406 14.176 14.9395 13.8771C15.2383 13.5782 15.4062 13.1728 15.4062 12.7501V6.78173C15.4062 6.02594 14.875 5.36931 14.1298 5.24535C13.8626 5.20083 13.5948 5.1595 13.3266 5.1214C13.0902 5.08907 12.8637 5.00543 12.663 4.87634C12.4624 4.74725 12.2923 4.57583 12.1649 4.3741L11.5827 3.44194C11.4519 3.22951 11.2719 3.05171 11.0578 2.9236C10.8438 2.7955 10.602 2.72085 10.353 2.70598C9.11856 2.63967 7.88144 2.63967 6.647 2.70598C6.39799 2.72085 6.15623 2.7955 5.94218 2.9236C5.72813 3.05171 5.5481 3.22951 5.41733 3.44194L4.83579 4.3741Z" stroke="white" stroke-width="1.5" stroke-linecap="round" stroke-linejoin="round"/>
<path d="M11.6875 9.03125C11.6875 9.87663 11.3517 10.6874 10.7539 11.2852C10.1561 11.8829 9.34538 12.2187 8.5 12.2187C7.65462 12.2187 6.84387 11.8829 6.2461 11.2852C5.64833 10.6874 5.3125 9.87663 5.3125 9.03125C5.3125 8.18587 5.64833 7.37512 6.2461 6.77735C6.84387 6.17958 7.65462 5.84375 8.5 5.84375C9.34538 5.84375 10.1561 6.17958 10.7539 6.77735C11.3517 7.37512 11.6875 8.18587 11.6875 9.03125ZM13.2812 7.4375H13.2869V7.44317H13.2812V7.4375Z" stroke="white" stroke-width="1.5" stroke-linecap="round" stroke-linejoin="round"/>
</svg>
