<svg width="26" height="36" viewBox="0 0 26 36" fill="none" xmlns="http://www.w3.org/2000/svg">
<g clip-path="url(#clip0_83_268)">
<path d="M24.3543 26.9252C24.214 26.4053 23.8872 25.9978 23.5702 25.5879C23.3647 25.3213 23.1426 24.9742 22.9572 24.626C22.6407 24.0311 22.4209 23.4271 22.2675 22.7536C22.2755 22.7518 22.2841 22.7506 22.2921 22.7481C22.6933 22.6315 22.9034 22.1962 22.8118 21.7814C22.4627 20.1986 22.5697 18.565 23.0785 17.0348C23.363 16.1805 22.1376 15.6763 21.7187 16.429C21.6826 16.4937 21.6488 16.5596 21.6139 16.6255C21.5063 16.605 21.3924 16.6044 21.2785 16.6243C17.1904 17.3522 13.0467 17.721 8.90074 17.7392C7.708 17.7446 6.51526 17.7192 5.32367 17.6666C5.32253 17.6666 5.32195 17.6666 5.32081 17.6666C5.31566 17.6412 5.31051 17.6158 5.30593 17.5904C5.22351 17.1745 4.7605 16.9339 4.39077 17.0415C3.9827 17.16 3.78868 17.5916 3.87109 18.0082C4.16184 19.4761 4.44743 20.9525 4.49093 22.4561C4.51153 23.1635 4.48578 23.8769 4.35815 24.5728C4.2929 24.9283 4.20591 25.2795 4.09602 25.6229C3.96438 26.0353 3.79955 26.421 3.76521 26.8611C3.70684 27.6199 4.13036 28.4131 4.42854 29.0794C4.71986 29.7293 5.08844 30.3683 5.58981 30.8635C5.8754 31.1452 6.19018 31.3713 6.52328 31.5364C6.55762 31.6108 6.60512 31.6773 6.6675 31.728C7.31424 32.2589 8.20536 32.4088 8.90933 31.8828C8.91219 31.881 8.91448 31.8786 8.91734 31.8762C9.60242 31.6349 10.236 31.1863 10.7705 30.6646C11.5386 29.9149 12.4023 28.9983 12.57 27.8926C12.6266 27.8593 12.6798 27.8194 12.7285 27.771C12.8235 27.6767 12.8521 27.6677 13.0141 27.6187C13.1251 27.5848 13.0158 27.6005 13.1326 27.6018C13.1869 27.6024 13.2407 27.6018 13.2945 27.603C13.31 27.603 13.3523 27.6084 13.3655 27.609C13.7238 27.6713 13.9659 27.8285 14.2595 28.0987C14.9428 28.7299 15.5009 29.4959 16.1928 30.1211C17.6231 31.4124 19.6028 32.3804 21.4978 31.6827C22.3957 31.3526 23.1106 30.7045 23.6308 29.8702C24.1351 29.0612 24.6187 27.9016 24.3548 26.924L24.3543 26.9252Z" fill="#A07A5D"/>
<path d="M25.2032 23.7693C25.1987 23.739 25.1929 23.7088 25.1878 23.6786C25.233 23.5788 25.2588 23.4609 25.2559 23.3237C25.2153 21.2832 25.0756 19.247 24.8404 17.221C24.9342 16.4314 25.0281 15.6418 25.122 14.8522C25.1723 14.4302 24.7442 14.0663 24.3779 14.0663C23.9344 14.0663 23.6843 14.429 23.6339 14.8522C23.575 15.3456 23.5166 15.8389 23.4576 16.3329C23.148 17.0578 22.9666 17.8159 22.8945 18.5874C22.6478 19.6678 22.4898 20.7711 22.5883 21.8745C22.6621 22.7034 22.8784 23.4603 23.18 24.2251C23.4468 24.901 23.7753 25.635 23.8291 26.3496C23.9046 27.3611 25.2376 27.3599 25.3171 26.3496C25.3852 25.4857 25.3395 24.6254 25.2032 23.7705V23.7693Z" fill="#664D39"/>
<path d="M3.83888 25.9445C4.49133 24.3152 4.5085 22.5975 4.28701 20.8672C4.23722 20.4761 4.17827 20.0867 4.11245 19.6986C3.9831 18.2349 3.62311 16.7996 3.03418 15.432C2.95749 15.2536 2.79838 15.137 2.62038 15.0838C2.61867 15.0481 2.61695 15.0124 2.6158 14.9761C2.59921 14.5517 2.28557 14.1902 1.87177 14.1902C1.48144 14.1902 1.11115 14.5499 1.12774 14.9761C1.16208 15.8534 1.20901 16.73 1.26739 17.6061C1.15407 17.701 1.06994 17.8292 1.04762 17.9876C0.735696 20.1895 0.995535 22.4367 1.8237 24.4639C1.99654 25.3466 2.18312 26.2263 2.37085 27.1041C2.45956 27.5183 2.9117 27.7619 3.286 27.6531C3.70381 27.5316 3.87551 27.1059 3.80568 26.6863C3.77535 26.505 3.74673 26.323 3.71754 26.141C3.76676 26.0878 3.80854 26.0231 3.84002 25.9457L3.83888 25.9445Z" fill="#664D39"/>
<path d="M24.5337 10.9708C24.5103 10.8705 24.4736 10.7858 24.4279 10.7139C24.3798 9.94667 24.259 9.18429 24.0679 8.44247C24.0146 8.23449 23.879 8.06763 23.7084 7.96847C23.6798 7.8264 23.6529 7.68492 23.6237 7.54285C23.3656 6.2835 22.9575 5.05982 22.0796 4.12815C21.244 3.24183 20.1525 2.57679 19.0737 2.08043C17.9891 1.58104 16.8634 1.23582 15.6906 1.06714C14.3211 0.870048 12.9549 0.908136 11.5956 1.17778C11.381 1.22071 11.2173 1.38878 11.128 1.59555C11.0027 1.61671 10.8785 1.64331 10.756 1.67596C10.6164 1.60522 10.4464 1.58406 10.2524 1.6421C10.1808 1.66326 10.1104 1.68684 10.04 1.71163C8.9566 2.07922 7.92926 2.62032 7.0101 3.33071C6.946 3.38028 6.88819 3.43711 6.83897 3.49939C6.48642 3.68257 6.14531 3.88874 5.8248 4.12876C4.2011 5.34337 3.17777 7.18735 2.56938 9.15709C2.19622 10.365 1.97988 11.6184 1.78643 12.8698C1.7664 12.998 1.76869 13.1274 1.7933 13.2483C1.74465 13.4732 1.78987 13.7217 1.98389 13.9375C2.75424 14.7942 3.36607 15.8124 3.75182 16.9181C3.83423 17.1545 4.00879 17.4284 4.27149 17.4671C9.1449 18.1878 14.0349 17.5777 18.8442 16.6467C20.2018 16.3837 21.5553 16.0965 22.9083 15.8075C23.2059 15.744 23.408 15.4466 23.4452 15.1376C24.4736 14.0687 24.8817 12.4466 24.5337 10.9702V10.9708ZM13.4065 13.6171C13.391 13.5984 13.3739 13.5808 13.3561 13.5639C13.0316 13.2616 12.6842 12.9369 12.4266 12.5851C12.2979 12.4091 12.1754 12.2048 12.0958 11.9986C12.0827 11.9654 12.0529 11.8608 12.0375 11.8003C12.0249 11.7495 12.014 11.6988 12.0048 11.6474C12.0031 11.6359 12.0014 11.6292 11.9997 11.6238C11.9997 11.6123 11.9997 11.599 11.9997 11.5815C11.9997 11.4884 11.9968 11.3971 12.0031 11.304C12.0031 11.2967 12.0037 11.2907 12.0043 11.2858C12.0111 11.2447 12.0197 11.2036 12.0294 11.1631C12.0397 11.1202 12.0764 11.0053 12.0861 10.9714C12.101 10.9533 12.1931 10.7919 12.1748 10.8046C12.2063 10.7689 12.2572 10.7163 12.2784 10.6933C12.3024 10.6818 12.398 10.619 12.3757 10.6256C12.5566 10.5464 12.7386 10.5537 12.9555 10.5688C13.4288 10.602 13.9324 10.7085 14.4235 10.7852C14.6141 10.8149 14.8058 10.8427 14.9918 10.8971C15.0245 10.9068 15.1927 10.9763 15.1464 10.9491C15.171 10.9624 15.1956 10.9769 15.2202 10.9926C15.2202 10.9926 15.2202 10.9932 15.2202 10.9938C15.2128 10.9914 15.2139 10.9974 15.2185 11.0047C15.2185 11.0071 15.2185 11.0083 15.2173 11.0107C15.2202 10.9968 15.1721 11.1788 15.1555 11.226C15.1092 11.3584 14.9861 11.5821 14.8825 11.7417C14.6627 12.0803 14.344 12.4116 14.0606 12.7393C13.8243 13.0125 13.5988 13.3057 13.4059 13.6165L13.4065 13.6171ZM10.5196 11.2066C10.0509 11.5754 9.55697 11.9043 9.03615 12.1855C8.81294 12.3058 8.58859 12.42 8.35107 12.5047C8.14503 12.5778 8.01111 12.5428 7.83426 12.4261C7.46739 12.183 7.11941 11.7798 6.86759 11.4303C6.56368 11.0089 6.34448 10.5718 6.26607 10.0615C6.2117 9.70968 6.28725 9.2514 6.43949 8.92674C6.65125 8.47451 6.90193 8.16436 7.24819 7.81431C7.59617 7.46244 7.92812 7.17103 8.33161 6.90924C8.50388 6.79739 8.53422 6.8113 8.73396 6.89534C8.96747 6.99449 9.19641 7.12326 9.41618 7.25204C9.87519 7.51987 10.3399 7.86025 10.6244 8.3016C10.7732 8.53195 10.8619 8.72904 10.9243 8.98478C10.9827 9.22359 10.9878 9.45031 10.9323 9.68912C10.9077 9.79432 10.9042 9.90133 10.9186 10.0041C10.7045 10.3451 10.5683 10.7544 10.5236 11.2042C10.5219 11.2054 10.5208 11.206 10.5191 11.2072L10.5196 11.2066ZM19.5951 11.1081C18.7646 11.7411 17.6532 11.6752 16.7764 11.1782C16.7477 11.1619 16.7186 11.1486 16.6894 11.1365C16.742 10.6335 16.6058 10.1462 16.1359 9.76167C16.0569 9.69698 15.9751 9.64196 15.8904 9.5936C15.9287 9.49928 15.9516 9.3965 15.9556 9.28889C15.9751 8.74053 15.9917 8.19217 16.1394 7.66195C16.1995 7.4449 16.2807 7.25325 16.3998 7.06462C16.4793 6.93826 16.631 6.77502 16.7357 6.69945C16.7804 6.66741 16.8273 6.63899 16.8742 6.61118C16.8794 6.60816 16.9315 6.58216 16.9435 6.57491C16.9841 6.5604 17.0259 6.54831 17.0665 6.535C17.0757 6.53198 17.1312 6.5217 17.1427 6.51808C17.3607 6.50236 17.5725 6.57853 17.7751 6.6662C18.1849 6.84455 18.5861 7.06704 18.9632 7.31129C19.6735 7.77198 20.2075 8.32155 20.4032 9.12383C20.4084 9.145 20.4124 9.16192 20.4152 9.17523C20.4215 9.22964 20.4244 9.28647 20.4261 9.34149C20.429 9.44185 20.4278 9.54402 20.4181 9.64438C20.4158 9.65526 20.4067 9.71935 20.4049 9.72782C20.3923 9.78344 20.382 9.83906 20.3677 9.89468C20.3431 9.99383 20.2905 10.1583 20.2699 10.2066C20.2218 10.3215 20.0661 10.5978 19.9883 10.7012C19.9728 10.7224 19.8778 10.8324 19.8303 10.8832C19.792 10.9243 19.7525 10.9648 19.7118 11.0035C19.7136 11.0017 19.5762 11.119 19.5951 11.1063V11.1081Z" fill="#CCB3A6"/>
<path d="M14.3581 10.4703C13.8012 10.2828 13.1796 10.2877 12.6302 10.5035C12.2536 10.651 11.9972 11.0355 12.1105 11.4702C12.114 11.4829 12.1185 11.495 12.1225 11.5077C12.1563 11.6335 12.2175 11.7532 12.3045 11.8566C12.5907 12.1982 12.8769 12.5391 13.1625 12.8807C13.4578 13.2332 14.1383 13.1703 14.3312 12.7217C14.4886 12.356 14.6454 11.9902 14.8028 11.625C15.0054 11.154 14.8508 10.6365 14.3581 10.4703Z" fill="#F59A1E"/>
<path d="M20.3036 8.73016C20.1382 8.23984 19.852 7.88012 19.4955 7.61833C19.1624 7.25074 18.7022 7.01012 18.2198 6.97989C18.1396 6.90371 18.036 6.84325 17.9061 6.80879C16.9223 6.5464 16.0832 7.41035 15.959 8.40066C15.8486 9.28336 16.2527 10.1564 16.9068 10.6957C17.6091 11.2749 18.5151 11.4508 19.3404 11.0614C20.1828 10.6636 20.6178 9.66001 20.3048 8.73016H20.3036Z" fill="#EDD255"/>
<path d="M10.6091 9.53855C10.5702 8.88802 10.3338 8.23567 9.86854 7.80158C9.82562 7.50291 9.61786 7.24596 9.33112 7.15286C8.16814 6.77499 6.85293 7.60872 6.5702 8.84932C6.27716 10.1359 7.0189 11.686 8.25972 12.0597C9.67051 12.4841 10.6881 10.8632 10.6097 9.53915L10.6091 9.53855Z" fill="#EDD255"/>
<path d="M25.1448 12.0615C24.9599 9.79551 24.6434 7.45456 23.5233 5.46729C22.5653 3.7672 21.0686 2.4347 19.3791 1.60218C15.4844 -0.316163 10.7815 0.433522 7.11288 2.58947C5.35239 3.62391 3.81339 5.0852 2.88335 6.99387C2.38428 8.01803 2.04146 9.11777 1.75071 10.2248C1.46283 11.3191 1.22188 12.4273 1.03301 13.5451C0.281537 18.0003 0.325034 22.7131 1.81882 26.999C2.00254 27.5262 2.208 28.0449 2.43121 28.5552C2.52107 28.7601 2.81696 28.7789 2.95375 28.6265C3.13117 28.4294 3.30802 28.2317 3.48545 28.0346C4.22375 29.9088 5.19157 31.8332 7.15466 32.4632C7.39676 32.5412 7.64401 32.589 7.89125 32.6077C7.90442 33.1554 7.91758 33.7038 7.93074 34.2516C7.72757 34.4438 7.52439 34.6355 7.32121 34.8277C7.00128 35.13 7.47345 35.6252 7.79167 35.3247C7.93704 35.1869 8.08298 35.0496 8.22836 34.9118C8.27929 34.9831 8.33023 35.0545 8.38117 35.1252C8.49048 35.2775 8.66676 35.3531 8.83617 35.2509C8.97811 35.1657 9.06339 34.9214 8.95522 34.7703C8.8356 34.6028 8.71541 34.436 8.59579 34.2685C8.58206 33.708 8.56889 33.147 8.55516 32.5865C9.03134 32.5194 9.49149 32.3387 9.90071 32.0412C10.6493 31.4971 11.177 30.702 11.699 29.9318C11.9628 29.5425 12.2261 29.1525 12.5266 28.794C12.8522 28.4058 13.2397 27.9965 13.772 28.1507C14.2882 28.3 14.627 28.7777 14.912 29.2238C15.1994 29.6736 15.4809 30.1204 15.8438 30.508C16.7979 31.5267 18.1217 32.1796 19.477 32.2776C19.5399 32.9058 19.6029 33.5333 19.6658 34.1615C19.6687 34.1887 19.6738 34.2147 19.6807 34.2389C19.6555 34.2751 19.6309 34.312 19.6063 34.3483C19.4592 34.5629 19.3127 34.7776 19.1656 34.9922C18.9144 35.3592 19.4913 35.7104 19.7397 35.3471C19.8181 35.2328 19.8965 35.1179 19.9749 35.0037C20.0098 34.9529 20.0962 34.8574 20.1597 34.7691C20.1832 34.7939 20.2061 34.8168 20.2176 34.832L20.5077 35.1983C20.7824 35.5454 21.2506 35.0466 20.9782 34.7014C20.8076 34.4861 20.5913 34.0919 20.3114 33.9668C20.2548 33.4045 20.1987 32.8423 20.142 32.28C20.4699 32.2589 20.7968 32.2038 21.1178 32.1107C22.9687 31.5751 24.4402 29.8284 24.7006 27.8279C24.8557 27.8841 25.0257 27.8992 25.2111 27.8545C25.3571 27.8194 25.4498 27.6658 25.4555 27.5159C25.649 22.3672 25.5637 17.1962 25.1442 12.0615H25.1448ZM2.83585 8.89589C3.17467 7.87777 3.61766 6.8923 4.23692 6.02895C4.80467 5.23815 5.50921 4.54953 6.27385 3.97578C7.91815 2.74183 9.85664 1.92503 11.826 1.49638C13.8755 1.0502 16.0395 1.0768 18.0341 1.78477C19.7316 2.38693 21.2998 3.48063 22.4061 4.97879C23.6607 6.67828 24.1426 8.82334 24.3727 10.9249C24.4494 11.625 24.5123 12.3269 24.565 13.0306C24.5369 13.0554 24.5112 13.0845 24.4906 13.1183C24.387 13.2846 24.2834 13.4514 24.1798 13.6177C24.1151 13.6407 24.055 13.6854 24.0081 13.7598C23.6006 14.4103 23.2612 15.1013 22.9871 15.819C22.9584 15.8111 22.9281 15.8063 22.8943 15.8063C22.8085 15.8063 22.7398 15.8353 22.6883 15.8807C22.6643 15.8807 22.6391 15.8819 22.6133 15.8873C17.8326 16.8425 12.9655 17.2948 8.10015 17.2379C6.7506 17.2222 5.40218 17.166 4.05549 17.0729C3.91355 16.6449 3.74815 16.2265 3.5547 15.8244C3.1203 14.92 2.52107 14.1262 1.7427 13.5282C1.73011 13.5185 1.71809 13.5107 1.7055 13.5034C1.97049 11.9388 2.34021 10.385 2.83585 8.8965V8.89589ZM3.37957 27.051C3.28971 27.0999 3.22561 27.187 3.22675 27.3013C3.09054 27.453 2.95432 27.6048 2.81868 27.7565C1.22989 23.86 0.946014 19.5063 1.4428 15.3269C1.48458 14.9774 1.53151 14.6274 1.58302 14.2779C2.74828 15.2724 3.35667 16.8262 3.70522 18.3286C4.1442 20.2216 4.23864 22.2028 4.0057 24.1357C3.88665 25.1254 3.67145 26.1018 3.37957 27.0504V27.051ZM21.218 31.3429C20.7847 31.5019 20.336 31.5799 19.8867 31.5866C19.7952 31.5473 19.6904 31.5454 19.6052 31.5811C18.3809 31.5176 17.1785 30.9342 16.3148 30.011C15.636 29.2861 15.2812 28.222 14.4244 27.6894C14.0129 27.4337 13.5047 27.3218 13.0457 27.4984C12.5901 27.6737 12.2461 28.0564 11.9405 28.4397C10.9486 29.6821 10.085 31.806 8.32165 31.9161C7.2491 31.9832 6.24466 31.3568 5.55671 30.5279C4.81669 29.6368 4.37542 28.5159 3.9622 27.424C4.57574 25.5026 4.85675 23.4603 4.78121 21.4338C4.73599 20.2222 4.58432 18.9761 4.26897 17.7887C9.07255 18.1061 13.9019 17.9326 18.6734 17.2633C20.0293 17.0729 21.3794 16.845 22.7232 16.5777C21.8212 19.4834 21.9592 22.7427 23.133 25.5516C23.3562 26.0854 23.6161 26.6084 23.9211 27.0951C23.9692 27.1719 24.0207 27.2468 24.0756 27.3188C24.0258 29.1078 22.8096 30.7577 21.2186 31.3429H21.218ZM24.8477 25.6949C24.8363 26.1719 24.8214 26.6489 24.8042 27.1259C24.5558 26.9627 24.3504 26.5014 24.2462 26.3128C24.0276 25.9174 23.8313 25.5069 23.6618 25.0855C23.3173 24.2288 23.0792 23.3225 22.9373 22.4041C22.658 20.597 22.7873 18.7131 23.3007 16.9653C23.5857 15.9937 23.9961 15.0729 24.518 14.2193C24.5633 14.2011 24.6045 14.1733 24.6405 14.1364C24.7235 15.4883 24.7756 16.8426 24.8185 18.1926C24.8986 20.6919 24.9084 23.1943 24.8477 25.6943V25.6949Z" fill="#080909"/>
<path d="M11.1652 9.39895C11.0095 8.08821 10.2695 6.50662 8.88616 6.51992C8.82206 6.48183 8.74308 6.46551 8.65322 6.48486C7.5429 6.72246 6.57967 7.55376 6.17503 8.67648C5.78584 9.75626 6.06342 11.0483 6.81432 11.8784C7.56865 12.7127 8.75338 12.9055 9.74065 12.4485C10.8836 11.9195 11.3134 10.6462 11.1652 9.39956V9.39895ZM9.55751 11.7659C8.85983 12.1426 7.96528 12.0531 7.38436 11.4854C6.7857 10.8995 6.52415 9.95638 6.73706 9.12266C6.97801 8.17769 7.73406 7.48544 8.60515 7.22124C8.64922 7.23273 8.69786 7.23575 8.75052 7.22668C9.82478 7.03987 10.3416 8.44008 10.4864 9.31431C10.6438 10.2659 10.4252 11.298 9.55808 11.7665L9.55751 11.7659Z" fill="#080909"/>
<path d="M15.1697 10.4998C15.0221 10.3566 14.7977 10.3318 14.6094 10.2931C14.3565 10.2411 14.1018 10.1994 13.8459 10.1661C13.0836 10.0657 11.9904 9.89888 11.5143 10.7145C11.4341 10.8517 11.4553 10.9841 11.5257 11.0814C11.4839 11.1709 11.4822 11.2798 11.5486 11.3922C11.8187 11.8481 12.1049 12.2936 12.4094 12.7247C12.5593 12.9369 12.7133 13.1473 12.8713 13.3535C13.004 13.527 13.1466 13.6999 13.3589 13.7622C13.7824 13.8861 14.1121 13.5385 14.3244 13.2005C14.59 12.7785 14.8063 12.316 14.9952 11.8511C15.14 11.495 15.5154 10.8354 15.1697 10.4998ZM14.1939 12.0161C14.1001 12.215 13.9993 12.4109 13.8917 12.6026C13.819 12.7326 13.7195 12.9919 13.5798 13.0548C13.5077 13.0869 13.5146 13.0699 13.4499 12.9956C13.3904 12.9272 13.3371 12.8505 13.2822 12.7785C13.1408 12.5917 13.004 12.4013 12.8707 12.2084C12.608 11.8281 12.3596 11.4375 12.1232 11.0385C12.1215 11.0355 12.1192 11.0325 12.1169 11.0295C12.339 10.7266 12.8478 10.7846 13.1649 10.8039C13.4276 10.8197 13.6903 10.8451 13.9507 10.885C14.0955 10.9073 14.2403 10.9333 14.3839 10.9617C14.4309 10.9714 14.5333 10.9781 14.6174 10.9962C14.5774 11.1383 14.4995 11.2888 14.4555 11.4049C14.3765 11.6129 14.2878 11.8166 14.1934 12.0167L14.1939 12.0161Z" fill="#080909"/>
<path d="M20.6113 7.7515C20.2273 7.18259 19.6704 6.77207 19.0769 6.47885C18.4799 6.18381 17.7874 5.94923 17.1355 6.12819C17.123 6.13061 17.1104 6.13363 17.0972 6.13726C15.9726 6.46313 15.351 7.72792 15.4214 8.90263C15.4947 10.1257 16.2015 11.2466 17.2849 11.7121C18.354 12.171 19.6836 11.9358 20.4339 10.9709C21.143 10.0592 21.2746 8.73274 20.6113 7.7509V7.7515ZM20.1283 10.2079C19.6847 11.0362 18.7695 11.3875 17.9048 11.1837C17.0159 10.9739 16.3595 10.24 16.1471 9.31254C15.9428 8.42138 16.2353 7.28113 17.0697 6.89239C17.0726 6.89118 17.076 6.89057 17.0789 6.88936C17.5837 6.66506 18.1108 6.80109 18.5979 7.01814C19.0277 7.20979 19.4489 7.46432 19.7854 7.80894C20.4173 8.45524 20.565 9.39295 20.1283 10.2079Z" fill="#080909"/>
<path d="M18.0063 8.2436C17.9261 8.23816 17.846 8.24723 17.7699 8.2696C17.7012 8.26295 17.6291 8.27686 17.5621 8.31011C17.0791 8.5465 16.936 9.30102 17.3177 9.70247C17.6938 10.0985 18.3994 10.035 18.6444 9.51142C18.8916 8.9818 18.5906 8.28411 18.0068 8.2436H18.0063Z" fill="#080909"/>
<path d="M9.00882 8.82399C8.7198 8.63475 8.33691 8.65773 8.10168 8.93342C8.09996 8.93523 8.09882 8.93765 8.0971 8.93946C7.70219 9.21515 7.57685 9.8675 7.96947 10.2587C8.46797 10.7556 9.25893 10.4431 9.3797 9.74961C9.44151 9.39532 9.30472 9.01806 9.00882 8.82399Z" fill="#080909"/>
<path d="M21.2473 20.8099C21.1964 20.6067 21.0155 20.539 20.8381 20.5644C20.1107 20.6696 19.3237 20.036 19.227 19.267H19.2259C19.223 19.2361 19.2196 19.2047 19.215 19.1739C19.16 18.7863 18.5122 18.874 18.562 19.267C18.566 19.2984 18.5711 19.3292 18.5757 19.3601C18.5751 19.3601 18.5745 19.3601 18.5734 19.3601C18.6564 19.9477 18.2266 20.5783 17.6737 20.6793C17.1323 20.7778 16.5731 20.38 16.418 19.8353C16.3064 19.4423 15.7953 19.5408 15.765 19.9284C15.7295 20.3812 15.3729 20.796 14.9425 20.857C14.495 20.9205 14.0903 20.6104 13.9152 20.195C13.7927 19.9048 13.3818 20.0124 13.3074 20.279C13.182 20.7289 12.7597 21.0717 12.307 21.0336C11.8737 20.9973 11.4834 20.5928 11.4359 20.1364C11.4175 19.9604 11.3231 19.8165 11.1474 19.7911C10.9986 19.77 10.8092 19.8703 10.7828 20.0426C10.709 20.5209 10.2798 20.8413 9.82418 20.799C9.31251 20.7512 8.93363 20.3081 8.72816 19.8456C8.60282 19.5632 8.19132 19.6557 8.12035 19.9296C8.02935 20.2815 7.71456 20.5705 7.35514 20.5445C6.98828 20.5179 6.72443 20.2065 6.65919 19.8413C6.60539 19.5408 6.18358 19.5046 6.05137 19.7573C5.86078 20.1219 5.58721 20.3715 5.22607 20.536C4.83402 20.7143 5.17227 21.3195 5.56203 21.1424C5.83045 21.0203 6.06854 20.8425 6.26828 20.6237C6.52068 20.9858 6.92189 21.2319 7.35571 21.2464C7.78668 21.2603 8.18731 21.0469 8.45917 20.7119C8.8123 21.1708 9.32224 21.4979 9.89343 21.5039C10.3273 21.5088 10.7645 21.3087 11.0627 20.9773C11.3248 21.386 11.7392 21.675 12.2354 21.7282C12.7974 21.7887 13.3331 21.5015 13.6668 21.0444C14.0405 21.4374 14.5923 21.6381 15.1194 21.5336C15.5715 21.4441 15.9413 21.146 16.1719 20.7518C16.5868 21.2319 17.2227 21.4882 17.8506 21.3558C18.3771 21.2446 18.7852 20.8715 19.0175 20.3957C19.4806 21.007 20.2274 21.3546 21.0144 21.2403C21.1935 21.2143 21.288 20.9743 21.2468 20.8081L21.2473 20.8099Z" fill="#080909"/>
<path d="M20.6087 23.4223C20.5675 23.2572 20.3649 23.1031 20.1995 23.1768C19.7966 23.3564 19.2866 23.1774 19.1441 22.7137C19.0337 22.354 18.4676 22.3939 18.4911 22.8068C18.4997 22.9634 18.5088 23.1206 18.5174 23.2772C18.1277 23.5027 17.5427 23.2578 17.4203 22.805C17.3476 22.536 16.9372 22.4356 16.8124 22.721C16.5154 23.4005 15.4532 23.6393 14.9907 22.9979C14.8516 22.805 14.542 22.7379 14.4167 22.9979C14.0132 23.8346 12.9469 23.8026 12.5692 22.961C12.4679 22.7343 12.0941 22.7276 11.9951 22.961C11.6077 23.8697 10.459 23.909 10.0389 23.0057C9.91298 22.7349 9.49461 22.805 9.43108 23.0898C9.34809 23.4634 9.02186 23.7766 8.64126 23.7403C8.27726 23.7058 7.98594 23.354 7.96992 22.9761C7.95561 22.6515 7.50519 22.4677 7.35008 22.799C7.17209 23.178 6.90653 23.438 6.53966 23.6061C6.14819 23.785 6.48644 24.3908 6.87562 24.2125C7.1223 24.0994 7.34436 23.9368 7.53094 23.7367C7.75472 24.1145 8.12731 24.3872 8.57144 24.4356C9.0522 24.4888 9.51693 24.2451 9.8071 23.8546C10.1305 24.1895 10.5746 24.3963 11.0319 24.3866C11.5132 24.3769 11.9739 24.1405 12.291 23.7663C12.5984 24.1091 13.031 24.3249 13.4832 24.3304C13.9754 24.3364 14.4476 24.0928 14.7658 23.7052C15.4497 24.2191 16.4788 24.1708 17.0757 23.5468C17.3201 23.8304 17.6692 24.0087 18.0435 24.0499C18.3182 24.0801 18.5993 24.0287 18.8436 23.8902C18.9261 23.8437 19.0216 23.7802 19.0915 23.701C19.4646 23.9616 19.9437 24.0474 20.3781 23.854C20.5446 23.7796 20.6602 23.6224 20.6104 23.4217L20.6087 23.4223Z" fill="#080909"/>
<path d="M10.6866 26.3636C10.3358 26.6127 9.75832 26.4936 9.59578 26.0462C9.50878 25.808 9.22949 25.6882 9.04005 25.8914C8.90669 26.0341 8.80425 26.1991 8.70924 26.372C8.63369 26.5087 8.56329 26.687 8.43566 26.7801C8.05907 27.0564 7.69163 26.4712 7.52737 26.1931C7.38601 25.9543 7.09927 25.9809 6.95333 26.1931C6.72783 26.5202 6.49775 26.8442 6.26195 27.1634C6.00154 27.5159 6.46913 28.0165 6.73241 27.6604C6.90296 27.4295 7.07065 27.1967 7.23663 26.9627C7.53539 27.3345 7.92343 27.6163 8.42021 27.5292C8.88208 27.4482 9.05035 27.083 9.26154 26.7336C9.71025 27.2178 10.452 27.3756 11.0232 26.9706C11.3769 26.7197 11.0443 26.1109 10.6872 26.3642L10.6866 26.3636Z" fill="#080909"/>
<path d="M22.0663 25.8395C21.6668 26.0547 21.209 25.7095 20.936 25.4193C20.7442 25.2161 20.3453 25.3558 20.3682 25.6678C20.3911 25.9797 20.2143 26.3177 19.8949 26.36C19.5979 26.3993 19.3437 26.1496 19.2802 25.8618C19.1989 25.4948 18.7485 25.5638 18.6386 25.8618C18.4687 26.3255 18.1871 26.7191 17.8322 27.0426C17.5077 27.3382 17.9799 27.8334 18.3027 27.5395C18.5757 27.2905 18.8017 27.0033 18.9849 26.6853C19.2402 26.9477 19.5973 27.0982 19.9624 27.0547C20.3882 27.0039 20.7465 26.6992 20.9217 26.302C21.3687 26.5964 21.8986 26.7173 22.4023 26.4459C22.7835 26.2403 22.4475 25.6339 22.0663 25.8395Z" fill="#080909"/>
</g>
<defs>
<clipPath id="clip0_83_268">
<rect width="25" height="35" fill="white" transform="translate(0.554199 0.5)"/>
</clipPath>
</defs>
</svg>
