<svg width="34" height="18" viewBox="0 0 34 18" fill="none" xmlns="http://www.w3.org/2000/svg">
<g clip-path="url(#clip0_6_1063)">
<path d="M3.64701 0H23.4744C25.0867 0 26.4093 1.27699 26.4093 2.8338V10.3991H24.8286V2.8338C24.8286 2.11136 24.2226 1.52629 23.4744 1.52629H3.64701C2.89881 1.52629 2.29287 2.11136 2.29287 2.8338V15.1662C2.29287 15.8886 2.89881 16.4737 3.64701 16.4737H23.4744C24.2226 16.4737 24.8286 15.8886 24.8286 15.1662V14.4743H26.4093V15.1662C26.4093 16.723 25.0867 18 23.4744 18H3.64701C2.03469 18 0.712158 16.723 0.712158 15.1662V2.8338C0.712158 1.27699 2.03469 0 3.64701 0Z" fill="#505050"/>
<path d="M13.3262 12.3943C13.5054 12.3943 13.6898 12.3333 13.8373 12.2162L22.8948 4.84936C23.2268 4.57972 23.2689 4.0964 22.9897 3.77588C22.7104 3.45536 22.2098 3.40957 21.8779 3.6843L13.3315 10.634L5.1803 3.97429C4.84835 3.69956 4.34779 3.74026 4.06854 4.06587C3.78928 4.39148 3.82616 4.86972 4.16338 5.13936L12.8204 12.2112C12.9679 12.3333 13.1471 12.3943 13.3315 12.3943H13.3262Z" fill="#505050"/>
<path d="M30.2083 11.4222L28.7909 9.78397C28.4168 9.35153 28.48 8.71049 28.9279 8.34926C29.1228 8.19155 29.3652 8.11523 29.6023 8.11523C29.9027 8.11523 30.203 8.23734 30.4138 8.48154L33.4435 11.992C33.865 12.4804 33.7912 13.2029 33.2907 13.6099L29.6603 16.5352C29.4653 16.693 29.223 16.7693 28.9859 16.7693C28.6855 16.7693 28.3852 16.6421 28.1744 16.403C27.8003 15.9705 27.8635 15.3295 28.3114 14.9683L30.1872 13.4572H21.7462C21.1666 13.4572 20.6924 12.9994 20.6924 12.4397C20.6924 11.8801 21.1666 11.4222 21.7462 11.4222H30.2135H30.2083Z" fill="#313E5C"/>
</g>
<defs>
<clipPath id="clip0_6_1063">
<rect width="33" height="18" fill="white" transform="translate(0.712158)"/>
</clipPath>
</defs>
</svg>
