<svg width="34" height="18" viewBox="0 0 34 18" fill="none" xmlns="http://www.w3.org/2000/svg">
<g clip-path="url(#clip0_6_941)">
<path d="M30.7273 0H10.9051C9.29281 0 7.97028 1.27699 7.97028 2.8338V10.3991H9.55099V2.8338C9.55099 2.11136 10.1569 1.52629 10.9051 1.52629H30.7273C31.4755 1.52629 32.0814 2.11136 32.0814 2.8338V15.1662C32.0814 15.8886 31.4755 16.4737 30.7273 16.4737H10.9051C10.1569 16.4737 9.55099 15.8886 9.55099 15.1662V14.4743H7.97028V15.1662C7.97028 16.723 9.29281 18 10.9051 18H30.7273C32.3396 18 33.6621 16.723 33.6621 15.1662V2.8338C33.6621 1.27699 32.3396 0 30.7273 0Z" fill="#505050"/>
<path d="M20.6318 12.3943C20.8109 12.3943 20.9953 12.3333 21.1429 12.2162L30.2004 4.84936C30.5323 4.57972 30.5745 4.0964 30.2952 3.77588C30.0159 3.45536 29.5154 3.40957 29.1834 3.6843L20.6371 10.634L12.4858 3.97429C12.1539 3.69956 11.6533 3.74026 11.3741 4.06587C11.0948 4.39148 11.1317 4.86972 11.4689 5.13936L20.126 12.2112C20.2735 12.3333 20.4526 12.3943 20.6371 12.3943H20.6318Z" fill="#505050"/>
<path d="M4.17127 11.4222L5.58864 9.78397C5.96275 9.35153 5.89952 8.71049 5.45165 8.34926C5.2567 8.19155 5.01432 8.11523 4.77721 8.11523C4.47688 8.11523 4.17654 8.23734 3.96578 8.48154L0.936082 11.9869C0.514559 12.4753 0.588325 13.1978 1.08888 13.6048L4.71925 16.5302C4.91421 16.6879 5.15658 16.7642 5.39369 16.7642C5.69403 16.7642 5.99436 16.637 6.20512 16.3979C6.57922 15.9654 6.516 15.3244 6.06813 14.9632L4.19235 13.4521H12.6386C13.2182 13.4521 13.6924 12.9943 13.6924 12.4346C13.6924 11.875 13.2182 11.4171 12.6386 11.4171H4.17127V11.4222Z" fill="#F5CD1E"/>
</g>
<defs>
<clipPath id="clip0_6_941">
<rect width="33" height="18" fill="white" transform="translate(0.662109)"/>
</clipPath>
</defs>
</svg>
