<svg width="77" height="77" viewBox="0 0 77 77" fill="none" xmlns="http://www.w3.org/2000/svg">
<g clip-path="url(#clip0_92_5221)">
<path d="M33.5854 64.2729V72.4503" stroke="#EB7C40" stroke-width="3" stroke-linecap="round" stroke-linejoin="round"/>
<path d="M29.0222 72.4503C29.0222 70.3825 31.0657 68.7078 33.5855 68.7078C36.1052 68.7078 38.1488 70.3825 38.1488 72.4503" stroke="#EB7C40" stroke-width="3" stroke-linecap="round" stroke-linejoin="round"/>
<path d="M45.3408 58.1846V72.408" stroke="#EB7C40" stroke-width="3" stroke-linecap="round" stroke-linejoin="round"/>
<path d="M40.7773 72.408C40.7773 70.3402 42.8209 68.6655 45.3406 68.6655C47.8604 68.6655 49.9039 70.3402 49.9039 72.408" stroke="#EB7C40" stroke-width="3" stroke-linecap="round" stroke-linejoin="round"/>
<path d="M65.4321 20.5144C65.3326 13.906 59.9133 8.53406 53.3035 8.53406H31.735C24.9443 8.53406 19.3894 14.1055 19.3894 20.9165V68.3632C19.3894 68.3632 27.5484 67.8583 30.3123 67.3837C36.1837 66.374 65.4321 58.2118 65.4321 38.1115V20.7018" fill="#CFB28F"/>
<path d="M61.6886 11.8927L61.5349 11.0462C61.2546 9.49538 60.9713 7.94456 60.691 6.39374C60.5674 5.70751 60.4438 5.0243 60.3172 4.33807C60.055 3.51882 59.4492 3.6216 58.6354 3.88461C57.0259 5.43845 55.4134 6.9923 53.8039 8.54615C53.6622 8.5401 53.5205 8.53405 53.3789 8.53405H31.4456C31.304 8.53405 31.1623 8.5401 31.0206 8.54615C29.4111 6.9923 27.7986 5.43845 26.1891 3.88461C25.3723 3.6216 24.7695 3.51882 24.5073 4.33807C24.3837 5.0243 24.2601 5.70751 24.1335 6.39374C23.8532 7.94456 23.5699 9.49538 23.2896 11.0462L23.1359 11.8927C20.8331 14.0995 19.3894 17.2011 19.3894 20.6293C19.3894 27.28 24.8147 32.7214 31.4456 32.7214H53.3759C60.0068 32.7214 65.4321 27.28 65.4321 20.6293C65.4321 17.2011 63.9883 14.0995 61.6856 11.8927H61.6886Z" fill="#C6A47F"/>
<path d="M32.9829 31.3973C38.6909 31.3973 43.3181 26.7563 43.3181 21.0313C43.3181 15.3063 38.6909 10.6653 32.9829 10.6653C27.2749 10.6653 22.6477 15.3063 22.6477 21.0313C22.6477 26.7563 27.2749 31.3973 32.9829 31.3973Z" fill="#CEB18E"/>
<path d="M32.983 27.1923C36.3755 27.1923 39.1256 24.4339 39.1256 21.0313C39.1256 17.6287 36.3755 14.8704 32.983 14.8704C29.5905 14.8704 26.8403 17.6287 26.8403 21.0313C26.8403 24.4339 29.5905 27.1923 32.983 27.1923Z" fill="#FCFEFE"/>
<path d="M35.4363 20.2513C34.508 20.2513 33.7575 19.4986 33.7575 18.5675C33.7575 17.9871 34.0498 17.4762 34.4959 17.1739C34.0257 16.9895 33.5194 16.8837 32.9829 16.8837C30.7012 16.8837 28.8506 18.7398 28.8506 21.0283C28.8506 23.3167 30.7012 25.1729 32.9829 25.1729C35.2645 25.1729 37.1151 23.3167 37.1151 21.0283C37.1151 20.4932 37.0096 19.9823 36.8258 19.5107C36.5244 19.9581 36.015 20.2513 35.4363 20.2513Z" fill="#323333"/>
<path d="M51.842 31.3973C57.55 31.3973 62.1772 26.7563 62.1772 21.0313C62.1772 15.3063 57.55 10.6653 51.842 10.6653C46.1341 10.6653 41.5068 15.3063 41.5068 21.0313C41.5068 26.7563 46.1341 31.3973 51.842 31.3973Z" fill="#CEB18E"/>
<path d="M51.8419 27.1923C55.2343 27.1923 57.9845 24.4339 57.9845 21.0313C57.9845 17.6287 55.2343 14.8704 51.8419 14.8704C48.4494 14.8704 45.6992 17.6287 45.6992 21.0313C45.6992 24.4339 48.4494 27.1923 51.8419 27.1923Z" fill="#FCFEFE"/>
<path d="M54.2957 20.2513C53.3673 20.2513 52.6168 19.4986 52.6168 18.5675C52.6168 17.9871 52.9092 17.4762 53.3553 17.1739C52.8851 16.9895 52.3787 16.8837 51.8422 16.8837C49.5606 16.8837 47.71 18.7398 47.71 21.0283C47.71 23.3167 49.5606 25.1729 51.8422 25.1729C54.1239 25.1729 55.9745 23.3167 55.9745 21.0283C55.9745 20.4932 55.869 19.9823 55.6851 19.5107C55.3837 19.9581 54.8744 20.2513 54.2957 20.2513Z" fill="#323333"/>
<path d="M42.4109 23.4709H45.2502L43.8305 26.4547L42.4109 29.4384L40.9943 26.4547L39.5747 23.4709H42.4109Z" fill="#EE7634"/>
<path d="M46.682 46.1529C45.2383 46.8633 43.4208 46.1196 42.6281 44.4993L42.5829 44.4086C42.4744 44.1849 42.5648 43.9128 42.7908 43.8009C43.0169 43.6891 43.2851 43.7828 43.3967 44.0095L43.4419 44.1002C44.0146 45.2732 45.2925 45.8294 46.2871 45.3397C47.2818 44.8499 47.6254 43.4986 47.0527 42.3257L47.0075 42.235C46.899 42.0113 46.9894 41.7392 47.2155 41.6274C47.4415 41.5155 47.7098 41.6092 47.8213 41.836L47.8665 41.9266C48.6592 43.547 48.1317 45.4455 46.688 46.1529H46.682Z" fill="#BC9B79"/>
<path d="M42.474 51.9722C41.0302 52.6826 39.2128 51.9389 38.4201 50.3186L38.3749 50.2279C38.2664 50.0042 38.3568 49.7321 38.5828 49.6203C38.8089 49.5084 39.0771 49.6021 39.1887 49.8289L39.2339 49.9196C39.8065 51.0925 41.0845 51.6487 42.0791 51.159C43.0738 50.6693 43.4174 49.318 42.8447 48.145L42.7995 48.0543C42.691 47.8306 42.7814 47.5586 43.0075 47.4467C43.2335 47.3348 43.5018 47.4286 43.6133 47.6553L43.6585 47.746C44.4512 49.3663 43.9237 51.2648 42.48 51.9722H42.474Z" fill="#BC9B79"/>
<path d="M38.6041 57.3563C37.1604 58.0667 35.3429 57.323 34.5502 55.7027L34.505 55.612C34.3965 55.3883 34.4869 55.1162 34.713 55.0044C34.939 54.8925 35.2073 54.9862 35.3188 55.213L35.364 55.3036C35.9367 56.4766 37.2146 57.0328 38.2093 56.5431C39.2039 56.0534 39.5475 54.7021 38.9748 53.5291L38.9296 53.4384C38.8211 53.2147 38.9115 52.9426 39.1376 52.8308C39.3636 52.7189 39.6319 52.8127 39.7434 53.0394L39.7886 53.1301C40.5813 54.7504 40.0539 56.6489 38.6101 57.3563H38.6041Z" fill="#BC9B79"/>
<path d="M60.2508 46.4824C58.8071 47.1928 56.9896 46.4491 56.1969 44.8288L56.1517 44.7381C56.0432 44.5144 56.1336 44.2423 56.3597 44.1305C56.5857 44.0186 56.854 44.1123 56.9655 44.3391L57.0107 44.4297C57.5834 45.6027 58.8614 46.1589 59.856 45.6692C60.8506 45.1795 61.1942 43.8282 60.6216 42.6552L60.5763 42.5645C60.4678 42.3408 60.5583 42.0687 60.7843 41.9569C61.0104 41.845 61.2786 41.9388 61.3901 42.1655L61.4354 42.2562C62.2281 43.8765 61.7006 45.775 60.2569 46.4824H60.2508Z" fill="#BC9B79"/>
<path d="M53.7889 46.4068C52.3452 47.1172 50.5277 46.3735 49.735 44.7532L49.6898 44.6625C49.5813 44.4388 49.6717 44.1667 49.8978 44.0548C50.1238 43.943 50.3921 44.0367 50.5036 44.2634L50.5488 44.3541C51.1215 45.5271 52.3994 46.0833 53.3941 45.5936C54.3887 45.1038 54.7323 43.7525 54.1596 42.5796L54.1144 42.4889C54.0059 42.2652 54.0964 41.9931 54.3224 41.8813C54.5485 41.7694 54.8167 41.8631 54.9282 42.0899L54.9734 42.1806C55.7661 43.8009 55.2387 45.6994 53.7949 46.4068H53.7889Z" fill="#BC9B79"/>
<path d="M49.4696 52.0085C48.0259 52.7189 46.2084 51.9753 45.4157 50.3549L45.3705 50.2642C45.262 50.0405 45.3524 49.7684 45.5784 49.6566C45.8045 49.5447 46.0727 49.6384 46.1843 49.8652L46.2295 49.9559C46.8021 51.1288 48.0801 51.685 49.0747 51.1953C50.0694 50.7056 50.413 49.3543 49.8403 48.1813L49.7951 48.0906C49.6866 47.8669 49.777 47.5949 50.0031 47.483C50.2291 47.3712 50.4974 47.4649 50.6089 47.6916L50.6541 47.7823C51.4468 49.4026 50.9193 51.3011 49.4756 52.0085H49.4696Z" fill="#BC9B79"/>
<path d="M45.2801 57.713C43.8364 58.4234 42.0189 57.6797 41.2262 56.0594L41.181 55.9687C41.0725 55.745 41.1629 55.4729 41.389 55.3611C41.615 55.2492 41.8833 55.3429 41.9948 55.5696L42.04 55.6603C42.6127 56.8333 43.8906 57.3895 44.8853 56.8998C45.8799 56.41 46.2235 55.0587 45.6509 53.8858L45.6056 53.7951C45.4971 53.5714 45.5876 53.2993 45.8136 53.1875C46.0397 53.0756 46.3079 53.1693 46.4194 53.3961L46.4647 53.4868C47.2573 55.1071 46.7299 57.0056 45.2862 57.713H45.2801Z" fill="#BC9B79"/>
<path d="M56.5951 52.1476C55.1513 52.858 53.3339 52.1143 52.5412 50.4939L52.496 50.4033C52.3875 50.1795 52.4779 49.9075 52.7039 49.7956C52.93 49.6838 53.1982 49.7775 53.3098 50.0042L53.355 50.0949C53.9276 51.2678 55.2056 51.8241 56.2002 51.3344C57.1949 50.8446 57.5385 49.4933 56.9658 48.3204L56.9206 48.2297C56.8121 48.006 56.9025 47.7339 57.1286 47.6221C57.3546 47.5102 57.6229 47.6039 57.7344 47.8306L57.7796 47.9213C58.5723 49.5417 58.0448 51.4402 56.6011 52.1476H56.5951Z" fill="#BC9B79"/>
<path d="M33.691 8.09571C33.691 8.09571 30.1827 6.09748 33.9502 3.39185C37.7178 0.69227 40.7439 -0.160229 42.3685 0.0241766C43.9931 0.208582 48.3122 1.02783 51.4137 3.86042C54.5151 6.69302 50.639 8.43127 50.639 8.43127L33.691 8.09873V8.09571Z" fill="#184A79"/>
<mask id="mask0_92_5221" style="mask-type:luminance" maskUnits="userSpaceOnUse" x="32" y="0" width="21" height="9">
<path d="M33.691 8.09571C33.691 8.09571 30.1827 6.09748 33.9502 3.39185C37.7178 0.69227 40.7439 -0.160229 42.3685 0.0241766C43.9931 0.208582 48.3122 1.02783 51.4137 3.86042C54.5151 6.69302 50.639 8.43127 50.639 8.43127L33.691 8.09873V8.09571Z" fill="white"/>
</mask>
<g mask="url(#mask0_92_5221)">
<path d="M30.9814 7.70273C30.9814 7.70273 35.8944 5.28127 42.3716 5.58055C48.8487 5.87983 52.6615 6.98325 53.1257 7.49112C53.5899 7.99899 47.0705 9.02078 40.6355 8.80614C34.2005 8.59151 31.319 7.8297 30.9814 7.70273Z" fill="#0C3862"/>
</g>
<path d="M41.8107 7.27042C40.9849 7.27042 40.3429 6.46932 40.4665 5.65007C40.6021 4.75223 41.6781 4.39853 42.4256 4.75827C43.6734 5.35381 43.1881 7.27042 41.8107 7.27042Z" fill="#ECC22E"/>
<path d="M32.5215 8.35566C32.7385 7.96569 33.5824 7.76919 33.9923 7.64524C34.5439 7.47898 35.1106 7.36108 35.6682 7.21899C37.8383 6.65671 40.0928 6.39975 42.3352 6.50253C44.6078 6.60834 46.8985 6.81995 49.1259 7.29457C49.7528 7.42758 50.3828 7.57571 50.9856 7.7964C51.1423 7.85383 51.6878 8.02917 51.6909 8.24381C51.6939 8.45844 51.067 8.53704 50.8831 8.58239C50.0693 8.78191 49.2284 8.89376 48.3935 8.99352C45.8858 9.2928 43.3449 9.39861 40.8192 9.31699C39.4206 9.27164 38.0191 9.23234 36.6236 9.1084C35.9213 9.04491 35.2191 8.96329 34.5228 8.84539C33.8778 8.73656 33.1032 8.6761 32.5215 8.35566Z" fill="#491E0E"/>
<path d="M64.1571 70.2616H3.35765C1.50327 70.2616 0 71.7694 0 73.6293V73.6323C0 75.4922 1.50327 77 3.35765 77H64.1571C66.0115 77 67.5148 75.4922 67.5148 73.6323V73.6293C67.5148 71.7694 66.0115 70.2616 64.1571 70.2616Z" fill="#514845"/>
<path d="M69.73 68.0971C67.7015 72.284 65.3777 72.8342 63.3251 71.8336C61.2725 70.833 60.2658 68.6594 62.2943 64.4755C64.3228 60.2916 70.6673 56.673 70.6673 56.673C70.6673 56.673 71.7584 63.9102 69.73 68.0971Z" fill="#387938"/>
<path d="M70.6071 72.4019C66.7943 75.0561 64.5007 74.3971 63.1986 72.5168C61.8965 70.6365 62.0804 68.2482 65.8901 65.594C69.6999 62.9398 76.9999 62.9035 76.9999 62.9035C76.9999 62.9035 74.4169 69.7507 70.6071 72.4049V72.4019Z" fill="#2D6131"/>
<path d="M37.519 40.4302C37.5612 34.2028 32.4403 29.1059 26.2284 29.1059C20.0194 29.1059 14.9377 34.1997 14.9377 40.4302V67.5923C14.9377 67.5923 14.986 69.1854 16.6708 69.1854C18.3557 69.1854 37.4678 47.6009 37.516 40.4302H37.519Z" fill="#957853"/>
</g>
<defs>
<clipPath id="clip0_92_5221">
<rect width="77" height="77" fill="white"/>
</clipPath>
</defs>
</svg>
