<svg width="59" height="78" viewBox="0 0 59 78" fill="none" xmlns="http://www.w3.org/2000/svg">
<path d="M56.0493 58.8308C55.7216 57.6772 54.958 56.7732 54.2171 55.8637C53.737 55.2722 53.2181 54.5023 52.7848 53.7297C52.0453 52.4098 51.5318 51.0698 51.1734 49.5756C51.1921 49.5715 51.2121 49.5688 51.2309 49.5635C52.1683 49.3046 52.6591 48.3388 52.4452 47.4187C51.6294 43.9071 51.8795 40.2828 53.0684 36.8879C53.733 34.9926 50.8698 33.8739 49.8909 35.5439C49.8066 35.6874 49.7277 35.8336 49.6461 35.9798C49.3947 35.9342 49.1286 35.9329 48.8624 35.9771C39.3099 37.5921 29.6276 38.4103 19.94 38.4505C17.153 38.4626 14.366 38.4063 11.5817 38.2896C11.579 38.2896 11.5776 38.2896 11.575 38.2896C11.5629 38.2332 11.5509 38.1769 11.5402 38.1206C11.3476 37.1977 10.2657 36.6639 9.40181 36.9026C8.44829 37.1655 7.99494 38.1232 8.18752 39.0474C8.86688 42.3042 9.5342 45.5797 9.63584 48.9156C9.68398 50.485 9.62381 52.0678 9.32559 53.6116C9.17313 54.4003 8.96985 55.1796 8.71308 55.9415C8.40549 56.8563 8.02034 57.7121 7.9401 58.6886C7.80369 60.3719 8.79333 62.1318 9.49008 63.6099C10.1708 65.0519 11.032 66.4697 12.2035 67.5682C12.8708 68.1933 13.6064 68.6949 14.3847 69.0611C14.4649 69.2261 14.5759 69.3736 14.7217 69.4863C16.2329 70.664 18.3151 70.9967 19.96 69.8297C19.9667 69.8257 19.9721 69.8203 19.9788 69.815C21.5795 69.2798 23.06 68.2845 24.309 67.1269C26.1037 65.4637 28.1218 63.4302 28.5136 60.9769C28.646 60.9031 28.7704 60.8146 28.8841 60.7073C29.1061 60.498 29.1729 60.4779 29.5514 60.3693C29.8108 60.2941 29.5554 60.329 29.8282 60.3317C29.9553 60.333 30.081 60.3317 30.2067 60.3344C30.2428 60.3344 30.3418 60.3465 30.3725 60.3478C31.2097 60.486 31.7754 60.8347 32.4614 61.4343C34.0582 62.8346 35.3621 64.5341 36.9789 65.9211C40.3209 68.7862 44.9467 70.9336 49.3747 69.3857C51.4729 68.6533 53.1433 67.2154 54.3589 65.3644C55.5371 63.5697 56.6671 60.997 56.0506 58.8281L56.0493 58.8308Z" fill="#A07A5D"/>
<path d="M58.0339 51.8278C58.0232 51.7608 58.0098 51.6937 57.9978 51.6266C58.1034 51.4053 58.1636 51.1437 58.1569 50.8393C58.062 46.3123 57.7357 41.7947 57.186 37.2999C57.4053 35.5481 57.6247 33.7963 57.844 32.0445C57.9617 31.1083 56.9614 30.3008 56.1055 30.3008C55.069 30.3008 54.4846 31.1056 54.3669 32.0445C54.2292 33.139 54.0928 34.2336 53.955 35.3294C53.2315 36.9377 52.8076 38.6197 52.6391 40.3313C52.0627 42.7282 51.6936 45.1762 51.9236 47.6241C52.0961 49.4631 52.6017 51.1424 53.3064 52.8392C53.9296 54.3388 54.6972 55.9672 54.823 57.5526C54.9995 59.7967 58.1141 59.794 58.3 57.5526C58.4592 55.6359 58.3522 53.7272 58.0339 51.8305V51.8278Z" fill="#664D39"/>
<path d="M8.11266 56.6544C9.63722 53.0395 9.67735 49.2288 9.1598 45.3899C9.04345 44.522 8.9057 43.6582 8.75191 42.797C8.44967 39.5497 7.60849 36.3653 6.23238 33.3312C6.05318 32.9356 5.68138 32.6767 5.26547 32.5587C5.26146 32.4795 5.25746 32.4004 5.25478 32.3199C5.216 31.3783 4.48314 30.5762 3.51625 30.5762C2.60419 30.5762 1.73894 31.3743 1.77772 32.3199C1.85796 34.2662 1.96763 36.2111 2.10404 38.1547C1.83925 38.3653 1.64265 38.6496 1.59049 39.0011C0.861644 43.8862 1.4688 48.872 3.40392 53.3694C3.80779 55.3278 4.24375 57.2794 4.6824 59.227C4.88969 60.1459 5.94618 60.6864 6.82079 60.445C7.79704 60.1754 8.19825 59.2311 8.0351 58.3002C7.96422 57.8978 7.89735 57.494 7.82914 57.0903C7.94416 56.9723 8.04178 56.8287 8.11534 56.6571L8.11266 56.6544Z" fill="#664D39"/>
<path d="M56.4679 23.4334C56.413 23.2107 56.3274 23.0229 56.2205 22.8633C56.1081 21.1612 55.8259 19.4697 55.3793 17.8239C55.2549 17.3625 54.9379 16.9923 54.5394 16.7723C54.4726 16.4571 54.4097 16.1432 54.3415 15.828C53.7384 13.034 52.7849 10.3192 50.7334 8.25216C48.7809 6.28576 46.2306 4.8103 43.7097 3.70906C41.1755 2.60112 38.545 1.83522 35.8048 1.46099C32.6045 1.02371 29.4123 1.10821 26.2362 1.70644C25.7347 1.80168 25.3522 2.17457 25.1435 2.63331C24.8507 2.68026 24.5605 2.73927 24.2743 2.8117C23.948 2.65477 23.5508 2.60783 23.0974 2.7366C22.9303 2.78354 22.7658 2.83584 22.6013 2.89084C20.0697 3.70637 17.6692 4.90686 15.5215 6.48293C15.3717 6.59292 15.2366 6.71901 15.1216 6.85717C14.2978 7.26359 13.5007 7.72099 12.7518 8.2535C8.95783 10.9482 6.56668 15.0393 5.1451 19.4094C4.27316 22.0893 3.76764 24.8699 3.31562 27.6465C3.26882 27.9309 3.27417 28.2179 3.33167 28.4862C3.218 28.9852 3.32366 29.5364 3.77701 30.0153C5.57706 31.916 7.00665 34.1748 7.90802 36.6281C8.10059 37.1525 8.50849 37.7602 9.12232 37.846C20.5097 39.4449 31.9359 38.0915 43.1735 36.0258C46.3456 35.4423 49.5084 34.8052 52.6698 34.1641C53.3653 34.0232 53.8373 33.3633 53.9243 32.6778C56.3275 30.3064 57.281 26.7076 56.4679 23.432V23.4334ZM30.4675 29.3044C30.4314 29.2628 30.3912 29.2239 30.3498 29.1863C29.5915 28.5157 28.7798 27.7954 28.178 27.0147C27.8771 26.6244 27.5909 26.171 27.405 25.7136C27.3742 25.6399 27.3047 25.4078 27.2686 25.2737C27.2391 25.161 27.2137 25.0483 27.1923 24.9343C27.1883 24.9088 27.1843 24.8941 27.1803 24.882C27.1803 24.8565 27.1803 24.827 27.1803 24.7881C27.1803 24.5815 27.1736 24.379 27.1883 24.1725C27.1883 24.1564 27.1897 24.1429 27.191 24.1322C27.2071 24.041 27.2271 23.9498 27.2498 23.8599C27.2739 23.7647 27.3595 23.5098 27.3822 23.4347C27.417 23.3945 27.6323 23.0363 27.5895 23.0645C27.6631 22.9854 27.7821 22.8687 27.8316 22.8177C27.8878 22.7922 28.1111 22.6527 28.0589 22.6675C28.4815 22.4917 28.9068 22.5078 29.4137 22.5414C30.5196 22.6151 31.6965 22.8512 32.8439 23.0216C33.2892 23.0873 33.7372 23.149 34.1719 23.2697C34.2481 23.2912 34.6413 23.4454 34.533 23.3851C34.5905 23.4146 34.648 23.4468 34.7055 23.4817C34.7055 23.4817 34.7055 23.483 34.7055 23.4843C34.6881 23.479 34.6908 23.4924 34.7015 23.5085C34.7015 23.5138 34.7015 23.5165 34.6988 23.5219C34.7055 23.491 34.5931 23.8948 34.5543 23.9994C34.446 24.2932 34.1585 24.7895 33.9165 25.1436C33.4029 25.8947 32.658 26.6298 31.996 27.3568C31.4437 27.9631 30.9168 28.6136 30.4661 29.3031L30.4675 29.3044ZM23.722 23.9565C22.6267 24.7747 21.4726 25.5044 20.2556 26.1281C19.734 26.395 19.2098 26.6485 18.6548 26.8363C18.1734 26.9986 17.8604 26.9208 17.4472 26.6619C16.59 26.1227 15.7769 25.2281 15.1885 24.4528C14.4783 23.5179 13.9661 22.5481 13.7829 21.416C13.6559 20.6354 13.8324 19.6186 14.1881 18.8983C14.6829 17.895 15.2687 17.2069 16.0778 16.4303C16.8909 15.6496 17.6665 15.0031 18.6093 14.4223C19.0119 14.1741 19.0828 14.205 19.5495 14.3914C20.0951 14.6114 20.6301 14.8971 21.1436 15.1828C22.2161 15.777 23.302 16.5322 23.9667 17.5114C24.3144 18.0224 24.5217 18.4597 24.6675 19.0271C24.8039 19.5569 24.8159 20.0599 24.6862 20.5897C24.6287 20.8231 24.6207 21.0606 24.6541 21.2886C24.1539 22.0451 23.8356 22.9532 23.7313 23.9511C23.7273 23.9538 23.7246 23.9551 23.7206 23.9578L23.722 23.9565ZM44.928 23.7379C42.9876 25.1422 40.3905 24.996 38.3417 23.8935C38.2748 23.8572 38.2066 23.8277 38.1384 23.8009C38.2614 22.6849 37.9431 21.6038 36.8452 20.7507C36.6606 20.6072 36.4694 20.4851 36.2715 20.3778C36.3611 20.1686 36.4146 19.9405 36.4239 19.7018C36.4694 18.4852 36.5082 17.2686 36.8532 16.0922C36.9936 15.6107 37.1835 15.1855 37.4617 14.767C37.6476 14.4867 38.002 14.1245 38.2467 13.9568C38.351 13.8857 38.4607 13.8227 38.5704 13.761C38.5824 13.7543 38.7041 13.6966 38.7322 13.6805C38.8271 13.6483 38.9247 13.6215 39.0197 13.592C39.0411 13.5853 39.1708 13.5625 39.1976 13.5544C39.7071 13.5196 40.2019 13.6886 40.6753 13.8831C41.6328 14.2788 42.5703 14.7724 43.4516 15.3143C45.1112 16.3364 46.359 17.5557 46.8163 19.3356C46.8284 19.3825 46.8377 19.4201 46.8444 19.4496C46.8591 19.5703 46.8658 19.6964 46.8698 19.8185C46.8765 20.0411 46.8739 20.2678 46.8511 20.4905C46.8458 20.5146 46.8244 20.6568 46.8204 20.6756C46.7909 20.799 46.7669 20.9224 46.7334 21.0458C46.6759 21.2658 46.5529 21.6306 46.5048 21.7379C46.3924 21.9928 46.0287 22.6058 45.8468 22.8351C45.8107 22.8821 45.5887 23.1262 45.4777 23.2389C45.3881 23.3301 45.2958 23.4199 45.2009 23.5058C45.2049 23.5018 44.8839 23.762 44.928 23.7338V23.7379Z" fill="#CCB3A6"/>
<path d="M32.6928 22.3228C31.3916 21.907 29.9392 21.9177 28.6554 22.3966C27.7754 22.7239 27.1763 23.5769 27.4411 24.5414C27.4491 24.5695 27.4598 24.5963 27.4692 24.6245C27.5481 24.9035 27.6912 25.1691 27.8944 25.3985C28.5631 26.1563 29.2318 26.9128 29.8991 27.6707C30.5892 28.4527 32.1793 28.3132 32.6299 27.3179C32.9977 26.5064 33.3641 25.6949 33.7319 24.8847C34.2053 23.8398 33.8442 22.6917 32.6928 22.3228Z" fill="#F59A1E"/>
<path d="M46.585 18.464C46.1985 17.3762 45.5298 16.5781 44.6967 15.9973C43.9183 15.1817 42.8431 14.6479 41.7157 14.5808C41.5285 14.4118 41.2865 14.2777 40.9829 14.2012C38.684 13.6191 36.7235 15.5358 36.4333 17.7329C36.1752 19.6913 37.1193 21.6282 38.6479 22.8247C40.2888 24.1097 42.4058 24.5 44.3342 23.6362C46.3028 22.7536 47.3192 20.527 46.5877 18.464H46.585Z" fill="#EDD255"/>
<path d="M23.932 20.2561C23.841 18.8129 23.2887 17.3656 22.2014 16.4025C22.1011 15.7399 21.6157 15.1698 20.9457 14.9632C18.2282 14.1249 15.155 15.9746 14.4944 18.727C13.8097 21.5814 15.5429 25.0206 18.4422 25.8495C21.7387 26.7911 24.1165 23.195 23.9333 20.2575L23.932 20.2561Z" fill="#EDD255"/>
<path d="M57.8961 25.8545C57.4642 20.8272 56.7246 15.6336 54.1075 11.2246C51.8688 7.45279 48.3717 4.4965 44.4239 2.64948C35.3233 -1.60791 24.3358 0.0553375 15.7622 4.83853C11.6486 7.13356 8.05247 10.3756 5.87931 14.6102C4.71316 16.8824 3.91209 19.3223 3.23272 21.7782C2.56005 24.2061 1.99703 26.6647 1.55571 29.1448C-0.20021 39.0291 -0.0985591 49.4848 3.39188 58.9935C3.82116 60.1632 4.30125 61.314 4.82281 62.4461C5.03278 62.9008 5.72418 62.9424 6.0438 62.6044C6.45837 62.1672 6.87161 61.7285 7.28618 61.2913C9.01134 65.4494 11.2728 69.7189 15.8598 71.1165C16.4255 71.2896 17.0032 71.3955 17.581 71.4371C17.6117 72.6523 17.6425 73.8689 17.6732 75.0842C17.1985 75.5107 16.7237 75.9359 16.249 76.3625C15.5014 77.0331 16.6047 78.1317 17.3483 77.465C17.6879 77.1592 18.029 76.8548 18.3686 76.5489C18.4877 76.7072 18.6067 76.8655 18.7257 77.0224C18.9811 77.3604 19.393 77.5281 19.7889 77.3014C20.1206 77.1123 20.3198 76.5704 20.0671 76.235C19.7876 75.8635 19.5067 75.4933 19.2272 75.1217C19.1951 73.8783 19.1644 72.6336 19.1323 71.3902C20.2449 71.2413 21.3201 70.8402 22.2763 70.1803C24.0256 68.9731 25.2586 67.2092 26.4782 65.5003C27.0947 64.6365 27.7099 63.7714 28.412 62.9759C29.1729 62.1148 30.0783 61.2067 31.322 61.5488C32.5283 61.8801 33.32 62.9397 33.986 63.9297C34.6573 64.9276 35.3153 65.9188 36.1632 66.7786C38.3925 69.0388 41.4857 70.4874 44.6525 70.7047C44.7997 72.0984 44.9468 73.4907 45.0939 74.8843C45.1006 74.9447 45.1126 75.0024 45.1286 75.056C45.0698 75.1365 45.0123 75.2183 44.9548 75.2988C44.6111 75.775 44.2687 76.2511 43.925 76.7273C43.338 77.5415 44.686 78.3208 45.2664 77.5147C45.4496 77.2612 45.6328 77.0063 45.816 76.7528C45.8976 76.6401 46.0995 76.4282 46.248 76.2324C46.3028 76.2874 46.3563 76.3383 46.3831 76.3719L47.0611 77.1847C47.703 77.9547 48.7969 76.8481 48.1604 76.0822C47.7618 75.6046 47.2563 74.7301 46.6024 74.4524C46.47 73.205 46.3389 71.9575 46.2065 70.7101C46.9728 70.6632 47.7364 70.5411 48.4867 70.3345C52.8116 69.1461 56.2499 65.271 56.8584 60.8325C57.2208 60.9572 57.618 60.9908 58.0513 60.8915C58.3923 60.8137 58.6089 60.473 58.6223 60.1404C59.0743 48.7176 58.8751 37.2451 57.8948 25.8532L57.8961 25.8545ZM5.7683 18.8313C6.56 16.5725 7.59511 14.3861 9.0421 12.4707C10.3687 10.7163 12.015 9.18849 13.8017 7.91556C17.6438 5.1779 22.1734 3.36576 26.7751 2.41475C31.5641 1.42485 36.6205 1.48387 41.2811 3.05457C45.2477 4.39054 48.912 6.817 51.497 10.1408C54.4284 13.9113 55.5545 18.6704 56.0921 23.3329C56.2713 24.8861 56.4184 26.4434 56.5414 28.0047C56.4759 28.0597 56.4157 28.1241 56.3676 28.1992C56.1255 28.5681 55.8834 28.9383 55.6414 29.3071C55.4903 29.3581 55.3499 29.4574 55.2402 29.6224C54.288 31.0656 53.495 32.5988 52.8544 34.1909C52.7875 34.1735 52.7167 34.1628 52.6378 34.1628C52.4372 34.1628 52.2767 34.2272 52.1563 34.3278C52.1001 34.3278 52.0413 34.3304 51.9811 34.3425C40.8104 36.4618 29.4377 37.4651 18.0691 37.3391C14.9157 37.3042 11.7649 37.1794 8.61816 36.9729C8.2865 36.0232 7.90001 35.095 7.448 34.203C6.43296 32.1964 5.03277 30.4352 3.214 29.1086C3.18458 29.0872 3.15649 29.0697 3.12707 29.0536C3.74625 25.5823 4.61017 22.135 5.7683 18.8327V18.8313ZM7.03877 59.1102C6.8288 59.2189 6.67903 59.412 6.68171 59.6655C6.36342 60.0022 6.04514 60.3389 5.72819 60.6756C2.01576 52.032 1.35377 42.3717 2.51458 33.1004C2.6122 32.3251 2.72186 31.5485 2.84222 30.7732C5.56503 32.9797 6.98662 36.427 7.80105 39.7602C8.82679 43.9599 9.04745 48.3554 8.50315 52.6437C8.22499 54.8394 7.72214 57.0057 7.0401 59.1102H7.03877ZM48.7207 68.6324C47.7084 68.9851 46.6599 69.1582 45.6101 69.1729C45.3961 69.0858 45.1514 69.0817 44.9521 69.1609C42.0916 69.02 39.2818 67.7256 37.2638 65.6774C35.6777 64.0692 34.8486 61.7084 32.8466 60.5267C31.8851 59.9593 30.6975 59.7112 29.625 60.1028C28.5604 60.4918 27.7567 61.3409 27.0426 62.1913C24.725 64.9477 22.707 69.6598 18.5866 69.904C16.0805 70.0528 13.7335 68.6632 12.126 66.8243C10.3968 64.8471 9.36573 62.3603 8.40018 59.9378C9.83379 55.6751 10.4904 51.144 10.3139 46.6479C10.2082 43.9599 9.85385 41.1954 9.11698 38.561C20.3412 39.2652 31.6256 38.8802 42.7749 37.3954C45.9431 36.9729 49.0978 36.4672 52.2379 35.8743C50.1303 42.3208 50.4526 49.5519 53.1954 55.7837C53.717 56.9681 54.3241 58.1284 55.0369 59.2082C55.1493 59.3785 55.2696 59.5448 55.398 59.7045C55.2817 63.6735 52.4398 67.334 48.7221 68.6324H48.7207ZM57.2021 56.1016C57.1753 57.1599 57.1406 58.2183 57.1004 59.2766C56.52 58.9144 56.0399 57.891 55.7965 57.4725C55.2857 56.5953 54.827 55.6845 54.4311 54.7496C53.6261 52.8489 53.0697 50.8382 52.7381 48.8007C52.0854 44.7915 52.3877 40.6119 53.5873 36.7341C54.2533 34.5786 55.2121 32.5357 56.4318 30.6418C56.5374 30.6015 56.6337 30.5398 56.7179 30.458C56.9119 33.4572 57.0336 36.4618 57.1339 39.457C57.3211 45.0021 57.3438 50.5539 57.2021 56.1003V56.1016Z" fill="#080909"/>
<path d="M25.2319 19.9462C24.8681 17.0382 23.1389 13.5293 19.9066 13.5588C19.7568 13.4743 19.5723 13.4381 19.3623 13.481C16.7679 14.0082 14.5172 15.8525 13.5717 18.3434C12.6623 20.739 13.3109 23.6054 15.0655 25.4471C16.8281 27.2981 19.5963 27.726 21.9032 26.7119C24.5739 25.5383 25.5782 22.7134 25.2319 19.9476V19.9462ZM21.4753 25.1976C19.8451 26.0332 17.7549 25.8347 16.3975 24.5752C14.9986 23.2755 14.3874 21.183 14.8849 19.3333C15.4479 17.2368 17.2146 15.7009 19.25 15.1148C19.353 15.1402 19.4666 15.147 19.5897 15.1268C22.0998 14.7124 23.3074 17.8189 23.6458 19.7585C24.0136 21.8697 23.5027 24.1594 21.4766 25.1989L21.4753 25.1976Z" fill="#080909"/>
<path d="M34.5891 22.3895C34.2441 22.0716 33.7199 22.0165 33.2799 21.9307C32.6888 21.8153 32.0937 21.7228 31.4959 21.649C29.7146 21.4264 27.1603 21.0562 26.0476 22.8656C25.8604 23.1701 25.9099 23.4638 26.0744 23.6798C25.9767 23.8783 25.9727 24.1198 26.1278 24.3693C26.7591 25.3806 27.4277 26.3692 28.1392 27.3256C28.4896 27.7964 28.8493 28.2631 29.2184 28.7205C29.5287 29.1055 29.8617 29.4891 30.3578 29.6273C31.3474 29.9023 32.1177 29.131 32.6139 28.3812C33.2344 27.4449 33.7399 26.4188 34.1813 25.3873C34.5196 24.5973 35.3969 23.1339 34.5891 22.3895ZM32.309 25.7535C32.0897 26.1948 31.8543 26.6294 31.6029 27.0546C31.433 27.343 31.2003 27.9184 30.874 28.0579C30.7055 28.129 30.7216 28.0915 30.5705 27.9265C30.4314 27.7749 30.307 27.6046 30.1786 27.4449C29.8483 27.0305 29.5287 26.608 29.2171 26.1801C28.6032 25.3364 28.0228 24.4699 27.4705 23.5846C27.4665 23.5779 27.4612 23.5712 27.4558 23.5645C27.9747 22.8925 29.1636 23.0212 29.9045 23.0641C30.5183 23.099 31.1321 23.1553 31.7406 23.2439C32.079 23.2935 32.4173 23.3512 32.753 23.4142C32.8626 23.4357 33.102 23.4504 33.2986 23.4907C33.205 23.8059 33.0231 24.1399 32.9201 24.3974C32.7356 24.8588 32.5283 25.3109 32.3077 25.7548L32.309 25.7535Z" fill="#080909"/>
<path d="M47.3032 16.2924C46.4058 15.0302 45.1046 14.1194 43.7178 13.4689C42.3229 12.8143 40.7048 12.2939 39.1816 12.6909C39.1521 12.6963 39.1227 12.703 39.092 12.711C36.4641 13.434 35.0118 16.2401 35.1762 18.8463C35.3474 21.5598 36.999 24.0466 39.5306 25.0795C42.0287 26.0975 45.1354 25.5758 46.8886 23.435C48.5456 21.4123 48.8531 18.4694 47.3032 16.291V16.2924ZM46.1745 21.7422C45.138 23.5798 42.9996 24.3592 40.9789 23.9071C38.9021 23.4417 37.3681 21.8133 36.872 19.7557C36.3946 17.7786 37.0779 15.2488 39.0278 14.3863C39.0345 14.3837 39.0425 14.3823 39.0492 14.3796C40.2287 13.882 41.4604 14.1838 42.5984 14.6653C43.6028 15.0905 44.587 15.6552 45.3734 16.4198C46.8498 17.8537 47.1948 19.9341 46.1745 21.7422Z" fill="#080909"/>
<path d="M41.217 17.3823C41.0297 17.3702 40.8425 17.3904 40.6646 17.44C40.5042 17.4252 40.3356 17.4561 40.1792 17.5299C39.0505 18.0543 38.7161 19.7283 39.6081 20.619C40.4868 21.4975 42.1357 21.3567 42.7081 20.1951C43.2858 19.0201 42.5824 17.4722 41.2183 17.3823H41.217Z" fill="#080909"/>
<path d="M20.1927 18.6717C19.5174 18.2519 18.6227 18.3029 18.0731 18.9145C18.0691 18.9185 18.0664 18.9239 18.0624 18.9279C17.1396 19.5396 16.8467 20.9869 17.7642 21.8547C18.929 22.9573 20.7772 22.2638 21.0593 20.7253C21.2038 19.9393 20.8842 19.1023 20.1927 18.6717Z" fill="#080909"/>
<path d="M48.7902 45.2625C48.6712 44.8118 48.2486 44.6616 47.8341 44.7179C46.1343 44.9513 44.2955 43.5456 44.0695 41.8394H44.0668C44.0601 41.771 44.0521 41.7013 44.0414 41.6328C43.913 40.7731 42.3991 40.9676 42.5155 41.8394C42.5248 41.9092 42.5369 41.9776 42.5476 42.046C42.5462 42.046 42.5449 42.046 42.5422 42.046C42.7362 43.3498 41.7318 44.7488 40.4399 44.9728C39.1748 45.1914 37.8683 44.3088 37.5058 43.1003C37.2451 42.2284 36.0508 42.447 35.9799 43.3068C35.897 44.3115 35.0639 45.2317 34.0582 45.3671C33.0124 45.508 32.0669 44.8198 31.6577 43.8983C31.3715 43.2545 30.4113 43.4933 30.2375 44.0848C29.9446 45.0828 28.9576 45.8433 27.8998 45.7588C26.8874 45.6783 25.9754 44.7809 25.8644 43.7682C25.8216 43.3779 25.6009 43.0587 25.1904 43.0023C24.8427 42.9554 24.4 43.178 24.3385 43.5603C24.166 44.6213 23.163 45.3322 22.0985 45.2383C20.9029 45.1324 20.0176 44.1492 19.5375 43.1231C19.2446 42.4967 18.283 42.7019 18.1172 43.3095C17.9046 44.0902 17.169 44.7313 16.3292 44.6736C15.472 44.6146 14.8555 43.9239 14.703 43.1137C14.5773 42.447 13.5917 42.3665 13.2828 42.9272C12.8374 43.736 12.1982 44.29 11.3543 44.6549C10.4383 45.0506 11.2286 46.3933 12.1393 46.0002C12.7665 45.7293 13.3229 45.3349 13.7896 44.8494C14.3794 45.6528 15.3168 46.1988 16.3305 46.2309C17.3376 46.2618 18.2737 45.7883 18.9089 45.0452C19.734 46.0633 20.9256 46.7889 22.2603 46.8024C23.274 46.8131 24.2957 46.3691 24.9924 45.6341C25.6049 46.5408 26.5731 47.1819 27.7326 47.3C29.0459 47.4341 30.2976 46.797 31.0773 45.7829C31.9506 46.6548 33.2397 47.1001 34.4714 46.8681C35.5279 46.6696 36.3918 46.0083 36.9308 45.1337C37.9004 46.1988 39.3861 46.7675 40.8532 46.4737C42.0835 46.2269 43.037 45.3993 43.58 44.3437C44.6619 45.6998 46.4071 46.471 48.2459 46.2175C48.6645 46.1598 48.8852 45.6273 48.7889 45.2585L48.7902 45.2625Z" fill="#080909"/>
<path d="M47.2978 51.0578C47.2015 50.6916 46.7281 50.3495 46.3416 50.5132C45.4001 50.9115 44.2086 50.5145 43.8756 49.4857C43.6175 48.6876 42.2948 48.7762 42.3497 49.6923C42.3697 50.0397 42.3911 50.3884 42.4112 50.7358C41.5005 51.2361 40.1337 50.6929 39.8475 49.6883C39.6777 49.0914 38.7188 48.8687 38.4273 49.5018C37.7332 51.0095 35.2511 51.5393 34.1706 50.1161C33.8456 49.6882 33.1221 49.5394 32.8292 50.1161C31.8864 51.9725 29.3949 51.9014 28.5123 50.0343C28.2756 49.5313 27.4023 49.5165 27.171 50.0343C26.2656 52.0503 23.5816 52.1375 22.6 50.1336C22.3058 49.5326 21.3282 49.6883 21.1797 50.32C20.9858 51.149 20.2235 51.8438 19.3342 51.7633C18.4837 51.6868 17.803 50.9062 17.7655 50.0678C17.7321 49.3475 16.6796 48.9398 16.3172 49.6748C15.9013 50.5158 15.2808 51.0926 14.4235 51.4655C13.5088 51.8626 14.2992 53.2066 15.2085 52.8109C15.7849 52.5601 16.3038 52.1992 16.7398 51.7552C17.2627 52.5936 18.1333 53.1985 19.1711 53.3058C20.2944 53.4239 21.3803 52.8833 22.0583 52.0168C22.8139 52.7599 23.8517 53.2186 24.9202 53.1972C26.0449 53.1757 27.1215 52.6512 27.8624 51.821C28.5805 52.5815 29.5915 53.0604 30.648 53.0724C31.7981 53.0859 32.9014 52.5453 33.645 51.6855C35.2431 52.8256 37.6476 52.7183 39.0425 51.3341C39.6135 51.9632 40.4293 52.3588 41.3039 52.45C41.9458 52.5171 42.6024 52.4031 43.1735 52.0959C43.3661 51.9927 43.5894 51.8518 43.7525 51.6761C44.6245 52.2542 45.7438 52.4447 46.7589 52.0155C47.148 51.8505 47.4182 51.5017 47.3018 51.0564L47.2978 51.0578Z" fill="#080909"/>
<path d="M24.1138 57.5837C23.294 58.1363 21.9447 57.8721 21.5649 56.8795C21.3616 56.351 20.709 56.0854 20.2663 56.5361C19.9547 56.8527 19.7153 57.2189 19.4933 57.6025C19.3168 57.9056 19.1523 58.3013 18.8541 58.5079C17.9741 59.1209 17.1156 57.8225 16.7318 57.2055C16.4014 56.6756 15.7314 56.7346 15.3904 57.2055C14.8635 57.9311 14.3259 58.65 13.7749 59.3583C13.1664 60.1403 14.259 61.2509 14.8742 60.4608C15.2727 59.9485 15.6646 59.4321 16.0524 58.913C16.7505 59.7379 17.6572 60.3629 18.818 60.1698C19.8972 59.99 20.2904 59.1799 20.7839 58.4046C21.8323 59.479 23.5655 59.8291 24.9002 58.9304C25.7266 58.3737 24.9497 57.023 24.1152 57.585L24.1138 57.5837Z" fill="#080909"/>
<path d="M50.704 56.421C49.7705 56.8985 48.7007 56.1326 48.0628 55.4888C47.6148 55.0381 46.6826 55.3479 46.7361 56.04C46.7896 56.7322 46.3764 57.482 45.6302 57.5759C44.9361 57.6631 44.3423 57.1091 44.1939 56.4706C44.004 55.6564 42.9515 55.8093 42.6947 56.4706C42.2975 57.4994 41.6396 58.3726 40.8104 59.0902C40.0521 59.7461 41.1554 60.8447 41.9097 60.1928C42.5476 59.6402 43.0759 59.0031 43.5038 58.2975C44.1002 58.8797 44.9347 59.2137 45.788 59.1171C46.7829 59.0044 47.6201 58.3284 48.0293 57.4471C49.0738 58.1003 50.3121 58.3686 51.489 57.7664C52.3797 57.3103 51.5947 55.9649 50.704 56.421Z" fill="#080909"/>
</svg>
