<svg width="28" height="52" viewBox="0 0 28 52" fill="none" xmlns="http://www.w3.org/2000/svg">
<g opacity="0.5" clip-path="url(#clip0_55_1402)">
<path d="M16.7923 4.83928C18.4944 0.600098 24.8648 1.06001 26.2633 5.44417C26.7063 6.8389 26.4226 7.65374 26.0195 8.9185C24.1581 14.7074 22.3017 20.4963 20.4404 26.2852C18.579 32.074 16.7226 37.8629 14.8613 43.6518C14.0749 46.1013 13.1592 48.7908 10.616 49.8956C7.72439 51.1554 3.79265 49.6157 2.31949 46.9112C0.224216 43.0769 3.59855 36.5382 4.7731 32.8889C6.66929 26.985 8.56549 21.0762 10.4617 15.1723C10.7852 14.1575 9.21746 13.6476 8.89396 14.6624C6.8186 21.1312 4.73826 27.5999 2.66289 34.0687C1.38881 38.0279 -1.28378 43.2919 0.716928 47.4161C1.99599 50.0506 5.02692 51.8153 7.91352 51.9852C11.6362 52.2002 14.3486 49.6907 15.6874 46.3713C17.8673 40.9673 19.3206 35.1585 21.1023 29.6145C23.317 22.7158 25.7855 15.8422 27.7614 8.86851C29.3042 3.42455 22.9736 -2.27935 17.7827 0.925035C16.2448 1.87485 15.5431 3.39456 14.9956 5.02425" fill="#59595B"/>
</g>
<defs>
<clipPath id="clip0_55_1402">
<rect width="28" height="52" fill="white"/>
</clipPath>
</defs>
</svg>
