<svg width="25" height="26" viewBox="0 0 25 26" fill="none" xmlns="http://www.w3.org/2000/svg">
<g clip-path="url(#clip0_6_597)">
<path fill-rule="evenodd" clip-rule="evenodd" d="M2.64194 13.9911C5.53988 13.0739 8.27993 12.6523 11.003 12.5049C12.0175 12.4503 13.031 12.4324 14.0487 12.4397C14.7252 12.4446 15.4044 12.4466 16.0904 12.4707C17.3577 12.5103 18.6353 12.586 19.9521 12.7133C21.2207 12.8345 22.5073 12.9774 23.8448 13.1769C24.1783 13.2528 24.5088 13.0472 24.5848 12.7136C24.6607 12.38 24.4551 12.0495 24.1215 11.9736C21.8711 11.2768 19.7311 10.7013 17.6132 10.3388C16.8599 10.2109 16.114 10.1166 15.3668 10.0532C14.6055 9.98783 13.8488 9.95881 13.0938 9.96351C11.5786 9.97884 10.0672 10.1264 8.55659 10.3979C6.4121 10.7835 4.26984 11.4339 2.0476 12.3391C1.58821 12.5034 1.35192 13.0086 1.51893 13.4651C1.68593 13.9215 2.18846 14.1607 2.6449 13.9937L2.64194 13.9911Z" fill="#8C8783"/>
<path d="M2.52832 10.8262C2.50965 10.8469 2.49184 10.8844 2.48117 10.8962L2.52832 10.8262Z" fill="black"/>
<path d="M5.09656 7.75641C4.7627 7.67482 4.42927 7.87782 4.34739 8.20606L2.52828 10.8266C2.54162 10.8118 2.55819 10.8053 2.57325 10.8243C2.58802 10.8376 2.54391 10.8568 2.52524 10.8774C2.32319 11.0596 1.94196 11.375 1.67438 11.6535C1.57274 11.7602 1.46843 11.8697 1.37565 11.9844C1.28525 12.0904 1.19781 12.1992 1.13076 12.3209C1.07675 12.4223 1.06563 12.5356 1.00896 12.6399C0.865043 12.9122 0.914375 13.3267 1.01304 13.6035C1.08519 13.8027 1.20442 13.9854 1.35593 14.1383C1.67373 14.4574 2.09183 14.5882 2.5203 14.7016C2.89171 14.801 3.38001 14.8719 3.65003 14.9173C3.67842 14.9215 3.72339 14.9192 3.71863 14.9364C3.71416 14.9591 3.69729 14.96 3.68014 14.9552L6.59762 16.2435C6.841 16.4847 7.22972 16.4818 7.47092 16.2384C7.71211 15.995 7.71185 15.6033 7.46847 15.3621C7.21391 14.9017 6.97641 14.4996 6.65935 14.0846C6.43588 13.7917 6.18688 13.5508 5.90206 13.3258C5.65831 13.1325 5.37455 12.9836 5.08394 12.866C4.79038 12.7457 4.47662 12.6715 4.14981 12.6177C4.13562 12.6157 4.1158 12.6138 4.09036 12.6123C4.11198 12.5943 4.13094 12.5793 4.1419 12.5731C4.3931 12.3602 4.62096 12.1316 4.8107 11.8739C4.99778 11.6192 5.16151 11.3488 5.27055 11.0558C5.39682 10.714 5.4867 10.3769 5.52456 10.0143C5.57982 9.49578 5.57288 9.02836 5.55154 8.49968C5.63313 8.16581 5.43013 7.83239 5.09922 7.75346L5.09656 7.75641Z" fill="#8C8783"/>
<path d="M3.68579 14.9557L3.60804 14.923C3.60804 14.923 3.6574 14.9515 3.68579 14.9557Z" fill="black"/>
</g>
<defs>
<clipPath id="clip0_6_597">
<rect width="18.1885" height="16.9467" fill="white" transform="translate(11.3569 0.335938) rotate(42.0789)"/>
</clipPath>
</defs>
</svg>
