<svg width="106" height="82" viewBox="0 0 106 82" fill="none" xmlns="http://www.w3.org/2000/svg">
<path d="M35.3041 73.6113L33.3636 67.1946L32.1182 67.0713L28.9087 72.9668L30.1541 73.0901L30.7364 72.0258L33.7107 72.3315L34.0587 73.488L35.2958 73.6184L35.3041 73.6113ZM31.2468 71.0956L32.5999 68.6171L33.4141 71.3183L31.2468 71.0956ZM20.5903 61.4927L18.8128 62.5922L19.3124 64.6273L17.7165 63.2776L15.939 64.3772L16.7333 62.438L15.1374 61.0884L17.2169 61.2426L18.0111 59.3034L18.5108 61.3385L20.5903 61.4927ZM10.5814 71.4608C10.8119 71.6948 11.0352 71.9204 11.274 72.1472C11.4545 72.3232 11.6434 72.4921 11.8168 72.6598C12.0056 72.8287 12.2016 73.0059 12.3904 73.1748C12.6089 73.3613 12.8191 73.555 13.053 73.7428C13.1991 73.862 13.3451 73.9813 13.4911 74.1005C13.7618 74.3142 14.0243 74.535 14.2961 74.7332C14.3104 74.7498 14.3246 74.7663 14.3471 74.7758C15.4547 75.6091 16.5989 76.3676 17.7949 77.0526C17.9461 76.4753 18.0523 75.8791 18.5957 75.3386C18.6867 75.2601 18.7634 75.1651 18.8473 75.0784C15.8845 73.3641 13.1536 71.1327 10.7933 68.3944C10.5508 68.1131 10.3095 67.8164 10.0754 67.528C10.0328 67.579 10.0069 67.6158 9.96781 67.6207C9.89564 67.6541 9.75929 67.613 9.74018 67.5573C9.73647 67.5029 9.81549 67.3771 9.88995 67.3129C9.81864 67.2302 9.75447 67.1557 9.70683 67.067C9.67032 67.1417 9.63494 67.2011 9.59842 67.2758C9.46405 67.5214 9.29174 67.7564 9.18105 67.996C9.10687 68.1609 9.10144 68.3386 9.0498 68.5129C8.97592 68.3603 8.82389 68.2174 8.853 68.0337C8.89239 67.7113 8.68503 67.27 9.39277 67.0205C9.46494 66.9871 9.52171 66.9526 9.59388 66.9192C7.38477 64.0217 5.7459 60.849 4.6824 57.5408C4.63304 57.6843 4.58254 57.8432 4.53318 57.9867C4.49438 58.0922 4.41764 58.1872 4.34689 58.3059C4.23536 58.2434 4.09787 58.2177 4.02656 58.135C3.82689 57.9033 4.10934 57.2273 4.49246 56.9692C2.11565 49.1262 2.87271 40.5863 6.62088 33.2748C6.53074 33.2372 6.45002 33.177 6.42378 33.1131C6.30227 32.8718 6.28489 32.5839 6.22729 32.3164C6.40985 32.3609 6.63492 32.3543 6.77383 32.4653C6.83915 32.5244 6.90447 32.5834 6.96151 32.6496C7.05224 32.4705 7.15009 32.2996 7.24909 32.1133C7.21686 32.0258 7.17636 31.9453 7.14413 31.8577C7.20232 31.9085 7.26165 31.9439 7.31984 31.9947C8.31606 30.2564 9.49257 28.5934 10.8388 27.0437C10.9401 26.8266 11.0331 26.6167 11.1783 26.4339C11.2196 26.3982 11.3061 26.3814 11.4293 26.3905C11.4966 26.3181 11.5557 26.2527 11.623 26.1803C12.3967 25.3548 13.2225 24.5564 14.0995 23.8006C14.3642 23.5724 14.6289 23.3442 14.9162 23.1254C17.7661 20.8276 20.9137 19.1094 24.2062 17.9441C24.1386 17.9158 24.071 17.8876 24.0116 17.8522C23.8502 17.7318 23.7584 17.5082 23.4646 17.0837C24.15 17.3436 24.3882 17.369 24.4726 17.4837C24.5368 17.5582 24.5562 17.7145 24.5399 17.8294C24.6749 17.7852 24.8098 17.741 24.9364 17.7039C24.8997 17.678 24.8546 17.6592 24.8189 17.6178C24.7262 17.5102 24.6678 17.3588 24.5999 17.2298C24.7125 17.2769 24.8169 17.3311 24.9368 17.3865C24.9761 17.4823 25.0237 17.571 25.0631 17.6669C25.4916 17.5283 25.9272 17.3979 26.3616 17.283C26.2561 17.2442 26.1257 17.2268 26.0533 17.1595C25.9962 17.0933 26.0065 16.9547 25.9631 16.7036C26.1933 16.8369 26.3297 16.8779 26.3856 16.9595C26.4261 17.04 26.3862 17.1609 26.3853 17.277C32.5349 15.5956 39.0619 15.8239 45.0655 17.8875C45.0275 17.877 44.9825 17.8582 44.9397 17.8085C44.7834 17.8279 44.5791 17.6579 44.5341 17.6391C44.3915 17.4736 44.3629 17.4405 44.3344 17.4074C44.0341 17.1761 44.0036 16.8563 44.191 16.5217C44.2523 16.4256 44.4879 16.3811 44.6431 16.3771C45.0376 16.3831 45.1591 16.6244 45.2242 17.001C45.3263 17.086 45.4081 17.1308 45.49 17.1756C45.6894 17.3065 45.7373 17.4959 45.4843 17.6708C45.3696 17.7552 45.2575 17.9095 45.1271 17.8921C46.569 18.394 47.9804 18.9942 49.3376 19.6989C49.4358 19.6287 49.5756 19.6236 49.6951 19.5783C49.68 19.6778 49.6731 19.7703 49.658 19.8698C50.2915 20.2033 50.9156 20.5594 51.522 20.9451C52.062 21.2871 52.5997 21.66 53.1291 22.04C53.2284 21.9544 53.3371 21.8463 53.496 21.8968C53.496 21.8968 53.5681 21.8634 53.6072 21.8586C53.6049 21.8894 53.6026 21.9202 53.6004 21.951C53.7866 22.05 54.0276 22.246 54.2473 22.4172C54.3942 22.4203 54.451 22.3858 54.5137 22.375C54.8737 22.3242 55.2408 22.2817 55.5926 22.2381C55.6094 22.3245 55.6833 22.4772 55.6524 22.4749C55.2474 22.5068 55.1518 23.065 54.3386 22.4394C54.2841 22.4431 54.2698 22.4266 54.2402 22.4089C54.0542 22.4106 53.867 22.4277 53.6537 22.3809C53.6003 22.3692 53.541 22.3338 53.4805 22.3138C53.9281 22.649 54.3756 22.9842 54.7983 23.3408C55.344 23.1877 55.8025 22.7493 56.4021 22.8092C56.1607 23.3489 55.4735 23.3212 55.1997 23.6726C55.4835 23.9182 55.7602 24.1556 56.0357 24.4084C56.9573 25.2434 57.8424 26.1531 58.6767 27.121C59.8105 28.4364 60.8154 29.8197 61.6924 31.2554C61.9092 31.256 62.1035 31.2472 62.1155 31.2945C62.1525 31.4212 62.1697 31.6083 62.1012 31.6962C62.0681 31.7247 62.035 31.7532 62.003 31.7663C63.5219 34.3648 64.649 37.1279 65.3605 39.9608C65.5346 39.9118 65.7086 39.8627 65.8754 39.8054C66.2506 39.6551 66.5946 39.4018 66.9663 39.2977C67.132 39.2558 67.3146 39.3003 67.5125 39.3459C67.4347 39.0381 67.3497 38.7221 67.2636 38.4214C67.0716 38.3994 66.8619 38.4071 66.6263 38.4516C66.3505 38.5163 66.0139 38.4604 65.7118 38.4612C66.373 38.1076 65.6942 37.6545 65.7084 37.2529C65.7084 37.2529 66.1135 37.221 66.186 37.2883C66.4484 37.5091 66.7545 37.6634 67.0782 37.7881C66.9419 37.3289 66.7819 36.8756 66.6219 36.4223C66.4428 35.9134 66.2674 35.459 66.0837 35.0117C65.9143 34.9991 65.7448 34.9866 65.5848 34.9515C65.5315 34.9398 65.5121 34.7834 65.4142 34.5361C65.6133 34.5664 65.7745 34.5861 65.9274 34.6129C65.3216 33.174 64.6057 31.758 63.7857 30.3884C62.9383 28.9703 62.0059 27.6544 60.9705 26.3695C60.7374 26.4839 60.8735 26.8425 60.7508 27.0347C60.7508 27.0347 60.5195 26.9169 60.4932 26.853C60.2351 26.0517 59.2587 25.5379 59.1923 24.6579C59.1801 24.5098 59.0529 24.3455 59.0845 24.2317C58.6532 23.7815 58.2054 23.3456 57.7565 22.9251C57.1472 22.3689 56.5285 21.8351 55.8921 21.331C55.8707 21.3062 55.8411 21.2885 55.8114 21.2708C55.1679 20.7585 54.5067 20.2758 53.829 19.8073C53.7768 19.7802 53.7246 19.7531 53.6807 19.7189C53.5417 19.6079 53.4088 19.5206 53.2759 19.4333C52.5816 18.9791 51.8768 18.5629 51.1554 18.1609C51.1257 18.1432 51.0961 18.1256 51.0664 18.1079C50.3521 17.7142 49.6202 17.3501 48.886 17.0169C48.8634 17.0075 48.8409 16.9981 48.8112 16.9804C48.0545 16.6378 47.2954 16.3259 46.527 16.0366C45.7277 15.745 44.9344 15.4771 44.1377 15.2554C44.0732 15.4985 44.0016 15.7332 43.9063 15.974C43.8687 16.0641 43.7161 16.138 43.5977 16.1679C43.5503 16.1799 43.4328 16.0938 43.4137 16.0381C43.3384 15.8002 43.4226 15.396 43.5841 15.0982C42.9083 14.9165 42.2303 14.7655 41.5593 14.6229C41.4752 14.6089 41.3839 14.5866 41.2998 14.5726C40.636 14.4382 39.9699 14.3346 39.311 14.2393C39.2114 14.2242 39.119 14.2173 39.0195 14.2022C38.3368 14.1129 37.6448 14.0461 36.9588 14.003C36.928 14.0007 36.8818 13.9973 36.851 13.995C36.1258 13.9567 35.4007 13.9184 34.6722 13.9264C34.6901 13.9974 34.6622 14.1657 34.6613 14.2818C34.3672 14.1748 34.0731 14.0678 33.7802 13.9454C32.5079 13.975 31.23 14.0816 29.97 14.2592C29.6582 14.6001 29.4756 14.9738 29.6476 15.4744C29.7671 15.8473 29.5457 15.9083 29.2257 15.8381C29.0811 15.8041 28.913 15.8769 28.7695 15.8275C28.498 15.7299 28.2915 15.5907 28.5559 15.2618C28.7944 14.9697 29.0329 14.6777 29.2263 14.3667C28.7172 14.4452 28.2222 14.5401 27.7262 14.6505C27.6006 14.6721 27.4823 14.7021 27.3639 14.732C26.9779 14.8196 26.5837 14.9143 26.2049 15.0101C26.0782 15.0472 25.9444 15.076 25.8178 15.113C25.3987 15.2291 24.9797 15.3452 24.5595 15.4766C24.4802 15.5017 24.4092 15.5197 24.3299 15.5448C23.8221 15.7085 23.3132 15.8876 22.8031 16.0821C22.8234 16.1224 22.8436 16.1626 22.8567 16.1945C22.8282 16.1614 22.776 16.1343 22.7392 16.1084C22.4043 16.2384 22.0694 16.3685 21.7263 16.5057C21.7382 16.553 21.7585 16.5932 21.7633 16.6323C21.9031 16.6272 22.1436 16.6218 22.1627 16.6774C22.2106 16.8668 22.1721 17.0731 22.1718 17.3906C22.0993 17.3232 22.0257 17.2713 21.9675 17.2205C22.032 17.3957 22.0811 17.5697 22.1455 17.7448C21.8078 17.7043 21.3673 17.7956 21.1417 17.6007C20.9161 17.4059 20.6976 17.2193 20.4697 17.0553C19.8119 17.3627 19.1683 17.6867 18.5307 18.0344C18.5296 18.0498 18.5356 18.0735 18.5416 18.0972C18.5416 18.0972 18.4705 18.1151 18.3935 18.1094C17.9736 18.3416 17.5526 18.5892 17.1232 18.8439C16.7176 19.0926 16.3273 19.3425 15.9359 19.6077C15.9111 19.6291 15.878 19.6576 15.8461 19.6708C15.4878 19.9075 15.1437 20.1608 14.7926 20.4058C14.7347 20.4557 14.6779 20.4902 14.6129 20.5319C14.2192 20.8279 13.8255 21.124 13.4461 21.4366C13.1814 21.6648 12.9024 21.8764 12.6294 22.1118C11.4794 23.103 10.402 24.1615 9.40521 25.2802C8.94107 25.7956 8.51486 26.3216 8.08751 26.863C7.98481 26.9948 7.88211 27.1265 7.78768 27.2512C7.38401 27.7866 6.98747 28.3303 6.61346 28.8833C6.2135 29.4732 5.85147 30.0737 5.49771 30.667C5.44351 30.7714 5.3739 30.8746 5.31969 30.979C4.98134 31.5735 4.65839 32.1691 4.36511 32.7823C4.42271 33.0499 4.48859 33.3104 4.52252 33.5839C4.52851 33.6076 4.31884 33.6153 4.04414 33.6646C4.04272 33.5793 4.04472 33.4478 4.04472 33.4478C3.37114 34.908 2.8031 36.407 2.33347 37.9365C1.64442 40.2319 1.19956 42.5764 1.00115 44.9391C0.998864 44.97 0.995438 45.0162 0.993154 45.047C0.871819 46.5791 0.851181 48.1109 0.931237 49.6424C0.9338 49.7123 0.936361 49.7822 0.947197 49.845C0.991933 50.5995 1.06035 51.348 1.15956 52.0988C1.16441 52.1379 1.16926 52.1769 1.17525 52.2006C1.26848 52.9277 1.39252 53.6572 1.54023 54.3806C1.55107 54.4433 1.56304 54.4907 1.57388 54.5534C1.72159 55.2769 1.89299 55.9943 2.08092 56.6975C2.10374 56.8076 2.14195 56.9188 2.18017 57.0301C2.57858 58.4458 3.0717 59.8376 3.66779 61.1983C3.72027 61.3261 3.77275 61.4539 3.8335 61.5746C4.12556 62.2313 4.44129 62.8819 4.7807 63.5266C4.83547 63.6236 4.89023 63.7206 4.93786 63.8093C5.25817 64.3984 5.58674 64.9804 5.94727 65.5492C6.00916 65.6544 6.06392 65.7514 6.13409 65.8496C6.522 66.4669 6.93472 67.0628 7.37825 67.661C7.46981 67.784 7.5685 67.9152 7.66719 68.0464C8.11785 68.6529 8.5922 69.2534 9.09136 69.8325C9.44077 70.2379 9.79845 70.6361 10.1727 71.0201C10.301 71.169 10.4459 71.3037 10.5826 71.4454L10.5814 71.4608ZM62.0296 31.0946C62.0296 31.0946 61.9783 30.9514 62.0031 30.93C62.0196 30.9157 62.0445 30.8943 62.0681 30.8883C61.8582 30.7953 61.6565 30.6952 61.4537 30.6104C61.4546 30.4943 61.4626 30.3865 61.468 30.2088C61.684 30.3255 61.8879 30.3948 62.079 30.5329C62.1229 30.5671 62.16 30.6938 62.19 30.8122C62.2467 30.7777 62.3189 30.7443 62.4005 30.6884C62.4401 30.8849 62.4903 31.0435 62.482 31.0507C62.3483 31.0795 62.1859 31.0752 62.0379 31.0874L62.0296 31.0946ZM63.1892 31.4361C63.0388 31.4792 62.8851 31.5684 62.763 31.5439C62.6255 31.5182 62.6324 31.0076 62.7662 30.9788C62.939 30.9451 63.1418 31.0299 63.3327 31.0673C63.2856 31.1799 63.2303 31.2997 63.1738 31.4349L63.1892 31.4361ZM57.3363 23.0566C57.4952 23.1071 57.7428 23.11 57.8058 23.1998C57.9724 23.46 58.0585 23.7607 58.1766 24.0482C58.0034 23.9812 57.8149 23.913 57.5291 23.7989C57.4632 23.5384 57.3962 23.2934 57.3363 23.0566ZM48.5391 17.0996C48.7878 17.0871 49.0069 17.0569 49.02 17.0888C49.0739 17.3019 49.0816 17.5116 49.1119 17.7306C48.998 17.699 48.8429 17.703 48.787 17.6214C48.6871 17.5055 48.6452 17.3398 48.5391 17.0996ZM48.5981 18.2888C48.7247 18.2518 48.8645 18.2466 48.99 18.225C49.0083 18.3967 49.018 18.4749 49.0359 18.5459C48.8439 18.5239 48.6674 18.5031 48.4754 18.4811C48.5119 18.4064 48.5353 18.2997 48.5909 18.2806L48.5981 18.2888ZM25.472 16.4349C25.4466 16.6731 25.4283 16.9195 25.4029 17.1577C25.3139 17.1046 25.2166 17.0587 24.9864 16.9255C25.0441 16.7749 25.0874 16.6077 25.183 16.4677C25.2184 16.4083 25.3713 16.4352 25.4802 16.4278L25.472 16.4349ZM23.8988 16.0317C24.143 16.0808 24.386 16.1453 24.7286 16.2249C24.6556 16.3744 24.6096 16.4716 24.5566 16.5606C24.54 16.5749 24.4927 16.5869 24.463 16.5692C24.2471 16.4525 24.0311 16.3358 23.8235 16.212C23.8163 16.2037 23.8917 16.0234 23.9071 16.0246L23.8988 16.0317ZM19.9245 18.2462C20.0845 18.2813 20.2445 18.3164 20.5101 18.3903C20.5688 18.6424 20.6749 18.8826 20.6672 19.0912C20.6627 19.1528 20.3771 19.1393 20.2208 19.1587C20.1193 18.8569 20.0177 18.5551 19.9245 18.2462ZM3.46141 58.9682C3.66024 58.8977 3.89129 58.9149 4.2182 58.8926C4.08525 59.2235 3.99224 59.4335 3.90751 59.6363C3.74976 59.5704 3.53525 59.539 3.45083 59.4243C3.37353 59.3179 3.40578 58.9873 3.46141 58.9682ZM6.65372 63.1234C6.65372 63.1234 6.78979 63.0638 6.90104 63.0256C6.88706 63.1097 6.89561 63.2033 6.85795 63.2934C6.75553 63.5259 6.65909 63.7821 6.49734 63.9792C6.26826 64.2487 5.97986 64.4829 5.71398 64.7265C5.77248 64.4598 5.8227 64.2002 5.88832 63.9418C5.88832 63.9418 6.61834 63.1827 6.66912 63.1246L6.65372 63.1234ZM19.1545 45.6578C19.5016 45.6757 19.7572 45.989 19.7321 46.3279C19.7112 46.5044 19.6382 46.6539 19.5224 46.7537C19.39 46.8678 19.2231 46.9251 19.0466 46.9043C18.7006 46.8709 18.445 46.5577 18.4713 46.2034C18.4952 45.8799 18.7682 45.6446 19.094 45.6378C19.1319 45.6483 19.171 45.6435 19.171 45.6435L19.1545 45.6578ZM21.9846 39.6567C21.8853 39.7423 21.7658 39.7877 21.6486 39.8022C21.4204 39.5375 21.1922 39.2727 20.964 39.008C20.9768 38.9393 20.9968 38.8788 21.0322 38.8194C21.2245 38.5239 21.6258 38.4375 21.9213 38.6298C22.2169 38.8221 22.3033 39.2235 22.111 39.519C22.0756 39.5783 22.026 39.6211 21.9846 39.6567ZM12.3185 39.0485C12.3396 38.9726 12.3844 38.8908 12.4209 38.816C12.4982 38.9224 12.5838 39.0217 12.6445 39.1424C12.6659 39.1672 12.6636 39.198 12.6696 39.2217L15.2226 40.5106C15.22 40.4407 15.2103 40.3626 15.2077 40.2927C15.2648 40.3589 15.3775 40.406 15.3954 40.477C15.4074 40.5243 15.4194 40.5717 15.4468 40.6202L16.499 41.1551L17.0069 40.155L15.1479 39.2196L15.6923 38.1448L18.2051 37.7812L18.7777 36.6388L16.1156 37.03C16.2672 36.1352 15.9189 35.2962 15.1299 34.866C15.2229 35.0742 15.3242 35.2753 15.41 35.4753C15.5566 35.796 15.9354 36.1183 15.5643 36.4238C15.3538 36.1294 15.1196 35.841 14.9422 35.5181C14.8529 35.3643 14.8986 35.1663 14.8578 34.9852C14.8338 34.8905 14.7933 34.8101 14.754 34.7142C13.7556 34.3924 12.7192 34.8964 12.1749 35.9712L11.4574 37.3971C11.5986 37.4773 11.7481 37.5503 11.9343 37.6493C11.9728 37.8613 11.9982 38.0412 12.0307 38.2295C11.861 38.1163 11.6428 38.0304 11.5144 37.8815C11.436 37.7905 11.4143 37.665 11.3844 37.5466L10.9579 38.39L12.3162 39.0793L12.3185 39.0485ZM13.0389 36.5386C13.3841 35.8517 13.9709 35.5622 14.5308 35.8438C15.0908 36.1254 15.2051 36.7766 14.8599 37.4635L14.2072 38.7471L12.3862 37.8222L13.0389 36.5386ZM20.6207 40.8179C20.9422 40.9734 21.0936 41.3331 20.9453 41.6629C20.9005 41.7447 20.8474 41.8337 20.7813 41.8908C20.5992 42.0477 20.3399 42.0981 20.1003 41.9874C19.7777 41.8474 19.6274 41.4722 19.7675 41.1496C19.9159 40.8199 20.2827 40.6767 20.6053 40.8168L20.6207 40.8179ZM38.6626 53.0671C38.7091 53.1712 38.8029 53.2634 38.8577 53.3604C38.8543 53.4066 38.8366 53.4363 38.8332 53.4825C38.6646 53.3538 38.4818 53.2086 38.2847 53.0468C38.2975 52.9781 38.3103 52.9094 38.316 52.8323C38.4145 52.8629 38.5211 52.8863 38.635 52.9179C38.6387 52.9724 38.6352 53.0186 38.6555 53.0588L38.6626 53.0671ZM9.79651 48.1004L15.4056 50.5762L15.4365 49.3239L14.3263 48.8389L14.3856 45.8463L15.5109 45.3954L15.5313 44.181L9.27944 46.6139L9.24855 47.8661L9.41342 47.9403C9.62024 47.762 9.82707 47.5838 10.0339 47.4055C9.93147 47.638 9.84445 47.8716 9.7811 48.0992L9.79651 48.1004ZM13.3974 46.2222L13.3513 48.4104L10.7644 47.266L13.3891 46.2293L13.3974 46.2222ZM11.315 47.5702C11.315 47.5702 11.4359 47.6101 11.5047 47.623C11.3748 47.8069 11.2379 47.9826 11.0656 48.2177C10.9623 48.1481 10.8662 48.0867 10.8662 48.0867C11.0032 47.911 11.1555 47.7365 11.315 47.5702ZM59.8735 25.0801C60.0375 25.2704 60.2109 25.4381 60.3749 25.6284C60.4962 25.769 60.6091 25.9168 60.7375 26.0657C60.7078 26.048 60.6781 26.0303 60.6402 26.0198C60.1861 25.8777 59.9662 25.6058 59.8832 25.1583C59.8701 25.1263 59.8795 25.1038 59.8735 25.0801ZM9.94753 41.8852L10.2289 40.8064L12.6449 41.4347C12.6846 41.6312 12.7088 41.8266 12.7721 42.0172C12.7972 42.0965 12.9396 42.1613 13.0274 42.2297C13.0046 42.1196 13.0055 42.0035 12.9507 41.9065C12.8768 41.7539 12.7876 41.6001 12.6983 41.4464L14.1043 41.8062C14.1043 41.8062 14.1613 41.8724 14.1827 41.8972C14.1993 41.8829 14.2087 41.8604 14.2181 41.8379L14.6888 41.9657C14.9303 42.3631 15.1092 42.7713 15.1519 43.2391L14.1644 42.98C14.1547 42.9019 14.1533 42.8166 14.1436 42.7384C14.0275 42.7375 13.8141 42.6907 13.8107 42.737C13.8001 42.7749 13.8038 42.8294 13.7921 42.8827L9.95466 41.8935L9.94753 41.8852ZM6.28559 39.2595C6.50387 38.509 6.76835 37.7619 7.04709 37.0314C7.20483 37.0973 7.37084 37.1561 7.52859 37.222C7.43561 37.0137 7.23653 36.5653 7.2294 36.557C7.5224 35.8431 7.83794 35.1385 8.18315 34.4516C8.19969 34.4374 8.21624 34.4231 8.21025 34.3994C8.3198 34.1752 8.43763 33.9439 8.56258 33.7208C8.61593 33.7325 8.66927 33.7442 8.72147 33.7713C8.71406 33.6624 8.7386 33.5403 8.71464 33.4456C8.84901 33.2 8.97511 32.9615 9.11661 32.7242C9.15569 32.7193 9.2019 32.7228 9.24099 32.7179C9.29547 32.7142 9.29862 32.5673 9.36681 32.3788C9.41616 32.2353 9.5046 32.0869 9.5919 31.954C9.69859 31.9774 9.8124 32.0091 9.90368 32.0313C9.85719 31.9272 9.82839 31.7934 9.75708 31.7107C9.79844 31.6751 9.78532 31.6431 9.79474 31.6206C10.5037 30.5192 11.2862 29.4698 12.1506 28.4652C13.1177 27.3288 14.1798 26.2692 15.3462 25.2637C15.611 25.0355 15.8757 24.8074 16.163 24.5886C17.6287 23.4117 19.1897 22.4123 20.802 21.5561C21.0541 21.9155 21.229 22.1685 21.4175 22.2367C21.5978 22.312 21.7886 22.3494 21.9795 22.3868C20.2499 23.2576 18.5848 24.3035 17.0127 25.5577C16.7479 25.7858 16.4689 25.9975 16.1959 26.2328C15.0377 27.2311 13.9817 28.3145 13.0146 29.4508C12.9472 29.5233 12.887 29.604 12.8186 29.6919C12.7687 29.634 12.7153 29.6223 12.6597 29.6414C12.2278 29.8262 11.6898 29.3526 11.3515 29.9471C11.0109 30.1542 10.8551 30.3749 11.0588 30.7618C11.1754 30.964 10.4081 30.6593 10.7541 31.1109C10.8813 31.2752 11.1529 31.3728 11.3745 31.4124C11.4053 31.4147 11.4444 31.4099 11.4906 31.4133C9.93296 33.6211 8.73358 36.0103 7.87452 38.5099C7.44006 38.6249 7.06893 38.9304 6.63562 39.0299C6.52551 39.0527 6.42395 39.1691 6.29044 39.2986L6.28559 39.2595ZM54.5185 32.2337L52.741 33.3332L53.2406 35.3683L51.6447 34.0186L49.8672 35.1182L50.6615 33.179L50.2684 32.8401C50.3497 32.6835 50.129 32.5278 50.0634 32.368C50.0038 32.2319 50.0908 31.9983 49.9981 31.8908L51.1533 31.9764L51.9476 30.0373L52.4473 32.0724L54.5268 32.2265L54.5185 32.2337ZM24.0035 20.051C24.7053 19.7777 25.4201 19.5365 26.141 19.3189C26.0728 19.5074 26.0403 19.7373 25.9281 19.8916C25.7476 20.1338 25.4566 20.2981 25.2238 20.5132C25.1411 20.5845 25.1522 20.7479 25.1194 20.8771C24.5494 20.8349 24.1141 20.6477 24.0035 20.051ZM52.4822 55.8341L51.9992 56.8128C51.9992 56.8128 52.0691 56.8103 52.0999 56.8126C52.0799 56.873 52.0517 56.9406 52.0046 57.0533L56.3222 62.0122L56.8782 60.884L56.0867 59.9657L57.4085 57.2836L58.6111 57.3572L59.166 56.2445L52.4751 55.8259L52.4822 55.8341ZM55.401 59.1869L53.5541 57.0443L56.3599 57.2213L55.3939 59.1787L55.401 59.1869ZM51.1956 61.8025L52.0583 64.8944C52.0583 64.8944 52.0443 64.9786 52.0255 65.0236C52.0492 65.0176 52.0646 65.0188 52.0882 65.0128L52.3455 65.9302L48.2596 64.636L51.137 67.6063L50.3277 68.3904L46.0186 63.9433L46.828 63.1591L50.9139 64.4533L49.7569 60.3173L50.5331 59.5617C50.5331 59.5617 50.5853 59.5888 50.6161 59.5911L54.867 63.9875L54.0659 64.7645L51.1885 61.7942L51.1956 61.8025ZM40.2531 54.1763C40.3173 54.2508 40.3744 54.3169 40.4243 54.3749C40.2702 54.3634 40.1279 54.2987 39.9701 54.2328C40.0566 54.2159 40.1524 54.1766 40.2389 54.1598L40.2531 54.1763ZM37.2042 52.1613C37.2241 52.1009 37.2512 52.0487 37.2795 51.9811C37.332 52.1089 37.4461 52.2412 37.4441 52.3727C37.5818 52.4991 37.7136 52.6018 37.8442 52.7199C37.8662 52.5279 37.9284 52.3157 38.0502 52.2396C38.3837 52.0242 38.4453 52.447 38.5879 52.6124C38.6521 52.6869 38.6193 52.8161 38.6255 52.9405C38.7085 52.9698 38.7998 52.9921 38.8982 53.0226C38.8737 53.1447 38.8646 53.268 38.84 53.39C38.8674 53.4385 38.8711 53.493 38.8523 53.5381C38.8951 53.5877 38.8845 53.6257 38.8751 53.6482C39.0365 53.7686 39.2145 53.8747 39.4008 53.9737C39.526 53.8513 39.6524 53.7136 39.7776 53.5912C39.9143 53.733 40.0674 53.8605 40.1958 54.0094C40.2315 54.0508 40.2352 54.1053 40.246 54.168C40.355 54.1606 40.4602 54.0987 40.5113 54.1412C40.5931 54.186 40.6585 54.2451 40.7321 54.297C41.0208 54.1635 41.6053 53.9048 42.7743 53.3874L42.1895 52.7091C41.5534 52.7239 41.0488 52.7407 40.6377 52.7489C40.5716 52.806 40.4828 52.8536 40.3682 52.938C40.381 52.8693 40.3844 52.8231 40.389 52.7614C40.1722 52.7609 39.9779 52.7697 39.8228 52.7737C39.7609 52.6684 39.693 52.5395 39.624 52.4259C39.61 52.5101 39.5806 52.5931 39.5666 52.6772C39.4611 52.6384 39.2916 52.6259 39.25 52.5608C39.1832 52.4165 39.1733 52.2376 39.1311 51.9712C39.2295 52.0017 39.3125 52.0311 39.3966 52.0451C38.9765 51.3402 38.4257 50.5172 37.831 49.66C37.7232 49.652 37.5643 49.6015 37.4919 49.5342C37.3458 49.4149 37.2694 49.1924 37.0503 48.8044C37.1405 48.8421 37.2164 48.8632 37.2994 48.8926C37.1163 48.6467 36.9343 48.3854 36.744 48.1312C38.2172 47.0633 40.3307 45.8183 42.966 44.3255C42.9181 44.136 42.8702 43.9466 42.8377 43.7584C42.6386 43.7281 42.4229 43.7121 42.2415 43.6522C42.1964 43.6334 42.2101 43.4485 42.1728 43.2212C42.1953 43.2306 42.219 43.2246 42.2415 43.234C42.1739 43.2058 42.1134 43.1858 42.0706 43.1362C42.0136 43.07 42.0216 42.9622 41.9976 42.8675C42.122 42.8612 42.2452 42.8703 42.3696 42.8641C42.3582 43.0181 42.3419 43.1331 42.3328 43.2563C42.4703 43.282 42.5852 43.2982 42.6506 43.3573C42.7005 43.4152 42.7575 43.4814 42.7897 43.569C42.9461 43.5496 43.2268 43.5239 43.2613 43.5807C43.3351 43.7333 43.409 43.8859 43.49 44.0468C43.7975 43.8683 44.1205 43.6908 44.4516 43.5063L44.1522 43.1588C44.1522 43.1588 44.1419 43.2975 44.1017 43.3177C44.0283 43.3665 43.9242 43.413 43.8566 43.3847C43.7736 43.3554 43.7188 43.2584 43.6712 43.1697C43.5951 43.0478 43.3686 42.9691 43.5375 42.7803C43.6473 42.6568 43.7243 42.6625 43.7825 42.7133L43.3689 42.2334C42.6335 42.3338 41.7218 42.514 40.7605 42.737C40.8138 42.7487 40.8672 42.7604 40.904 42.7864C41.0061 42.8714 41.1005 43.1649 41.0534 43.2776C41.0075 43.3749 40.7764 43.3577 40.5243 43.4165C40.4832 43.1346 40.3842 42.9027 40.4527 42.8149C38.6875 43.2261 36.7663 43.7574 35.231 44.2012C35.2216 44.2237 35.2062 44.2225 35.1836 44.2131C34.7481 44.3435 34.3207 44.4667 33.9644 44.5719C33.8218 44.4064 33.6792 44.241 33.5437 44.0838C31.7325 41.9825 30.4549 40.9352 29.5963 40.6083C29.5966 40.709 29.5957 40.8251 29.596 40.9258C29.5201 40.9047 29.4371 40.8753 29.2782 40.8248C29.3005 40.7335 29.3239 40.6268 29.3544 40.5284C29.0047 40.4405 28.7454 40.491 28.5551 40.655C28.0753 41.0686 28.2321 42.087 29.5262 43.9563C29.6046 44.0473 29.6819 44.1537 29.751 44.2673C30.1446 44.8076 30.626 45.4163 31.2179 46.103C31.3534 46.2602 31.496 46.4256 31.6386 46.5911C30.581 48.8437 28.6547 53.0996 27.946 55.5561L29.0299 56.8136C31.1038 54.1175 33.171 51.5138 34.7551 49.8888C35.5986 50.7335 36.4526 51.5403 37.2293 52.2406L37.2042 52.1613ZM38.5681 45.4631C38.7031 45.4188 38.85 45.422 38.9826 45.4086C39.0377 45.1881 39.0337 45.0329 39.1116 44.9225C39.147 44.8632 39.3152 44.8912 39.4325 44.8766C39.4376 45.0164 39.4653 45.1656 39.4171 45.2937C39.3982 45.3387 39.2348 45.3499 39.0134 45.4109C38.9912 45.5022 38.9689 45.5934 38.9338 45.7535C38.7655 45.7255 38.6434 45.701 38.5131 45.6836C38.527 45.5994 38.529 45.4679 38.561 45.4548L38.5681 45.4631ZM35.9549 45.5094C35.9549 45.5094 36.1563 45.5088 36.1551 45.5242C36.1914 45.767 36.2039 46.0157 36.2247 46.2573C36.1631 46.2528 36.1015 46.2482 35.9617 46.2533C35.9574 45.9975 35.9603 45.7499 35.9549 45.5094ZM35.6892 47.1082C35.6593 46.9898 35.3258 46.787 35.8233 46.7619C35.924 46.7617 36.0216 46.4901 36.1254 46.3429C36.2623 46.5854 36.4534 46.7235 36.7413 46.7061C36.7444 46.9774 36.8519 47.3028 36.7281 47.5105C36.5678 47.7929 36.0637 47.5929 35.6904 47.0928L35.6892 47.1082ZM32.3938 45.075C32.5798 45.0733 32.7729 45.0799 32.9589 45.0782C32.9378 45.154 32.9013 45.2288 32.8425 45.3948C32.7133 45.362 32.5829 45.3446 32.4631 45.2892C32.4109 45.2621 32.4118 45.146 32.3938 45.075ZM31.4488 44.3467C31.5743 44.325 31.6299 44.3059 31.6844 44.3022C31.608 44.4979 31.5232 44.7007 31.4468 44.8964C31.4017 44.8775 31.3187 44.8481 31.3198 44.8327C31.3561 44.6573 31.4077 44.483 31.4488 44.3467ZM32.924 46.1753C32.9665 46.1242 33.1337 46.1676 33.2426 46.1602C33.2324 46.2988 33.2672 46.4563 33.2118 46.5761C33.1847 46.6283 33.007 46.6228 32.7642 46.659C32.8276 46.4314 32.839 46.2774 32.9169 46.167L32.924 46.1753ZM36.6577 51.176C36.6577 51.176 36.7607 51.1449 36.7997 51.1401C37.1349 51.1107 37.4844 51.0979 37.8195 51.0686C37.7879 51.1824 37.7633 51.3045 37.7103 51.3935C37.4036 51.8741 37.0559 51.6547 36.6862 51.2091C36.6614 51.2305 36.6577 51.176 36.6577 51.176ZM41.028 61.4823C41.3486 61.3357 41.7257 61.4721 41.8794 61.801C42.0069 62.066 41.9307 62.3624 41.7157 62.5478C41.666 62.5906 41.6246 62.6262 41.5608 62.6525C41.2401 62.7991 40.863 62.6627 40.7093 62.3338C40.5544 62.0203 40.6991 61.636 41.0197 61.4894L41.028 61.4823ZM43.9811 67.401C43.6012 66.2577 42.3915 65.7575 41.1369 66.1756L38.5804 67.0238L40.53 72.8991L41.594 72.5443L40.9429 70.5677L42.0863 70.1878L44.1269 71.7021L45.3412 71.3042L43.1831 69.7038C43.9362 69.1556 44.2951 68.2839 43.9894 67.3939L43.9811 67.401ZM42.8934 67.7618C43.0893 68.3571 42.7082 68.9019 41.9862 69.1349L40.6204 69.5912L39.9812 67.662L41.3471 67.2057C42.0774 66.9656 42.6975 67.1664 42.9005 67.77L42.8934 67.7618ZM38.2445 73.2252L37.1349 73.3598L36.4213 67.2122L37.5309 67.0777L38.2445 73.2252ZM63.6449 41.1656C63.5288 41.1648 63.4364 41.1579 63.4162 41.1177C63.3195 40.855 63.3115 40.5446 63.2559 40.1455C63.3021 40.1489 63.3483 40.1524 63.3945 40.1558C63.3586 40.0137 63.3144 39.8788 63.2773 39.7522C63.0728 39.4814 62.9003 39.1976 63.0369 38.9212C62.4739 37.1138 61.737 35.3554 60.8177 33.6532C60.7823 33.7126 60.7469 33.7719 60.7022 33.8538C60.5013 33.6375 60.3042 33.4758 60.3291 33.4544C60.4118 33.3831 60.5028 33.3046 60.5998 33.2499C60.3391 32.7969 60.0784 32.3439 59.794 31.8968C59.7715 31.8874 59.7561 31.8863 59.7336 31.8769C58.9885 30.6445 58.1443 29.4977 57.1959 28.3974C56.5969 27.7025 55.9719 27.0444 55.3139 26.4148C55.1527 26.3951 54.9915 26.3754 54.8327 26.3249C54.7876 26.3061 54.793 26.1284 54.7711 25.9022C54.3863 25.5561 54.0015 25.2101 53.6002 24.8783C52.6443 24.0872 51.6354 23.3851 50.5994 22.7353C50.5532 22.7318 50.5141 22.7367 50.4679 22.7333C50.2237 22.6842 49.9462 22.5629 49.6878 22.4973C49.1258 22.3472 48.5915 22.3463 48.0065 21.9854C47.851 21.8887 47.6691 21.6274 47.4834 21.3116C47.3399 21.2623 47.2201 21.2069 47.1026 21.1208C47.0147 21.0523 46.9705 20.9174 46.9357 20.7599C46.6736 20.6398 46.4197 20.5126 46.1564 20.4079C46.1102 20.4044 46.0723 20.3939 46.0261 20.3904C45.8886 20.3648 45.688 20.2492 45.5232 20.175C44.5008 19.7585 43.442 19.4167 42.3786 19.1365C42.2188 19.2021 42.0602 19.2523 41.9005 19.3179C41.7053 19.861 40.0492 19.4285 39.7408 18.8867C39.7003 18.8063 39.726 18.6688 39.7577 18.555C35.453 17.8099 31.0004 18.0141 26.7389 19.1928C26.5985 19.4147 26.4604 19.6058 26.3378 19.7981C26.7172 19.9037 26.9944 19.9242 27.0207 19.9881C27.0803 20.1242 27.1162 20.2663 27.145 20.4C29.3504 19.7969 31.605 19.4684 33.8711 19.4041C33.884 19.3353 33.8956 19.282 33.9299 19.2381C33.9995 19.1348 34.2471 19.1377 34.5075 19.0718C34.4984 19.195 34.4844 19.2792 34.4764 19.387C34.724 19.3899 34.9716 19.3927 35.2192 19.3956C35.2155 19.3411 35.2035 19.2938 35.1998 19.2393C35.1973 19.1694 35.2657 19.0816 35.3023 19.0068C35.3593 19.073 35.4566 19.1189 35.4817 19.1982C35.515 19.2704 35.533 19.3414 35.5581 19.4207C38.7262 19.5162 41.8708 20.1366 44.8605 21.2798C44.5995 21.1443 44.3385 21.0088 44.0786 20.8578C44.0715 20.8496 44.015 20.5666 43.9203 20.1724C44.4081 20.4873 44.7356 20.6665 45.0573 20.9227C45.1309 20.9746 45.1588 21.2245 45.2067 21.4139C46.0571 21.748 46.8874 22.1425 47.7001 22.5668C47.9799 22.6572 48.2586 22.7631 48.5424 23.0087C48.6611 23.0794 48.7809 23.1348 48.9007 23.1901C49.2649 23.3953 49.6127 23.6146 49.9604 23.834C49.9281 23.7464 49.9113 23.66 49.8791 23.5724C49.943 23.5462 50.008 23.5046 50.0719 23.4783C50.1609 23.5314 50.2582 23.5773 50.3235 23.6364C50.4233 23.7522 50.5374 23.8845 50.5828 24.0041C50.6221 24.0999 50.6378 24.2018 50.6618 24.2965C51.5175 24.871 52.345 25.5132 53.1465 26.1921C53.2495 26.1611 53.3513 26.1454 53.4543 26.1143C53.4974 26.2646 53.525 26.4138 53.5681 26.5641C54.4909 27.3837 55.3782 28.2627 56.2054 29.2223C56.5049 29.5698 56.789 29.9161 57.0648 30.2696C57.2437 30.2596 57.4308 30.2425 57.6228 30.2645C57.8384 30.2805 58.197 30.5626 58.4745 30.6838C58.6773 30.7686 58.855 30.774 59.053 30.8197C58.9728 30.9609 58.8938 31.0867 58.8054 31.235C58.5079 31.1742 58.2175 31.1217 57.9199 31.0609C57.8204 31.0458 57.7351 31.0472 57.6427 31.0404C58.6202 32.3751 59.4616 33.7695 60.1752 35.2164C60.2 35.195 60.2034 35.1488 60.2437 35.1285C60.4636 34.9822 60.9474 35.142 61.3125 35.231C61.4417 35.2638 61.5738 35.4672 61.7033 35.6007C61.5564 35.5976 61.3966 35.6632 61.2697 35.5996C60.7679 35.3688 60.5939 35.4178 60.8857 35.9738C60.9607 36.111 60.973 36.259 61.016 36.4094C60.8358 36.3341 60.6566 36.2433 60.6709 36.2599C61.3802 37.8691 61.9392 39.5213 62.3336 41.2C62.3539 41.2403 62.367 41.2722 62.3872 41.3124C63.855 47.7328 63.0955 54.5301 60.1467 60.4604C60.1399 60.5528 60.133 60.6452 60.1108 60.7365C60.1013 60.759 60.0611 60.7793 59.9747 60.7961C58.3545 63.9518 56.1176 66.8604 53.2635 69.3205C41.3919 79.5533 23.4004 78.2194 13.1676 66.3478C12.1479 65.1648 11.2488 63.921 10.4611 62.639C10.4422 62.6841 10.4245 62.7138 10.4128 62.7671C10.1033 62.659 9.84719 62.5625 9.5899 62.4815C9.65009 62.4008 9.70544 62.281 9.78588 62.2405C9.92309 62.1655 10.0343 62.1272 10.1433 62.1198C9.04349 60.2416 8.19099 58.2656 7.56585 56.2522C7.19674 56.008 7.12145 55.7701 7.30033 55.342C5.82477 49.9665 5.98432 44.2631 7.69221 38.9843C7.45202 39.0904 7.20583 39.1728 7.0689 39.3485C6.84581 39.6418 6.34434 39.5117 6.12582 39.7433C6.08588 39.8642 6.0542 39.978 6.02139 40.1072C4.63214 45.371 4.67713 50.9269 6.20918 56.1671C6.28706 56.0568 6.39461 55.9641 6.60655 55.9256C6.66931 55.9147 6.7158 56.0188 6.77399 56.0696C6.56831 56.2325 6.568 56.55 6.37658 56.7294C6.9909 58.68 7.81002 60.5839 8.85166 62.4113C8.92812 62.2156 8.91815 62.0367 8.71876 61.9058C8.6891 61.8881 8.76213 61.7386 8.79266 61.6402C8.86255 61.6377 8.98806 61.616 8.99291 61.6551C9.09444 61.9569 9.32034 62.2524 9.22647 62.5785C9.19594 62.6769 9.15714 62.7824 9.13374 62.8891C9.8217 64.0553 10.5972 65.1892 11.4615 66.2755C11.4897 66.2079 11.5417 66.1343 11.5616 66.0738C11.6589 66.1198 11.781 66.1443 11.8452 66.2188C11.8808 66.2601 11.8409 66.3811 11.8306 66.5197C11.7618 66.5069 11.6931 66.494 11.6398 66.4823C11.8394 66.714 12.0154 66.9516 12.2151 67.1833C12.3292 67.3156 12.4361 67.4397 12.5514 67.5567C12.5713 67.4962 12.5842 67.4275 12.6042 67.367C12.724 67.4223 12.9005 67.4432 12.9624 67.5484C13.204 67.9458 13.4385 68.3349 13.6635 68.7465C24.5381 79.6899 42.2488 80.5306 54.1121 70.305C62.7241 62.8818 66.0182 51.5639 63.6663 41.1904L63.6449 41.1656ZM27.9663 20.0815C27.7683 20.0358 27.5196 20.0484 27.3889 19.9302C27.2868 19.8452 27.337 19.5857 27.3271 19.4068C27.4942 19.4502 27.6614 19.4935 27.8511 19.5463C27.8978 19.7511 27.9315 19.924 27.9663 20.0815ZM51.8473 24.6012C51.7181 24.5684 51.5095 24.5607 51.4608 24.4874C51.3572 24.3171 51.3413 24.1145 51.2551 23.8139C51.4485 23.9211 51.547 23.9517 51.5743 24.0001C51.6756 24.2013 51.746 24.4001 51.839 24.6083L51.8473 24.6012ZM53.7419 25.1598C53.8486 25.1832 54.0406 25.2052 54.0526 25.2526C54.0922 25.4491 54.0691 25.6565 54.0768 25.8662C53.9487 25.8179 53.8195 25.7851 53.593 25.7064C53.6563 25.4788 53.6985 25.327 53.7419 25.1598ZM56.3572 28.8464C56.2482 28.8538 56.1096 28.8435 56.0217 28.775C55.9624 28.7397 55.9584 28.5845 55.9345 28.4898C56.0648 28.5072 56.1869 28.5317 56.3635 28.5526C56.3615 28.6841 56.388 28.8487 56.3572 28.8464ZM54.7319 27.1616C54.7048 27.2138 54.3326 27.1165 54.3266 27.0928C54.2724 26.779 54.249 26.4675 54.2102 26.1549C54.4225 26.2171 54.6501 26.2804 54.969 26.366C54.8846 26.6695 54.8415 26.9374 54.7248 27.1533L54.7319 27.1616ZM61.5217 38.0499C61.9393 38.2667 62.0911 38.309 62.1766 38.4082C62.2978 38.5489 62.5554 38.7306 62.2468 38.9246C62.1652 38.9805 61.9293 38.9243 61.8508 38.8333C61.7439 38.7092 61.7114 38.5209 61.5217 38.0499ZM5.87447 53.3699C5.86336 53.2065 5.98831 52.9834 6.0565 52.7948C6.18229 52.8739 6.36485 52.9184 6.44101 53.0402C6.48864 53.1289 6.39792 53.308 6.3477 53.5676C6.11408 53.4806 5.89015 53.4717 5.88987 53.371L5.87447 53.3699ZM62.49 57.4745C62.49 57.4745 62.3668 57.4653 62.227 57.4704C62.2227 57.2146 62.2256 56.967 62.2202 56.7265C62.2972 56.7322 62.4216 56.7259 62.4205 56.7413C62.4567 56.9841 62.4692 57.2328 62.49 57.4745ZM33.9758 62.8026C34.323 62.8206 34.5951 63.1195 34.5842 63.475C34.5705 63.6598 34.4975 63.8093 34.3651 63.9234C34.241 64.0303 34.0824 64.0805 33.913 64.068C33.5658 64.05 33.2937 63.751 33.3046 63.3956C33.3225 63.0484 33.6215 62.7763 33.9769 62.7872L33.9758 62.8026ZM43.5674 34.3336C43.6119 34.5692 43.641 34.8037 43.7162 35.0416C43.7413 35.1209 43.8837 35.1856 43.9715 35.2541C43.9487 35.144 43.9496 35.0279 43.8948 34.9309C43.7936 34.7298 43.6769 34.5276 43.5603 34.3253C43.7602 34.2395 43.9924 34.2412 44.1753 34.3864C44.4625 34.5858 44.5335 34.986 44.327 35.265C44.2999 35.3172 44.2585 35.3528 44.2171 35.3885C44.002 35.5739 43.6834 35.589 43.433 35.4155C43.1457 35.2161 43.0759 34.8005 43.2741 34.5287C43.3437 34.4254 43.4561 34.3718 43.5531 34.317L43.5674 34.3336ZM27.7393 23.2475L28.7503 22.9817L29.7323 24.2549C29.6493 24.2255 29.5663 24.1961 29.4762 24.1584C29.5238 24.2472 29.5643 24.3276 29.6048 24.408C29.5609 24.3738 29.5169 24.3396 29.4741 24.2899C29.3601 24.1576 29.2956 23.9824 29.198 23.8358C29.0874 23.6572 28.9673 23.5012 28.8484 23.3297C28.8666 23.5015 28.892 23.6815 28.8877 23.8438C28.8751 24.0132 28.8865 24.2773 28.7907 24.3167C28.4381 24.4764 28.6092 24.675 28.8089 24.9066C28.9372 25.0555 29.0502 25.2033 29.1323 25.3488L28.5391 24.5768L28.4357 25.3436C28.2543 25.2837 28.1026 25.2415 27.958 25.2075C27.9448 25.1756 27.9317 25.1436 27.9269 25.1045C27.8344 25.0977 27.742 25.0908 27.6567 25.0922C27.5963 25.0723 27.5358 25.0523 27.4765 25.0169C27.4017 24.9804 27.3706 24.8774 27.3395 24.7745L27.4429 24.0077C27.6137 24.1055 27.7019 24.2747 27.8348 24.362C28.0353 24.4775 28.2701 24.5492 28.4954 24.6433C28.4757 24.3863 28.5106 24.1256 28.427 23.8948C28.3685 23.7433 28.2057 23.5376 28.0705 23.4811C28.0562 23.4646 28.0656 23.4421 28.0513 23.4255C28.0322 23.3699 27.9184 23.3382 27.7476 23.2404L27.7393 23.2475ZM25.1336 20.8937C25.1336 20.8937 25.1622 20.9268 25.1764 20.9433C25.1328 21.0098 25.0771 21.0289 25.0144 21.0397C25.0415 20.9875 25.0757 20.9436 25.1336 20.8937ZM22.6269 36.7383C22.7285 36.622 22.8728 36.5552 23.0209 36.543C23.123 36.628 23.3292 36.6665 23.5283 36.6967C23.7825 36.9247 23.8061 37.3369 23.5699 37.5982C23.5534 37.6124 23.5368 37.6267 23.512 37.6481C23.2638 37.862 22.9001 37.8583 22.6602 37.6469C22.3989 37.4107 22.3753 36.9985 22.6186 36.7455L22.6269 36.7383ZM41.929 33.035C42.2422 33.1976 42.3688 33.5787 42.2216 33.893C42.1851 33.9678 42.1331 34.0414 42.067 34.0984C41.885 34.2553 41.6031 34.2964 41.3635 34.1857C41.0492 34.0385 40.9071 33.6562 41.0709 33.3276C41.2264 33.0061 41.6004 32.8712 41.9372 33.0278L41.929 33.035ZM22.0637 30.1295L22.0443 29.9732C22.4077 30.2944 22.7794 30.6085 23.1593 30.9154L23.2163 31.3998C23.2163 31.3998 23.1168 31.3847 23.048 31.3718C23.0685 31.5128 23.0748 31.6371 23.0845 31.7153L19.4071 29.9248L21.8224 33.279L20.9061 33.939L17.2826 28.9154L18.1989 28.2554L22.0637 30.1295ZM23.1305 21.7984C23.0181 21.852 22.8915 21.8891 22.7708 21.9498C22.7172 21.8374 22.6718 21.7179 22.6171 21.6209C22.6479 21.6232 22.6798 21.6101 22.7106 21.6124C22.9049 21.6035 23.0507 21.6221 23.1234 21.7901L23.1305 21.7984ZM22.0226 29.8477L21.9063 28.9097C21.9063 28.9097 21.928 29.0352 21.9471 29.0909C22.0831 29.4494 22.0885 29.6899 22.0226 29.8477ZM30.2058 24.9715C30.2058 24.9715 30.2674 24.976 30.3053 24.9866L32.8413 28.28L31.6481 28.602L30.8979 27.6481L29.9414 27.9102C29.5546 27.6956 29.1773 27.4585 28.801 27.2061L30.2547 26.8182L29.9016 26.3584C30.0785 26.0617 30.1461 25.6718 30.216 25.251C30.2323 25.1361 30.2226 25.0579 30.2129 24.9797L30.2058 24.9715ZM49.634 45.4703C49.5821 45.1258 49.8241 44.7875 50.1758 44.7438C50.5204 44.6919 50.8504 44.941 50.9023 45.2856C50.9243 45.5118 50.8384 45.73 50.6895 45.8584C50.5985 45.9368 50.4861 45.9904 50.3688 46.005C50.016 46.064 49.6942 45.8078 49.6423 45.4632L49.634 45.4703ZM39.0995 33.2821C38.7663 33.18 38.5604 32.824 38.6625 32.4908C38.7647 32.1576 39.1278 31.96 39.461 32.0621C39.7942 32.1642 39.9918 32.5274 39.8897 32.8606C39.858 32.9744 39.7884 33.0776 39.6974 33.1561C39.5319 33.2987 39.3035 33.3514 39.0912 33.2892L39.0995 33.2821ZM48.0262 38.5362C48.0005 38.6737 47.9358 38.8161 47.82 38.9159C47.5007 39.1478 47.1025 39.0873 46.8838 38.8C46.6721 38.521 46.7409 38.1157 47.0199 37.9041C47.1109 37.8256 47.221 37.8028 47.3382 37.7883C47.4369 37.9195 47.5273 38.0578 47.6118 38.1725C47.7116 38.2883 47.7795 38.4173 47.8628 38.5474C47.9173 38.5437 47.9646 38.5317 48.0191 38.528L48.0262 38.5362ZM49.894 43.5303C49.5532 43.6367 49.1949 43.4553 49.0885 43.1144C48.9739 42.7806 49.1636 42.4152 49.5045 42.3088C49.8382 42.1942 50.2036 42.3839 50.31 42.7248C50.3924 42.971 50.3102 43.2437 50.12 43.4077C50.0621 43.4576 49.9733 43.5052 49.9012 43.5386L49.894 43.5303ZM31.2975 63.7269C30.9466 63.6544 30.7241 63.3127 30.7966 62.9618C30.8762 62.6192 31.218 62.3968 31.5688 62.4693C31.9114 62.5489 32.1339 62.8906 32.0543 63.2332C32.0203 63.3778 31.9496 63.4965 31.842 63.5892C31.7014 63.7104 31.4954 63.7726 31.2975 63.7269ZM45.2971 36.0726C45.4979 35.8707 45.8023 35.839 46.0479 35.9734C46.0707 36.0835 46.0946 36.1782 46.1092 36.2954C46.124 36.5134 46.1625 36.7253 46.2578 36.9028C46.2412 36.917 46.2389 36.9478 46.2141 36.9692C45.9246 37.2188 45.5454 37.2139 45.2996 36.9789C45.1629 36.8371 45.1068 36.6548 45.1205 36.47C45.1618 36.4343 45.1499 36.3869 45.145 36.3479C45.1755 36.2495 45.2215 36.1522 45.2971 36.0726ZM45.0376 59.6267C44.8023 59.3537 44.8083 58.9592 45.0659 58.7227C45.3164 58.478 45.7181 58.4923 45.9699 58.751C46.2147 59.0015 46.1921 59.4103 45.9345 59.6467C45.6532 59.8892 45.2752 59.8689 45.0376 59.6267ZM47.7049 57.7025C47.7049 57.7025 47.6387 57.7596 47.6056 57.7881C47.3823 57.9806 47.04 58.0017 46.7978 57.8211C46.5117 57.6063 46.4644 57.2001 46.678 56.9294C46.8846 56.6505 47.2991 56.596 47.5698 56.8097C47.8487 57.0162 47.9032 57.4307 47.6895 57.7014L47.7049 57.7025ZM33.4704 22.3017L34.5875 22.2761L34.6737 25.1866C34.559 25.271 34.5345 25.3931 34.4426 25.5876C34.5339 25.6099 34.6027 25.6227 34.6868 25.6367L34.7634 28.469L33.6925 28.498C33.6925 28.498 33.6745 28.427 33.6543 28.3868C33.64 28.3702 33.5581 25.7156 33.5581 25.7156C33.6114 25.7273 33.6659 25.7236 33.7192 25.7353C33.9183 25.7656 34.1163 25.8112 34.3071 25.8486C34.2484 25.5964 34.205 25.3454 34.1403 25.0696C33.9221 24.9837 33.7193 24.899 33.5165 24.8142L33.4897 23.7126C33.5904 23.7123 33.6994 23.7049 33.7764 23.7106C33.7368 23.514 33.6889 23.3246 33.6372 23.0807C33.5685 23.0679 33.5223 23.0645 33.4689 23.0528L33.4467 22.3077L33.4704 22.3017ZM35.9526 28.41L36.9711 22.2979L38.0722 22.488L37.5839 25.4178C37.5839 25.4178 37.4618 25.3933 37.4085 25.3816C37.3774 25.2786 37.364 25.1459 37.2998 25.0715C37.2 24.9557 37.0411 24.9052 36.9153 24.8261C36.9381 24.9362 36.968 25.0546 37.004 25.1967C37.1309 25.2603 37.2661 25.3168 37.3931 25.3804C37.3314 25.3759 37.2781 25.3642 37.2176 25.3442C37.2752 25.6118 37.2926 25.8996 37.4141 26.1409C37.4284 26.1575 37.4498 26.1823 37.4712 26.2071L37.238 27.576L39.5942 27.9675C39.5942 27.9675 39.5836 28.0055 39.5814 28.0363C39.5548 28.2899 39.4786 28.5863 39.866 28.584C40.0129 28.5872 40.1598 28.5903 40.2902 28.6077L40.2063 29.1126L37.8122 28.7105C37.8122 28.7105 37.7799 28.6229 37.7525 28.5745C37.712 28.494 37.6231 28.4409 37.5506 28.3736C37.4796 28.3916 37.4168 28.4024 37.3458 28.4204C37.3638 28.4914 37.3817 28.5624 37.3997 28.6335L36.7727 28.525C36.785 28.2549 36.8055 27.9776 36.7799 27.6969C36.7773 27.6271 36.5757 27.5269 36.4641 27.4644C36.3894 27.4279 36.3112 27.4376 36.2271 27.4236C36.2647 27.7517 36.3095 28.088 36.352 28.4551L35.962 28.3875L35.9526 28.41ZM58.5374 71.8257C58.9131 71.4586 59.2734 71.0903 59.6195 70.7056C59.6868 70.6331 59.7541 70.5607 59.8214 70.4882C60.2006 70.0749 60.5654 69.645 60.9232 69.2069C60.9563 69.1784 60.9834 69.1262 61.0165 69.0977C61.4084 68.6156 61.7933 68.1253 62.1473 67.6327C62.1473 67.6327 61.9847 67.5277 61.8743 67.4498C61.8752 67.3337 61.8772 67.2022 61.8792 67.0707C61.9742 67.1474 62.1023 67.1956 62.157 67.2926C62.1987 67.3577 62.2072 67.4512 62.2169 67.5294C62.5792 67.0297 62.919 66.5205 63.2516 66.0031C63.6102 65.4488 63.9286 64.9149 64.2316 64.3797C64.1603 64.297 64.089 64.2143 64.0876 64.129C64.0893 63.8968 64.1452 63.5602 64.3001 63.4555C64.4953 63.3306 64.5891 63.4227 64.6724 63.5528C68.2856 56.7038 69.4117 48.8262 67.9646 41.2923C67.8696 40.7973 67.7604 40.2859 67.6417 39.7969C67.6417 39.7969 67.6112 39.8954 67.5841 39.9476C67.4774 39.9242 67.379 39.8936 67.2723 39.8702C67.195 40.182 67.1023 40.4926 67.025 40.8044C66.8329 41.6188 66.536 41.7594 65.8146 41.3575C65.7624 41.3303 65.7185 41.2961 65.6745 41.2619C67.2954 49.0643 65.9239 57.3263 61.702 64.2387C61.7933 64.2609 61.8774 64.2749 61.8905 64.3069C61.9302 64.5034 61.907 64.7108 61.9147 64.9204C61.7867 64.8722 61.6574 64.8394 61.4309 64.7607C61.4426 64.7073 61.4615 64.6623 61.4732 64.6089C59.849 67.1912 57.8133 69.5804 55.3811 71.6769C45.0565 80.5762 30.5911 81.6101 19.3314 75.3389C18.4525 75.8081 18.3951 76.4776 18.097 77.0518C18.0781 77.0968 18.0593 77.1419 18.0333 77.1787C18.3976 77.3838 18.763 77.5735 19.1284 77.7633C19.2103 77.8081 19.2921 77.8528 19.3823 77.8905C19.7477 78.0802 20.1142 78.2545 20.489 78.4217C20.5638 78.4582 20.6314 78.4865 20.7061 78.523C21.1035 78.6996 21.5008 78.8762 21.8993 79.0374C21.9372 79.048 21.9823 79.0668 22.012 79.0845C22.433 79.2551 22.8694 79.4268 23.2999 79.5749C23.3364 79.5002 23.3646 79.4326 23.406 79.3969C23.4722 79.3399 23.6345 79.3442 23.6619 79.3927C23.6975 79.434 23.6316 79.5918 23.5654 79.6488C29.2182 81.64 35.35 82.0791 41.2512 80.9291C41.276 80.9077 41.3068 80.9099 41.3293 80.9194C43.3729 80.5133 45.384 79.9189 47.3472 79.1352C47.4194 79.1018 47.4987 79.0767 47.5791 79.0362C48.1779 78.7941 48.7624 78.5354 49.3409 78.253C49.3894 78.2257 49.4368 78.2137 49.4853 78.1863C50.1194 77.8848 50.7404 77.5514 51.3543 77.2097C51.3874 77.1812 51.4276 77.1609 51.4596 77.1478C52.0013 76.8395 52.5288 76.5146 53.0491 76.1815C53.204 76.0768 53.3589 75.9721 53.5209 75.8757C53.9443 75.5973 54.3533 75.3024 54.7624 75.0075C54.9185 74.8874 55.0734 74.7827 55.2294 74.6626C55.7708 74.2536 56.3063 73.8209 56.8275 73.3717C57.3156 72.9509 57.7812 72.5208 58.2396 72.0824C58.3389 71.9968 58.4239 71.8947 58.516 71.8009L58.5374 71.8257ZM66.7255 48.1857C66.8784 48.2125 67.0396 48.2322 67.1831 48.2815C67.2056 48.291 67.2666 48.5123 67.2347 48.5254C67.0997 48.5696 66.9517 48.5819 66.748 48.6133C66.7381 48.4344 66.7318 48.31 66.7101 48.1845L66.7255 48.1857ZM67.0771 49.8148C67.4095 49.6148 67.4372 49.3458 67.3804 48.9622C67.3719 48.8686 67.4922 48.7072 67.561 48.72C67.6748 48.7517 67.8659 48.8898 67.8981 48.9773C67.9543 49.1596 67.9905 49.4024 67.9187 49.5364C67.7395 49.8639 67.2874 50.0085 67.424 50.5685C67.4288 50.6075 67.2334 50.6318 67.0026 50.7153C67.024 50.322 66.9388 49.9052 67.0925 49.8159L67.0771 49.8148ZM64.7658 60.9345C64.7658 60.9345 64.7986 60.8052 64.8411 60.7542C64.8577 60.7399 64.9347 60.7456 64.9644 60.7633C65.1792 60.8954 65.3323 61.4411 65.2145 61.6724C65.2051 61.695 65.1649 61.7152 65.1483 61.7295C65.0818 61.6858 64.9669 61.6696 64.9478 61.614C64.8713 61.3915 64.8032 61.1618 64.7587 60.9262L64.7658 60.9345ZM62.6444 64.8971C62.8649 64.9522 63.0355 64.9493 63.1305 65.0261C63.2469 65.1276 63.2959 65.3016 63.3626 65.446C63.1481 65.4146 62.9171 65.3975 62.7131 65.3281C62.6681 65.3093 62.6818 65.1244 62.6444 64.8971ZM30.2065 79.1732C30.2079 79.2584 30.0815 79.3962 30.0108 79.5149C29.9278 79.4855 29.8448 79.4561 29.7392 79.4173C29.8288 79.2536 29.9078 79.1278 29.9797 78.9937C30.0605 79.0539 30.2051 79.0879 30.2065 79.1732ZM57.3713 71.6773C57.2572 71.5449 57.0744 71.3997 57.0764 71.2682C57.0781 71.036 57.134 70.6994 57.2889 70.5947C57.6224 70.3794 57.684 70.8021 57.8266 70.9676C57.9122 71.0669 57.8252 71.3005 57.8848 71.4366C57.9695 71.6519 58.3206 71.8251 57.9315 72.0596C57.7375 72.1691 57.7161 72.1443 57.3784 71.6855L57.3713 71.6773ZM21.714 21.0583C22.3162 20.77 22.9244 20.5053 23.5397 20.2489C23.5379 20.4811 23.3582 20.6072 23.0493 20.7004C22.7238 20.808 22.4365 21.0267 22.1111 21.1342C21.9998 21.1725 21.8575 21.1077 21.7223 21.0512L21.714 21.0583ZM49.3038 31.8548C49.3038 31.8548 49.2804 31.9615 49.2769 32.0077L49.0727 31.8377L49.3038 31.8548ZM26.3945 19.7636C26.5483 20.0925 26.6247 20.315 26.7365 20.4782C26.5152 20.5392 26.2926 20.6156 26.0701 20.6921C26.0799 20.352 26.2188 20.0448 26.3863 19.7707L26.3945 19.7636ZM50.4577 48.5671C50.1094 48.5645 49.829 48.2727 49.8244 47.9161C49.827 47.5678 50.1117 47.2792 50.4683 47.2746C50.8166 47.2772 51.1041 47.5773 51.1015 47.9256C51.0949 48.1188 51.0125 48.2908 50.8801 48.4048C50.7643 48.5047 50.62 48.5714 50.4577 48.5671ZM43.0125 61.1416C42.8091 60.8554 42.8851 60.4584 43.1783 60.2633C43.4716 60.0682 43.8686 60.1441 44.0637 60.4373C44.2528 60.7069 44.1875 61.066 43.9476 61.2728L43.8897 61.3228C43.5964 61.5179 43.1993 61.442 43.0042 61.1487L43.0125 61.1416ZM60.2691 51.1841L54.0842 50.834L54.1439 49.7155L59.3039 49.9974L59.3953 48.3469C59.4318 48.2722 59.4755 48.2057 59.4966 48.1299C59.5576 47.933 59.6486 47.8546 59.4176 47.8375L59.4693 46.8268L60.4953 46.8796L60.262 51.1759L60.2691 51.1841ZM38.7062 54.6734C39.1603 54.8155 39.619 54.896 40.0765 54.9918C39.8748 55.3099 39.5599 55.7976 39.0857 56.5524L38.501 55.874C38.5826 55.3999 38.6502 55.01 38.7062 54.6734ZM59.5518 54.3835L53.5344 52.9229L53.8004 51.8429L57.2465 52.6793C57.2465 52.6793 57.2716 52.7586 57.2941 52.768C57.5739 52.8584 57.8572 52.9026 58.1998 52.9823C58.1867 52.9503 58.1878 52.9349 58.1818 52.9112L59.8177 53.3036L59.5518 54.3835ZM48.999 55.7076C48.8004 55.8787 48.5114 55.9115 48.2813 55.7782C47.9609 55.6074 47.8497 55.2274 48.0123 54.9142C48.1749 54.601 48.5703 54.4909 48.8835 54.6535C49.2038 54.8244 49.3151 55.2044 49.1442 55.5247C49.1005 55.5912 49.0569 55.6576 48.999 55.7076ZM49.0381 41.1823C48.7164 41.3443 48.331 41.2151 48.1678 40.9087C48.013 40.5952 48.1422 40.2098 48.4486 40.0467C48.755 39.8836 49.1475 40.0211 49.3106 40.3274C49.4381 40.5925 49.3833 40.9137 49.16 41.1062C49.1269 41.1347 49.0855 41.1704 49.0381 41.1823ZM24.2619 60.3322C23.9994 60.1114 23.9604 59.6981 24.1812 59.4356C24.4103 59.1661 24.8236 59.127 25.086 59.3478C25.3556 59.5769 25.3875 59.982 25.1738 60.2527C25.149 60.2741 25.1159 60.3026 25.0911 60.324C24.8595 60.5236 24.5029 60.5282 24.2547 60.3239L24.2619 60.3322ZM26.4186 61.8473C26.1065 61.6693 26.0118 61.2751 26.1887 60.9784C26.3667 60.6664 26.761 60.5717 27.0576 60.7486C27.3697 60.9266 27.4644 61.3208 27.2875 61.6175C27.2438 61.6839 27.2096 61.7279 27.1517 61.7778C26.9531 61.9489 26.6488 61.9806 26.4115 61.8391L26.4186 61.8473ZM22.4096 57.5309C22.6743 57.3027 23.0748 57.3324 23.3101 57.6054C23.3244 57.6219 23.3315 57.6302 23.3458 57.6468C23.574 57.9115 23.5514 58.3203 23.2867 58.5484C23.022 58.7766 22.6132 58.7541 22.385 58.4893L22.3351 58.4314C22.1069 58.1667 22.1295 57.7579 22.4025 57.5226L22.4096 57.5309ZM21 55.4439C21.3004 55.257 21.6963 55.3483 21.8831 55.6487C22.0486 55.9243 21.9915 56.2763 21.7599 56.476C21.735 56.4974 21.7102 56.5187 21.6854 56.5401C21.3779 56.7187 20.982 56.6274 20.7951 56.327C20.6154 56.0349 20.6996 55.6307 21.0071 55.4521L21 55.4439ZM39.1263 63.5252C38.7866 63.6162 38.4295 63.4193 38.3385 63.0796C38.2475 62.7398 38.4515 62.391 38.7912 62.3C39.1321 62.1936 39.481 62.3976 39.5791 62.7456C39.6461 62.9907 39.5579 63.2397 39.3759 63.3966C39.3097 63.4536 39.221 63.5012 39.1335 63.5335L39.1263 63.5252ZM36.8859 63.8702C36.7866 63.9558 36.6742 64.0094 36.5345 64.0145C36.1827 64.0581 35.8681 63.8102 35.8245 63.4585C35.788 63.1151 36.0371 62.785 36.3959 62.7497C36.7394 62.7132 37.054 62.9611 37.0976 63.3128C37.1196 63.539 37.0348 63.7418 36.8859 63.8702ZM21.8781 28.5591L21.5354 25.8697L22.4434 25.2168L23.8895 27.2291C23.8895 27.2291 23.8932 27.2836 23.8909 27.3144C23.9217 27.3167 23.93 27.3096 23.9454 27.3107L24.1844 27.6382C23.5515 27.5061 22.8475 26.9738 22.1717 26.792C21.7082 26.6725 21.5054 27.0059 21.9854 27.5294C22.2706 27.8603 22.5724 28.1769 22.8659 28.5007L23.0222 29.7359C22.8105 29.4569 22.6072 29.1708 22.3884 28.8835C22.26 28.7346 22.0572 28.6499 21.8804 28.5283L21.8781 28.5591ZM28.797 62.9839C28.4578 62.8581 28.2992 62.4901 28.4322 62.1593C28.5569 61.8355 28.9331 61.6698 29.2569 61.7945C29.5878 61.9274 29.7463 62.2954 29.6134 62.6263C29.5829 62.7247 29.5144 62.8126 29.4399 62.8767C29.2662 63.0265 29.0223 63.0781 28.797 62.9839ZM15.2898 42.1109L15.8517 42.261C15.5342 42.2607 15.4027 42.2587 15.2898 42.1109ZM25.2589 29.3364C25.3279 29.4499 25.2349 29.6599 25.2069 29.8282C25.0597 29.7243 24.9031 29.643 24.7725 29.5249C24.7226 29.467 24.7389 29.3521 24.716 29.2419C24.946 29.2745 25.1958 29.2465 25.2589 29.3364ZM16.2323 42.3512L16.2089 42.4579C16.1589 42.3999 16.1019 42.3338 16.0426 42.2984L16.2405 42.344L16.2323 42.3512ZM19.9487 53.1201C20.2765 52.9818 20.6513 53.1489 20.7825 53.4684C20.8874 53.724 20.8113 54.0204 20.6127 54.1916C20.5548 54.2415 20.5134 54.2771 20.4413 54.3105C20.1064 54.4405 19.7387 54.2816 19.6158 53.955C19.4774 53.6272 19.6363 53.2596 19.9558 53.1284L19.9487 53.1201ZM18.8032 51.4399C18.7205 51.093 18.9316 50.7524 19.2785 50.6697C19.6243 50.6024 19.966 50.7981 20.0487 51.145C20.1003 51.3889 20.0133 51.6225 19.8395 51.7723C19.7651 51.8364 19.6681 51.8912 19.5663 51.9069C19.2194 51.9896 18.8788 51.7785 18.7961 51.4316L18.8032 51.4399ZM19.3725 44.3884C19.0382 44.3016 18.8168 43.9445 18.9119 43.603C18.9986 43.2687 19.3475 43.0545 19.6889 43.1495C20.0315 43.2291 20.2374 43.5852 20.1578 43.9277C20.1167 44.0641 20.0471 44.1674 19.9479 44.2529C19.799 44.3813 19.593 44.4435 19.3725 44.3884ZM19.4749 49.2748C19.3756 49.3604 19.2395 49.42 19.0915 49.4323C18.7338 49.4522 18.4357 49.19 18.4003 48.8312C18.3721 48.4806 18.6426 48.1754 19.0014 48.14C19.352 48.1118 19.6572 48.3823 19.6926 48.7411C19.7085 48.9437 19.6166 49.1382 19.4677 49.2665L19.4749 49.2748ZM27.99 27.8042C27.9261 28.2486 27.875 28.6243 27.8168 28.9917C27.8168 28.9917 27.6936 28.9826 27.6342 28.9472C27.3387 28.7549 27.2038 27.9627 27.4557 27.8033C27.5527 27.7485 27.7116 27.799 27.9971 27.8125L27.99 27.8042ZM49.3885 53.4829C49.0564 53.3653 48.8742 53.0033 48.9917 52.6713C49.1093 52.3393 49.4713 52.157 49.8033 52.2746C50.1436 52.385 50.3176 52.7541 50.2001 53.0861C50.1613 53.1917 50.0928 53.2795 50.0101 53.3508C49.8363 53.5006 49.6078 53.5533 49.3814 53.4746L49.3885 53.4829ZM29.9756 32.9851C29.9748 33.1012 29.936 33.2068 29.8746 33.3029C29.7394 33.2464 29.6042 33.1899 29.469 33.1334C29.6096 33.0122 29.7334 32.8046 29.843 32.5803C29.9075 32.7555 29.9374 32.8739 29.9756 32.9851ZM26.4995 33.7032C26.5608 33.6071 26.6293 33.5192 26.7262 33.4644C26.7762 33.5223 26.8189 33.572 26.8452 33.6359C27.1182 33.8187 27.3829 34.0087 27.6476 34.1987C27.6076 34.3197 27.5523 34.4395 27.453 34.5251C27.4282 34.5465 27.3951 34.575 27.3395 34.5941C27.194 34.6762 27.0388 34.6802 26.8859 34.6534C26.933 34.5407 26.8457 34.2555 26.7353 34.1776C26.6914 34.1433 26.6073 34.1294 26.522 34.1308C26.4849 34.0041 26.5365 33.8298 26.49 33.7257L26.4995 33.7032ZM25.4651 29.7931C25.41 29.5954 25.2957 29.3624 25.3071 29.2083L25.6579 29.699C25.5858 29.7324 25.5219 29.7586 25.4568 29.8002L25.4651 29.7931ZM34.2845 31.3763C34.6411 31.3717 34.9309 31.641 34.9426 32.0059C34.8159 32.043 34.7009 32.0267 34.5834 31.9405C34.4576 31.8615 34.3541 32.1094 34.113 32.3316C34.2839 32.4295 34.4239 32.525 34.5651 32.6052C34.493 32.6386 34.4136 32.6637 34.3284 32.6651C33.9718 32.6696 33.6749 32.392 33.6703 32.0355C33.6575 31.686 33.9351 31.3891 34.2999 31.3774L34.2845 31.3763ZM36.1925 32.0676C36.2496 31.7156 36.5617 31.4754 36.9148 31.5171C36.9374 31.5265 36.9599 31.5359 36.9753 31.5371C36.979 31.5915 36.9899 31.6543 36.9842 31.7313C37.1014 31.7168 37.2092 31.7248 37.2577 31.6974C37.4026 31.832 37.4896 32.0166 37.4582 32.2311C37.4302 32.3994 37.3501 32.5406 37.2425 32.6333C37.1019 32.7545 36.9196 32.8107 36.7276 32.7887C36.3745 32.7471 36.1355 32.4196 36.1771 32.0664L36.1925 32.0676ZM29.131 32.9922C29.2591 33.0404 29.3635 33.0946 29.4761 33.1417C29.4017 33.2059 29.3284 33.2547 29.2359 33.2478C29.1897 33.2444 29.1578 33.2575 29.1116 33.2541C29.109 33.1842 29.1159 33.0918 29.1238 32.9839L29.131 32.9922ZM27.7801 23.4286C27.6888 23.4064 27.6141 23.3699 27.5476 23.3262C27.5499 23.2954 27.7156 23.2535 27.7156 23.2535C27.7419 23.3174 27.761 23.373 27.7801 23.4286ZM24.4512 35.8436C24.2954 35.6462 24.2829 35.3974 24.3759 35.1875C24.5881 35.2497 24.8038 35.2657 25.0254 35.3054C24.9504 35.1681 24.9014 34.9941 24.7933 34.8855C24.779 34.8689 24.7482 34.8666 24.7328 34.8655C24.9801 34.7677 25.2694 34.8356 25.4548 35.0507C25.6593 35.3214 25.6307 35.7065 25.366 35.9347C25.0764 36.1842 24.6782 36.1237 24.45 35.859L24.4512 35.8436ZM28.8143 33.294C28.9079 33.2854 29.0026 33.2615 29.1187 33.2623C29.113 33.3394 29.1178 33.3784 29.1178 33.3784C29.2838 33.4372 29.451 33.4806 29.6253 33.5322C29.6088 33.5465 29.5922 33.5608 29.5603 33.5739C29.2739 33.6765 28.9655 33.553 28.7989 33.2928L28.8143 33.294ZM50.1246 51.0748C49.7655 51.0094 49.5418 50.6831 49.5989 50.3311C49.656 49.9791 49.9906 49.7483 50.3426 49.8054C50.6946 49.8625 50.9182 50.1888 50.8612 50.5408C50.8343 50.6937 50.7553 50.8195 50.6478 50.9122C50.5071 51.0335 50.3166 51.0968 50.1257 51.0594L50.1246 51.0748ZM27.1726 26.0863L27.2562 25.4807C27.4544 25.6271 27.6727 25.713 27.9086 25.7692C28.0766 25.6964 28.2517 25.632 28.4115 25.5664L28.2408 26.8238C28.0046 26.6669 27.2901 26.1725 27.1726 26.0863ZM31.6601 31.6773C32.013 31.6183 32.3453 31.8366 32.4043 32.1894C32.4488 32.4251 32.3547 32.6504 32.1975 32.7859C32.1148 32.8572 32.0178 32.912 31.8994 32.9419C31.5465 33.0009 31.2225 32.7756 31.1552 32.4298C31.0962 32.077 31.3215 31.7529 31.6673 31.6856L31.6601 31.6773Z" fill="#505050" fill-opacity="0.5"/>
<g opacity="0.5">
<g clip-path="url(#clip0_0_1)">
<path d="M44.5627 31.4609C44.6285 31.4507 44.6988 31.4263 44.7689 31.3902C44.6986 31.4146 44.6284 31.439 44.5627 31.4609Z" fill="#3F3F3F"/>
<path d="M77.4088 7.94081C77.4975 7.88326 77.5931 7.81622 77.6865 7.75626C77.7659 7.70354 77.8451 7.63905 77.922 7.58164C78.0595 7.46939 78.2321 7.34494 78.4211 7.21794L78.4316 7.11194C78.4951 7.10881 78.5539 7.10809 78.6056 7.10511C78.9138 6.91078 79.255 6.72311 79.5593 6.59C79.6294 6.55386 79.6878 6.51785 79.7322 6.48908C80.1213 6.17612 80.7311 6.01577 81.2741 5.78329C81.362 5.47165 81.2328 5.09442 81.1954 4.73489C80.8455 5.365 80.3827 5.61533 79.4482 5.582C79.3593 5.62778 79.2753 5.68292 79.1561 5.75025C79.1374 5.75989 79.1165 5.77661 79.0955 5.79334C79.2004 5.905 79.2864 6.01453 79.2548 6.1255C79.1941 6.35211 78.4511 6.58702 78.6682 6.83613C77.985 6.76209 78.4108 6.56634 78.3805 6.3926C78.373 6.35504 78.3608 6.3199 78.3508 6.27767C77.8978 6.55846 77.4071 6.83501 77.0024 7.02581C76.9533 7.05699 76.9043 7.08817 76.8483 7.12885C76.748 7.1983 76.6477 7.26776 76.545 7.33253C76.5886 7.63552 76.3877 7.94618 76.9001 8.28581C77.0704 8.16845 77.2454 8.04867 77.4181 7.93599L77.4088 7.94081Z" fill="#3F3F3F"/>
<path d="M43.6172 32.2559C43.5741 32.3906 43.5317 32.584 43.5034 32.7702C43.9349 32.6544 44.3616 32.5292 44.7906 32.3969C44.4524 32.2575 43.9768 32.4257 43.6218 32.2535L43.6172 32.2559Z" fill="#3F3F3F"/>
<path d="M46.5174 31.7971C48.9648 30.8615 51.2369 29.6433 53.3818 28.2244C53.4705 28.1668 53.5546 28.1117 53.6409 28.0494C55.5598 26.4215 57.3788 25.2888 59.3214 23.6723C59.3633 23.6389 59.4075 23.5983 59.4518 23.5578C59.496 23.5172 59.5426 23.4814 59.5821 23.4433C59.6636 23.3717 59.7498 23.2977 59.8312 23.2261C60.5097 22.7167 61.1372 21.695 61.7979 21.4611C61.8421 21.4206 61.8816 21.3824 61.9258 21.3419C62.1701 21.1154 62.4168 20.8936 62.6611 20.6671C62.7053 20.6266 62.7495 20.586 62.7937 20.5455C63.1285 19.8285 63.8151 19.4037 64.4733 18.9699C64.5175 18.9293 64.5617 18.8888 64.6035 18.8436C64.9664 18.5027 65.3269 18.1572 65.6944 17.8139C65.7735 17.7376 65.8573 17.659 65.9363 17.5827C66.6345 17.3413 67.0332 16.4612 67.6275 15.9952C67.7088 15.9118 67.7926 15.8331 67.8716 15.7569C70.6936 13.125 73.5706 10.5772 76.6925 8.42404C76.6898 8.39584 76.706 8.36977 76.7458 8.35516C76.7575 8.35502 76.767 8.36196 76.7741 8.36423C76.8138 8.33787 76.8535 8.3115 76.8932 8.28514C76.5143 8.08976 76.316 7.84278 76.1834 7.57382C71.7829 10.6107 67.8672 14.4276 63.9012 18.1698C63.8222 18.2461 63.7431 18.3223 63.6616 18.3939C63.0222 18.6346 62.85 19.3684 62.4684 19.5236C62.3822 19.5976 62.3007 19.6692 62.2217 19.7455C61.903 20.0458 61.5772 20.3439 61.2561 20.6395C61.1747 20.7111 61.0956 20.7873 61.0141 20.8589C60.6392 21.3717 59.9573 21.7941 59.5431 22.1732C59.4617 22.2448 59.3802 22.3164 59.2987 22.3879C59.0543 22.6027 58.8052 22.8198 58.5536 23.0323C58.4722 23.1039 58.3907 23.1754 58.3045 23.2494C58.1052 23.8847 57.5059 23.9391 57.0513 24.2858C56.9674 24.3527 56.8789 24.422 56.7974 24.4936C56.7135 24.5605 56.6274 24.6345 56.5459 24.706C55.2385 25.3501 54.2995 26.8815 53.066 27.2094C52.989 27.2668 52.9192 27.3265 52.8446 27.3886C52.7512 27.4485 52.6625 27.5061 52.5692 27.566C50.2067 29.0912 47.7002 30.3828 44.9657 31.3125C44.969 31.3878 44.9474 31.541 44.9482 31.6115C45.5509 31.4489 46.124 31.1714 46.5313 31.7781L46.5174 31.7971Z" fill="#3F3F3F"/>
<path d="M86.8606 3.33689C86.7787 3.1779 86.6452 3.03365 86.4153 2.89763C86.5323 2.84915 86.5458 2.79487 86.531 2.74329C85.7128 2.98147 84.8849 3.20095 84.0646 3.45798C83.6355 3.77377 83.2512 4.09608 83.4627 4.46055C82.9746 4.57001 82.503 4.67692 82.0409 4.79078C82.1036 4.91236 82.1149 5.07221 82.1569 5.23405C82.1943 5.21477 82.2341 5.20017 82.2739 5.18556C83.9406 4.87118 85.2661 3.77981 86.8677 3.33916L86.8606 3.33689Z" fill="#3F3F3F"/>
<path d="M45.0345 32.3174C45.4141 32.1928 45.7867 32.0659 46.1591 31.9272C45.8295 31.9077 45.5221 31.7821 45.1944 31.9272C45.1363 31.9868 45.0842 32.1497 45.0345 32.3174Z" fill="#3F3F3F"/>
<path d="M93.1678 7.73373C92.9318 7.67778 92.8651 7.80094 92.7795 7.92198C92.9203 7.89673 93.0659 7.86908 93.2067 7.84384C93.1899 7.8111 93.1824 7.77355 93.1678 7.73373Z" fill="#3F3F3F"/>
<path d="M44.6207 37.3721C44.5878 37.3772 44.5502 37.3847 44.5198 37.3945C44.5131 37.4275 44.5065 37.4605 44.4975 37.5006C44.5466 37.4694 44.5433 37.5895 44.565 37.6315C44.6291 37.6755 44.6041 37.5581 44.6231 37.3767L44.6207 37.3721Z" fill="#3F3F3F"/>
<path d="M48.72 37.2295C51.0775 36.4527 52.7526 35.0982 55.1647 34.163C55.2511 34.1126 55.3422 34.0597 55.4451 34.0067C56.4166 33.4114 57.3594 32.7717 58.2853 32.0993C58.3716 32.0371 58.4601 31.9677 58.5485 31.8867C61.4847 29.3617 64.2995 27.3016 66.9988 24.6501C67.0384 24.612 67.0802 24.5668 67.1197 24.5286C67.1592 24.4905 67.201 24.4453 67.2381 24.4025C67.3194 23.538 67.9187 23.4837 68.6806 23.0674C68.7597 22.9911 68.8388 22.9148 68.9178 22.8386C71.7184 20.1882 74.519 17.5495 77.5211 15.2214C77.605 15.1545 77.6936 15.0851 77.7799 15.0229C78.104 14.0096 78.9275 13.8161 79.8835 13.4892C79.9722 13.4316 80.0631 13.367 80.1472 13.3118C81.2906 12.5333 82.47 11.8131 83.6878 11.1559C83.7391 11.1177 83.7859 11.0936 83.8396 11.06C84.5415 10.355 85.7207 10.3924 86.6408 9.82358C86.7319 9.77071 86.8229 9.70608 86.8881 9.64882C88.0397 9.73597 88.6696 8.71894 89.5236 8.7109C89.6221 8.68382 89.7275 8.64725 89.8307 8.61776C90.1402 8.52929 90.4497 8.44082 90.7593 8.36412C90.7586 8.3053 90.7696 8.24635 90.7923 8.17549C90.9031 8.19532 90.9649 8.24633 90.9963 8.30712C91.2379 8.24771 91.4795 8.1883 91.7235 8.13357C91.5629 7.89083 91.2985 7.81405 91.3021 7.53402C91.3771 7.31195 91.4989 7.84691 91.5778 7.75889C91.6218 7.7066 91.635 7.62879 91.6316 7.54178C91.6115 7.4338 91.5913 7.32581 91.5712 7.21783C90.731 7.3904 89.9101 7.60038 89.1107 7.84068C89.0122 7.86776 88.9092 7.90901 88.8178 7.93836C88.7645 8.00724 88.7135 8.06903 88.653 8.12389C88.7023 8.11623 88.7658 8.1131 88.8694 8.1189C88.9101 8.17487 88.6701 8.18014 88.758 8.24731C88.6288 8.26064 88.5909 8.24463 88.5179 8.24082C88.4829 8.26477 88.4526 8.28632 88.4152 8.30559C88.4162 8.38793 88.5275 8.44304 88.5285 8.52538C88.4413 8.51703 88.3541 8.50868 88.2061 8.51989C88.7908 8.62101 87.8852 8.83907 88.1779 9.10844C87.8352 8.9832 87.8016 8.73421 87.8129 8.5035C87.4959 8.55442 87.1595 8.55616 86.8263 8.63315C86.7327 8.66958 86.639 8.70602 86.5453 8.74245C86.4516 8.77888 86.358 8.81531 86.2667 8.85642C86.1684 8.89526 86.0724 8.93878 85.9765 8.9823C85.0031 9.42471 83.8635 10.1303 82.9358 10.4545C82.8843 10.481 82.8329 10.5075 82.7721 10.5389C81.6479 11.1596 80.5551 11.8411 79.4911 12.5669C79.4211 12.6148 79.3745 12.6507 79.3185 12.6914C78.6304 13.3774 78.0901 14.0286 77.1123 14.3017C77.0284 14.3686 76.9399 14.4379 76.8536 14.5001C73.8726 16.8233 71.0813 19.4572 68.2924 22.0957C68.2319 22.1505 68.1901 22.1957 68.1459 22.2363C64.8634 25.6972 61.4211 28.7789 57.4496 31.4883C57.3633 31.5505 57.263 31.62 57.1767 31.6822C56.5865 32.0988 55.9891 32.5013 55.3774 32.8876C55.2746 32.9523 55.1812 33.0123 55.0948 33.0628C52.9202 34.3668 51.0115 35.8653 48.7454 36.2222C48.6938 36.237 48.6375 36.2541 48.5694 36.2597C48.0657 36.4423 47.5525 36.6061 47.0344 36.7607C47.0488 36.7887 47.0655 36.8097 47.0821 36.8189C47.0062 36.9587 46.951 36.8746 46.8914 36.8048C46.8047 36.8317 46.7226 36.8562 46.6335 36.8785C46.5483 37.0348 46.4558 36.9701 46.3649 37.0465C46.3785 37.0039 46.3899 36.9685 46.4036 36.9378C45.8244 37.1001 45.2403 37.2413 44.6372 37.3686C44.6462 37.7191 44.8299 37.1569 44.8187 37.5947C45.3185 36.8992 45.504 37.8334 46.0758 37.0712C45.6858 37.6923 45.2772 37.7608 44.8711 37.834C44.7818 37.8445 44.8351 38.1662 44.7631 38.2447C44.6457 38.2579 44.6197 37.863 44.5206 37.843C44.4003 37.8162 44.2965 38.1775 44.1685 38.2967C44.0568 38.4015 43.9616 38.3086 43.8536 38.3287C43.8729 38.3661 43.8993 38.4058 43.9232 38.4408C45.5246 38.1719 47.0492 37.7887 48.5114 37.2956C48.577 37.2736 48.6379 37.2541 48.7082 37.2297L48.72 37.2295ZM90.8094 7.84118C91.0519 7.85235 90.8395 7.9914 90.9061 8.05176C90.7621 8.01352 90.5937 7.90498 90.8094 7.84118ZM46.0737 37.2853C46.1307 37.1317 46.1913 37.0886 46.2528 37.1161C46.1948 37.3709 46.0823 37.4052 46.0737 37.2853Z" fill="#3F3F3F"/>
<path d="M63.8721 35.3172C63.956 35.2503 64.0422 35.1763 64.1237 35.1047C64.7198 34.5963 65.6305 34.0323 66.1289 33.4145C66.1708 33.3811 66.215 33.3406 66.2639 33.2976C66.634 32.9708 67.0088 32.6415 67.3765 32.31C67.458 32.2384 67.5417 32.1598 67.6232 32.0882C68.0512 31.8736 68.366 31.4509 68.6956 31.0799C68.7723 30.999 68.8396 30.9229 68.9093 30.8514C69.3323 29.8463 70.3846 29.5112 71.0012 28.939C71.0802 28.8628 71.1593 28.7865 71.2408 28.7149C73.2016 26.8582 75.1576 24.9922 77.1689 23.2219C77.2457 23.1527 77.3225 23.0836 77.3992 23.0026C80.6287 20.4152 83.954 17.5773 87.6049 15.7847C87.6539 15.5582 88.1069 15.4727 87.7731 15.6862C87.7684 15.6886 87.7686 15.7003 87.7686 15.7003C87.8808 15.6425 87.9978 15.594 88.1125 15.5409C88.0794 15.3389 88.3838 15.2176 88.4908 15.1151C88.5019 15.2514 88.4512 15.3368 88.3909 15.4151C88.7419 15.2579 89.0978 15.1101 89.4561 14.9787C89.5474 14.9375 89.6364 14.9035 89.7277 14.8624C91.4014 14.1597 93.1638 13.5948 95.0224 13.1934C95.0497 13.1201 95.0939 13.0795 95.2077 13.1511C95.2875 13.1337 95.372 13.1138 95.4541 13.101C95.4615 12.9316 95.5658 12.9962 95.7088 12.9521C95.6245 12.7884 95.5483 12.7211 95.4705 12.7079C95.7507 12.5281 95.8813 12.4371 96.0542 12.3361C95.9991 12.2521 95.9486 12.1657 95.8935 12.0816C95.4685 12.1527 95.0483 12.2331 94.633 12.3228C94.6145 12.356 94.5914 12.3916 94.5635 12.4178C94.5193 12.4583 94.4623 12.4167 94.403 12.3704C94.3279 12.3854 94.2527 12.4004 94.18 12.4201C94.1368 12.543 94.118 12.7362 94.055 12.7746C93.9427 12.8324 93.7999 12.693 93.6567 12.7253C93.1452 12.835 92.9838 13.6934 92.4894 13.8594C92.1051 13.9865 91.424 13.503 91.1206 13.902C90.9523 13.2194 91.4421 13.4463 91.7035 13.2761C91.8272 13.1946 91.9484 13.0967 92.0647 12.9894C91.0029 13.3176 89.9769 13.6924 88.9799 14.1233C88.8886 14.1644 88.7903 14.2033 88.699 14.2444C87.5207 14.4728 86.4354 15.7777 85.2104 16.0303C85.1542 16.0592 85.0959 16.0952 85.0422 16.1288C84.9814 16.1601 84.9323 16.1913 84.8833 16.2225C84.3379 16.4503 83.8872 16.7358 83.4555 17.0234C83.3784 17.069 83.3037 17.1193 83.2313 17.1625C83.1613 17.2105 83.0913 17.2584 83.0236 17.2992C82.9582 17.3447 82.8929 17.3902 82.8323 17.4333C82.1529 17.4815 82.3488 18.3097 81.7159 18.3103C81.6226 18.3703 81.5363 18.4325 81.45 18.4947C81.3637 18.557 81.2774 18.6192 81.1935 18.6861C81.1515 18.7195 81.1025 18.7507 81.0559 18.7866C80.9761 18.804 80.8965 18.8332 80.8192 18.8671C80.7444 18.9057 80.6696 18.9442 80.5949 18.9945C79.1707 20.2847 77.7197 21.5 76.32 22.677C76.2804 22.7151 76.2338 22.7509 76.1943 22.7891C74.2601 24.5137 72.3715 26.3154 70.4782 28.1078C70.3991 28.184 70.32 28.2603 70.2385 28.3318C69.8913 29.1854 69.5799 29.6951 68.4615 30.0169C68.422 30.055 68.352 30.103 68.31 30.1364C67.3445 31.0305 66.3695 31.9176 65.38 32.7766C65.2985 32.8482 65.2123 32.9222 65.1333 32.9984C64.4011 33.5414 63.7192 33.9638 63.116 34.6653C63.0741 34.6987 63.0274 34.7346 62.9786 34.7775C58.2296 38.5622 53.0175 41.609 46.5815 42.6826C46.7567 42.9651 46.9295 43.243 47.1047 43.5256C53.7169 42.4263 59.0308 39.2442 63.8886 35.3146L63.8721 35.3172ZM90.5866 13.9108C90.7308 14.1561 90.7846 14.3296 90.6578 14.3476C90.5817 14.2803 90.5002 14.1566 90.4181 13.9858L90.5913 13.9084L90.5866 13.9108Z" fill="#3F3F3F"/>
<path d="M93.8403 18.5241C93.7349 18.5606 93.6365 18.5995 93.524 18.6338C92.8535 19.0207 91.9734 18.6221 91.4265 19.5016C91.3329 19.5498 91.2276 19.5981 91.1318 19.6534C86.5371 21.8081 82.564 24.9621 78.7612 28.3894C78.7217 28.4275 78.6704 28.4658 78.6262 28.5063C77.902 28.9387 77.501 29.8141 76.6904 30.2969C76.6509 30.335 76.6067 30.3755 76.5625 30.4161C76.4834 30.4923 76.3996 30.571 76.3182 30.6426C75.3155 31.5794 74.2222 32.6044 73.1125 33.6438C73.0334 33.72 72.952 33.7916 72.8753 33.8725C72.2915 34.6231 71.8385 34.9039 71.2191 35.4361C71.1401 35.5124 71.0633 35.5815 70.9842 35.6578C70.9051 35.734 70.8283 35.8032 70.7493 35.8795C70.6678 35.951 70.5794 36.0321 70.4932 36.1061C70.2117 36.3636 69.9277 36.6165 69.6461 36.874C69.5926 36.9194 69.5484 36.9599 69.4995 37.0029C67.6224 38.7809 65.5768 40.0481 63.7308 41.6799C63.6445 41.7421 63.5512 41.8021 63.4602 41.8667C63.2082 42.0439 62.9539 42.2164 62.6948 42.3913C62.6108 42.4464 62.5245 42.5086 62.4405 42.5638C61.1671 43.1016 60.3673 44.8571 58.7546 44.7709C58.6658 44.8167 58.5368 44.8535 58.448 44.8993C55.7727 46.2424 52.891 47.2539 49.7141 47.7843C49.8893 48.0668 50.0621 48.3447 50.2373 48.6273C53.2733 48.1221 56.0358 47.1779 58.604 45.9256C58.6507 45.9015 58.6928 45.8798 58.7443 45.8533C59.912 45.145 61.2781 44.2931 62.4371 43.832C62.5353 43.7814 62.6287 43.7214 62.7174 43.6639C65.5058 41.9547 67.5505 39.4453 70.0272 37.8317C70.1087 37.7601 70.1901 37.6885 70.2834 37.6168C70.5254 37.3974 70.7674 37.178 71.0094 36.9586C71.0909 36.887 71.1747 36.8084 71.2561 36.7368C71.3233 36.6489 71.3976 36.5633 71.4671 36.4801C71.5414 36.3945 71.6109 36.3113 71.6876 36.2304C72.2517 35.6024 72.792 34.9511 73.529 34.4175C73.5732 34.3769 73.6151 34.3435 73.6826 34.2791C75.608 32.6064 77.6869 31.1741 79.2727 29.2443C79.3542 29.1727 79.438 29.0941 79.5194 29.0225C85.2751 23.861 91.4413 19.3697 99.5586 18.0215C99.3834 17.739 99.2106 17.4611 99.0354 17.1785C97.2039 17.4832 95.4732 17.9489 93.8264 18.543L93.8403 18.5241Z" fill="#3F3F3F"/>
<path d="M58.6098 52.0125C58.5744 51.8059 58.4005 51.6292 58.285 51.4165C57.9922 51.5259 57.6946 51.626 57.3923 51.7285C57.6944 51.9931 58.0621 52.2474 58.0674 52.4873C58.1074 52.4845 58.1427 52.484 58.178 52.4836C58.3443 52.4275 58.5154 52.3689 58.6793 52.3081C58.7848 52.2715 58.8878 52.2303 58.9932 52.1937C59.0353 52.172 59.0774 52.1503 59.1219 52.1333C59.1025 52.0842 59.0948 52.0348 59.0377 51.9814C58.9312 51.9357 58.7514 52.0461 58.6145 52.0101L58.6098 52.0125Z" fill="#3F3F3F"/>
<path d="M55.484 52.2974C55.518 52.3864 55.4703 52.5235 55.7221 52.5298C55.6851 52.5844 55.5916 52.6326 55.5074 52.6759C55.5528 52.7295 55.9058 52.737 55.6105 52.83C55.085 52.7634 55.4324 52.5074 55.3386 52.3368C54.9774 52.4283 54.6137 52.5151 54.2453 52.5925C54.3017 52.7824 54.3606 52.9769 54.3229 53.168C54.7136 53.1797 55.5408 53.0967 55.5011 52.9278C55.7601 52.9481 55.6265 52.9874 55.6062 53.0629C55.7919 53.0442 55.8833 53.0149 55.9276 52.9861C55.9449 53.0541 55.9644 53.1033 55.9767 53.1502C56.3168 53.0637 56.6568 52.9655 56.9896 52.8649C56.9872 52.8603 56.9942 52.8508 56.994 52.839C56.9927 52.7331 56.6348 52.7046 56.5725 52.6183C56.5438 52.5739 56.7716 52.5453 56.7898 52.4886C56.8056 52.439 56.4781 52.4006 56.4729 52.356C56.4628 52.302 56.6551 52.2502 56.6873 52.1863C56.7264 52.1129 56.6785 52.0429 56.6048 51.9803C56.2367 52.093 55.8592 52.1987 55.484 52.2974Z" fill="#3F3F3F"/>
<path d="M52.8794 52.8594C52.9154 52.9178 52.9514 52.9761 52.9874 53.0345C53.1515 52.9855 53.3156 52.9364 53.475 52.8898C53.444 52.8525 53.4317 52.8056 53.41 52.7635C53.2315 52.7963 53.0578 52.8266 52.8794 52.8594Z" fill="#3F3F3F"/>
<path d="M93.803 25.5027C93.6253 25.3989 93.7601 25.649 93.6124 25.8908C93.6914 25.2287 93.1889 25.8842 93.2133 25.3804C93.1196 25.4169 93.0305 25.4391 92.9507 25.4566C91.8592 26.0486 90.7802 26.7111 89.6902 27.4326C89.6412 27.4638 89.5969 27.4926 89.5502 27.5284C88.8459 28.424 88.0218 29.1446 87.1568 29.7974C87.1827 29.8018 87.2064 29.8133 87.2418 29.8246C87.446 29.7845 87.6274 29.8035 87.7903 29.8438C88.5925 29.2529 89.3927 28.6926 90.198 28.1652C90.2376 28.1388 90.2843 28.103 90.3426 28.067C91.5045 27.2552 92.6581 26.5424 93.827 25.9282C93.8568 25.8596 93.8981 25.7791 93.9534 25.6796C93.8428 25.6833 93.8579 25.5632 93.803 25.5027Z" fill="#3F3F3F"/>
<path d="M87.4346 30.0168C87.3193 30.0111 87.1605 29.9213 87.0773 29.8517C85.8485 30.7631 84.5356 31.5344 83.3323 32.4148C83.2484 32.4817 83.1716 32.5509 83.0877 32.6178C82.722 32.9187 82.3586 33.2243 81.9905 33.5205C81.916 33.5826 81.8437 33.6376 81.7692 33.6997C81.0026 33.9349 80.3751 34.9566 79.7135 35.4987C79.6507 35.5607 79.567 35.6393 79.5018 35.6966C79.2506 35.9326 78.9947 36.171 78.7434 36.4069C78.6644 36.4832 78.5806 36.5619 78.5016 36.6381C78.094 36.9842 77.6936 37.3326 77.2909 37.6881C77.2118 37.7643 77.1329 37.8524 77.0514 37.9239C76.7016 38.1752 76.3029 39.0553 75.6153 39.2025C75.5338 39.2741 75.4547 39.3503 75.3779 39.4195C73.2328 41.4008 71.1117 43.4289 68.8892 45.2488C68.8473 45.2822 68.8007 45.3181 68.7541 45.3539C68.6702 45.4208 68.5816 45.4901 68.4953 45.5524C68.4487 45.5882 68.4021 45.6241 68.3555 45.6599C67.8279 46.1981 67.146 46.6205 66.5342 46.995C66.4875 47.0308 66.4385 47.062 66.3872 47.1003C66.1656 47.2559 65.9369 47.4093 65.7128 47.5602C65.6195 47.6202 65.5332 47.6824 65.4398 47.7424C64.8739 48.034 64.4209 48.3148 64.0645 48.6108C63.9688 48.6661 63.873 48.7214 63.7818 48.7743C63.686 48.8296 63.5949 48.8824 63.4991 48.9377C63.4033 48.993 63.3122 49.0459 63.2164 49.1011C61.9399 49.5755 60.9459 50.644 59.6256 50.9989C59.7508 51.035 59.9275 51.0564 60.0152 51.1118C60.1882 51.2179 60.0232 51.3799 60.2197 51.4857C60.2671 51.5087 60.3379 51.5313 60.4111 51.5469C62.5664 50.596 64.6259 49.6887 66.5043 48.2118C66.5976 48.1518 66.6839 48.0896 66.7749 48.0249C66.8659 47.9603 66.9546 47.9028 67.0456 47.8381C67.1365 47.7735 67.2228 47.7113 67.3138 47.6466C67.4338 47.064 68.2573 46.8705 68.6267 46.6801C68.7177 46.6155 68.8086 46.5509 68.8925 46.484C69.1513 46.2855 69.4123 46.08 69.6686 45.8769C69.7525 45.81 69.8411 45.7407 69.9225 45.6691C72.2052 44.1614 74.0593 42.2354 75.8932 40.385C75.9676 40.3111 76.042 40.2373 76.1117 40.1658C77.0412 39.2134 78.1808 38.5078 79.0219 37.4412C79.0987 37.372 79.1779 37.3075 79.2571 37.243C79.3013 37.2025 79.3455 37.1619 79.3898 37.1214C79.434 37.0809 79.4735 37.0427 79.513 37.0046C79.813 36.7139 80.1201 36.4255 80.4225 36.1395C80.4968 36.0656 80.5758 35.9776 80.6502 35.9038C80.8893 35.2538 81.3423 34.973 82.0276 34.6377C82.1044 34.5685 82.1859 34.4969 82.2627 34.4277C82.7258 34.0057 83.1959 33.5858 83.6638 33.1731C83.7127 33.1302 83.7547 33.0967 83.7989 33.0562C85.0909 31.9229 86.3839 30.8719 87.6803 29.9079C87.6707 29.8892 87.6586 29.8658 87.649 29.8471C87.579 29.895 87.5175 30.0628 87.4414 29.9955L87.4346 30.0168Z" fill="#3F3F3F"/>
<path d="M99.3378 22.8762C97.342 23.4017 95.4782 24.149 93.6638 25.084C93.7262 25.182 93.7884 25.2683 93.8758 25.3002C94.1453 25.3981 94.3673 25.0825 94.6514 25.0367C94.9027 24.996 95.1163 25.1463 95.3521 25.1905C95.8388 24.9752 96.3306 24.781 96.8249 24.6032C96.8896 24.5106 96.9664 24.4415 97.0859 24.3977C97.2441 24.0616 97.0311 23.7631 97.2826 23.5506C97.5027 23.4609 97.1881 23.907 97.3128 23.9079C97.5056 23.8914 97.6716 23.6165 97.8529 23.4284C98.138 23.8555 98.58 23.8289 99.0436 23.8327C99.0904 23.8086 99.1419 23.7938 99.1911 23.7744C99.2321 23.6586 99.0858 23.4322 99.2701 23.3076C99.312 23.4577 99.4778 23.5498 99.6708 23.5568C100.153 23.3322 100.632 23.0675 100.972 22.821C101.094 22.7349 101.16 22.5999 101.189 22.4372C100.67 22.5447 100.156 22.6616 99.6544 22.79C99.5488 22.8148 99.441 22.8467 99.3425 22.8738L99.3378 22.8762Z" fill="#3F3F3F"/>
</g>
</g>
<defs>
<clipPath id="clip0_0_1">
<rect width="58.83" height="32.2847" fill="white" transform="translate(38 26.9473) rotate(-27.2624)"/>
</clipPath>
</defs>
</svg>
