<svg width="19" height="19" viewBox="0 0 19 19" fill="none" xmlns="http://www.w3.org/2000/svg">
<g clip-path="url(#clip0_6_636)">
<path d="M14.9846 5.49484C14.9846 2.40931 12.4323 -0.0881897 9.32262 0.000329489C6.42196 0.0825258 4.02162 2.52312 3.98362 5.41896C3.95829 7.32213 4.91462 9.01031 6.37129 10.0156C5.02229 10.4772 3.79362 11.2423 2.75496 12.2792C1.15262 13.8852 0.189957 15.9527 -4.30213e-05 18.1847C-0.038043 18.621 0.303957 19.0003 0.740957 19.0003C1.12096 19.0003 1.44396 18.7095 1.47562 18.3301C1.81762 14.2203 5.27562 10.983 9.47462 10.983C12.5083 10.983 14.9783 8.51714 14.9783 5.48852L14.9846 5.49484ZM9.48096 9.50349C7.27062 9.50349 5.46562 7.70782 5.46562 5.49484C5.46562 3.28186 7.26429 1.48619 9.48096 1.48619C11.6976 1.48619 13.4963 3.28186 13.4963 5.49484C13.4963 7.70782 11.6976 9.50349 9.48096 9.50349ZM12.6793 14.5491H18.2526C18.6643 14.5491 18.9936 14.8842 18.9936 15.2888C18.9936 15.6998 18.658 16.0286 18.2526 16.0286H12.6793C12.2676 16.0286 11.9383 15.6935 11.9383 15.2888C11.9383 14.8779 12.274 14.5491 12.6793 14.5491ZM19 12.3235C19 12.7344 18.6643 13.0632 18.259 13.0632H12.6856C12.274 13.0632 11.9446 12.7281 11.9446 12.3235C11.9446 11.9125 12.2803 11.5837 12.6856 11.5837H18.259C18.6706 11.5837 19 11.9188 19 12.3235ZM12.6793 17.5208H18.2526C18.6643 17.5208 18.9936 17.8559 18.9936 18.2606C18.9936 18.6715 18.658 19.0003 18.2526 19.0003H12.6793C12.2676 19.0003 11.9383 18.6652 11.9383 18.2606C11.9383 17.8496 12.274 17.5208 12.6793 17.5208Z" fill="#505050"/>
</g>
<defs>
<clipPath id="clip0_6_636">
<rect width="19" height="19" fill="white"/>
</clipPath>
</defs>
</svg>
