<svg width="39" height="29" viewBox="0 0 39 29" fill="none" xmlns="http://www.w3.org/2000/svg">
<g clip-path="url(#clip0_6_65)">
<path d="M9.73368 14.3743C9.52474 13.7425 9.43856 13.1006 9.45684 12.4713L0 3.51172V25.9525C0 26.564 0.190652 27.1324 0.511886 27.612L11.2615 17.2974C10.5407 16.2267 10.0105 15.2142 9.73368 14.3743Z" fill="#CCD5DC"/>
<path d="M13.4997 7.26459C15.6988 6.57949 18.0101 7.2316 19.5013 8.75658C20.9926 7.2316 23.3039 6.57949 25.5029 7.26459C26.8662 7.68834 27.9527 8.55613 28.6578 9.64721L37.924 0.756147C37.3704 0.286727 36.6521 0 35.866 0H3.13404C2.28524 0 1.5148 0.3324 0.950684 0.867792L10.2978 9.72334C10.9978 8.59419 12.1051 7.69849 13.4997 7.26459Z" fill="#E0E7EC"/>
<path d="M19.5014 24.5856C16.9994 23.4742 14.6358 21.4494 12.8364 19.3535L2.80237 28.9804C2.91206 28.9905 3.02175 28.9982 3.13405 28.9982H35.8661C36.0463 28.9982 36.2212 28.9804 36.391 28.9525L26.2055 19.3027C24.4035 21.4164 22.0216 23.4666 19.5014 24.5856Z" fill="#CCD5DC"/>
<path d="M29.2663 14.375C28.9947 15.1996 28.4776 16.1943 27.775 17.2448L38.5743 27.4756C38.8433 27.0265 39 26.5089 39 25.9532V3.28906L29.5379 12.3679C29.5719 13.0302 29.4857 13.7076 29.2663 14.375Z" fill="#CCD5DC"/>
<path d="M11.2615 17.2969L0.511841 27.6114C1.01589 28.3574 1.8464 28.8801 2.80227 28.9791L12.8363 19.3522C12.2461 18.6645 11.7159 17.9693 11.2615 17.2969Z" fill="#97A7B3"/>
<path d="M26.208 19.302L36.3935 28.9517C37.3233 28.7969 38.1172 28.2413 38.5769 27.475L27.7776 17.2441C27.3232 17.9166 26.7956 18.6143 26.208 19.302Z" fill="#97A7B3"/>
<path d="M37.924 0.755859L28.6578 9.64693C29.1802 10.4589 29.491 11.3927 29.5406 12.367L39.0026 3.28819V3.0446C39 2.13367 38.5822 1.31409 37.924 0.755859Z" fill="#97A7B3"/>
<path d="M10.2978 9.72273L0.950646 0.867188C0.365633 1.42034 0 2.19425 0 3.04428V3.51116L9.45945 12.4733C9.49079 11.4913 9.78591 10.5448 10.2978 9.72273Z" fill="#97A7B3"/>
<path d="M25.5003 7.26382C23.3013 6.57872 20.9899 7.23083 19.4987 8.75581C18.0074 7.23083 15.6961 6.57872 13.4971 7.26382C12.1025 7.69771 10.9951 8.59595 10.2952 9.72256C9.78329 10.5447 9.48817 11.4911 9.45683 12.4731C9.43594 13.0998 9.52474 13.7418 9.73367 14.3762C10.0105 15.216 10.5407 16.2285 11.2615 17.2993C11.7159 17.9717 12.2461 18.6669 12.8363 19.3545C14.6358 21.4504 16.9993 23.4753 19.5013 24.5867C22.0216 23.4677 24.4034 21.4175 26.2081 19.3038C26.7957 18.6136 27.3258 17.9184 27.7751 17.246C28.4776 16.1955 28.9947 15.2008 29.2663 14.3762C29.4857 13.7088 29.5719 13.0288 29.5379 12.3691C29.4883 11.3972 29.1775 10.4609 28.6552 9.64898C27.9526 8.55282 26.8636 7.68756 25.5003 7.26382Z" fill="#D03043"/>
</g>
<defs>
<clipPath id="clip0_6_65">
<rect width="39" height="29" fill="white"/>
</clipPath>
</defs>
</svg>
