<svg width="303" height="57" viewBox="0 0 303 57" fill="none" xmlns="http://www.w3.org/2000/svg">
<path d="M167.915 1.42975C179.966 1.56354 191.999 1.42975 204.031 0.857392C204.791 0.277604 205.754 0.426268 206.653 0.426268C224.465 0.426268 242.287 0.426268 260.099 0.426268C260.868 0.426268 261.637 0.426268 262.35 0.708728C270.057 0.92429 277.764 0.797926 285.461 0.366803C289.305 0.151241 293.168 -0.309616 296.993 0.31477C301.393 1.04322 302.681 3.02788 300.606 6.19441C299.244 8.26826 299.281 9.77719 301.486 11.4051C303.783 13.1073 303.311 14.9135 301.115 16.5042C298.707 18.2436 297.605 20.1093 299.337 22.696C300.143 23.9002 300.133 25.6173 298.8 26.5316C295.798 28.5905 295.9 30.6272 297.419 33.3403C298.809 35.8156 298.133 38.4767 295.835 40.6174C293.696 42.6095 294.187 44.1407 296.799 45.4713C296.929 45.5382 297.04 45.6199 297.16 45.7017C299.568 47.3296 303.283 48.6081 301.986 51.7449C300.754 54.733 297.419 56.3014 293.529 56.792C291.871 57.0001 290.148 57.0224 288.462 56.9852C249.762 56.1602 211.062 56.2419 172.352 56.123C124.547 55.9818 76.7319 56.7548 28.9263 55.6398C21.2196 55.4614 13.5221 55.2087 5.81543 54.9337C1.38778 54.7776 0.461498 53.7815 2.34186 50.5556C3.71276 48.2067 3.51824 46.3855 1.41557 44.4975C-0.186902 43.0629 -0.548153 41.3087 0.95243 39.7552C2.62901 38.0158 2.54564 36.3656 1.32294 34.6114C-0.501839 31.9949 0.507812 29.371 1.17474 26.7397C0.82275 26.0335 0.517075 25.3274 1.42484 24.7179C1.74904 18.8754 3.2033 13.0552 2.07324 7.16815C1.184 2.64879 1.67493 2.03927 7.31601 2.29199C31.1957 3.36237 55.066 3.07248 78.9364 2.23253C82.4563 2.10616 86.0225 2.36632 89.4868 1.63787C90.3761 0.916857 91.5154 1.16958 92.5528 1.16958C116.914 1.15472 141.275 1.15472 165.637 1.16215C166.406 1.16215 167.184 1.16215 167.897 1.42231L167.915 1.42975Z" fill="#706052"/>
</svg>
