<?xml version="1.0" encoding="utf-8"?>
<!-- Generator: Adobe Illustrator 26.4.1, SVG Export Plug-In . SVG Version: 6.00 Build 0)  -->
<svg version="1.1" id="레이어_1" xmlns="http://www.w3.org/2000/svg" xmlns:xlink="http://www.w3.org/1999/xlink" x="0px"
	 y="0px" viewBox="0 0 32 19.99" style="enable-background:new 0 0 32 19.99;" xml:space="preserve">
<style type="text/css">
	.st0{clip-path:url(#SVGID_00000170257935069823618010000000840330062954388397_);fill:#B62625;}
	.st1{clip-path:url(#SVGID_00000123438487905543761510000014292737005247197107_);fill:#E3D03E;}
	.st2{clip-path:url(#SVGID_00000079483598076112988830000016514929470883472288_);fill:#E3D03E;}
	.st3{clip-path:url(#SVGID_00000077288038117808168700000003318562076006472082_);fill:#E3D03E;}
	.st4{clip-path:url(#SVGID_00000063616426898609283380000011933063229553313173_);fill:#E3D03E;}
	.st5{clip-path:url(#SVGID_00000080893701654192022520000015809449933925067660_);fill:#E3D03E;}
</style>
<g id="CHINA_3_">
	<g>
		<g>
			<g>
				<defs>
					<rect id="SVGID_1_" width="32" height="19.99"/>
				</defs>
				<clipPath id="SVGID_00000090978121684822351690000011998894150387418799_">
					<use xlink:href="#SVGID_1_"  style="overflow:visible;"/>
				</clipPath>
				
					<rect style="clip-path:url(#SVGID_00000090978121684822351690000011998894150387418799_);fill:#B62625;" width="32" height="19.99"/>
			</g>
			<g>
				<defs>
					<rect id="SVGID_00000142138683295390877700000004567366077930104707_" width="32" height="19.99"/>
				</defs>
				<clipPath id="SVGID_00000129911896489111980580000010845020129182939068_">
					<use xlink:href="#SVGID_00000142138683295390877700000004567366077930104707_"  style="overflow:visible;"/>
				</clipPath>
				<polygon style="clip-path:url(#SVGID_00000129911896489111980580000010845020129182939068_);fill:#E3D03E;" points="3.08,7.24 
					3.68,5.24 2.1,4 4.06,4 4.67,2 5.28,4 7.24,4 5.65,5.24 6.25,7.24 4.67,6 				"/>
			</g>
			<g>
				<defs>
					<rect id="SVGID_00000160873935839364950330000001916737761346066348_" width="32" height="19.99"/>
				</defs>
				<clipPath id="SVGID_00000087386041209999511650000014452499262775411898_">
					<use xlink:href="#SVGID_00000160873935839364950330000001916737761346066348_"  style="overflow:visible;"/>
				</clipPath>
				<polygon style="clip-path:url(#SVGID_00000087386041209999511650000014452499262775411898_);fill:#E3D03E;" points="8.54,8.31 
					9.2,8.6 9.66,8.01 9.61,8.78 10.27,9.06 9.58,9.25 9.53,10 9.15,9.36 8.46,9.54 8.91,8.96 				"/>
			</g>
			<g>
				<defs>
					<rect id="SVGID_00000081621174283446967980000016088176150654752396_" width="32" height="19.99"/>
				</defs>
				<clipPath id="SVGID_00000027570796383503735340000011020443473648371391_">
					<use xlink:href="#SVGID_00000081621174283446967980000016088176150654752396_"  style="overflow:visible;"/>
				</clipPath>
				<polygon style="clip-path:url(#SVGID_00000027570796383503735340000011020443473648371391_);fill:#E3D03E;" points="12.11,4.48 
					11.41,4.35 11.08,5.02 10.98,4.27 10.27,4.13 10.91,3.8 10.82,3.04 11.31,3.58 11.95,3.25 11.62,3.93 				"/>
			</g>
			<g>
				<defs>
					<rect id="SVGID_00000144324361177148081550000018118765681768779953_" width="32" height="19.99"/>
				</defs>
				<clipPath id="SVGID_00000137107538502872146190000006410797896773168810_">
					<use xlink:href="#SVGID_00000144324361177148081550000018118765681768779953_"  style="overflow:visible;"/>
				</clipPath>
				<polygon style="clip-path:url(#SVGID_00000137107538502872146190000006410797896773168810_);fill:#E3D03E;" points="10.63,7.89 
					10.84,7.17 10.27,6.72 10.98,6.72 11.2,5.99 11.42,6.72 12.14,6.72 11.56,7.17 11.78,7.89 11.2,7.45 				"/>
			</g>
			<g>
				<defs>
					<rect id="SVGID_00000179628466104401762490000002303953948730514566_" width="32" height="19.99"/>
				</defs>
				<clipPath id="SVGID_00000054235193974951943660000009782660890671671193_">
					<use xlink:href="#SVGID_00000179628466104401762490000002303953948730514566_"  style="overflow:visible;"/>
				</clipPath>
				<polygon style="clip-path:url(#SVGID_00000054235193974951943660000009782660890671671193_);fill:#E3D03E;" points="8.57,1.27 
					9.22,1.59 9.71,1.03 9.62,1.79 10.26,2.12 9.57,2.26 9.48,3.02 9.13,2.35 8.43,2.49 8.92,1.93 				"/>
			</g>
		</g>
	</g>
</g>
</svg>
