<?xml version="1.0" encoding="utf-8"?>
<!-- Generator: Adobe Illustrator 26.4.1, SVG Export Plug-In . SVG Version: 6.00 Build 0)  -->
<svg version="1.1" id="레이어_1" xmlns="http://www.w3.org/2000/svg" xmlns:xlink="http://www.w3.org/1999/xlink" x="0px"
	 y="0px" viewBox="0 0 32 19.99" style="enable-background:new 0 0 32 19.99;" xml:space="preserve">
<style type="text/css">
	.st0{clip-path:url(#SVGID_00000112631737791643189180000018386825306995981955_);fill:#B52023;}
	.st1{clip-path:url(#SVGID_00000010309085774109388770000008678603731670398852_);fill:#FFFFFF;}
	.st2{clip-path:url(#SVGID_00000057847368653182935560000010141457435871192744_);fill:#B52023;}
	.st3{clip-path:url(#SVGID_00000005250078812695250580000013440241643170416528_);fill:#FFFFFF;}
	.st4{clip-path:url(#SVGID_00000085946149791540879050000007193134105614983336_);fill:#B52023;}
	.st5{clip-path:url(#SVGID_00000047023089611667923440000005737995352288904893_);fill:#FFFFFF;}
	.st6{clip-path:url(#SVGID_00000073715697870733636240000001233944118410491555_);fill:#B52023;}
	.st7{clip-path:url(#SVGID_00000121257341984533359670000001155031399926333061_);fill:#FFFFFF;}
	.st8{clip-path:url(#SVGID_00000047762586159864268510000014236323921069690247_);fill:#B52023;}
	.st9{clip-path:url(#SVGID_00000150098741068083253190000013596816439740379833_);fill:#FFFFFF;}
	.st10{clip-path:url(#SVGID_00000012440903179626234240000009043347399797048755_);fill:#B52023;}
	.st11{clip-path:url(#SVGID_00000127002111684345799700000018083230544119797915_);fill:#FFFFFF;}
	.st12{clip-path:url(#SVGID_00000120518750873489616420000009487448175429645453_);fill:#B52023;}
	.st13{clip-path:url(#SVGID_00000010305792478479204590000009961834711649043339_);fill:#28335C;}
	.st14{clip-path:url(#SVGID_00000051344723740592143840000009871991337260819854_);fill:#FFFFFF;}
	.st15{clip-path:url(#SVGID_00000176010977696254393690000010972220881967792772_);fill:#FFFFFF;}
	.st16{clip-path:url(#SVGID_00000151508428812695743370000003611964482625306771_);fill:#FFFFFF;}
	.st17{clip-path:url(#SVGID_00000029759636557863331250000001730756193995102857_);fill:#FFFFFF;}
	.st18{clip-path:url(#SVGID_00000106847129899090024170000007246876005954416570_);fill:#FFFFFF;}
	.st19{clip-path:url(#SVGID_00000113343141009451255660000013215718248722059941_);fill:#FFFFFF;}
	.st20{clip-path:url(#SVGID_00000137828457020925774040000016549972867338439852_);fill:#FFFFFF;}
	.st21{clip-path:url(#SVGID_00000145049553148692621810000014585711287199752075_);fill:#FFFFFF;}
	.st22{clip-path:url(#SVGID_00000136371860040026955890000011650968812776292251_);fill:#FFFFFF;}
	.st23{clip-path:url(#SVGID_00000129922329646930852320000009120644013799848340_);fill:#FFFFFF;}
	.st24{clip-path:url(#SVGID_00000134210575711905786990000001886892760349101199_);fill:#FFFFFF;}
	.st25{clip-path:url(#SVGID_00000178185208811653401570000002675921318016160400_);fill:#FFFFFF;}
	.st26{clip-path:url(#SVGID_00000096766493458481779910000014900158512843177391_);fill:#FFFFFF;}
	.st27{clip-path:url(#SVGID_00000013187288568320793210000014214184062004097450_);fill:#FFFFFF;}
	.st28{clip-path:url(#SVGID_00000104697461201949847920000016898821423507351425_);fill:#FFFFFF;}
	.st29{clip-path:url(#SVGID_00000063607966401744145050000015904928004389726623_);fill:#FFFFFF;}
	.st30{clip-path:url(#SVGID_00000000940888381401898560000005377020264930135456_);fill:#FFFFFF;}
	.st31{clip-path:url(#SVGID_00000029730980214934103490000007354793379643037375_);fill:#FFFFFF;}
	.st32{clip-path:url(#SVGID_00000155869408534491060050000016061027427567431607_);fill:#FFFFFF;}
	.st33{clip-path:url(#SVGID_00000014625839405426666880000016520213338112051631_);fill:#FFFFFF;}
	.st34{clip-path:url(#SVGID_00000114031528754174828770000008507967134652196528_);fill:#FFFFFF;}
	.st35{clip-path:url(#SVGID_00000182517149112901560680000012104728464384789152_);fill:#FFFFFF;}
	.st36{clip-path:url(#SVGID_00000046310141224657740950000002531895602732464267_);fill:#FFFFFF;}
	.st37{clip-path:url(#SVGID_00000151505046070252954480000015493088964506687664_);fill:#FFFFFF;}
	.st38{clip-path:url(#SVGID_00000083087624054624959200000001066720114646835596_);fill:#FFFFFF;}
	.st39{clip-path:url(#SVGID_00000055672173620828832570000000496033560768092804_);fill:#FFFFFF;}
	.st40{clip-path:url(#SVGID_00000140716470359136574360000004390299329444440992_);fill:#FFFFFF;}
	.st41{clip-path:url(#SVGID_00000090975984480306343730000003929959387245730459_);fill:#FFFFFF;}
	.st42{clip-path:url(#SVGID_00000049221029584629081380000016752714468348070290_);fill:#FFFFFF;}
	.st43{clip-path:url(#SVGID_00000070089100366975641120000012335828412071207085_);fill:#FFFFFF;}
	.st44{clip-path:url(#SVGID_00000081638089080454123250000006166086010861586348_);fill:#FFFFFF;}
	.st45{clip-path:url(#SVGID_00000087392536573331789230000013229017734054655672_);fill:#FFFFFF;}
	.st46{clip-path:url(#SVGID_00000127033285049907385800000006547407463557221298_);fill:#FFFFFF;}
	.st47{clip-path:url(#SVGID_00000088853772460899840900000006506053897238876052_);fill:#FFFFFF;}
	.st48{clip-path:url(#SVGID_00000144306373881981761960000010144835883604897973_);fill:#FFFFFF;}
	.st49{clip-path:url(#SVGID_00000106130998807541700880000018113143059089583752_);fill:#FFFFFF;}
	.st50{clip-path:url(#SVGID_00000072273616513690245020000004090382765061991103_);fill:#FFFFFF;}
	.st51{clip-path:url(#SVGID_00000007388851341095565540000009804948222460956039_);fill:#FFFFFF;}
	.st52{clip-path:url(#SVGID_00000110439174666022623450000002937784835038990778_);fill:#FFFFFF;}
	.st53{clip-path:url(#SVGID_00000052812106022019224330000001935567472456003988_);fill:#FFFFFF;}
	.st54{clip-path:url(#SVGID_00000118372722970033760570000011694919448370294705_);fill:#FFFFFF;}
	.st55{clip-path:url(#SVGID_00000122699079137118221650000002731178652528921478_);fill:#FFFFFF;}
	.st56{clip-path:url(#SVGID_00000125574120195457993080000017381467989647413686_);fill:#FFFFFF;}
	.st57{clip-path:url(#SVGID_00000080199873766173357940000009342700050589586585_);fill:#FFFFFF;}
	.st58{clip-path:url(#SVGID_00000154406642349647323170000002980501699813961355_);fill:#FFFFFF;}
	.st59{clip-path:url(#SVGID_00000069365659129226208660000007746752867348876965_);fill:#FFFFFF;}
	.st60{clip-path:url(#SVGID_00000149365554705189415490000011829519419435788676_);fill:#FFFFFF;}
	.st61{clip-path:url(#SVGID_00000083065460398019886740000000831820039431805846_);fill:#FFFFFF;}
	.st62{clip-path:url(#SVGID_00000116223043949152362940000007096722013301259912_);fill:#FFFFFF;}
	.st63{clip-path:url(#SVGID_00000065796942044150103260000006229826286425237940_);fill:#FFFFFF;}
</style>
<g id="USA_4_">
	<g>
		<g>
			<g>
				<defs>
					<rect id="SVGID_1_" width="32" height="19.99"/>
				</defs>
				<clipPath id="SVGID_00000043448568898994784090000009427418242079018685_">
					<use xlink:href="#SVGID_1_"  style="overflow:visible;"/>
				</clipPath>
				
					<rect y="18.45" style="clip-path:url(#SVGID_00000043448568898994784090000009427418242079018685_);fill:#B52023;" width="32" height="1.54"/>
			</g>
			<g>
				<defs>
					<rect id="SVGID_00000026866450594964436960000003907524396848425103_" width="32" height="19.99"/>
				</defs>
				<clipPath id="SVGID_00000031184970218313958570000006844852293541137343_">
					<use xlink:href="#SVGID_00000026866450594964436960000003907524396848425103_"  style="overflow:visible;"/>
				</clipPath>
				
					<rect y="16.91" style="clip-path:url(#SVGID_00000031184970218313958570000006844852293541137343_);fill:#FFFFFF;" width="32" height="1.54"/>
			</g>
			<g>
				<defs>
					<rect id="SVGID_00000115498859349849953590000008896373539273132467_" width="32" height="19.99"/>
				</defs>
				<clipPath id="SVGID_00000101818717216349283910000018218412392426188716_">
					<use xlink:href="#SVGID_00000115498859349849953590000008896373539273132467_"  style="overflow:visible;"/>
				</clipPath>
				
					<rect y="15.38" style="clip-path:url(#SVGID_00000101818717216349283910000018218412392426188716_);fill:#B52023;" width="32" height="1.54"/>
			</g>
			<g>
				<defs>
					<rect id="SVGID_00000098180721893774919100000011320570756064460699_" width="32" height="19.99"/>
				</defs>
				<clipPath id="SVGID_00000070083528706088211170000006601821584721179297_">
					<use xlink:href="#SVGID_00000098180721893774919100000011320570756064460699_"  style="overflow:visible;"/>
				</clipPath>
				
					<rect y="13.84" style="clip-path:url(#SVGID_00000070083528706088211170000006601821584721179297_);fill:#FFFFFF;" width="32" height="1.54"/>
			</g>
			<g>
				<defs>
					<rect id="SVGID_00000120529518242544548340000000326459353835766159_" width="32" height="19.99"/>
				</defs>
				<clipPath id="SVGID_00000150079168482095585560000017005319810307607717_">
					<use xlink:href="#SVGID_00000120529518242544548340000000326459353835766159_"  style="overflow:visible;"/>
				</clipPath>
				
					<rect y="12.3" style="clip-path:url(#SVGID_00000150079168482095585560000017005319810307607717_);fill:#B52023;" width="32" height="1.54"/>
			</g>
			<g>
				<defs>
					<rect id="SVGID_00000050633452804275081930000012401614167336190869_" width="32" height="19.99"/>
				</defs>
				<clipPath id="SVGID_00000028287328585861097450000012587843574744171913_">
					<use xlink:href="#SVGID_00000050633452804275081930000012401614167336190869_"  style="overflow:visible;"/>
				</clipPath>
				
					<rect y="10.76" style="clip-path:url(#SVGID_00000028287328585861097450000012587843574744171913_);fill:#FFFFFF;" width="32" height="1.54"/>
			</g>
			<g>
				<defs>
					<rect id="SVGID_00000082350469589571223150000018180122043577995199_" width="32" height="19.99"/>
				</defs>
				<clipPath id="SVGID_00000171001545053144633940000011555930293821534116_">
					<use xlink:href="#SVGID_00000082350469589571223150000018180122043577995199_"  style="overflow:visible;"/>
				</clipPath>
				
					<rect y="9.22" style="clip-path:url(#SVGID_00000171001545053144633940000011555930293821534116_);fill:#B52023;" width="32" height="1.54"/>
			</g>
			<g>
				<defs>
					<rect id="SVGID_00000129179212266195017220000003675801062134211981_" width="32" height="19.99"/>
				</defs>
				<clipPath id="SVGID_00000026136734357308296350000003754573371200845700_">
					<use xlink:href="#SVGID_00000129179212266195017220000003675801062134211981_"  style="overflow:visible;"/>
				</clipPath>
				
					<rect y="7.69" style="clip-path:url(#SVGID_00000026136734357308296350000003754573371200845700_);fill:#FFFFFF;" width="32" height="1.54"/>
			</g>
			<g>
				<defs>
					<rect id="SVGID_00000054977418977914838400000004207902662361676170_" width="32" height="19.99"/>
				</defs>
				<clipPath id="SVGID_00000050625800317864249130000018372600471705194900_">
					<use xlink:href="#SVGID_00000054977418977914838400000004207902662361676170_"  style="overflow:visible;"/>
				</clipPath>
				
					<rect y="6.15" style="clip-path:url(#SVGID_00000050625800317864249130000018372600471705194900_);fill:#B52023;" width="32" height="1.54"/>
			</g>
			<g>
				<defs>
					<rect id="SVGID_00000017510511742660865270000000148820645008837039_" width="32" height="19.99"/>
				</defs>
				<clipPath id="SVGID_00000118360920630509704250000014973033240397811597_">
					<use xlink:href="#SVGID_00000017510511742660865270000000148820645008837039_"  style="overflow:visible;"/>
				</clipPath>
				
					<rect y="4.61" style="clip-path:url(#SVGID_00000118360920630509704250000014973033240397811597_);fill:#FFFFFF;" width="32" height="1.54"/>
			</g>
			<g>
				<defs>
					<rect id="SVGID_00000157285552179777023060000002797760784357524887_" width="32" height="19.99"/>
				</defs>
				<clipPath id="SVGID_00000156560367441479420040000008269629334977967241_">
					<use xlink:href="#SVGID_00000157285552179777023060000002797760784357524887_"  style="overflow:visible;"/>
				</clipPath>
				
					<rect y="3.07" style="clip-path:url(#SVGID_00000156560367441479420040000008269629334977967241_);fill:#B52023;" width="32" height="1.54"/>
			</g>
			<g>
				<defs>
					<rect id="SVGID_00000046329737673522060630000005775081606136709514_" width="32" height="19.99"/>
				</defs>
				<clipPath id="SVGID_00000154387031297692258590000016274934953285107124_">
					<use xlink:href="#SVGID_00000046329737673522060630000005775081606136709514_"  style="overflow:visible;"/>
				</clipPath>
				
					<rect y="1.54" style="clip-path:url(#SVGID_00000154387031297692258590000016274934953285107124_);fill:#FFFFFF;" width="32" height="1.54"/>
			</g>
			<g>
				<defs>
					<rect id="SVGID_00000119803435864212480310000014825261928258033825_" width="32" height="19.99"/>
				</defs>
				<clipPath id="SVGID_00000129896178173553484710000000764310028121269945_">
					<use xlink:href="#SVGID_00000119803435864212480310000014825261928258033825_"  style="overflow:visible;"/>
				</clipPath>
				
					<rect style="clip-path:url(#SVGID_00000129896178173553484710000000764310028121269945_);fill:#B52023;" width="32" height="1.54"/>
			</g>
			<g>
				<defs>
					<rect id="SVGID_00000178914016368622437610000005451066670130256304_" width="32" height="19.99"/>
				</defs>
				<clipPath id="SVGID_00000170267325632701781780000006908027645339531173_">
					<use xlink:href="#SVGID_00000178914016368622437610000005451066670130256304_"  style="overflow:visible;"/>
				</clipPath>
				
					<rect style="clip-path:url(#SVGID_00000170267325632701781780000006908027645339531173_);fill:#28335C;" width="14.61" height="10.77"/>
			</g>
			<g>
				<defs>
					<rect id="SVGID_00000019680314536513179520000014859028481660717984_" width="32" height="19.99"/>
				</defs>
				<clipPath id="SVGID_00000127015785710208817030000002159427290658118577_">
					<use xlink:href="#SVGID_00000019680314536513179520000014859028481660717984_"  style="overflow:visible;"/>
				</clipPath>
				<polygon style="clip-path:url(#SVGID_00000127015785710208817030000002159427290658118577_);fill:#FFFFFF;" points="1.32,1.18 
					1.44,1.59 1.84,1.59 1.52,1.84 1.64,2.25 1.32,2 0.99,2.25 1.12,1.84 0.8,1.59 1.19,1.59 				"/>
			</g>
			<g>
				<defs>
					<rect id="SVGID_00000036215136770577683470000003548899282778247868_" width="32" height="19.99"/>
				</defs>
				<clipPath id="SVGID_00000011032401907496236320000016286796597711609262_">
					<use xlink:href="#SVGID_00000036215136770577683470000003548899282778247868_"  style="overflow:visible;"/>
				</clipPath>
				<polygon style="clip-path:url(#SVGID_00000011032401907496236320000016286796597711609262_);fill:#FFFFFF;" points="1.32,2.98 
					1.44,3.39 1.84,3.39 1.52,3.64 1.64,4.04 1.32,3.79 0.99,4.04 1.12,3.64 0.8,3.39 1.19,3.39 				"/>
			</g>
			<g>
				<defs>
					<rect id="SVGID_00000058551044864160339270000001521286938820104374_" width="32" height="19.99"/>
				</defs>
				<clipPath id="SVGID_00000085249398073341459620000011043255080227132854_">
					<use xlink:href="#SVGID_00000058551044864160339270000001521286938820104374_"  style="overflow:visible;"/>
				</clipPath>
				<polygon style="clip-path:url(#SVGID_00000085249398073341459620000011043255080227132854_);fill:#FFFFFF;" points="1.32,4.78 
					1.44,5.18 1.84,5.18 1.52,5.43 1.64,5.84 1.32,5.59 0.99,5.84 1.12,5.43 0.8,5.18 1.19,5.18 				"/>
			</g>
			<g>
				<defs>
					<rect id="SVGID_00000101799277048824320640000013274048302235184259_" width="32" height="19.99"/>
				</defs>
				<clipPath id="SVGID_00000111179494581858085760000004231832792268634796_">
					<use xlink:href="#SVGID_00000101799277048824320640000013274048302235184259_"  style="overflow:visible;"/>
				</clipPath>
				<polygon style="clip-path:url(#SVGID_00000111179494581858085760000004231832792268634796_);fill:#FFFFFF;" points="1.32,6.57 
					1.44,6.98 1.84,6.98 1.52,7.23 1.64,7.64 1.32,7.39 0.99,7.64 1.12,7.23 0.8,6.98 1.19,6.98 				"/>
			</g>
			<g>
				<defs>
					<rect id="SVGID_00000174588492470903339870000006470339556942443408_" width="32" height="19.99"/>
				</defs>
				<clipPath id="SVGID_00000145767724396558228950000014930891989409276600_">
					<use xlink:href="#SVGID_00000174588492470903339870000006470339556942443408_"  style="overflow:visible;"/>
				</clipPath>
				<polygon style="clip-path:url(#SVGID_00000145767724396558228950000014930891989409276600_);fill:#FFFFFF;" points="1.32,8.37 
					1.44,8.78 1.84,8.78 1.52,9.03 1.64,9.44 1.32,9.18 0.99,9.44 1.12,9.03 0.8,8.78 1.19,8.78 				"/>
			</g>
			<g>
				<defs>
					<rect id="SVGID_00000011729027031007992900000000833612622727654586_" width="32" height="19.99"/>
				</defs>
				<clipPath id="SVGID_00000054946427068410621640000018266017230803974820_">
					<use xlink:href="#SVGID_00000011729027031007992900000000833612622727654586_"  style="overflow:visible;"/>
				</clipPath>
				<polygon style="clip-path:url(#SVGID_00000054946427068410621640000018266017230803974820_);fill:#FFFFFF;" points="2.49,2.13 
					2.6,2.54 3.01,2.54 2.69,2.79 2.81,3.19 2.49,2.94 2.16,3.19 2.28,2.79 1.96,2.54 2.36,2.54 				"/>
			</g>
			<g>
				<defs>
					<rect id="SVGID_00000101086031532980148160000008134593835389037190_" width="32" height="19.99"/>
				</defs>
				<clipPath id="SVGID_00000092437515852864238310000013975208418229558462_">
					<use xlink:href="#SVGID_00000101086031532980148160000008134593835389037190_"  style="overflow:visible;"/>
				</clipPath>
				<polygon style="clip-path:url(#SVGID_00000092437515852864238310000013975208418229558462_);fill:#FFFFFF;" points="2.49,3.93 
					2.6,4.33 3.01,4.33 2.69,4.59 2.81,4.99 2.49,4.74 2.16,4.99 2.28,4.59 1.96,4.33 2.36,4.33 				"/>
			</g>
			<g>
				<defs>
					<rect id="SVGID_00000173862389526018457910000000599137891378336668_" width="32" height="19.99"/>
				</defs>
				<clipPath id="SVGID_00000178899885768692935910000017802275010679556226_">
					<use xlink:href="#SVGID_00000173862389526018457910000000599137891378336668_"  style="overflow:visible;"/>
				</clipPath>
				<polygon style="clip-path:url(#SVGID_00000178899885768692935910000017802275010679556226_);fill:#FFFFFF;" points="2.49,5.72 
					2.6,6.13 3.01,6.13 2.69,6.38 2.81,6.79 2.49,6.54 2.16,6.79 2.28,6.38 1.96,6.13 2.36,6.13 				"/>
			</g>
			<g>
				<defs>
					<rect id="SVGID_00000077321786524536062410000010522599587823742654_" width="32" height="19.99"/>
				</defs>
				<clipPath id="SVGID_00000088105249469345171240000013927436610679751357_">
					<use xlink:href="#SVGID_00000077321786524536062410000010522599587823742654_"  style="overflow:visible;"/>
				</clipPath>
				<polygon style="clip-path:url(#SVGID_00000088105249469345171240000013927436610679751357_);fill:#FFFFFF;" points="2.49,7.52 
					2.6,7.93 3.01,7.93 2.69,8.18 2.81,8.58 2.49,8.33 2.16,8.58 2.28,8.18 1.96,7.93 2.36,7.93 				"/>
			</g>
			<g>
				<defs>
					<rect id="SVGID_00000157309313190446821840000011158002751148584124_" width="32" height="19.99"/>
				</defs>
				<clipPath id="SVGID_00000098914728554031926500000016813260790607901599_">
					<use xlink:href="#SVGID_00000157309313190446821840000011158002751148584124_"  style="overflow:visible;"/>
				</clipPath>
				<polygon style="clip-path:url(#SVGID_00000098914728554031926500000016813260790607901599_);fill:#FFFFFF;" points="3.67,1.18 
					3.79,1.59 4.19,1.59 3.87,1.84 3.99,2.25 3.67,2 3.35,2.25 3.47,1.84 3.14,1.59 3.54,1.59 				"/>
			</g>
			<g>
				<defs>
					<rect id="SVGID_00000162311991024486258330000016327831468160891834_" width="32" height="19.99"/>
				</defs>
				<clipPath id="SVGID_00000044898485116143668370000001540250956540853407_">
					<use xlink:href="#SVGID_00000162311991024486258330000016327831468160891834_"  style="overflow:visible;"/>
				</clipPath>
				<polygon style="clip-path:url(#SVGID_00000044898485116143668370000001540250956540853407_);fill:#FFFFFF;" points="3.67,2.98 
					3.79,3.39 4.19,3.39 3.87,3.64 3.99,4.04 3.67,3.79 3.35,4.04 3.47,3.64 3.14,3.39 3.54,3.39 				"/>
			</g>
			<g>
				<defs>
					<rect id="SVGID_00000121959345104119345330000017783364988092745645_" width="32" height="19.99"/>
				</defs>
				<clipPath id="SVGID_00000099634926814540951950000010570107687886253699_">
					<use xlink:href="#SVGID_00000121959345104119345330000017783364988092745645_"  style="overflow:visible;"/>
				</clipPath>
				<polygon style="clip-path:url(#SVGID_00000099634926814540951950000010570107687886253699_);fill:#FFFFFF;" points="3.67,4.78 
					3.79,5.18 4.19,5.18 3.87,5.43 3.99,5.84 3.67,5.59 3.35,5.84 3.47,5.43 3.14,5.18 3.54,5.18 				"/>
			</g>
			<g>
				<defs>
					<rect id="SVGID_00000069382990256918099650000004063887812969698994_" width="32" height="19.99"/>
				</defs>
				<clipPath id="SVGID_00000114790345790784800120000017985668118484367279_">
					<use xlink:href="#SVGID_00000069382990256918099650000004063887812969698994_"  style="overflow:visible;"/>
				</clipPath>
				<polygon style="clip-path:url(#SVGID_00000114790345790784800120000017985668118484367279_);fill:#FFFFFF;" points="3.67,6.57 
					3.79,6.98 4.19,6.98 3.87,7.23 3.99,7.64 3.67,7.39 3.35,7.64 3.47,7.23 3.14,6.98 3.54,6.98 				"/>
			</g>
			<g>
				<defs>
					<rect id="SVGID_00000178909262405303312850000010365781728177439633_" width="32" height="19.99"/>
				</defs>
				<clipPath id="SVGID_00000092419753018028362270000013569657140658150078_">
					<use xlink:href="#SVGID_00000178909262405303312850000010365781728177439633_"  style="overflow:visible;"/>
				</clipPath>
				<polygon style="clip-path:url(#SVGID_00000092419753018028362270000013569657140658150078_);fill:#FFFFFF;" points="3.67,8.37 
					3.79,8.78 4.19,8.78 3.87,9.03 3.99,9.44 3.67,9.18 3.35,9.44 3.47,9.03 3.14,8.78 3.54,8.78 				"/>
			</g>
			<g>
				<defs>
					<rect id="SVGID_00000037653590311611277720000009353280869341739701_" width="32" height="19.99"/>
				</defs>
				<clipPath id="SVGID_00000075847808305810777820000001701002547224851331_">
					<use xlink:href="#SVGID_00000037653590311611277720000009353280869341739701_"  style="overflow:visible;"/>
				</clipPath>
				<polygon style="clip-path:url(#SVGID_00000075847808305810777820000001701002547224851331_);fill:#FFFFFF;" points="4.84,2.13 
					4.96,2.54 5.36,2.54 5.04,2.79 5.16,3.19 4.84,2.94 4.51,3.19 4.64,2.79 4.31,2.54 4.71,2.54 				"/>
			</g>
			<g>
				<defs>
					<rect id="SVGID_00000048465958270266197450000002790107190266260362_" width="32" height="19.99"/>
				</defs>
				<clipPath id="SVGID_00000078030989228318322770000013609869131605617321_">
					<use xlink:href="#SVGID_00000048465958270266197450000002790107190266260362_"  style="overflow:visible;"/>
				</clipPath>
				<polygon style="clip-path:url(#SVGID_00000078030989228318322770000013609869131605617321_);fill:#FFFFFF;" points="4.84,3.93 
					4.96,4.33 5.36,4.33 5.04,4.59 5.16,4.99 4.84,4.74 4.51,4.99 4.64,4.59 4.31,4.33 4.71,4.33 				"/>
			</g>
			<g>
				<defs>
					<rect id="SVGID_00000122709009692913912630000012523991964811491729_" width="32" height="19.99"/>
				</defs>
				<clipPath id="SVGID_00000103233982942190990910000015770516241250581169_">
					<use xlink:href="#SVGID_00000122709009692913912630000012523991964811491729_"  style="overflow:visible;"/>
				</clipPath>
				<polygon style="clip-path:url(#SVGID_00000103233982942190990910000015770516241250581169_);fill:#FFFFFF;" points="4.84,5.72 
					4.96,6.13 5.36,6.13 5.04,6.38 5.16,6.79 4.84,6.54 4.51,6.79 4.64,6.38 4.31,6.13 4.71,6.13 				"/>
			</g>
			<g>
				<defs>
					<rect id="SVGID_00000132770046308556478580000013420605775255613077_" width="32" height="19.99"/>
				</defs>
				<clipPath id="SVGID_00000115474552323231786080000000256770110517430436_">
					<use xlink:href="#SVGID_00000132770046308556478580000013420605775255613077_"  style="overflow:visible;"/>
				</clipPath>
				<polygon style="clip-path:url(#SVGID_00000115474552323231786080000000256770110517430436_);fill:#FFFFFF;" points="4.84,7.52 
					4.96,7.93 5.36,7.93 5.04,8.18 5.16,8.58 4.84,8.33 4.51,8.58 4.64,8.18 4.31,7.93 4.71,7.93 				"/>
			</g>
			<g>
				<defs>
					<rect id="SVGID_00000061455465240211258100000015502657206089291195_" width="32" height="19.99"/>
				</defs>
				<clipPath id="SVGID_00000114053259845471821390000003690754444281674936_">
					<use xlink:href="#SVGID_00000061455465240211258100000015502657206089291195_"  style="overflow:visible;"/>
				</clipPath>
				<polygon style="clip-path:url(#SVGID_00000114053259845471821390000003690754444281674936_);fill:#FFFFFF;" points="6.02,1.18 
					6.15,1.59 6.54,1.59 6.22,1.84 6.35,2.25 6.02,2 5.7,2.25 5.82,1.84 5.5,1.59 5.9,1.59 				"/>
			</g>
			<g>
				<defs>
					<rect id="SVGID_00000164475048761633813010000003609448105493593737_" width="32" height="19.99"/>
				</defs>
				<clipPath id="SVGID_00000137852512912873567670000006809916170067010434_">
					<use xlink:href="#SVGID_00000164475048761633813010000003609448105493593737_"  style="overflow:visible;"/>
				</clipPath>
				<polygon style="clip-path:url(#SVGID_00000137852512912873567670000006809916170067010434_);fill:#FFFFFF;" points="6.02,2.98 
					6.15,3.39 6.54,3.39 6.22,3.64 6.35,4.04 6.02,3.79 5.7,4.04 5.82,3.64 5.5,3.39 5.9,3.39 				"/>
			</g>
			<g>
				<defs>
					<rect id="SVGID_00000034798058998437476640000008888310707101127338_" width="32" height="19.99"/>
				</defs>
				<clipPath id="SVGID_00000079463261171844680380000008707867857926703247_">
					<use xlink:href="#SVGID_00000034798058998437476640000008888310707101127338_"  style="overflow:visible;"/>
				</clipPath>
				<polygon style="clip-path:url(#SVGID_00000079463261171844680380000008707867857926703247_);fill:#FFFFFF;" points="6.02,4.78 
					6.15,5.18 6.54,5.18 6.22,5.43 6.35,5.84 6.02,5.59 5.7,5.84 5.82,5.43 5.5,5.18 5.9,5.18 				"/>
			</g>
			<g>
				<defs>
					<rect id="SVGID_00000060730754275416409890000001204696286188268173_" width="32" height="19.99"/>
				</defs>
				<clipPath id="SVGID_00000053528490835854655790000001935936881629846947_">
					<use xlink:href="#SVGID_00000060730754275416409890000001204696286188268173_"  style="overflow:visible;"/>
				</clipPath>
				<polygon style="clip-path:url(#SVGID_00000053528490835854655790000001935936881629846947_);fill:#FFFFFF;" points="6.02,6.57 
					6.15,6.98 6.54,6.98 6.22,7.23 6.35,7.64 6.02,7.39 5.7,7.64 5.82,7.23 5.5,6.98 5.9,6.98 				"/>
			</g>
			<g>
				<defs>
					<rect id="SVGID_00000011000614238473849340000006586845171732736901_" width="32" height="19.99"/>
				</defs>
				<clipPath id="SVGID_00000085929593089695884510000003917459811574566581_">
					<use xlink:href="#SVGID_00000011000614238473849340000006586845171732736901_"  style="overflow:visible;"/>
				</clipPath>
				<polygon style="clip-path:url(#SVGID_00000085929593089695884510000003917459811574566581_);fill:#FFFFFF;" points="6.02,8.37 
					6.15,8.78 6.54,8.78 6.22,9.03 6.35,9.44 6.02,9.18 5.7,9.44 5.82,9.03 5.5,8.78 5.9,8.78 				"/>
			</g>
			<g>
				<defs>
					<rect id="SVGID_00000162346439619605294960000000521734263045113472_" width="32" height="19.99"/>
				</defs>
				<clipPath id="SVGID_00000063625035952384906430000011019879650514029234_">
					<use xlink:href="#SVGID_00000162346439619605294960000000521734263045113472_"  style="overflow:visible;"/>
				</clipPath>
				<polygon style="clip-path:url(#SVGID_00000063625035952384906430000011019879650514029234_);fill:#FFFFFF;" points="7.19,2.13 
					7.31,2.54 7.71,2.54 7.39,2.79 7.51,3.19 7.19,2.94 6.87,3.19 6.99,2.79 6.67,2.54 7.06,2.54 				"/>
			</g>
			<g>
				<defs>
					<rect id="SVGID_00000158008110660192400190000015351760046619901574_" width="32" height="19.99"/>
				</defs>
				<clipPath id="SVGID_00000031895480824266465520000002799427370943459717_">
					<use xlink:href="#SVGID_00000158008110660192400190000015351760046619901574_"  style="overflow:visible;"/>
				</clipPath>
				<polygon style="clip-path:url(#SVGID_00000031895480824266465520000002799427370943459717_);fill:#FFFFFF;" points="7.19,3.93 
					7.31,4.33 7.71,4.33 7.39,4.59 7.51,4.99 7.19,4.74 6.87,4.99 6.99,4.59 6.67,4.33 7.06,4.33 				"/>
			</g>
			<g>
				<defs>
					<rect id="SVGID_00000065778264178605312840000010173608216894216595_" width="32" height="19.99"/>
				</defs>
				<clipPath id="SVGID_00000039832508624520802960000005245299995727526318_">
					<use xlink:href="#SVGID_00000065778264178605312840000010173608216894216595_"  style="overflow:visible;"/>
				</clipPath>
				<polygon style="clip-path:url(#SVGID_00000039832508624520802960000005245299995727526318_);fill:#FFFFFF;" points="7.19,5.72 
					7.31,6.13 7.71,6.13 7.39,6.38 7.51,6.79 7.19,6.54 6.87,6.79 6.99,6.38 6.67,6.13 7.06,6.13 				"/>
			</g>
			<g>
				<defs>
					<rect id="SVGID_00000134944262908388997610000000503038273008404382_" width="32" height="19.99"/>
				</defs>
				<clipPath id="SVGID_00000081646727489769241110000006437257128172543387_">
					<use xlink:href="#SVGID_00000134944262908388997610000000503038273008404382_"  style="overflow:visible;"/>
				</clipPath>
				<polygon style="clip-path:url(#SVGID_00000081646727489769241110000006437257128172543387_);fill:#FFFFFF;" points="7.19,7.52 
					7.31,7.93 7.71,7.93 7.39,8.18 7.51,8.58 7.19,8.33 6.87,8.58 6.99,8.18 6.67,7.93 7.06,7.93 				"/>
			</g>
			<g>
				<defs>
					<rect id="SVGID_00000129180035617137106530000014898870492357626018_" width="32" height="19.99"/>
				</defs>
				<clipPath id="SVGID_00000135660331990769868780000001792632871623942043_">
					<use xlink:href="#SVGID_00000129180035617137106530000014898870492357626018_"  style="overflow:visible;"/>
				</clipPath>
				<polygon style="clip-path:url(#SVGID_00000135660331990769868780000001792632871623942043_);fill:#FFFFFF;" points="8.37,1.18 
					8.49,1.59 8.89,1.59 8.57,1.84 8.7,2.25 8.37,2 8.05,2.25 8.17,1.84 7.85,1.59 8.25,1.59 				"/>
			</g>
			<g>
				<defs>
					<rect id="SVGID_00000036963070871239266960000008058324306840933556_" width="32" height="19.99"/>
				</defs>
				<clipPath id="SVGID_00000176744861062011422720000007169905004698344873_">
					<use xlink:href="#SVGID_00000036963070871239266960000008058324306840933556_"  style="overflow:visible;"/>
				</clipPath>
				<polygon style="clip-path:url(#SVGID_00000176744861062011422720000007169905004698344873_);fill:#FFFFFF;" points="8.37,2.98 
					8.49,3.39 8.89,3.39 8.57,3.64 8.7,4.04 8.37,3.79 8.05,4.04 8.17,3.64 7.85,3.39 8.25,3.39 				"/>
			</g>
			<g>
				<defs>
					<rect id="SVGID_00000122701965834723738820000001453282394272657563_" width="32" height="19.99"/>
				</defs>
				<clipPath id="SVGID_00000080899560357395574800000017984372178608790945_">
					<use xlink:href="#SVGID_00000122701965834723738820000001453282394272657563_"  style="overflow:visible;"/>
				</clipPath>
				<polygon style="clip-path:url(#SVGID_00000080899560357395574800000017984372178608790945_);fill:#FFFFFF;" points="8.37,4.78 
					8.49,5.18 8.89,5.18 8.57,5.43 8.7,5.84 8.37,5.59 8.05,5.84 8.17,5.43 7.85,5.18 8.25,5.18 				"/>
			</g>
			<g>
				<defs>
					<rect id="SVGID_00000054236603556617199560000017944942538224424613_" width="32" height="19.99"/>
				</defs>
				<clipPath id="SVGID_00000031174018071883235430000011288861860719981995_">
					<use xlink:href="#SVGID_00000054236603556617199560000017944942538224424613_"  style="overflow:visible;"/>
				</clipPath>
				<polygon style="clip-path:url(#SVGID_00000031174018071883235430000011288861860719981995_);fill:#FFFFFF;" points="8.37,6.57 
					8.49,6.98 8.89,6.98 8.57,7.23 8.7,7.64 8.37,7.39 8.05,7.64 8.17,7.23 7.85,6.98 8.25,6.98 				"/>
			</g>
			<g>
				<defs>
					<rect id="SVGID_00000075139330335865423140000009509008793422668217_" width="32" height="19.99"/>
				</defs>
				<clipPath id="SVGID_00000123422962741390835000000013069730976903799429_">
					<use xlink:href="#SVGID_00000075139330335865423140000009509008793422668217_"  style="overflow:visible;"/>
				</clipPath>
				<polygon style="clip-path:url(#SVGID_00000123422962741390835000000013069730976903799429_);fill:#FFFFFF;" points="8.37,8.37 
					8.49,8.78 8.89,8.78 8.57,9.03 8.7,9.44 8.37,9.18 8.05,9.44 8.17,9.03 7.85,8.78 8.25,8.78 				"/>
			</g>
			<g>
				<defs>
					<rect id="SVGID_00000025421753108628200260000001315519383847453091_" width="32" height="19.99"/>
				</defs>
				<clipPath id="SVGID_00000108998766581423310540000008419369506063438253_">
					<use xlink:href="#SVGID_00000025421753108628200260000001315519383847453091_"  style="overflow:visible;"/>
				</clipPath>
				<polygon style="clip-path:url(#SVGID_00000108998766581423310540000008419369506063438253_);fill:#FFFFFF;" points="9.54,2.13 
					9.66,2.54 10.06,2.54 9.74,2.79 9.86,3.19 9.54,2.94 9.22,3.19 9.34,2.79 9.02,2.54 9.42,2.54 				"/>
			</g>
			<g>
				<defs>
					<rect id="SVGID_00000046310873008600692020000013816864555711245220_" width="32" height="19.99"/>
				</defs>
				<clipPath id="SVGID_00000070077718576200451100000013452176437900095146_">
					<use xlink:href="#SVGID_00000046310873008600692020000013816864555711245220_"  style="overflow:visible;"/>
				</clipPath>
				<polygon style="clip-path:url(#SVGID_00000070077718576200451100000013452176437900095146_);fill:#FFFFFF;" points="9.54,3.93 
					9.66,4.33 10.06,4.33 9.74,4.59 9.86,4.99 9.54,4.74 9.22,4.99 9.34,4.59 9.02,4.33 9.42,4.33 				"/>
			</g>
			<g>
				<defs>
					<rect id="SVGID_00000054264317648155364360000012106536375802733995_" width="32" height="19.99"/>
				</defs>
				<clipPath id="SVGID_00000145768543881529988150000012570236120408364423_">
					<use xlink:href="#SVGID_00000054264317648155364360000012106536375802733995_"  style="overflow:visible;"/>
				</clipPath>
				<polygon style="clip-path:url(#SVGID_00000145768543881529988150000012570236120408364423_);fill:#FFFFFF;" points="9.54,5.72 
					9.66,6.13 10.06,6.13 9.74,6.38 9.86,6.79 9.54,6.54 9.22,6.79 9.34,6.38 9.02,6.13 9.42,6.13 				"/>
			</g>
			<g>
				<defs>
					<rect id="SVGID_00000070100809461562204690000016974379579758670485_" width="32" height="19.99"/>
				</defs>
				<clipPath id="SVGID_00000003784789930594650020000002922416009737974461_">
					<use xlink:href="#SVGID_00000070100809461562204690000016974379579758670485_"  style="overflow:visible;"/>
				</clipPath>
				<polygon style="clip-path:url(#SVGID_00000003784789930594650020000002922416009737974461_);fill:#FFFFFF;" points="9.54,7.52 
					9.66,7.93 10.06,7.93 9.74,8.18 9.86,8.58 9.54,8.33 9.22,8.58 9.34,8.18 9.02,7.93 9.42,7.93 				"/>
			</g>
			<g>
				<defs>
					<rect id="SVGID_00000139255885125641240070000000704079110938687920_" width="32" height="19.99"/>
				</defs>
				<clipPath id="SVGID_00000019664996378581015510000017134604183851707010_">
					<use xlink:href="#SVGID_00000139255885125641240070000000704079110938687920_"  style="overflow:visible;"/>
				</clipPath>
				<polygon style="clip-path:url(#SVGID_00000019664996378581015510000017134604183851707010_);fill:#FFFFFF;" points="10.72,1.18 
					10.85,1.59 11.25,1.59 10.92,1.84 11.05,2.25 10.72,2 10.4,2.25 10.52,1.84 10.2,1.59 10.6,1.59 				"/>
			</g>
			<g>
				<defs>
					<rect id="SVGID_00000121966527986812922140000004383930958674294657_" width="32" height="19.99"/>
				</defs>
				<clipPath id="SVGID_00000053545585179058348290000004137834795989023379_">
					<use xlink:href="#SVGID_00000121966527986812922140000004383930958674294657_"  style="overflow:visible;"/>
				</clipPath>
				<polygon style="clip-path:url(#SVGID_00000053545585179058348290000004137834795989023379_);fill:#FFFFFF;" points="10.72,2.98 
					10.85,3.39 11.25,3.39 10.92,3.64 11.05,4.04 10.72,3.79 10.4,4.04 10.52,3.64 10.2,3.39 10.6,3.39 				"/>
			</g>
			<g>
				<defs>
					<rect id="SVGID_00000152227803319543096890000006110288467236835745_" width="32" height="19.99"/>
				</defs>
				<clipPath id="SVGID_00000048458788211810786130000017387088426911807923_">
					<use xlink:href="#SVGID_00000152227803319543096890000006110288467236835745_"  style="overflow:visible;"/>
				</clipPath>
				<polygon style="clip-path:url(#SVGID_00000048458788211810786130000017387088426911807923_);fill:#FFFFFF;" points="10.72,4.78 
					10.85,5.18 11.25,5.18 10.92,5.43 11.05,5.84 10.72,5.59 10.4,5.84 10.52,5.43 10.2,5.18 10.6,5.18 				"/>
			</g>
			<g>
				<defs>
					<rect id="SVGID_00000034075651436992476330000008378569903585110925_" width="32" height="19.99"/>
				</defs>
				<clipPath id="SVGID_00000031910826327386608330000011145388646435797938_">
					<use xlink:href="#SVGID_00000034075651436992476330000008378569903585110925_"  style="overflow:visible;"/>
				</clipPath>
				<polygon style="clip-path:url(#SVGID_00000031910826327386608330000011145388646435797938_);fill:#FFFFFF;" points="10.72,6.57 
					10.85,6.98 11.25,6.98 10.92,7.23 11.05,7.64 10.72,7.39 10.4,7.64 10.52,7.23 10.2,6.98 10.6,6.98 				"/>
			</g>
			<g>
				<defs>
					<rect id="SVGID_00000036938424889718039530000016867731845194569918_" width="32" height="19.99"/>
				</defs>
				<clipPath id="SVGID_00000080886820348716126450000001757221896054041222_">
					<use xlink:href="#SVGID_00000036938424889718039530000016867731845194569918_"  style="overflow:visible;"/>
				</clipPath>
				<polygon style="clip-path:url(#SVGID_00000080886820348716126450000001757221896054041222_);fill:#FFFFFF;" points="10.72,8.37 
					10.85,8.78 11.25,8.78 10.92,9.03 11.05,9.44 10.72,9.18 10.4,9.44 10.52,9.03 10.2,8.78 10.6,8.78 				"/>
			</g>
			<g>
				<defs>
					<rect id="SVGID_00000018937780312851720050000017872443181862610077_" width="32" height="19.99"/>
				</defs>
				<clipPath id="SVGID_00000157288606164565488810000013261782918603410050_">
					<use xlink:href="#SVGID_00000018937780312851720050000017872443181862610077_"  style="overflow:visible;"/>
				</clipPath>
				<polygon style="clip-path:url(#SVGID_00000157288606164565488810000013261782918603410050_);fill:#FFFFFF;" points="11.89,2.13 
					12.01,2.54 12.41,2.54 12.09,2.79 12.21,3.19 11.89,2.94 11.57,3.19 11.69,2.79 11.37,2.54 11.77,2.54 				"/>
			</g>
			<g>
				<defs>
					<rect id="SVGID_00000089555106412086207610000017182252057141173439_" width="32" height="19.99"/>
				</defs>
				<clipPath id="SVGID_00000036242258827480140420000005201552883406902414_">
					<use xlink:href="#SVGID_00000089555106412086207610000017182252057141173439_"  style="overflow:visible;"/>
				</clipPath>
				<polygon style="clip-path:url(#SVGID_00000036242258827480140420000005201552883406902414_);fill:#FFFFFF;" points="11.89,3.93 
					12.01,4.33 12.41,4.33 12.09,4.59 12.21,4.99 11.89,4.74 11.57,4.99 11.69,4.59 11.37,4.33 11.77,4.33 				"/>
			</g>
			<g>
				<defs>
					<rect id="SVGID_00000071520916475729823800000017303748671263729565_" width="32" height="19.99"/>
				</defs>
				<clipPath id="SVGID_00000145768519072420976030000003910706233205694350_">
					<use xlink:href="#SVGID_00000071520916475729823800000017303748671263729565_"  style="overflow:visible;"/>
				</clipPath>
				<polygon style="clip-path:url(#SVGID_00000145768519072420976030000003910706233205694350_);fill:#FFFFFF;" points="11.89,5.72 
					12.01,6.13 12.41,6.13 12.09,6.38 12.21,6.79 11.89,6.54 11.57,6.79 11.69,6.38 11.37,6.13 11.77,6.13 				"/>
			</g>
			<g>
				<defs>
					<rect id="SVGID_00000169519380229178608500000007180842716466162823_" width="32" height="19.99"/>
				</defs>
				<clipPath id="SVGID_00000108302069558496806250000013334970609720930728_">
					<use xlink:href="#SVGID_00000169519380229178608500000007180842716466162823_"  style="overflow:visible;"/>
				</clipPath>
				<polygon style="clip-path:url(#SVGID_00000108302069558496806250000013334970609720930728_);fill:#FFFFFF;" points="11.89,7.52 
					12.01,7.93 12.41,7.93 12.09,8.18 12.21,8.58 11.89,8.33 11.57,8.58 11.69,8.18 11.37,7.93 11.77,7.93 				"/>
			</g>
			<g>
				<defs>
					<rect id="SVGID_00000096022593490393949270000012049810377555240852_" width="32" height="19.99"/>
				</defs>
				<clipPath id="SVGID_00000132083083852779002860000003083327339539257012_">
					<use xlink:href="#SVGID_00000096022593490393949270000012049810377555240852_"  style="overflow:visible;"/>
				</clipPath>
				<polygon style="clip-path:url(#SVGID_00000132083083852779002860000003083327339539257012_);fill:#FFFFFF;" points="13.07,1.18 
					13.2,1.59 13.6,1.59 13.27,1.84 13.4,2.25 13.07,2 12.75,2.25 12.87,1.84 12.55,1.59 12.95,1.59 				"/>
			</g>
			<g>
				<defs>
					<rect id="SVGID_00000068648650265915043110000010093310410586325147_" width="32" height="19.99"/>
				</defs>
				<clipPath id="SVGID_00000011008272206501976580000008597225937936359582_">
					<use xlink:href="#SVGID_00000068648650265915043110000010093310410586325147_"  style="overflow:visible;"/>
				</clipPath>
				<polygon style="clip-path:url(#SVGID_00000011008272206501976580000008597225937936359582_);fill:#FFFFFF;" points="13.07,2.98 
					13.2,3.39 13.6,3.39 13.27,3.64 13.4,4.04 13.07,3.79 12.75,4.04 12.87,3.64 12.55,3.39 12.95,3.39 				"/>
			</g>
			<g>
				<defs>
					<rect id="SVGID_00000149363895309914650040000010806137645422197656_" width="32" height="19.99"/>
				</defs>
				<clipPath id="SVGID_00000124144221525050467630000000540239718209263802_">
					<use xlink:href="#SVGID_00000149363895309914650040000010806137645422197656_"  style="overflow:visible;"/>
				</clipPath>
				<polygon style="clip-path:url(#SVGID_00000124144221525050467630000000540239718209263802_);fill:#FFFFFF;" points="13.07,4.78 
					13.2,5.18 13.6,5.18 13.27,5.43 13.4,5.84 13.07,5.59 12.75,5.84 12.87,5.43 12.55,5.18 12.95,5.18 				"/>
			</g>
			<g>
				<defs>
					<rect id="SVGID_00000098189374528969478160000002645569822805402044_" width="32" height="19.99"/>
				</defs>
				<clipPath id="SVGID_00000098906341036378007400000006460344854333773991_">
					<use xlink:href="#SVGID_00000098189374528969478160000002645569822805402044_"  style="overflow:visible;"/>
				</clipPath>
				<polygon style="clip-path:url(#SVGID_00000098906341036378007400000006460344854333773991_);fill:#FFFFFF;" points="13.07,6.57 
					13.2,6.98 13.6,6.98 13.27,7.23 13.4,7.64 13.07,7.39 12.75,7.64 12.87,7.23 12.55,6.98 12.95,6.98 				"/>
			</g>
			<g>
				<defs>
					<rect id="SVGID_00000003814421961312294010000016607614232880968636_" width="32" height="19.99"/>
				</defs>
				<clipPath id="SVGID_00000127002149590856353860000004376689300460745882_">
					<use xlink:href="#SVGID_00000003814421961312294010000016607614232880968636_"  style="overflow:visible;"/>
				</clipPath>
				<polygon style="clip-path:url(#SVGID_00000127002149590856353860000004376689300460745882_);fill:#FFFFFF;" points="13.07,8.37 
					13.2,8.78 13.6,8.78 13.27,9.03 13.4,9.44 13.07,9.18 12.75,9.44 12.87,9.03 12.55,8.78 12.95,8.78 				"/>
			</g>
		</g>
	</g>
</g>
</svg>
