<svg width="18" height="14" viewBox="0 0 18 14" fill="none" xmlns="http://www.w3.org/2000/svg">
<path d="M1.6875 9.8125L5.55675 5.94325C5.71345 5.78655 5.89948 5.66225 6.10422 5.57744C6.30896 5.49263 6.52839 5.44899 6.75 5.44899C6.97161 5.44899 7.19104 5.49263 7.39578 5.57744C7.60052 5.66225 7.78655 5.78655 7.94325 5.94325L11.8125 9.8125M10.6875 8.6875L11.7443 7.63075C11.9009 7.47405 12.087 7.34975 12.2917 7.26494C12.4965 7.18013 12.7159 7.13649 12.9375 7.13649C13.1591 7.13649 13.3785 7.18013 13.5833 7.26494C13.788 7.34975 13.9741 7.47405 14.1307 7.63075L16.3125 9.8125M2.8125 12.625H15.1875C15.4859 12.625 15.772 12.5065 15.983 12.2955C16.194 12.0845 16.3125 11.7984 16.3125 11.5V2.5C16.3125 2.20163 16.194 1.91548 15.983 1.7045C15.772 1.49353 15.4859 1.375 15.1875 1.375H2.8125C2.51413 1.375 2.22798 1.49353 2.017 1.7045C1.80603 1.91548 1.6875 2.20163 1.6875 2.5V11.5C1.6875 11.7984 1.80603 12.0845 2.017 12.2955C2.22798 12.5065 2.51413 12.625 2.8125 12.625ZM10.6875 4.1875H10.6935V4.1935H10.6875V4.1875ZM10.9688 4.1875C10.9688 4.26209 10.9391 4.33363 10.8864 4.38637C10.8336 4.43912 10.7621 4.46875 10.6875 4.46875C10.6129 4.46875 10.5414 4.43912 10.4886 4.38637C10.4359 4.33363 10.4062 4.26209 10.4062 4.1875C10.4062 4.11291 10.4359 4.04137 10.4886 3.98863C10.5414 3.93588 10.6129 3.90625 10.6875 3.90625C10.7621 3.90625 10.8336 3.93588 10.8864 3.98863C10.9391 4.04137 10.9688 4.11291 10.9688 4.1875Z" stroke="#505050" stroke-width="1.5" stroke-linecap="round" stroke-linejoin="round"/>
</svg>
