<svg width="17" height="17" viewBox="0 0 17 17" fill="none" xmlns="http://www.w3.org/2000/svg">
<path d="M15.63 5.83547V6.5152C15.63 6.81998 15.5475 7.11909 15.3912 7.38076C15.235 7.64244 15.0108 7.85692 14.7424 8.00146L9.88229 10.6184M1 5.83547V6.5152C0.999988 6.81998 1.08249 7.11909 1.23876 7.38076C1.39502 7.64244 1.61922 7.85692 1.88755 8.00146L6.74771 10.6184M6.74771 10.6184L7.51448 10.2057C7.76049 10.0732 8.03556 10.0038 8.315 10.0038C8.59444 10.0038 8.86951 10.0732 9.11552 10.2057L9.88304 10.6184L13.3792 12.5015M6.74771 10.6184L3.25077 12.5015M15.63 13.7132C15.63 14.1609 15.4521 14.5902 15.1356 14.9068C14.819 15.2234 14.3896 15.4012 13.9419 15.4012H2.68808C2.24037 15.4012 1.811 15.2234 1.49443 14.9068C1.17785 14.5902 1 14.1609 1 13.7132V5.71843C1.00012 5.41377 1.08269 5.11483 1.23895 4.8533C1.39521 4.59177 1.61933 4.3774 1.88755 4.23292L7.51448 1.20189C7.76049 1.06937 8.03556 1 8.315 1C8.59444 1 8.86951 1.06937 9.11552 1.20189L14.7424 4.23292C15.0107 4.3774 15.2348 4.59177 15.391 4.8533C15.5473 5.11483 15.6299 5.41377 15.63 5.71843V13.7132Z" stroke="#969696" stroke-width="1.5" stroke-linecap="round" stroke-linejoin="round"/>
</svg>
