<svg width="18" height="14" viewBox="0 0 18 14" fill="none" xmlns="http://www.w3.org/2000/svg">
<path d="M16.3125 3.0625V10.9375C16.3125 11.3851 16.1347 11.8143 15.8182 12.1307C15.5018 12.4472 15.0726 12.625 14.625 12.625H3.375C2.92745 12.625 2.49822 12.4472 2.18176 12.1307C1.86529 11.8143 1.6875 11.3851 1.6875 10.9375V3.0625M16.3125 3.0625C16.3125 2.61495 16.1347 2.18573 15.8182 1.86926C15.5018 1.55279 15.0726 1.375 14.625 1.375H3.375C2.92745 1.375 2.49822 1.55279 2.18176 1.86926C1.86529 2.18573 1.6875 2.61495 1.6875 3.0625M16.3125 3.0625V3.24475C16.3125 3.53286 16.2388 3.81618 16.0983 4.06772C15.9578 4.31926 15.7553 4.53065 15.51 4.68175L9.885 8.143C9.61891 8.3069 9.31252 8.39369 9 8.39369C8.68748 8.39369 8.38109 8.3069 8.115 8.143L2.49 4.6825C2.24469 4.5314 2.04215 4.32001 1.90168 4.06847C1.7612 3.81693 1.68747 3.53361 1.6875 3.2455V3.0625" stroke="#D4BB9F" stroke-width="1.5" stroke-linecap="round" stroke-linejoin="round"/>
</svg>
