<?xml version="1.0" encoding="utf-8"?>
<!-- Generator: Adobe Illustrator 26.4.1, SVG Export Plug-In . SVG Version: 6.00 Build 0)  -->
<svg version="1.1" id="레이어_1" xmlns="http://www.w3.org/2000/svg" xmlns:xlink="http://www.w3.org/1999/xlink" x="0px"
	 y="0px" viewBox="0 0 300 300" style="enable-background:new 0 0 300 300;" xml:space="preserve">
<style type="text/css">
	.st0{fill:#C31A30;}
	.st1{fill:#244387;}
</style>
<g>
	<g>
		<polygon class="st0" points="4.8,17.5 -13.9,17.5 1,-0.1 19.8,-0.1 		"/>
		<polygon class="st0" points="305,17.5 286.3,17.5 301.2,-0.1 320,-0.1 		"/>
		<polygon class="st1" points="42.3,17.5 23.6,17.5 38.5,-0.1 57.3,-0.1 		"/>
		<polygon class="st0" points="79.8,17.5 61.1,17.5 76,-0.1 94.8,-0.1 		"/>
		<polygon class="st1" points="117.6,17.5 98.9,17.5 113.8,-0.1 132.5,-0.1 		"/>
		<polygon class="st0" points="155.1,17.5 136.3,17.5 151.3,-0.1 170,-0.1 		"/>
		<polygon class="st1" points="192.6,17.5 173.8,17.5 188.8,-0.1 207.5,-0.1 		"/>
		<polygon class="st0" points="230.4,17.5 211.6,17.5 226.6,-0.1 245.3,-0.1 		"/>
		<polygon class="st1" points="267.9,17.5 249.1,17.5 264.1,-0.1 282.8,-0.1 		"/>
	</g>
</g>
<g>
	<g>
		<polygon class="st0" points="4.8,300.4 -13.9,300.4 1,282.8 19.8,282.8 		"/>
		<polygon class="st0" points="305,300.4 286.3,300.4 301.2,282.8 320,282.8 		"/>
		<polygon class="st1" points="42.3,300.4 23.6,300.4 38.5,282.8 57.3,282.8 		"/>
		<polygon class="st0" points="79.8,300.4 61.1,300.4 76,282.8 94.8,282.8 		"/>
		<polygon class="st1" points="117.6,300.4 98.9,300.4 113.8,282.8 132.5,282.8 		"/>
		<polygon class="st0" points="155.1,300.4 136.3,300.4 151.3,282.8 170,282.8 		"/>
		<polygon class="st1" points="192.6,300.4 173.8,300.4 188.8,282.8 207.5,282.8 		"/>
		<polygon class="st0" points="230.4,300.4 211.6,300.4 226.6,282.8 245.3,282.8 		"/>
		<polygon class="st1" points="267.9,300.4 249.1,300.4 264.1,282.8 282.8,282.8 		"/>
	</g>
</g>
<g>
	<g>
		<polygon class="st1" points="17.7,38.7 17.7,19.9 0.1,34.9 0.1,53.6 		"/>
		<polygon class="st0" points="17.7,76.2 17.7,57.4 0.1,72.4 0.1,91.1 		"/>
		<polygon class="st1" points="17.7,114 17.7,95.2 0.1,110.2 0.1,128.9 		"/>
		<polygon class="st0" points="17.7,151.5 17.7,132.7 0.1,147.7 0.1,166.4 		"/>
		<polygon class="st1" points="17.7,189 17.7,170.2 0.1,185.1 0.1,203.9 		"/>
		<polygon class="st0" points="17.7,226.7 17.7,208 0.1,222.9 0.1,241.7 		"/>
		<polygon class="st1" points="17.7,264.2 17.7,245.5 0.1,260.4 0.1,279.2 		"/>
	</g>
</g>
<g>
	<g>
		<polygon class="st1" points="300.4,38.7 300.4,19.9 282.8,34.9 282.8,53.6 		"/>
		<polygon class="st0" points="300.4,76.2 300.4,57.4 282.8,72.4 282.8,91.1 		"/>
		<polygon class="st1" points="300.4,114 300.4,95.2 282.8,110.2 282.8,128.9 		"/>
		<polygon class="st0" points="300.4,151.5 300.4,132.7 282.8,147.7 282.8,166.4 		"/>
		<polygon class="st1" points="300.4,189 300.4,170.2 282.8,185.1 282.8,203.9 		"/>
		<polygon class="st0" points="300.4,226.7 300.4,208 282.8,222.9 282.8,241.7 		"/>
		<polygon class="st1" points="300.4,264.2 300.4,245.5 282.8,260.4 282.8,279.2 		"/>
	</g>
</g>
</svg>
