<svg viewBox="0 0 70 67" fill="none" xmlns="http://www.w3.org/2000/svg">
<g>
<path d="M70 0H0V67H70V0Z" fill="#FDFDFF"/>
<path d="M66.0559 35.9796C65.9701 35.658 65.8462 35.3363 65.7032 35.0336C65.1504 35.6485 65.1504 36.4526 65.1504 37.2284C65.1313 38.3825 65.1313 39.5272 65.198 40.6814C65.3219 42.6586 64.9788 44.6074 64.7596 46.5752C64.5975 48.2781 64.9502 50.1134 64.9502 51.8351C64.9597 53.0934 64.8358 54.3421 64.8263 55.6004C64.8167 56.641 64.8835 57.6722 64.9407 58.7033C64.9978 59.8291 64.9025 60.9644 65.0169 62.0901C65.0455 62.3077 65.0741 62.5159 65.1027 62.724C65.055 62.7051 64.9978 62.6956 64.9502 62.6861C64.5213 62.5915 64.0733 62.6767 63.6348 62.6767C62.5672 62.6956 61.5092 62.6483 60.4416 62.601C57.8966 62.5348 55.3516 62.2131 52.8066 62.374C51.5484 62.4496 50.2807 62.5348 49.0225 62.6199C47.2972 62.6767 45.6005 62.3172 43.8753 62.2226C42.6171 62.1469 41.3493 62.2226 40.0816 62.2983C38.3277 62.4402 36.5643 62.2037 34.8105 62.2321C33.2473 62.2415 31.7031 62.4686 30.1399 62.5159C29.0628 62.5442 27.9857 62.4686 26.9181 62.4686C24.5637 62.4686 22.2189 62.6388 19.8741 62.8659C19.3784 62.9132 18.8828 62.9416 18.3776 62.9605C16.9192 62.97 15.4799 62.6861 14.0215 62.6578C13.116 62.6294 12.2009 62.724 11.2954 62.7713C10.4947 62.7902 9.70358 62.7145 8.91244 62.6861C8.22615 62.6578 7.53985 62.7145 6.85356 62.7429C6.6248 62.7429 6.40556 62.7334 6.1768 62.7145C6.06242 62.7051 5.95757 62.7051 5.85272 62.7335V62.4591C5.87178 62.0428 5.92897 61.6266 5.88131 61.2103C5.84318 60.69 5.71927 60.1697 5.64302 59.6494C5.71927 59.5926 5.71927 59.4791 5.70974 59.394C5.68114 59.252 5.68114 59.1007 5.67161 58.9493C5.69068 58.3722 5.81459 57.8046 5.99569 57.2559C6.44369 55.6098 7.7019 54.38 8.52163 52.9231C8.78853 52.4501 9.32231 51.8351 8.88384 51.3054C8.79806 51.2108 8.67414 51.0972 8.53117 51.1256C8.36913 51.2013 8.3024 51.3716 8.19755 51.504C7.94019 51.8635 7.68283 52.2136 7.4636 52.592C6.94888 53.4623 6.43416 54.3421 5.94804 55.2219C6.10054 53.9259 6.37697 52.6014 6.02429 51.3148C6.07195 51.2864 6.09101 51.2297 6.10054 51.1824C6.15774 51.0405 6.1482 50.8796 6.1482 50.7188C6.15774 50.2174 6.2054 49.716 6.23399 49.2052C6.2054 48.8173 6.51041 48.524 6.68199 48.2024C6.85356 47.928 7.0156 47.6442 7.20624 47.3888C7.6733 46.7455 8.27381 46.1779 8.53117 45.4116C8.82665 44.6642 9.05542 43.879 9.12214 43.0749C9.1984 42.914 9.24606 42.7343 9.15074 42.5735C9.09355 42.4694 8.94104 42.3086 8.80759 42.3748C8.28334 43.3303 7.62564 44.2101 7.0442 45.1183C6.60573 45.8657 6.21493 46.6509 5.9671 47.4834C6.02429 47.1144 6.07195 46.736 6.09101 46.3576C6.13867 45.6197 6.05289 44.8723 5.99569 44.1344C6.49135 43.8695 6.66292 43.1695 6.92982 42.7059C7.37781 42.0059 7.38734 41.2112 7.33969 40.4071C7.33969 39.8773 7.37781 39.3286 7.2253 38.8177C7.19671 38.7326 7.16811 38.638 7.13952 38.5528C7.14905 38.5434 7.14905 38.5339 7.15858 38.5244C7.69236 37.7298 8.31193 36.9446 8.45491 35.9796C8.55976 35.1755 8.52163 34.3619 8.57883 33.5388C8.59789 33.3496 8.49304 33.1699 8.34053 33.0564C8.27381 32.9996 8.14036 32.9807 8.10223 33.0848C7.78768 34.1822 7.29203 35.2228 6.76777 36.235C6.8345 36.0553 6.89169 35.8661 6.92028 35.6674C7.0442 35.166 6.99654 34.6362 6.87262 34.1254C6.8345 33.9456 6.74871 33.6429 6.51041 33.6713C6.46276 33.6902 6.45322 33.7281 6.44369 33.7754C6.40556 33.974 6.39603 34.1822 6.34837 34.3808C6.20539 35.0147 6.00523 35.658 5.97663 36.3107C5.98616 36.9067 5.85272 37.5217 5.92897 38.1082L5.78599 38.5339C5.76693 38.1366 5.71927 37.7487 5.66208 37.3514C5.67161 37.1054 5.67161 36.8689 5.66208 36.6324C5.64302 35.9512 5.65255 35.2606 5.76693 34.5795C5.83365 34.1727 5.90038 33.7754 5.98616 33.378C6.15774 32.6874 6.54854 32.082 6.69152 31.3819C6.82496 30.5778 6.76777 29.7547 6.79637 28.9411C6.81543 28.487 6.84403 28.0424 6.98701 27.6167C7.02513 27.3518 6.71058 26.8977 6.42463 26.9639C6.32931 26.9923 6.31025 27.0964 6.31025 27.191C6.19586 27.5315 6.01476 27.8626 5.87178 28.1938C5.18549 29.7642 5.03298 31.5049 5.14736 33.1983C4.88047 32.3847 4.60404 31.5806 4.19417 30.8332C3.78431 30.0291 3.30771 29.2344 3.03129 28.3735C3.03129 28.26 3.02176 28.1465 2.9455 28.0519C2.89784 27.9856 2.81206 27.9005 2.72627 27.9099C2.63095 27.9194 2.64048 28.0329 2.64048 28.1086C2.64048 28.2789 2.65002 28.4397 2.65002 28.61C2.66908 29.4331 2.74533 30.2561 2.93597 31.0508C3.09801 31.6657 3.1838 32.309 3.45069 32.8955C3.70805 33.5294 4.17511 34.0497 4.442 34.6741C4.60404 35.1093 4.68983 35.5634 4.78515 36.008C4.9186 36.6229 5.0711 37.2284 5.14736 37.8622C5.26174 38.6947 5.23315 39.5367 5.19502 40.3692C5.1283 39.9813 5.06157 39.5935 4.95672 39.2151C4.74702 38.4677 4.36575 37.7487 3.86056 37.1527C3.52695 36.7837 3.13614 36.481 2.7644 36.1594C2.50704 35.9229 2.23061 35.6958 2.02091 35.4215C1.96372 35.3269 1.87794 35.1849 1.74449 35.2039C1.449 35.3269 2.345 37.6257 2.5261 37.919C2.77393 38.4109 3.11708 38.8366 3.48882 39.2434C3.94635 39.7259 4.45153 40.18 4.70889 40.8139C5.17596 41.845 5.19502 42.9897 5.37612 44.0871C5.46191 44.4939 5.5191 44.9102 5.55723 45.317C5.48097 45.2602 5.36659 45.2224 5.28081 45.2129C4.75655 44.7399 4.32762 44.125 4.2609 43.406C4.21324 42.7627 4.07026 42.1099 3.80337 41.5139C3.61273 41.0125 3.46975 40.5017 3.21239 40.0286C3.1552 39.9246 2.63095 39.2151 2.5547 39.4989C2.59282 39.9908 2.7358 40.4733 2.81206 40.9558C3.08848 42.5451 3.07895 45.0899 4.88047 45.7521C5.04251 45.8089 5.41425 45.8467 5.58582 45.7143C5.60489 46.0738 5.60489 46.4333 5.57629 46.7928C5.5477 47.3982 5.5477 48.0321 5.47144 48.6375C5.44285 48.997 5.36659 49.3471 5.35706 49.7066C4.78515 48.7322 4.16558 47.7861 3.62226 46.7833C3.33631 46.3481 2.12576 44.4655 1.63011 44.5223C1.39181 44.6453 1.72543 45.0048 1.82074 45.1561C2.02091 45.421 2.18295 45.7143 2.33546 46.0076C2.78346 46.859 2.84065 47.8618 3.3649 48.6849C3.61273 49.1011 3.88916 49.489 4.21324 49.839C4.57545 50.2363 4.99485 50.558 5.37612 50.9364C5.5477 51.277 5.67161 51.6459 5.74787 52.0149C5.78599 52.5257 5.79553 53.0366 5.70021 53.5475C5.66208 53.907 5.65255 54.2759 5.63348 54.6449C5.60489 54.7868 5.56676 54.9287 5.52863 55.0706C5.45238 54.8908 5.31893 54.7111 5.26174 54.607C5.27127 54.6165 5.27127 54.6259 5.28081 54.6354C5.00438 54.1529 4.81375 53.6231 4.75655 53.0744C4.71843 52.573 4.72796 52.0433 4.48966 51.5892C4.37528 51.3243 4.18464 51.1067 3.96541 50.927C3.80337 50.7756 3.65086 50.6242 3.50788 50.4539C3.47929 50.4066 3.45069 50.3499 3.40303 50.312C3.35537 50.2742 3.26005 50.2458 3.26005 50.331C3.25052 50.4256 3.32678 50.5012 3.3649 50.5864C3.3649 50.5769 3.35537 50.5769 3.35537 50.5675C3.50788 50.9364 3.6032 51.3337 3.70805 51.7216C3.79384 52.1379 3.82243 52.5636 3.99401 52.9609C4.18464 53.4812 4.59451 53.8975 4.90906 54.3611C5.09017 54.6165 5.21408 54.9381 5.35706 55.2314C5.39519 55.2787 5.42378 55.326 5.45238 55.3828C5.29987 55.9788 5.13783 56.5653 5.0997 57.1802C4.83281 56.5085 4.51826 55.8558 4.12745 55.2314C3.69852 54.5408 3.29818 53.8124 2.78346 53.1785C2.39266 52.7244 1.94466 52.3082 1.45853 51.9487C1.36322 51.873 1.15351 51.7027 1.06773 51.8635C1.0296 51.9487 1.07726 52.0622 1.11539 52.1379C1.2393 52.3555 1.34415 52.573 1.40134 52.819C1.49666 53.2069 1.54432 53.6137 1.64917 54.0016C1.83981 54.7111 2.20202 55.3544 2.65002 55.9315C3.14567 56.5558 3.70805 57.0478 4.21324 57.6911C4.46107 58.0222 4.66124 58.3817 4.8614 58.7412C4.98532 58.9777 5.04251 59.2426 5.22361 59.4507C5.36659 60.3116 5.42378 61.1914 5.57629 62.0523V62.0618C5.57629 62.2699 5.57629 62.4875 5.66208 62.6672C5.66208 62.7145 5.66208 62.7713 5.67161 62.8186C5.63348 62.8564 5.60489 62.9132 5.62395 62.9605C5.64302 62.9983 5.68114 63.0173 5.7288 63.0267H5.78599C5.79553 63.0267 5.79553 63.0362 5.80506 63.0362C5.84318 63.0456 5.87178 63.0456 5.88131 63.0267C6.1482 63.0267 6.4151 63.0078 6.67246 63.0551C7.0156 63.1119 7.35875 63.197 7.71143 63.2538C9.01729 63.4714 10.3422 63.2538 11.6576 63.4241C13.4973 63.6416 15.3464 63.4619 17.1956 63.4051C18.2155 63.3768 19.2259 63.4619 20.2458 63.4903C21.2371 63.4997 22.2189 63.5092 23.2102 63.4997C25.7743 63.4903 28.2812 62.8564 30.8548 63.0551C33.3616 63.3578 35.8876 63.3578 38.404 63.197C40.3294 63.1875 42.2644 63.2348 44.1898 63.1402C45.1621 63.1213 46.1343 63.0929 47.1066 63.1119C48.7651 63.1497 50.4046 63.3484 52.0631 63.3673C53.5596 63.3957 55.0561 63.2727 56.5526 63.3011C57.9443 63.3295 59.3169 63.5849 60.7085 63.6416C61.8619 63.6889 63.0152 63.6511 64.159 63.547C64.5689 63.4808 64.9597 63.3389 65.3219 63.1497C65.3696 63.1875 65.4172 63.2254 65.4744 63.2254C65.5507 63.2159 65.5984 63.1781 65.6079 63.0929C65.6079 63.0551 65.6174 63.0267 65.6174 62.9889C65.6174 62.9889 65.6269 62.9889 65.6269 62.9794L65.6174 62.97V62.7145C65.627 62.3834 65.6079 62.0523 65.5888 61.7307C65.5412 61.0022 65.5412 60.2738 65.6174 59.5453C65.8081 57.9465 66.1035 56.3383 66.0368 54.7205C66.0178 53.7272 65.9129 52.7244 65.9415 51.7311C65.9701 50.5107 66.1035 49.2998 66.0559 48.0794C66.0463 46.4049 65.8176 44.7399 65.8176 43.0654C65.8462 41.7788 66.0082 40.5017 66.0559 39.2245C66.0368 38.1555 66.3418 37.0486 66.0559 35.9796ZM6.65339 54.8719C6.70105 54.7584 6.74871 54.6354 6.8059 54.5219C7.13952 53.7745 7.65424 53.1217 8.17849 52.4974C7.51126 53.4812 6.8345 54.4651 6.40556 55.5814C6.48182 55.3449 6.55807 55.1084 6.65339 54.8719ZM6.51041 47.3982C6.54854 47.3036 6.57714 47.209 6.6248 47.1239C6.84403 46.613 7.16811 46.1684 7.48266 45.7143C7.76862 45.2886 8.03551 44.8534 8.31193 44.4277C8.14036 45.2129 7.79721 45.9508 7.33969 46.613C7.07279 46.982 6.73918 47.2847 6.44369 47.6253C6.46275 47.5496 6.48182 47.4739 6.51041 47.3982ZM3.64133 38.6947C3.33631 38.3542 3.01223 38.0136 2.78346 37.6163C2.50704 37.1054 2.3164 36.5567 2.15436 35.9985C2.58329 36.5662 3.09801 37.0486 3.6032 37.55C4.41341 38.4204 4.87094 39.5462 5.00438 40.7192C4.71843 39.9435 4.19417 39.3002 3.64133 38.6947ZM4.96625 45.2602C4.15605 45.1467 3.85103 44.2385 3.55554 43.5952C3.38397 43.1222 3.21239 42.6681 3.1552 42.1667C3.12661 41.3815 3.11708 40.5584 2.85018 39.8016C3.42209 40.3598 3.46975 41.2112 3.66039 41.9491C3.75571 42.3748 3.86056 42.8005 3.95588 43.2262C4.04167 43.6047 4.11792 44.002 4.30856 44.352C4.49919 44.721 4.81374 45.0048 5.14736 45.2507C5.08064 45.2602 5.02345 45.2602 4.96625 45.2602ZM3.1552 47.6442C2.9455 47.0861 2.84065 46.4995 2.64048 45.9508C3.48882 47.1239 4.24183 48.3632 4.80421 49.6971C4.16558 49.0916 3.49835 48.4673 3.1552 47.6442ZM4.00354 52.1757C3.89869 51.7122 3.8415 51.2297 3.66039 50.7945C3.82243 50.9364 3.99401 51.0689 4.13698 51.2391C4.25137 51.4 4.32762 51.5986 4.38481 51.7973C4.4706 52.1379 4.45153 52.4879 4.51826 52.8379C4.59451 53.2542 4.72796 53.6704 4.8614 54.0772C4.48966 53.4812 4.17511 52.8569 4.00354 52.1757ZM2.18295 54.5219C2.02091 53.9353 2.05904 53.311 1.8684 52.7244C2.75487 53.5002 3.46975 54.4462 3.94635 55.5247C4.22277 56.1774 4.42294 56.8491 4.64217 57.5113C3.74618 56.4802 2.5261 55.9598 2.18295 54.5219ZM6.06242 42.8289C5.97663 43.0938 5.94804 43.3776 5.95757 43.652C5.92897 43.3492 5.87178 43.056 5.81459 42.7532C5.81459 42.687 5.82412 42.6208 5.81459 42.564C5.81459 42.0532 5.76693 41.5328 5.76693 41.022C5.84318 40.7476 5.94804 40.4922 6.07195 40.2462C6.06242 40.303 6.06242 40.3598 6.06242 40.4165C6.06242 40.8801 6.22446 41.3152 6.29118 41.7693C6.33884 42.1383 6.16727 42.4789 6.06242 42.8289ZM6.95841 39.1961C7.00607 39.7165 7.09186 40.2273 7.07279 40.7476C7.0156 41.5518 6.88216 42.4032 6.48182 43.1222C6.47229 43.1411 6.46275 43.1506 6.45322 43.1695C6.46275 43.1411 6.47229 43.1127 6.47229 43.0749C6.58667 42.6302 6.64386 42.1572 6.53901 41.7031C6.45322 41.1355 6.21493 40.5679 6.21493 40.0003C6.43416 39.6124 6.70105 39.2434 6.94888 38.865C6.93935 38.9691 6.93935 39.0826 6.95841 39.1961ZM6.16727 37.1716C6.23399 36.6418 6.3865 36.1404 6.57714 35.6485C6.56761 35.9134 6.6248 36.1688 6.67246 36.4337C6.6248 36.5189 6.58667 36.604 6.54854 36.6797C6.39603 36.9824 6.25305 37.2851 6.12914 37.5973C6.12914 37.4554 6.13867 37.3135 6.16727 37.1716ZM5.87178 39.8394C5.98616 39.1583 6.25305 38.5244 6.57714 37.9284C7.13952 36.8784 7.66377 35.7999 8.1213 34.7025C8.02598 35.885 7.71143 37.0676 7.11092 38.0987C6.72965 38.7137 6.16727 39.1867 5.87178 39.8584C5.86225 39.8489 5.87178 39.8394 5.87178 39.8394ZM6.47229 28.6668C6.53901 29.6696 6.43416 30.7007 6.22446 31.6941C6.07195 32.3279 5.76693 32.9334 5.55723 33.5578V33.5483C5.5477 33.3118 5.5477 33.0753 5.5477 32.8388C5.46191 30.8048 5.5191 30.4642 6.47229 28.6668ZM4.19417 33.5862C3.1838 31.7887 2.98363 31.2589 3.03129 29.1682C3.43163 29.925 3.83196 30.6818 4.13698 31.486C4.50873 32.2901 4.84234 33.1037 5.08064 33.9551C5.28081 34.6646 5.24268 35.4025 5.29034 36.131C5.06157 35.2323 4.67077 34.3808 4.19417 33.5862Z" fill="#000001"/>
<path d="M68.7876 15.1858C68.2729 14.1451 68.1776 12.868 67.2721 12.0544C66.9099 11.7328 66.4523 11.5435 66.1092 11.2124C66.1092 11.0894 66.0997 10.9665 66.0901 10.834C66.2617 10.3799 66.2808 9.89744 66.3094 9.41497C66.3379 8.98925 66.3665 8.56354 66.3856 8.13782C66.7478 8.88519 67.3579 9.43389 67.9679 10.0015C68.1585 10.1623 68.311 10.3515 68.4826 10.5313C68.6065 10.6543 68.7304 10.8151 68.9211 10.8435C69.2166 10.8246 69.0164 10.238 68.9497 10.0677C68.597 9.23522 68.0918 8.5257 67.5485 7.78779C67.2816 7.43776 66.9671 7.12557 66.7288 6.74715C66.5858 6.50118 66.4428 6.26468 66.2998 6.00925C66.2236 5.8768 66.1568 5.64029 66.0425 5.49839C65.9853 5.05375 65.9281 4.60912 65.7946 4.1834C65.7851 4.15502 65.766 4.10772 65.7279 4.10772C65.6898 4.09826 65.6898 4.20232 65.6898 4.2307C65.6993 4.21178 65.7088 4.1834 65.7279 4.16448V4.30639C65.6517 4.20232 65.4991 4.1834 65.3752 4.1834C65.013 4.16448 64.6603 4.1361 64.2981 4.12664C63.1352 4.06042 61.9628 3.99419 60.7999 3.97527C58.6171 3.88067 56.4439 4.15502 54.2706 4.25908C52.6311 4.30639 50.9917 4.26854 49.3427 4.32531C47.4363 4.36315 45.5395 4.40099 43.6331 4.24962C41.1167 4.15502 38.6098 4.36315 36.0934 4.35369C32.986 4.21178 29.8786 4.42937 26.7808 4.12664C24.7124 3.90905 22.6344 3.80499 20.5565 3.92797C19.1172 3.94689 17.6874 4.20232 16.2385 4.1834C15.4379 4.19286 14.6372 4.16448 13.8365 4.17394C12.626 4.19286 11.4345 4.35369 10.2239 4.42937C9.45187 4.43883 8.67026 4.35369 7.87911 4.35369C7.42158 4.35369 6.96405 4.40099 6.51606 4.36315C6.33495 4.34423 6.13478 4.30639 5.97274 4.39153C5.96321 4.37261 5.95368 4.35369 5.95368 4.33477C5.32458 4.67534 5.48662 5.47947 5.46755 6.07547C5.47709 6.64309 5.50568 7.20125 5.53428 7.76887C5.63913 9.00817 5.63913 10.2475 5.53428 11.4868C5.29598 14.183 5.42943 16.8886 5.55334 19.5848C5.5724 20.8714 5.34364 22.158 5.54381 23.4352C5.66772 24.0028 5.43896 24.6556 5.79164 25.1664C5.82023 25.1853 5.8393 25.157 5.82976 25.1286C5.86789 25.0813 5.91555 25.0245 5.91555 24.9583C5.95368 24.6556 5.90602 24.3434 5.90602 24.0406C5.92508 23.6906 5.97274 23.35 5.98227 23C6.00134 21.9026 5.82023 20.8052 5.87742 19.6984C6.0204 17.9955 6.16338 16.2832 6.15385 14.5709C6.14432 13.1802 6.049 11.799 6.01087 10.4178C5.98227 9.23522 6.14432 8.06214 6.17291 6.87014C6.19197 6.53903 6.21104 6.14169 6.23963 5.74436C6.2587 5.33756 6.16338 4.94023 6.0204 4.56181C6.12525 4.58074 6.23963 4.56181 6.34448 4.58074C6.89733 4.6375 7.42158 4.8267 7.98396 4.85508C8.86089 4.94023 9.72829 4.85508 10.6052 4.91185C12.7594 5.04429 14.885 4.62804 17.0297 4.54289C19.0218 4.50505 21.014 4.65642 23.0062 4.67534C24.4455 4.67534 25.8848 4.60912 27.3241 4.62804C28.506 4.62804 29.6594 4.81724 30.8318 4.95915H30.8127C32.6047 5.24296 34.4253 5.12943 36.2268 5.03483C37.6185 5.02537 39.0197 5.11051 40.4113 5.03483C41.8411 4.98753 43.2709 4.85509 44.7006 4.7794C46.159 4.76048 47.6936 4.98753 49.152 5.07267C50.801 5.1862 52.4691 5.11997 54.1181 4.95915C55.6623 4.84562 57.2064 4.84562 58.7506 4.78886C60.0755 4.7321 61.3909 4.6848 62.7158 4.62804C63.1162 4.61858 63.5261 4.61858 63.9359 4.6375C64.2123 4.64696 64.4888 4.65642 64.7652 4.67534C65.0702 4.70372 65.3943 4.70372 65.6517 4.52397C65.6803 4.50505 65.7088 4.47667 65.7279 4.44829C65.7279 4.71318 65.7184 4.97807 65.7088 5.24296C65.5468 5.45109 65.3848 5.64975 65.2132 5.84842C64.7843 6.34036 64.2314 6.69985 63.7453 7.13503C63.1734 7.6648 62.773 8.36487 62.5919 9.11224C62.5157 9.49065 62.2774 10.134 62.6491 10.4083C62.7063 10.4556 62.8112 10.4651 62.8588 10.3988C62.9351 10.2948 63.0113 10.2002 63.0971 10.0961C63.6118 9.44335 64.2981 8.94195 64.8605 8.33649C65.2037 7.92969 65.4991 7.4756 65.7088 6.98366C65.7184 7.24855 65.7279 7.50398 65.6898 7.76887C65.6421 8.1189 65.6135 8.46893 65.5945 8.81897C65.5468 9.02709 65.461 9.22576 65.2608 9.34875C64.5269 9.68932 64.2409 10.1245 63.9931 10.8719C63.9359 11.0516 63.8692 11.2408 63.812 11.4206C63.7739 11.553 63.7453 11.7233 63.8883 11.8179C63.9455 11.8652 64.0122 11.8274 64.0408 11.7706C64.2314 11.4962 64.4316 11.2314 64.6413 10.9759C64.9272 10.5407 65.318 10.1718 65.5659 9.70824C65.5563 10.0961 65.5659 10.484 65.5659 10.8624C65.3371 11.1178 65.0226 11.307 64.7843 11.553C64.4125 11.8936 64.1266 12.3004 63.8501 12.7166C63.5642 13.1518 63.3259 13.6343 63.2496 14.1546C63.2115 14.4762 63.1638 14.9966 63.5451 15.129C63.6118 15.1479 63.669 15.0817 63.7072 15.0344C63.974 14.7317 64.2219 14.4006 64.4792 14.0884C64.7557 13.7478 65.0797 13.4262 65.2799 13.0383C65.3943 12.8207 65.4896 12.5842 65.5659 12.3477C65.5563 12.7734 65.5182 13.1896 65.4801 13.6059C65.461 13.8235 65.442 14.0505 65.4324 14.2776C65.4134 14.3438 65.3943 14.4195 65.3752 14.4857C65.2704 14.8925 65.2132 15.2993 65.0702 15.6966C65.0607 15.7439 65.0416 15.7818 65.0226 15.8196C64.4697 16.3967 63.9264 16.9738 63.4879 17.6455C63.2115 18.0712 63.059 18.5537 62.8779 19.0172C62.6491 19.5848 62.4299 20.5309 62.6777 21.1174C62.7444 21.2309 62.897 21.4201 63.0495 21.335C63.3354 20.8714 63.5642 20.37 63.8597 19.9065C64.2028 19.3294 64.6031 18.7807 64.8796 18.1658C65.0416 17.7968 65.1751 17.409 65.2608 17.0116C65.299 16.8224 65.3276 16.6237 65.3562 16.4345C65.3657 16.7183 65.3848 17.0022 65.4038 17.286C65.3752 17.7211 65.3466 18.1658 65.3562 18.601C65.3657 18.7429 65.3657 18.8848 65.4038 19.0267C65.2894 19.9538 64.4697 20.5309 63.8215 21.1079C63.3926 21.5053 63.1352 22.0445 63.059 22.6311C62.9637 23.1703 62.897 23.7095 62.916 24.2582C62.9255 24.4474 62.9351 24.6272 62.9541 24.8164C62.9637 24.8921 63.0113 24.9867 63.0971 25.0434C63.1638 25.0907 63.2401 25.0718 63.2496 24.9867C63.2878 24.8069 63.3164 24.6177 63.364 24.438C63.5356 23.7568 63.5928 23.0473 63.9169 22.4135C64.1742 21.8742 64.5269 21.3918 64.8605 20.8998C65.156 20.4457 65.5277 20.0105 65.5754 19.4618C65.5849 19.6321 65.5849 19.793 65.5849 19.9632C65.4801 20.2187 65.442 20.4836 65.3466 20.7485C65.2513 21.0323 65.0988 21.2877 64.9368 21.5431C64.4411 22.2905 63.8883 23.0852 63.8883 24.0217C63.8692 24.7029 63.955 25.3746 64.0503 26.0462C64.0884 26.2733 64.0789 26.5571 64.1647 26.7747C64.2314 26.9544 64.5174 27.1247 64.5936 26.8598C64.7175 26.4436 64.8224 26.0179 64.9272 25.5921C65.0321 25.2137 65.1179 24.8353 65.2132 24.4569C65.3371 23.9933 65.4991 23.5393 65.604 23.0662C65.766 24.4758 65.4705 25.8854 65.5945 27.295C65.6231 27.7586 65.6135 28.2221 65.6231 28.6857C65.6326 28.8843 65.6326 29.1114 65.7851 29.2628C65.8137 29.2911 65.8614 29.3195 65.8995 29.3195C66.0329 29.2533 66.1378 29.1303 66.2426 29.0168C66.6334 28.5816 66.9003 28.0424 67.0719 27.4842C67.6343 25.0813 67.3197 24.2109 66.357 22.0351C66.1854 21.5904 66.0711 21.1269 65.9185 20.6728C65.8995 20.3984 65.8709 20.1241 65.8518 19.8497V19.8213C65.9471 19.9349 66.0425 20.0484 66.1282 20.1619C66.3761 20.5119 66.6811 20.8431 66.9385 21.2025C67.3579 21.808 67.4627 22.6311 68.0346 23.1135C68.2062 23.1892 68.149 23.0095 68.1109 22.9243C67.9774 22.5932 67.8535 22.3094 67.7296 21.9783C67.5676 21.5526 67.4818 21.0985 67.3197 20.6728C67.0528 20.0011 66.6525 19.6605 65.9662 19.4713C65.909 19.4429 65.8709 19.4145 65.8328 19.3767C65.8328 19.1307 65.8328 18.8753 65.8518 18.6293C65.8709 17.9955 65.8804 17.3617 65.8709 16.7183C66.0329 17.2197 66.3665 17.6455 66.7192 18.0523C66.9956 18.4401 67.2244 18.8469 67.4436 19.2726C67.7487 19.9443 67.9774 20.5782 68.2348 21.2877C68.3492 21.5431 68.3968 21.8459 68.5875 22.0634C68.6733 22.158 68.8258 22.1675 68.7972 22.0067C68.7781 21.931 68.74 21.8553 68.7209 21.7702C68.597 21.2309 68.6161 20.6822 68.6256 20.1335C68.759 18.7239 68.1681 17.5414 67.0147 16.7183C66.6906 16.4913 66.3475 16.2832 66.0234 16.0656C65.9567 16.0183 65.909 15.971 65.8614 15.9048V15.8764C65.8614 15.6493 65.8614 15.4128 65.8518 15.1858C65.9471 14.8263 65.9376 14.4384 65.9281 14.06C65.9662 13.6343 66.0615 13.2275 66.0711 12.8018C66.2426 13.5113 66.8145 13.9938 67.3007 14.4857C67.8059 15.0155 68.2157 15.6304 68.7686 16.1034C69.3786 16.4156 68.8544 15.375 68.7876 15.1858ZM64.9844 10.2948C64.6794 10.6543 64.2886 10.9192 64.0122 11.307C64.1361 10.5597 64.7461 10.0299 65.3562 9.64202C65.2323 9.91637 65.156 10.0772 64.9844 10.2948ZM63.65 14.3911C63.7739 13.218 64.5746 12.395 65.4515 11.6665C65.0511 12.6882 64.3267 13.5397 63.65 14.3911ZM63.1734 23.8609C63.1638 23.4446 63.2306 23.0189 63.3831 22.6311C63.5642 22.2905 63.812 21.9878 64.0122 21.6661C63.7358 22.3946 63.364 23.0946 63.1734 23.8609ZM65.0893 23.8893C64.9558 24.3055 64.7366 24.6745 64.5936 25.0813C64.4602 25.4124 64.3744 25.753 64.2886 26.0935C64.1647 24.9772 64.3744 23.842 64.6794 22.773C64.8605 22.2526 65.2132 21.808 65.4896 21.335C65.4515 22.1959 65.3466 23.0662 65.0893 23.8893ZM66.0806 25.6489C66.1092 25.1475 66.0901 24.6461 66.0806 24.1542C66.1092 23.3311 66.1378 22.5081 66.052 21.6945C66.5953 23.2649 67.253 24.9394 66.8431 26.6139C66.6334 27.3707 66.2712 28.0802 65.9376 28.7897V28.5343C65.909 27.5694 66.0329 26.6139 66.0806 25.6489ZM67.1863 21.2404C66.9956 20.8809 66.7097 20.5876 66.4428 20.2754C66.2903 20.0862 66.1568 19.9254 66.0139 19.7173C67.0052 20.02 66.9766 20.3417 67.1863 21.2404ZM68.1013 18.5537C68.2253 19.1875 68.1871 19.8308 68.292 20.4646C68.0346 19.7173 67.6819 19.0077 67.1958 18.3928C66.7097 17.8536 66.357 17.2197 66.0043 16.5859C66.7859 17.1157 67.863 17.5225 68.1013 18.5537ZM66.6811 7.15395C67.0719 7.70265 67.539 8.19458 67.9107 8.74328C68.292 9.28252 68.7018 9.85014 68.7781 10.5218C68.5398 10.2664 68.292 9.96367 68.0441 9.69878C67.6152 9.20684 67.0719 8.85681 66.6525 8.34595C66.5 8.1189 66.4237 7.84455 66.3951 7.5702C66.3856 7.45668 66.4047 7.33369 66.338 7.23909C66.3189 6.95528 66.2712 6.67147 66.214 6.38766C66.357 6.66201 66.5095 6.91744 66.6811 7.15395ZM64.546 7.71211C64.1647 8.30811 63.669 8.83789 63.1924 9.34875C63.3068 8.99871 63.4117 8.63922 63.5356 8.28919C63.7167 7.88239 63.9359 7.48506 64.2314 7.14449C64.5174 6.80391 64.8796 6.54849 65.2227 6.27414C65.013 6.75661 64.8033 7.24855 64.546 7.71211ZM64.3649 17.986C63.9264 18.8091 63.4689 19.6132 63.0018 20.4173C62.9827 19.4808 63.1924 18.4874 63.9073 17.8252C64.3267 17.39 64.6985 16.917 65.0893 16.4535C64.8986 16.9927 64.6508 17.4941 64.3649 17.986ZM66.2903 12.6882C66.2331 12.518 66.1473 12.3477 66.1378 12.1679C66.1378 12.0922 66.1282 12.0071 66.0711 11.9409C66.0711 11.8936 66.0806 11.8368 66.0806 11.7895C66.3665 12.0639 66.7097 12.2815 67.0814 12.4423C68.1395 13.1802 68.2539 14.6371 68.7495 15.7439C67.9202 14.7695 66.8431 13.8802 66.2903 12.6882Z" fill="#000001"/>
</g>
</svg>
