<svg viewBox="0 0 66 66" fill="none" xmlns="http://www.w3.org/2000/svg">
<g>
<path d="M0.00244141 66H4.36301L0.0310281 62.1283" fill="#C31A30"/>
<path d="M65.9784 62.1283H62.9658L65.985 66" fill="#C31A30"/>
<path d="M9.31081 62.1283H5.19873L8.4752 66H12.6093L9.31081 62.1283Z" fill="#244387"/>
<path d="M17.5569 62.1283H13.4448L16.7213 66H20.8554L17.5569 62.1283Z" fill="#C31A30"/>
<path d="M25.8689 62.1283H21.7568L25.0333 66H29.1454L25.8689 62.1283Z" fill="#244387"/>
<path d="M34.115 62.1283H29.981L33.2794 66H37.3915L34.115 62.1283Z" fill="#C31A30"/>
<path d="M42.3611 62.1283H38.2271L41.5255 66H45.6376L42.3611 62.1283Z" fill="#244387"/>
<path d="M50.6736 62.1283H46.5396L49.838 66H53.9501L50.6736 62.1283Z" fill="#C31A30"/>
<path d="M58.9197 62.1283H54.7856L58.0841 66H62.1962L58.9197 62.1283Z" fill="#244387"/>
<path d="M0 65.989H4.36056L0.0285867 62.1173" fill="#C31A30"/>
<path d="M65.976 62.1173H62.9634L65.9826 65.989" fill="#C31A30"/>
<path d="M9.30837 62.1173H5.19629L8.47276 65.989H12.6068L9.30837 62.1173Z" fill="#244387"/>
<path d="M17.5545 62.1173H13.4424L16.7189 65.989H20.8529L17.5545 62.1173Z" fill="#C31A30"/>
<path d="M25.8665 62.1173H21.7544L25.0309 65.989H29.1429L25.8665 62.1173Z" fill="#244387"/>
<path d="M34.1126 62.1173H29.9785L33.277 65.989H37.3891L34.1126 62.1173Z" fill="#C31A30"/>
<path d="M42.3587 62.1173H38.2246L41.5231 65.989H45.6351L42.3587 62.1173Z" fill="#244387"/>
<path d="M50.6712 62.1173H46.5371L49.8356 65.989H53.9476L50.6712 62.1173Z" fill="#C31A30"/>
<path d="M58.9173 62.1173H54.7832L58.0817 65.989H62.1937L58.9173 62.1173Z" fill="#244387"/>
<path d="M0.0197839 3.8717H4.36276L0.00878906 -3.27047e-05" fill="#C31A30"/>
<path d="M65.9933 -3.27047e-05H62.9653L65.9999 3.8717" fill="#C31A30"/>
<path d="M9.31032 -3.27047e-05H5.19824L8.47471 3.8717H12.6088L9.31032 -3.27047e-05Z" fill="#244387"/>
<path d="M17.5564 -3.27047e-05H13.4443L16.7208 3.8717H20.8549L17.5564 -3.27047e-05Z" fill="#C31A30"/>
<path d="M25.8689 -3.27047e-05H21.7568L25.0333 3.8717H29.1454L25.8689 -3.27047e-05Z" fill="#244387"/>
<path d="M34.115 -3.27047e-05H29.981L33.2794 3.8717H37.3915L34.115 -3.27047e-05Z" fill="#C31A30"/>
<path d="M42.3611 -3.27047e-05H38.2271L41.5255 3.8717H45.6376L42.3611 -3.27047e-05Z" fill="#244387"/>
<path d="M50.6731 -3.27047e-05H46.5391L49.8375 3.8717H53.9496L50.6731 -3.27047e-05Z" fill="#C31A30"/>
<path d="M58.9192 -3.27047e-05H54.7852L58.0836 3.8717H62.1957L58.9192 -3.27047e-05Z" fill="#244387"/>
<path d="M3.87459 57.4778V61.6135L0.00439453 58.3137V54.2L3.87459 57.4778Z" fill="#244387"/>
<path d="M3.87459 49.2284V53.3641L0.00439453 50.0644V45.9506L3.87459 49.2284Z" fill="#C31A30"/>
<path d="M3.87459 40.9129V45.0486L0.00439453 41.7488V37.6351L3.87459 40.9129Z" fill="#244387"/>
<path d="M3.87459 32.6635V36.7992L0.00439453 33.4994V29.3857L3.87459 32.6635Z" fill="#C31A30"/>
<path d="M3.87459 24.414V28.5497L0.00439453 25.2719V21.1362L3.87459 24.414Z" fill="#244387"/>
<path d="M3.87459 16.1205V20.2343L0.00439453 16.9565V12.8207L3.87459 16.1205Z" fill="#C31A30"/>
<path d="M3.87459 7.87114V11.9849L0.00439453 8.70708V4.57136L3.87459 7.87114Z" fill="#244387"/>
<path d="M65.9888 57.48V61.6157L62.1187 58.3159V54.2022L65.9888 57.48Z" fill="#244387"/>
<path d="M65.9888 49.2305V53.3662L62.1187 50.0664V45.9527L65.9888 49.2305Z" fill="#C31A30"/>
<path d="M65.9888 40.9151V45.0508L62.1187 41.751V37.6373L65.9888 40.9151Z" fill="#244387"/>
<path d="M65.9888 32.6657V36.8014L62.1187 33.5016V29.3879L65.9888 32.6657Z" fill="#C31A30"/>
<path d="M65.9888 24.4162V28.5519L62.1187 25.2741V21.1384L65.9888 24.4162Z" fill="#244387"/>
<path d="M65.9888 16.1227V20.2365L62.1187 16.9587V12.8229L65.9888 16.1227Z" fill="#C31A30"/>
<path d="M65.9888 7.87333V11.9871L62.1187 8.70928V4.57355L65.9888 7.87333Z" fill="#244387"/>
</g>
<defs>
<clipPath id="clip0_286_6115">
<rect width="66" height="66" fill="white" transform="matrix(1 0 0 -1 0 66)"/>
</clipPath>
</defs>
</svg>
