<svg width="30%" height="30%" viewBox="0 0 53 23" fill="none" xmlns="http://www.w3.org/2000/svg">
<g clip-path="url(#clip0_77_11671)">
<path d="M36.36 13.4702C36.36 13.4702 36.32 13.4702 36.3 13.4702C36.34 13.1902 36.35 12.9102 36.35 12.6202C36.35 8.92023 33.35 5.92023 29.65 5.92023C29.18 5.92023 28.72 5.97023 28.27 6.06023C27.21 2.55023 23.96 -0.00976562 20.1 -0.00976562C16.73 -0.00976562 13.82 1.94023 12.43 4.78023C12.15 4.73023 11.86 4.70023 11.56 4.70023C8.99999 4.70023 6.91999 6.78023 6.91999 9.34023C6.83999 9.34023 6.75999 9.34023 6.68999 9.34023C2.98999 9.34023 -0.0100098 12.3402 -0.0100098 16.0402C-0.0100098 19.7402 2.98999 22.7402 6.68999 22.7402H36.35C38.91 22.7402 40.99 20.6602 40.99 18.1002C40.99 15.5402 38.91 13.4602 36.35 13.4602L36.36 13.4702Z" fill="white"/>
<path d="M46.6 13.0207C46.6 13.0207 46.57 13.0207 46.56 13.0207C46.59 12.8007 46.6 12.5807 46.6 12.3607C46.6 9.4607 44.25 7.1107 41.35 7.1107C40.98 7.1107 40.62 7.1507 40.27 7.2207C39.44 4.4707 36.89 2.4707 33.87 2.4707C31.23 2.4707 28.95 4.0007 27.86 6.2207C27.64 6.1807 27.41 6.1507 27.18 6.1507C25.17 6.1507 23.54 7.7807 23.54 9.7907C23.48 9.7907 23.42 9.7907 23.36 9.7907C20.46 9.7907 18.11 12.1407 18.11 15.0407C18.11 17.9407 20.46 20.2907 23.36 20.2907H46.61C48.62 20.2907 50.25 18.6607 50.25 16.6507C50.25 14.6407 48.62 13.0107 46.61 13.0107L46.6 13.0207Z" fill="#DCE3F3"/>
<path d="M49 13.0207C49 13.0207 48.97 13.0207 48.96 13.0207C48.99 12.8007 49 12.5807 49 12.3607C49 9.4607 46.65 7.1107 43.75 7.1107C43.38 7.1107 43.02 7.1507 42.67 7.2207C41.84 4.4707 39.29 2.4707 36.27 2.4707C33.63 2.4707 31.35 4.0007 30.26 6.2207C30.04 6.1807 29.81 6.1507 29.58 6.1507C27.57 6.1507 25.94 7.7807 25.94 9.7907C25.88 9.7907 25.82 9.7907 25.76 9.7907C22.86 9.7907 20.51 12.1407 20.51 15.0407C20.51 17.9407 22.86 20.2907 25.76 20.2907H49.01C51.02 20.2907 52.65 18.6607 52.65 16.6507C52.65 14.6407 51.02 13.0107 49.01 13.0107L49 13.0207Z" fill="white"/>
</g>
<defs>
<clipPath id="clip0_77_11671">
<rect width="52.64" height="22.75" fill="white"/>
</clipPath>
</defs>
</svg>
