<svg width="188" height="106" viewBox="0 0 188 106" fill="none" xmlns="http://www.w3.org/2000/svg">
<g clip-path="url(#clip0_77_11607)">
<path d="M164.301 68.5769C164.019 67.094 167.941 65.0886 169.42 64.8065L182.545 62.3028C184.024 62.0206 187.228 62.669 187.509 64.152C187.79 65.635 185.048 67.4182 183.569 67.7004L170.444 70.204C168.965 70.4862 164.582 70.0659 164.301 68.5829V68.5769Z" fill="#957853"/>
<path d="M181.733 68.0453L180.71 62.6484L178.686 63.0344L179.71 68.4312L181.733 68.0453Z" fill="#CFB28F"/>
<path d="M164.433 67.9338C164.726 66.4509 169.109 66.0606 170.588 66.3548L183.695 68.9545C185.174 69.2487 187.904 71.0499 187.611 72.5269C187.317 74.0099 184.108 74.6283 182.635 74.3401L169.528 71.7404C168.049 71.4462 164.145 69.4168 164.439 67.9338H164.433Z" fill="#957853"/>
<path d="M180.786 73.9675L181.848 68.5781L179.827 68.1777L178.765 73.5671L180.786 73.9675Z" fill="#CFB28F"/>
<path d="M164.379 68.1318C164.343 66.6248 168.54 65.292 170.049 65.2619L183.407 64.9617C184.91 64.9257 187.97 66.0965 188 67.6035C188.036 69.1105 185.036 70.4133 183.527 70.4494L170.169 70.7496C168.666 70.7856 164.415 69.6448 164.379 68.1318Z" fill="#9C8066"/>
<path d="M180.099 65.0105L178.04 65.0566L178.163 70.5489L180.222 70.5028L180.099 65.0105Z" fill="#CFB28F"/>
<path d="M164.139 84.7872C156.092 102.811 134.794 110.958 116.819 102.889L73.3426 83.3702C55.3677 75.3009 55.4396 57.6252 63.487 39.6013C71.5344 21.5774 84.6353 9.7496 102.61 17.8189L146.087 37.3378C164.061 45.4071 172.187 66.7633 164.139 84.7872Z" fill="#CFB28F"/>
<path d="M135.836 77.0721C133.458 78.489 130.237 77.4683 128.656 74.8026L128.567 74.6525C128.345 74.2802 128.471 73.8059 128.836 73.5838C129.201 73.3616 129.68 73.4877 129.902 73.8539L129.992 74.004C131.135 75.9313 133.399 76.7058 135.039 75.7332C136.68 74.7605 137.081 72.389 135.937 70.4617L135.848 70.3116C135.626 69.9394 135.752 69.465 136.117 69.2429C136.482 69.0207 136.961 69.1468 137.183 69.5131L137.273 69.6632C138.853 72.3349 138.213 75.6551 135.836 77.0721Z" fill="#BC9B79"/>
<path d="M129.423 87.6326C127.046 89.0496 123.824 88.0289 122.244 85.3631L122.154 85.213C121.932 84.8408 122.058 84.3665 122.423 84.1443C122.789 83.9222 123.268 84.0482 123.489 84.4145L123.579 84.5646C124.723 86.4919 126.986 87.2724 128.626 86.2937C130.267 85.3151 130.668 82.9495 129.525 81.0222L129.435 80.8721C129.213 80.4999 129.339 80.0256 129.704 79.8034C130.07 79.5813 130.549 79.7074 130.77 80.0736L130.86 80.2237C132.441 82.8955 131.8 86.2157 129.423 87.6326Z" fill="#BC9B79"/>
<path d="M123.531 97.4021C121.154 98.8191 117.933 97.7984 116.352 95.1326L116.262 94.9825C116.04 94.6103 116.166 94.136 116.531 93.9138C116.897 93.6917 117.376 93.8178 117.597 94.184L117.687 94.3341C118.831 96.2614 121.094 97.0419 122.735 96.0633C124.375 95.0846 124.776 92.7191 123.633 90.7918L123.543 90.6417C123.321 90.2694 123.447 89.7951 123.812 89.573C124.178 89.3508 124.657 89.4769 124.878 89.8432L124.968 89.9932C126.549 92.665 125.908 95.9852 123.531 97.4021Z" fill="#BC9B79"/>
<path d="M159.146 75.7576C156.768 77.1745 153.547 76.1539 151.966 73.4881L151.877 73.338C151.655 72.9658 151.781 72.4915 152.146 72.2693C152.511 72.0472 152.99 72.1732 153.212 72.5395L153.302 72.6896C154.445 74.6169 156.709 75.3914 158.349 74.4187C159.99 73.4461 160.391 71.0745 159.247 69.1472L159.157 68.9971C158.936 68.6249 159.062 68.1506 159.427 67.9284C159.792 67.7063 160.271 67.8324 160.493 68.1986L160.583 68.3487C162.163 71.0205 161.523 74.3407 159.146 75.7576Z" fill="#BC9B79"/>
<path d="M148.056 76.5252C145.679 77.9421 142.458 76.9215 140.877 74.2557L140.787 74.1056C140.566 73.7333 140.692 73.259 141.057 73.0369C141.422 72.8147 141.901 72.9408 142.123 73.3071L142.212 73.4572C143.356 75.3844 145.619 76.165 147.26 75.1863C148.901 74.2077 149.302 71.8421 148.158 69.9148L148.068 69.7647C147.847 69.3925 147.973 68.9182 148.338 68.696C148.703 68.4739 149.182 68.6 149.404 68.9662L149.493 69.1163C151.074 71.7881 150.433 75.1083 148.056 76.5252Z" fill="#BC9B79"/>
<path d="M141.428 86.7264C139.051 88.1433 135.83 87.1226 134.249 84.4569L134.159 84.3068C133.938 83.9345 134.063 83.4602 134.429 83.2381C134.794 83.0159 135.273 83.142 135.494 83.5082L135.584 83.6583C136.728 85.5856 138.991 86.3661 140.632 85.3875C142.272 84.4088 142.674 82.0433 141.53 80.116L141.44 79.9659C141.219 79.5937 141.344 79.1193 141.71 78.8972C142.075 78.675 142.554 78.8011 142.775 79.1674L142.865 79.3175C144.446 81.9892 143.805 85.3094 141.428 86.7264Z" fill="#BC9B79"/>
<path d="M135.033 97.0838C132.656 98.5007 129.435 97.48 127.854 94.8143L127.764 94.6642C127.543 94.2919 127.669 93.8176 128.034 93.5955C128.399 93.3733 128.878 93.4994 129.1 93.8657L129.189 94.0158C130.333 95.943 132.596 96.7175 134.237 95.7449C135.878 94.7723 136.279 92.4007 135.135 90.4734L135.045 90.3233C134.824 89.9511 134.949 89.4768 135.315 89.2546C135.68 89.0325 136.159 89.1585 136.381 89.5248L136.47 89.6749C138.051 92.3467 137.41 95.6668 135.033 97.0838Z" fill="#BC9B79"/>
<path d="M153.661 85.9705C151.284 87.3874 148.062 86.3668 146.482 83.701L146.392 83.5509C146.17 83.1787 146.296 82.7043 146.661 82.4822C147.026 82.2601 147.505 82.3861 147.727 82.7524L147.817 82.9025C148.96 84.8298 151.224 85.6043 152.864 84.6316C154.505 83.653 154.906 81.2874 153.763 79.3601L153.673 79.21C153.451 78.8378 153.577 78.3635 153.942 78.1413C154.307 77.9192 154.786 78.0453 155.008 78.4115L155.098 78.5616C156.679 81.2334 156.038 84.5536 153.661 85.9705Z" fill="#BC9B79"/>
<path d="M61.2776 71.261C61.2776 71.261 125.345 82.5184 164.379 57.9922" stroke="#B84421" stroke-width="4" stroke-miterlimit="10"/>
<path d="M128.339 66.1034C126.519 67.5324 125.046 69.4296 124.501 71.6331C124.004 73.6624 125.1 75.3975 126.22 76.9946C127.064 78.2014 128.004 79.3602 129.142 80.3088C131.77 82.5002 134.884 82.5182 137.674 80.573C138.243 80.1767 138.776 79.7324 139.279 79.2581C141.674 77.0126 144.123 73.7164 143.189 70.2281C142.775 68.6851 141.602 67.6764 140.632 66.4877C140.033 65.7552 139.374 65.0647 138.59 64.5244C136.476 63.0594 133.794 63.2335 131.519 64.2122C130.417 64.6865 129.327 65.3229 128.333 66.1034H128.339Z" fill="#9F3A24"/>
<path d="M127.585 66.7401C127.585 66.7401 123.944 69.8622 124.525 72.594C125.657 74.3352 129.716 80.9215 136.902 74.5933C144.757 68.1331 139.165 64.6568 139.165 64.6568C139.165 64.6568 132.986 60.7182 127.585 66.7341V66.7401Z" fill="#B84421"/>
<path d="M138.28 71.4565L137.993 71.7111C137.522 72.1284 137.478 72.8494 137.894 73.3213L137.898 73.3258C138.314 73.7977 139.033 73.842 139.504 73.4246L139.791 73.17C140.262 72.7526 140.306 72.0317 139.89 71.5598L139.886 71.5553C139.469 71.0833 138.75 71.0391 138.28 71.4565Z" fill="#EEC42C"/>
<path d="M64.3013 60.4707L7.27502 29.6523C7.27502 29.6523 15.6877 57.0664 31.3094 62.392C46.9312 67.7175 63.9361 61.1431 63.9361 61.1431" fill="#957853"/>
<path d="M64.6845 60.7283L0.431152 52.4668C0.431152 52.4668 18.0887 75.0297 34.5787 74.3813C51.0686 73.7328 64.5887 61.4788 64.5887 61.4788" fill="#7D6345"/>
<path d="M64.451 61.2754L0 67.8197C0 67.8197 22.298 85.7836 38.2071 81.4127C54.1223 77.0358 64.5288 62.0319 64.5288 62.0319" fill="#957853"/>
<path d="M64.912 61.2695L7.09534 90.5629C7.09534 90.5629 34.3331 99.3106 47.6257 89.5062C60.9123 79.7017 65.2593 61.948 65.2593 61.948" fill="#7D6345"/>
<path d="M45.099 26.9392C45.4104 26.7651 45.59 24.2794 45.6558 23.9012C45.9073 22.5082 46.1648 21.1093 46.4163 19.7164L48.0928 10.4763C48.3383 9.1134 48.5838 7.7565 48.8353 6.3936C49.3562 4.76653 50.5597 4.97066 52.1764 5.49301C55.5175 8.71714 58.8586 11.9413 62.1997 15.1594C62.4572 15.4056 62.8344 15.6697 63.038 15.9639C63.5888 16.7865 61.2177 17.6811 60.5411 18.0653C59.2179 18.8278 57.8946 19.5843 56.5713 20.3468C53.7511 21.9679 50.937 23.589 48.1168 25.21C47.1108 25.7864 46.1109 26.3628 45.105 26.9332L45.099 26.9392Z" fill="#C6A47F"/>
<path d="M123.705 26.9392C123.393 26.7651 123.214 24.2794 123.148 23.9012C122.896 22.5082 122.639 21.1093 122.387 19.7164C121.831 16.6364 121.268 13.5563 120.711 10.4763C120.465 9.1134 120.22 7.7565 119.968 6.3936C119.448 4.76653 118.244 4.97066 116.627 5.49301C113.286 8.71714 109.945 11.9413 106.604 15.1594C106.347 15.4056 105.969 15.6697 105.766 15.9639C105.215 16.7865 107.586 17.6811 108.263 18.0653C109.586 18.8278 110.909 19.5843 112.232 20.3468C115.053 21.9679 117.867 23.589 120.687 25.21C121.693 25.7864 122.693 26.3628 123.699 26.9332L123.705 26.9392Z" fill="#C6A47F"/>
<path d="M106.185 14.7266H62.6188C49.3912 14.7266 38.6682 25.4788 38.6682 38.7424C38.6682 52.006 49.3912 62.7583 62.6188 62.7583H106.185C119.412 62.7583 130.135 52.006 130.135 38.7424C130.135 25.4788 119.412 14.7266 106.185 14.7266Z" fill="#C6A47F"/>
<path d="M65.6665 60.1342C77.0058 60.1342 86.1981 50.9168 86.1981 39.5466C86.1981 28.1764 77.0058 18.959 65.6665 18.959C54.3272 18.959 45.1349 28.1764 45.1349 39.5466C45.1349 50.9168 54.3272 60.1342 65.6665 60.1342Z" fill="#CEB18E"/>
<path d="M65.6666 51.7827C72.406 51.7827 77.8694 46.3044 77.8694 39.5466C77.8694 32.7888 72.406 27.3105 65.6666 27.3105C58.9271 27.3105 53.4637 32.7888 53.4637 39.5466C53.4637 46.3044 58.9271 51.7827 65.6666 51.7827Z" fill="#FCFEFE"/>
<path d="M70.5465 38.0029C68.7023 38.0029 67.2114 36.5079 67.2114 34.6587C67.2114 33.5059 67.7922 32.4912 68.6784 31.8908C67.7443 31.5246 66.7384 31.3145 65.6726 31.3145C61.1399 31.3145 57.4635 35.0009 57.4635 39.5459C57.4635 44.0909 61.1399 47.7773 65.6726 47.7773C70.2052 47.7773 73.8816 44.0909 73.8816 39.5459C73.8816 38.4832 73.672 37.4685 73.3068 36.5319C72.708 37.4205 71.6961 38.0029 70.5465 38.0029Z" fill="#323333"/>
<path d="M103.131 60.1342C114.471 60.1342 123.663 50.9168 123.663 39.5466C123.663 28.1764 114.471 18.959 103.131 18.959C91.7919 18.959 82.5996 28.1764 82.5996 39.5466C82.5996 50.9168 91.7919 60.1342 103.131 60.1342Z" fill="#CEB18E"/>
<path d="M103.131 51.7827C109.871 51.7827 115.334 46.3044 115.334 39.5466C115.334 32.7888 109.871 27.3105 103.131 27.3105C96.3919 27.3105 90.9285 32.7888 90.9285 39.5466C90.9285 46.3044 96.3919 51.7827 103.131 51.7827Z" fill="#FCFEFE"/>
<path d="M108.011 38.0029C106.167 38.0029 104.676 36.5079 104.676 34.6587C104.676 33.5059 105.257 32.4912 106.143 31.8908C105.209 31.5246 104.203 31.3145 103.137 31.3145C98.6046 31.3145 94.9282 35.0009 94.9282 39.5459C94.9282 44.0909 98.6046 47.7773 103.137 47.7773C107.67 47.7773 111.346 44.0909 111.346 39.5459C111.346 38.4832 111.137 37.4685 110.772 36.5319C110.173 37.4205 109.161 38.0029 108.011 38.0029Z" fill="#323333"/>
<path d="M84.4317 41.7695H90.0661L87.2459 47.6954L84.4317 53.6214L81.6116 47.6954L78.7914 41.7695H84.4317Z" fill="#EE7634"/>
<path d="M68.325 16.0784C68.325 16.0784 61.3554 12.1097 68.8399 6.73619C76.3185 1.37465 82.3301 -0.318468 85.5574 0.0477739C88.7848 0.414016 97.3651 2.04109 103.526 7.66681C109.688 13.2925 101.988 16.7448 101.988 16.7448L68.319 16.0844L68.325 16.0784Z" fill="#184A79"/>
<mask id="mask0_77_11607" style="mask-type:luminance" maskUnits="userSpaceOnUse" x="65" y="0" width="41" height="17">
<path d="M68.325 16.0784C68.325 16.0784 61.3554 12.1097 68.8399 6.73619C76.3185 1.37465 82.3301 -0.318468 85.5574 0.0477739C88.7848 0.414016 97.3651 2.04109 103.526 7.66681C109.688 13.2925 101.988 16.7448 101.988 16.7448L68.319 16.0844L68.325 16.0784Z" fill="white"/>
</mask>
<g mask="url(#mask0_77_11607)">
<path d="M62.9362 15.2969C62.9362 15.2969 72.696 10.4877 85.5635 11.0821C98.4309 11.6705 106.005 13.868 106.927 14.8766C107.849 15.8853 94.8982 17.9146 82.1146 17.4884C69.331 17.0621 63.6068 15.5491 62.9362 15.2969Z" fill="#0C3862"/>
</g>
<path d="M84.4497 14.439C82.8091 14.439 81.5338 12.8479 81.7793 11.2208C82.0487 9.43766 84.1863 8.7352 85.6712 9.44967C88.1501 10.6325 87.1861 14.439 84.4497 14.439Z" fill="#ECC22E"/>
<path d="M65.9958 16.5956C66.427 15.8211 68.1035 15.4308 68.9178 15.1847C70.0136 14.8544 71.1392 14.6203 72.2469 14.3381C76.5581 13.2214 81.0368 12.711 85.4916 12.9152C90.0063 13.1253 94.5569 13.5456 98.9818 14.4882C100.227 14.7524 101.479 15.0466 102.676 15.4849C102.987 15.5989 104.071 15.9472 104.077 16.3734C104.083 16.7997 102.838 16.9558 102.473 17.0459C100.856 17.4421 99.1854 17.6643 97.5268 17.8624C92.5451 18.4568 87.4975 18.667 82.4798 18.5048C79.7016 18.4148 76.9173 18.3367 74.145 18.0906C72.7499 17.9645 71.3548 17.8024 69.9716 17.5682C68.6903 17.3521 67.1515 17.232 65.9958 16.5956Z" fill="#491E0E"/>
<path d="M127.662 27.5469L185 57.7828C185 57.7828 157.625 66.0863 144.494 56.0657C131.369 46.0451 127.309 28.2253 127.309 28.2253" fill="#957853"/>
</g>
<defs>
<clipPath id="clip0_77_11607">
<rect width="188" height="106" fill="white"/>
</clipPath>
</defs>
</svg>
