<svg width="70%" height="80%" viewBox="0 0 87 126" fill="none" xmlns="http://www.w3.org/2000/svg">
<g clip-path="url(#clip0_6_4)">
<path d="M58.0229 117.151V109.509C58.0229 109.03 57.6413 108.643 57.1686 108.643C56.6959 108.643 56.3143 109.03 56.3143 109.509V117.151C51.4848 117.521 47.6918 120.958 47.6918 125.134C47.6918 125.614 48.0734 126.001 48.5461 126.001C49.0188 126.001 49.4003 125.614 49.4003 125.134C49.4003 121.899 52.4302 119.236 56.3143 118.89V125.134C56.3143 125.614 56.6959 126.001 57.1686 126.001C57.6413 126.001 58.0229 125.614 58.0229 125.134V118.89C61.907 119.236 64.9369 121.905 64.9369 125.134C64.9369 125.614 65.3184 126.001 65.7911 126.001C66.2638 126.001 66.6454 125.614 66.6454 125.134C66.6454 120.958 62.8524 117.521 58.0229 117.151Z" fill="#EB7C40"/>
<path d="M30.6858 117.151V109.509C30.6858 109.03 30.3043 108.643 29.8316 108.643C29.3589 108.643 28.9773 109.03 28.9773 109.509V117.151C24.1477 117.521 20.3547 120.958 20.3547 125.134C20.3547 125.614 20.7363 126.001 21.209 126.001C21.6817 126.001 22.0633 125.614 22.0633 125.134C22.0633 121.899 25.0931 119.236 28.9773 118.89V125.134C28.9773 125.614 29.3589 126.001 29.8316 126.001C30.3043 126.001 30.6858 125.614 30.6858 125.134V118.89C34.57 119.236 37.5998 121.905 37.5998 125.134C37.5998 125.614 37.9814 126.001 38.4541 126.001C38.9268 126.001 39.3084 125.614 39.3084 125.134C39.3084 120.958 35.5154 117.521 30.6858 117.151Z" fill="#EB7C40"/>
<path d="M64.0825 16.3066H23.3276C10.4963 16.3066 0 26.9525 0 39.9667V72.0371C0 95.7664 19.1416 115.181 42.5375 115.181C66.9927 115.181 87 94.8884 87 70.0847V39.5565C87 26.7677 76.686 16.3066 64.0825 16.3066Z" fill="#CFB28F"/>
<path d="M79.9209 22.7237C79.824 22.1865 79.7272 21.6493 79.6304 21.1063C79.1008 18.143 78.5654 15.1797 78.0357 12.2164C77.8022 10.9052 77.5687 9.59974 77.3295 8.2885C76.8341 6.72311 75.6893 6.9195 74.1516 7.42205C71.1104 10.3911 68.0634 13.3602 65.0222 16.3292C64.7545 16.3177 64.4868 16.3061 64.2192 16.3061H22.7808C22.5132 16.3061 22.2455 16.3177 21.9778 16.3292C18.9366 13.3602 15.8896 10.3911 12.8484 7.42205C11.305 6.9195 10.1659 6.72311 9.67046 8.2885C9.43696 9.59974 9.20346 10.9052 8.96426 12.2164C8.4346 15.1797 7.89925 18.143 7.3696 21.1063C7.27278 21.6435 7.17596 22.1807 7.07914 22.7237C2.728 26.9346 0 32.867 0 39.4116C0 52.1196 10.2514 62.5171 22.7808 62.5171H64.2192C76.7486 62.5171 87 52.1196 87 39.4116C87 32.867 84.2777 26.9346 79.9209 22.7237Z" fill="#C6A47F"/>
<path d="M25.6854 59.9933C36.4709 59.9933 45.2142 51.1253 45.2142 40.1861C45.2142 29.2469 36.4709 20.3789 25.6854 20.3789C14.8999 20.3789 6.15649 29.2469 6.15649 40.1861C6.15649 51.1253 14.8999 59.9933 25.6854 59.9933Z" fill="#CEB18E"/>
<path d="M25.6853 51.9586C32.0956 51.9586 37.2922 46.6879 37.2922 40.1863C37.2922 33.6847 32.0956 28.4141 25.6853 28.4141C19.275 28.4141 14.0785 33.6847 14.0785 40.1863C14.0785 46.6879 19.275 51.9586 25.6853 51.9586Z" fill="#FCFEFE"/>
<path d="M30.3212 38.6966C28.5671 38.6966 27.149 37.2583 27.149 35.4792C27.149 34.3701 27.7014 33.3939 28.5443 32.8163C27.6559 32.4639 26.6991 32.2617 25.6853 32.2617C21.3741 32.2617 17.8772 35.8084 17.8772 40.1811C17.8772 44.5538 21.3741 48.1005 25.6853 48.1005C29.9966 48.1005 33.4935 44.5538 33.4935 40.1811C33.4935 39.1587 33.2941 38.1825 32.9467 37.2814C32.3772 38.1363 31.4147 38.6966 30.3212 38.6966Z" fill="#323333"/>
<path d="M61.3203 59.9933C72.1057 59.9933 80.8491 51.1253 80.8491 40.1861C80.8491 29.2469 72.1057 20.3789 61.3203 20.3789C50.5348 20.3789 41.7914 29.2469 41.7914 40.1861C41.7914 51.1253 50.5348 59.9933 61.3203 59.9933Z" fill="#CEB18E"/>
<path d="M61.3202 51.9586C67.7305 51.9586 72.927 46.6879 72.927 40.1863C72.927 33.6847 67.7305 28.4141 61.3202 28.4141C54.9099 28.4141 49.7134 33.6847 49.7134 40.1863C49.7134 46.6879 54.9099 51.9586 61.3202 51.9586Z" fill="#FCFEFE"/>
<path d="M65.9561 38.6966C64.202 38.6966 62.7839 37.2583 62.7839 35.4792C62.7839 34.3701 63.3363 33.3939 64.1792 32.8163C63.2908 32.4639 62.334 32.2617 61.3202 32.2617C57.0089 32.2617 53.5121 35.8084 53.5121 40.1811C53.5121 44.5538 57.0089 48.1005 61.3202 48.1005C65.6315 48.1005 69.1283 44.5538 69.1283 40.1811C69.1283 39.1587 68.929 38.1825 68.5816 37.2814C68.0121 38.1363 67.0496 38.6966 65.9561 38.6966Z" fill="#323333"/>
<path d="M43.5001 44.8477H48.8593L46.1825 50.5489L43.5001 56.2502L40.8233 50.5489L38.1409 44.8477H43.5001Z" fill="#EE7634"/>
<path d="M43.6309 88.2172C40.5954 88.2172 38.1237 85.4099 38.1237 81.9614V81.7708C38.1237 81.2913 38.5052 80.9043 38.9779 80.9043C39.4506 80.9043 39.8322 81.2913 39.8322 81.7708V81.9614C39.8322 84.4568 41.5351 86.4843 43.6309 86.4843C45.7268 86.4843 47.4296 84.4568 47.4296 81.9614V81.7708C47.4296 81.2913 47.8112 80.9043 48.2839 80.9043C48.7566 80.9043 49.1382 81.2913 49.1382 81.7708V81.9614C49.1325 85.4099 46.6665 88.2172 43.6309 88.2172Z" fill="#BC9B79"/>
<path d="M31.6596 94.6469C28.6241 94.6469 26.1523 91.8396 26.1523 88.3911V88.2004C26.1523 87.721 26.5339 87.334 27.0066 87.334C27.4793 87.334 27.8609 87.721 27.8609 88.2004V88.3911C27.8609 90.8865 29.5638 92.914 31.6596 92.914C33.7554 92.914 35.4583 90.8865 35.4583 88.3911V88.2004C35.4583 87.721 35.8399 87.334 36.3126 87.334C36.7853 87.334 37.1669 87.721 37.1669 88.2004V88.3911C37.1669 91.8396 34.6952 94.6469 31.6596 94.6469Z" fill="#BC9B79"/>
<path d="M20.628 100.614C17.5924 100.614 15.1207 97.8064 15.1207 94.3579V94.1672C15.1207 93.6878 15.5023 93.3008 15.975 93.3008C16.4477 93.3008 16.8293 93.6878 16.8293 94.1672V94.3579C16.8293 96.8533 18.5322 98.8807 20.628 98.8807C22.7238 98.8807 24.4267 96.8533 24.4267 94.3579V94.1672C24.4267 93.6878 24.8083 93.3008 25.281 93.3008C25.7537 93.3008 26.1353 93.6878 26.1353 94.1672V94.3579C26.1353 97.8064 23.6635 100.614 20.628 100.614Z" fill="#BC9B79"/>
<path d="M66.3719 100.233C63.3363 100.233 60.8646 97.4255 60.8646 93.977V93.7864C60.8646 93.3069 61.2462 92.9199 61.7189 92.9199C62.1916 92.9199 62.5732 93.3069 62.5732 93.7864V93.977C62.5732 96.4724 64.2761 98.4999 66.3719 98.4999C68.4677 98.4999 70.1706 96.4724 70.1706 93.977V93.7864C70.1706 93.3069 70.5522 92.9199 71.0249 92.9199C71.4976 92.9199 71.8792 93.3069 71.8792 93.7864V93.977C71.8792 97.4255 69.4074 100.233 66.3719 100.233Z" fill="#BC9B79"/>
<path d="M55.4713 94.6469C52.4357 94.6469 49.964 91.8396 49.964 88.3911V88.2004C49.964 87.721 50.3456 87.334 50.8183 87.334C51.291 87.334 51.6726 87.721 51.6726 88.2004V88.3911C51.6726 90.8865 53.3754 92.914 55.4713 92.914C57.5671 92.914 59.27 90.8865 59.27 88.3911V88.2004C59.27 87.721 59.6515 87.334 60.1242 87.334C60.5969 87.334 60.9785 87.721 60.9785 88.2004V88.3911C60.9785 91.8396 58.5068 94.6469 55.4713 94.6469Z" fill="#BC9B79"/>
<path d="M43.4999 100.614C40.4644 100.614 37.9927 97.8064 37.9927 94.3579V94.1672C37.9927 93.6878 38.3743 93.3008 38.847 93.3008C39.3197 93.3008 39.7012 93.6878 39.7012 94.1672V94.3579C39.7012 96.8533 41.4041 98.8807 43.4999 98.8807C45.5958 98.8807 47.2986 96.8533 47.2986 94.3579V94.1672C47.2986 93.6878 47.6802 93.3008 48.1529 93.3008C48.6256 93.3008 49.0072 93.6878 49.0072 94.1672V94.3579C49.0072 97.8064 46.5355 100.614 43.4999 100.614Z" fill="#BC9B79"/>
<path d="M31.6596 106.864C28.6241 106.864 26.1523 104.056 26.1523 100.608V100.417C26.1523 99.9378 26.5339 99.5508 27.0066 99.5508C27.4793 99.5508 27.8609 99.9378 27.8609 100.417V100.608C27.8609 103.103 29.5638 105.131 31.6596 105.131C33.7554 105.131 35.4583 103.103 35.4583 100.608V100.417C35.4583 99.9378 35.8399 99.5508 36.3126 99.5508C36.7853 99.5508 37.1669 99.9378 37.1669 100.417V100.608C37.1669 104.056 34.6952 106.864 31.6596 106.864Z" fill="#BC9B79"/>
<path d="M55.4713 106.864C52.4357 106.864 49.964 104.056 49.964 100.608V100.417C49.964 99.9378 50.3456 99.5508 50.8183 99.5508C51.291 99.5508 51.6726 99.9378 51.6726 100.417V100.608C51.6726 103.103 53.3754 105.131 55.4713 105.131C57.5671 105.131 59.27 103.103 59.27 100.608V100.417C59.27 99.9378 59.6515 99.5508 60.1242 99.5508C60.5969 99.5508 60.9785 99.9378 60.9785 100.417V100.608C60.9785 104.056 58.5068 106.864 55.4713 106.864Z" fill="#BC9B79"/>
<path d="M79.5507 97.4825C36.4322 90.2216 6.69756 56.2681 6.4071 55.9215L8.12136 54.4023C8.41182 54.7374 37.6282 88.0786 79.9266 95.2009L79.5507 97.4825Z" fill="#B84421"/>
<path d="M62.6985 84.6582C60.5059 84.5253 58.262 84.947 56.4908 86.1889C54.8619 87.3327 54.5487 89.2851 54.3437 91.1508C54.1899 92.5603 54.1272 93.9986 54.3437 95.4023C54.8391 98.6601 57.0432 100.665 60.2553 101.052C60.9102 101.132 61.5709 101.15 62.2258 101.132C65.3411 101.046 69.1626 100.237 70.6889 97.1236C71.3666 95.7488 71.1616 94.2701 71.2186 92.7971C71.2527 91.8844 71.2129 90.966 71.0021 90.0822C70.4155 87.6792 68.3994 86.085 66.1612 85.3398C65.0791 84.9701 63.8945 84.7333 62.6985 84.6582Z" fill="#9F3A24"/>
<path d="M61.7589 84.6351C61.7589 84.6351 57.2027 84.5542 55.8985 86.8994C55.608 88.8807 54.3608 96.2167 63.456 96.2514C73.1094 96.6153 71.3154 90.5385 71.3154 90.5385C71.3154 90.5385 69.3904 83.7571 61.7589 84.6351Z" fill="#B84421"/>
<path d="M66.4232 97.0603H66.0644C65.4664 97.0603 64.9823 96.5635 64.9823 95.9628C64.9823 95.3562 65.4721 94.8652 66.0644 94.8652H66.4232C67.0212 94.8652 67.5053 95.362 67.5053 95.9628C67.5053 96.5635 67.0212 97.0603 66.4232 97.0603Z" fill="#EEC42C"/>
<path d="M0 45.6562V108.151C0 108.151 19.0903 88.4938 16.4876 72.7936C13.8849 57.0935 0.723291 45.6562 0.723291 45.6562" fill="#957853"/>
<path d="M87 45.6562V108.151C87 108.151 67.9097 88.4938 70.5124 72.7936C73.1151 57.0935 86.2767 45.6562 86.2767 45.6562" fill="#957853"/>
<path d="M27.0238 15.4691C27.0238 15.4691 20.3946 11.6509 27.5136 6.48108C34.6326 1.31122 40.3506 -0.30616 43.4203 0.0461984C46.49 0.398557 54.6513 1.96395 60.5116 7.37641C66.372 12.7889 59.048 16.1103 59.048 16.1103L27.0238 15.4691Z" fill="#184A79"/>
<mask id="mask0_6_4" style="mask-type:luminance" maskUnits="userSpaceOnUse" x="24" y="0" width="39" height="17">
<path d="M27.0238 15.4691C27.0238 15.4691 20.3946 11.6509 27.5136 6.48108C34.6326 1.31122 40.3506 -0.30616 43.4203 0.0461984C46.49 0.398557 54.6513 1.96395 60.5116 7.37641C66.372 12.7889 59.048 16.1103 59.048 16.1103L27.0238 15.4691Z" fill="white"/>
</mask>
<g mask="url(#mask0_6_4)">
<path d="M21.8981 14.7172C21.8981 14.7172 31.1813 10.0904 43.4203 10.6622C55.6593 11.2283 62.8637 13.3425 63.7408 14.3129C64.6235 15.2891 52.2991 17.2357 40.1398 16.8256C27.9806 16.4155 22.5416 14.9599 21.8981 14.7172Z" fill="#0C3862"/>
</g>
<path d="M42.3611 13.8917C40.8006 13.8917 39.5875 12.361 39.821 10.7956C40.0773 9.08001 42.1105 8.40417 43.5229 9.09156C45.8864 10.2295 44.9695 13.8917 42.3611 13.8917Z" fill="#ECC22E"/>
<path d="M24.8083 15.9661C25.2184 15.221 26.8131 14.8455 27.5876 14.6087C28.6298 14.291 29.7005 14.0657 30.7541 13.7942C34.8547 12.7198 39.1147 12.2288 43.3519 12.4252C47.6461 12.6274 51.9745 13.0317 56.1833 13.9386C57.3679 14.1928 58.5582 14.4758 59.6972 14.8975C59.9933 15.0072 61.0242 15.3423 61.0299 15.7524C61.0356 16.1798 59.851 16.3127 59.5036 16.3993C57.9659 16.7806 56.3769 16.9943 54.7993 17.1849C50.0609 17.7568 45.2598 17.959 40.4873 17.803C37.8447 17.7164 35.1964 17.6413 32.5595 17.4044C31.2325 17.2831 29.9056 17.1272 28.59 16.9019C27.3712 16.6939 25.9075 16.5784 24.8083 15.9661Z" fill="#491E0E"/>
</g>
<defs>
<clipPath id="clip0_6_4">
<rect width="87" height="126" fill="white"/>
</clipPath>
</defs>
</svg>
