<?xml version="1.0" encoding="utf-8"?>
<!-- Generator: Adobe Illustrator 26.4.1, SVG Export Plug-In . SVG Version: 6.00 Build 0)  -->
<svg version="1.1" id="레이어_1" xmlns="http://www.w3.org/2000/svg" xmlns:xlink="http://www.w3.org/1999/xlink" x="0px"
	 y="0px" viewBox="0 0 552.38 396.93" style="enable-background:new 0 0 552.38 396.93;" xml:space="preserve">
<style type="text/css">
	.face{fill:#C3A27E;}
	.eyes{fill:#CBAF8C;}
	.eye{fill:#FDFEFF;}
	.pupil{fill:#323333;}
	.nose{fill:#E37337;}
	.cap{fill:#184875;}
	.cap_mask{fill:#FFFFFF;filter:url(#Adobe_OpacityMaskFilter);}
	.cap_line{mask:url(#mask0_6_4_00000029763893440044081040000012309420165727579320_);}
	.st8{fill:#0A375F;}
	.cap_point{fill:#E4BC36;}
	.cap_front{fill:#491E0D;}
</style>
<path class="face" d="M507.43,144.28c-0.62-3.41-1.23-6.82-1.84-10.27c-3.36-18.81-6.76-37.63-10.13-56.44
	c-1.48-8.33-2.97-16.61-4.48-24.94c-3.15-9.94-10.41-8.69-20.18-5.5c-19.31,18.85-38.66,37.7-57.96,56.55
	c-1.7-0.07-3.4-0.15-5.1-0.15h-263.1c-1.7,0-3.4,0.07-5.1,0.15c-19.31-18.85-38.66-37.7-57.96-56.55c-9.8-3.19-17.03-4.44-20.18,5.5
	c-1.48,8.33-2.97,16.61-4.48,24.94c-3.36,18.81-6.76,37.63-10.12,56.44c-0.61,3.41-1.23,6.82-1.84,10.27
	C17.32,171.01,0,208.68,0,250.23c0,80.69,65.09,146.7,144.64,146.7h263.1c79.55,0,144.64-66.02,144.64-146.7
	C552.38,208.68,535.1,171.01,507.43,144.28z"/>
<path class="eyes" d="M163.08,380.91c68.48,0,123.99-56.3,123.99-125.76s-55.51-125.76-123.99-125.76S39.09,185.69,39.09,255.15
	S94.6,380.91,163.08,380.91z"/>
<path class="eye" d="M163.08,329.9c40.7,0,73.69-33.46,73.69-74.74s-32.99-74.74-73.69-74.74s-73.69,33.46-73.69,74.74
	S122.38,329.9,163.08,329.9z"/>
<path class="pupil" d="M192.52,245.69c-11.14,0-20.14-9.13-20.14-20.43c0-7.04,3.51-13.24,8.86-16.91
	c-5.64-2.24-11.72-3.52-18.15-3.52c-27.37,0-49.58,22.52-49.58,50.28s22.2,50.28,49.58,50.28c27.37,0,49.58-22.52,49.58-50.28
	c0-6.49-1.27-12.69-3.47-18.41C205.57,242.14,199.46,245.69,192.52,245.69z"/>
<path class="eyes" d="M389.34,380.91c68.48,0,123.99-56.3,123.99-125.76s-55.51-125.76-123.99-125.76
	c-68.48,0-123.99,56.3-123.99,125.76S320.86,380.91,389.34,380.91z"/>
<path class="eye" d="M389.33,329.9c40.7,0,73.69-33.46,73.69-74.74s-32.99-74.74-73.69-74.74s-73.69,33.46-73.69,74.74
	S348.63,329.9,389.33,329.9z"/>
<path class="pupil" d="M418.77,245.69c-11.14,0-20.14-9.13-20.14-20.43c0-7.04,3.51-13.24,8.86-16.91
	c-5.64-2.24-11.72-3.52-18.15-3.52c-27.37,0-49.58,22.52-49.58,50.28s22.2,50.28,49.58,50.28c27.37,0,49.58-22.52,49.58-50.28
	c0-6.49-1.27-12.69-3.47-18.41C431.82,242.14,425.71,245.69,418.77,245.69z"/>
<path class="nose" d="M276.19,284.75h34.03l-17,36.2l-17.03,36.2l-17-36.2l-17.03-36.2H276.19z"/>
<g>
	<path class="cap" d="M171.58,98.22c0,0-42.09-24.24,3.11-57.07c45.2-32.82,81.5-43.09,100.99-40.86
		c19.49,2.24,71.31,12.18,108.52,46.54c37.21,34.37-9.29,55.45-9.29,55.45L171.58,98.22z"/>
	<defs>
		<filter id="Adobe_OpacityMaskFilter" filterUnits="userSpaceOnUse" x="139.04" y="67.39" width="265.95" height="39.8">
			<feColorMatrix  type="matrix" values="1 0 0 0 0  0 1 0 0 0  0 0 1 0 0  0 0 0 1 0"/>
		</filter>
	</defs>
	
		<mask maskUnits="userSpaceOnUse" x="139.04" y="67.39" width="265.95" height="39.8" id="mask0_6_4_00000029763893440044081040000012309420165727579320_">
		<path class="cap_mask" d="M171.58,98.22c0,0-42.09-24.24,3.11-57.07c45.2-32.82,81.5-43.09,100.99-40.86
			c19.49,2.24,71.31,12.18,108.52,46.54c37.21,34.37-9.29,55.45-9.29,55.45L171.58,98.22z"/>
	</mask>
	<g class="cap_line">
		<path class="st8" d="M139.04,93.44c0,0,58.94-29.38,136.65-25.75c77.71,3.59,123.45,17.02,129.02,23.18
			c5.6,6.2-72.65,18.56-149.85,15.95C177.65,104.23,143.12,94.98,139.04,93.44z"/>
	</g>
	<path class="cap_point" d="M268.96,88.2c-9.91,0-17.61-9.72-16.13-19.66c1.63-10.89,14.54-15.18,23.5-10.82
		C291.34,64.95,285.52,88.2,268.96,88.2z"/>
	<path class="cap_front" d="M157.51,101.37c2.6-4.73,12.73-7.11,17.65-8.62c6.62-2.02,13.42-3.45,20.1-5.17
		c26.04-6.82,53.08-9.94,79.99-8.69c27.26,1.28,54.75,3.85,81.47,9.61c7.52,1.61,15.08,3.41,22.31,6.09
		c1.88,0.7,8.43,2.82,8.46,5.43c0.04,2.71-7.49,3.56-9.69,4.11c-9.76,2.42-19.85,3.78-29.87,4.99c-30.09,3.63-60.57,4.91-90.87,3.92
		c-16.78-0.55-33.59-1.03-50.34-2.53c-8.43-0.77-16.85-1.76-25.2-3.19C173.79,105.99,164.49,105.26,157.51,101.37z"/>
</g>
</svg>
