<?xml version="1.0" encoding="utf-8"?>
<!-- Generator: Adobe Illustrator 26.4.1, SVG Export Plug-In . SVG Version: 6.00 Build 0)  -->
<svg version="1.1" id="레이어_1" xmlns="http://www.w3.org/2000/svg" xmlns:xlink="http://www.w3.org/1999/xlink" x="0px"
	 y="0px" viewBox="0 0 553.38 800.01" style="enable-background:new 0 0 553.38 800.01;" xml:space="preserve">
<style type="text/css">
	.st0{fill:#E17942;}
	.st1{fill:#CCB08D;}
	.st2{fill:#B99979;}
	.st3{fill:#B04422;}
	.st4{fill:#993A23;}
	.st5{fill:#E5BE34;}
</style>
<g>
	<path class="st0" d="M368.4,743.82V695.3c0-3.04-2.42-5.5-5.42-5.5c-3,0-5.42,2.46-5.42,5.5v48.52
		c-30.66,2.35-54.75,24.17-54.75,50.69c0,3.05,2.42,5.5,5.42,5.5c3,0,5.42-2.46,5.42-5.5c0-20.54,19.24-37.45,43.9-39.64v39.64
		c0,3.05,2.42,5.5,5.42,5.5c3,0,5.42-2.46,5.42-5.5v-39.64c24.66,2.2,43.9,19.14,43.9,39.64c0,3.05,2.42,5.5,5.42,5.5
		s5.42-2.46,5.42-5.5C423.15,767.99,399.06,746.17,368.4,743.82z"/>
	<path class="st0" d="M194.83,743.82V695.3c0-3.04-2.42-5.5-5.42-5.5c-3,0-5.42,2.46-5.42,5.5v48.52
		c-30.66,2.35-54.75,24.17-54.75,50.69c0,3.05,2.42,5.5,5.42,5.5c3,0,5.42-2.46,5.42-5.5c0-20.54,19.24-37.45,43.9-39.64v39.64
		c0,3.05,2.42,5.5,5.42,5.5c3,0,5.42-2.46,5.42-5.5v-39.64c24.66,2.2,43.9,19.14,43.9,39.64c0,3.05,2.42,5.5,5.42,5.5
		c3,0,5.42-2.46,5.42-5.5C249.58,767.99,225.49,746.17,194.83,743.82z"/>
	<path class="st1" d="M407.87,103.53H149.11C67.64,103.53,1,171.13,1,253.76v203.62c0,150.66,121.53,273.93,270.08,273.93
		c155.27,0,282.3-128.84,282.3-286.33V251.15C553.38,169.95,487.9,103.53,407.87,103.53z"/>
	<path class="st2" d="M277.02,560.11c-19.27,0-34.97-17.82-34.97-39.72v-1.21c0-3.04,2.42-5.5,5.42-5.5c3,0,5.42,2.46,5.42,5.5v1.21
		c0,15.84,10.81,28.72,24.12,28.72c13.31,0,24.12-12.87,24.12-28.72v-1.21c0-3.04,2.42-5.5,5.42-5.5c3,0,5.42,2.46,5.42,5.5v1.21
		C311.95,542.29,296.3,560.11,277.02,560.11z"/>
	<path class="st2" d="M201.01,600.93c-19.27,0-34.97-17.82-34.97-39.72V560c0-3.04,2.42-5.5,5.42-5.5s5.42,2.46,5.42,5.5v1.21
		c0,15.84,10.81,28.72,24.12,28.72c13.31,0,24.12-12.87,24.12-28.72V560c0-3.04,2.42-5.5,5.42-5.5c3,0,5.42,2.46,5.42,5.5v1.21
		C235.98,583.11,220.29,600.93,201.01,600.93z"/>
	<path class="st2" d="M130.97,638.82C111.7,638.82,96,620.99,96,599.1v-1.21c0-3.04,2.42-5.5,5.42-5.5c3,0,5.42,2.46,5.42,5.5v1.21
		c0,15.84,10.81,28.72,24.12,28.72s24.12-12.87,24.12-28.72v-1.21c0-3.04,2.42-5.5,5.42-5.5c3,0,5.42,2.46,5.42,5.5v1.21
		C165.94,620.99,150.24,638.82,130.97,638.82z"/>
	<path class="st2" d="M421.41,636.4c-19.27,0-34.97-17.83-34.97-39.72v-1.21c0-3.04,2.42-5.5,5.42-5.5c3,0,5.42,2.46,5.42,5.5v1.21
		c0,15.84,10.81,28.72,24.12,28.72c13.31,0,24.12-12.87,24.12-28.72v-1.21c0-3.04,2.42-5.5,5.42-5.5c3,0,5.42,2.46,5.42,5.5v1.21
		C456.38,618.57,440.68,636.4,421.41,636.4z"/>
	<path class="st2" d="M352.2,600.93c-19.27,0-34.97-17.82-34.97-39.72V560c0-3.04,2.42-5.5,5.42-5.5c3,0,5.42,2.46,5.42,5.5v1.21
		c0,15.84,10.81,28.72,24.12,28.72c13.31,0,24.12-12.87,24.12-28.72V560c0-3.04,2.42-5.5,5.42-5.5c3,0,5.42,2.46,5.42,5.5v1.21
		C387.17,583.11,371.47,600.93,352.2,600.93z"/>
	<path class="st2" d="M276.19,638.82c-19.27,0-34.97-17.83-34.97-39.72v-1.21c0-3.04,2.42-5.5,5.42-5.5c3,0,5.42,2.46,5.42,5.5v1.21
		c0,15.84,10.81,28.72,24.12,28.72c13.31,0,24.12-12.87,24.12-28.72v-1.21c0-3.04,2.42-5.5,5.42-5.5s5.42,2.46,5.42,5.5v1.21
		C311.16,620.99,295.46,638.82,276.19,638.82z"/>
	<path class="st2" d="M201.01,678.5c-19.27,0-34.97-17.83-34.97-39.72v-1.21c0-3.04,2.42-5.5,5.42-5.5s5.42,2.46,5.42,5.5v1.21
		c0,15.84,10.81,28.72,24.12,28.72c13.31,0,24.12-12.88,24.12-28.72v-1.21c0-3.04,2.42-5.5,5.42-5.5c3,0,5.42,2.46,5.42,5.5v1.21
		C235.98,660.67,220.29,678.5,201.01,678.5z"/>
	<path class="st2" d="M352.2,678.5c-19.27,0-34.97-17.83-34.97-39.72v-1.21c0-3.04,2.42-5.5,5.42-5.5c3,0,5.42,2.46,5.42,5.5v1.21
		c0,15.84,10.81,28.72,24.12,28.72c13.31,0,24.12-12.88,24.12-28.72v-1.21c0-3.04,2.42-5.5,5.42-5.5c3,0,5.42,2.46,5.42,5.5v1.21
		C387.17,660.67,371.47,678.5,352.2,678.5z"/>
	<path class="st3" d="M500.39,612.29C194.74,560.48,3.11,350.38,1.06,347.91v-31.05c2.06,2.39,212.45,224.03,512.29,274.86
		L500.39,612.29z"/>
	<g>
		<path class="st4" d="M354.66,510.08c-13.92-0.84-28.17,1.83-39.41,9.72c-10.34,7.26-12.33,19.66-13.63,31.5
			c-0.98,8.95-1.37,18.08,0,26.99c3.15,20.68,17.14,33.41,37.53,35.87c4.16,0.51,8.35,0.62,12.51,0.51
			c19.78-0.55,44.04-5.68,53.73-25.45c4.3-8.73,3-18.12,3.36-27.47c0.22-5.79-0.04-11.63-1.37-17.24
			c-3.72-15.26-16.53-25.38-30.74-30.11C369.77,512.06,362.25,510.56,354.66,510.08z"/>
		<path class="st3" d="M348.69,509.94c0,0-28.93-0.51-37.21,14.38c-1.84,12.58-9.76,59.16,47.98,59.38
			c61.29,2.31,49.9-36.27,49.9-36.27S397.15,504.36,348.69,509.94z"/>
		<path class="st5" d="M378.31,588.83h-2.28c-3.8,0-6.87-3.15-6.87-6.97c0-3.85,3.11-6.97,6.87-6.97h2.28c3.8,0,6.87,3.15,6.87,6.97
			C385.18,585.67,382.1,588.83,378.31,588.83z"/>
	</g>
</g>
</svg>
