<svg width="103" height="86" viewBox="0 0 103 86" fill="none" xmlns="http://www.w3.org/2000/svg">
<path d="M97.709 22.275C92.8896 14.5787 85.374 8.79978 77.0497 5.22266C63.151 -0.752762 46.7853 -1.70802 32.3473 2.91243C14.1213 8.75236 -3.75422 25.5743 0.687706 46.4409C3.44453 59.4147 13.0226 68.493 24.6229 73.8655C24.0162 75.9657 23.5579 78.1133 22.621 80.1051C21.4009 82.7067 19.5406 85.1185 16.7096 85.9992C21.6503 86.0805 26.3147 84.2581 30.9858 82.876C33.2977 82.1918 35.6367 81.4533 37.8206 80.41C38.6361 80.017 39.5731 79.4141 40.3684 78.7569C44.1498 79.4276 47.9311 79.7664 51.571 79.7664C61.4591 79.7664 71.4214 77.612 80.2379 73.0593C88.4612 68.8114 95.8284 62.3347 99.9198 53.8864C102.077 49.4354 103.068 44.6659 103 39.9031C102.913 33.7651 101.066 27.6407 97.709 22.275Z" fill="#A4988D"/>
</svg>
